<svg width="128" height="128" viewBox="0 0 128 128" fill="none" xmlns="http://www.w3.org/2000/svg">
<path fill-rule="evenodd" clip-rule="evenodd" d="M64 0.751468C29.0688 0.751468 0.751468 29.0688 0.751468 64C0.751468 98.9312 29.0688 127.249 64 127.249C98.9312 127.249 127.249 98.9312 127.249 64C127.249 29.0688 98.9312 0.751468 64 0.751468ZM0 64C0 28.6538 28.6538 0 64 0C99.3462 0 128 28.6538 128 64C128 99.3462 99.3462 128 64 128C28.6538 128 0 99.3462 0 64Z" fill="#2B2A29"/>
<path fill-rule="evenodd" clip-rule="evenodd" d="M35.2747 26.714C37.503 25.3283 39.0565 24.3877 42.2485 24H84.9833C87.9774 24.0197 90.4174 24.896 92.4036 26.4733L119.886 54.0932C121.561 56.1361 120.798 61.1313 117.275 61.376L71.6201 61.4447C70.8528 61.5139 70.0399 61.124 69.1808 60.2767L54.4436 45.5735C52.8323 43.3086 53.7191 38.5174 57.6385 38.1535L71.6889 38.1191C74.0477 38.1305 74.036 33.3667 71.6545 33.4127L44.1721 33.344C42.3008 33.4179 40.9129 34.2773 39.7748 35.5427L23.1823 52.2039L41.0116 52.1691L41.0742 41.7942C41.6356 36.8794 49.6601 36.9163 50.3816 41.7807L50.3882 57.6315C50.1922 59.6158 48.7425 61.304 46.508 61.376H10.6435C7.76017 61.0319 6.24392 57.0595 8.03263 53.9557L35.2747 26.714ZM82.9232 34.3753C83.3036 32.9896 84.1345 32.52 85.6028 33.3447L104.634 52.1699H74.5411C72.3716 52.1055 72.3705 47.5915 74.6098 47.3607H78.9896C81.1854 47.1099 82.6519 46.0083 82.9232 43.5131V34.3753Z" fill="#E31E24" stroke="#E31E24" stroke-width="0.755906" stroke-miterlimit="22.9256"/>
<path d="M11.4996 83.0688L14.5323 82.8788C14.598 83.3713 14.7316 83.7466 14.9334 84.0046C15.2617 84.4221 15.7308 84.6309 16.3406 84.6309C16.7957 84.6309 17.1451 84.5253 17.3891 84.3142C17.6377 84.0984 17.762 83.8498 17.762 83.5684C17.762 83.301 17.6447 83.0617 17.4102 82.8507C17.1756 82.6396 16.6315 82.4402 15.7777 82.2526C14.3798 81.9383 13.383 81.5208 12.7872 81.0001C12.1868 80.4794 11.8866 79.8156 11.8866 79.0088C11.8866 78.4787 12.039 77.9791 12.344 77.51C12.6536 77.0362 13.1156 76.6656 13.7301 76.3983C14.3493 76.1262 15.1961 75.9901 16.2703 75.9901C17.5884 75.9901 18.5923 76.2364 19.2819 76.729C19.9761 77.2168 20.3889 77.9955 20.5203 79.0651L17.5157 79.241C17.436 78.7766 17.2671 78.4388 17.0091 78.2277C16.7558 78.0166 16.404 77.9111 15.9536 77.9111C15.5831 77.9111 15.3039 77.9908 15.1163 78.1503C14.9287 78.3051 14.8348 78.4951 14.8348 78.7203C14.8348 78.8845 14.9122 79.0322 15.067 79.1636C15.2172 79.2996 15.5737 79.4263 16.1366 79.5435C17.5298 79.8438 18.5266 80.1487 19.1271 80.4583C19.7322 80.7632 20.1708 81.1432 20.4429 81.5982C20.7196 82.0532 20.858 82.5622 20.858 83.1251C20.858 83.7865 20.6751 84.3963 20.3092 84.9545C19.9433 85.5128 19.432 85.9373 18.7752 86.2281C18.1185 86.5143 17.2906 86.6574 16.2914 86.6574C14.537 86.6574 13.322 86.3196 12.6465 85.6441C11.971 84.9686 11.5887 84.1102 11.4996 83.0688ZM26.2409 76.1661H29.7802L31.863 79.6491L33.9458 76.1661H37.464L33.4532 82.1611V86.4814H30.2587V82.1611L26.2409 76.1661ZM42.7554 83.0688L45.788 82.8788C45.8537 83.3713 45.9874 83.7466 46.1891 84.0046C46.5175 84.4221 46.9866 84.6309 47.5964 84.6309C48.0514 84.6309 48.4009 84.5253 48.6448 84.3142C48.8935 84.0984 49.0178 83.8498 49.0178 83.5684C49.0178 83.301 48.9005 83.0617 48.6659 82.8507C48.4314 82.6396 47.8872 82.4402 47.0335 82.2526C45.6356 81.9383 44.6388 81.5208 44.043 81.0001C43.4426 80.4794 43.1424 79.8156 43.1424 79.0088C43.1424 78.4787 43.2948 77.9791 43.5997 77.51C43.9093 77.0362 44.3714 76.6656 44.9859 76.3983C45.6051 76.1262 46.4518 75.9901 47.526 75.9901C48.8442 75.9901 49.8481 76.2364 50.5376 76.729C51.2319 77.2168 51.6447 77.9955 51.776 79.0651L48.7715 79.241C48.6917 78.7766 48.5229 78.4388 48.2649 78.2277C48.0116 78.0166 47.6597 77.9111 47.2094 77.9111C46.8388 77.9111 46.5597 77.9908 46.3721 78.1503C46.1844 78.3051 46.0906 78.4951 46.0906 78.7203C46.0906 78.8845 46.168 79.0322 46.3228 79.1636C46.4729 79.2996 46.8294 79.4263 47.3924 79.5435C48.7856 79.8438 49.7824 80.1487 50.3828 80.4583C50.988 80.7632 51.4266 81.1432 51.6986 81.5982C51.9754 82.0532 52.1138 82.5622 52.1138 83.1251C52.1138 83.7865 51.9308 84.3963 51.5649 84.9545C51.1991 85.5128 50.6877 85.9373 50.031 86.2281C49.3743 86.5143 48.5463 86.6574 47.5472 86.6574C45.7927 86.6574 44.5778 86.3196 43.9023 85.6441C43.2268 84.9686 42.8445 84.1102 42.7554 83.0688ZM57.8133 76.1661H67.5024V78.7132H64.2516V86.4814H61.0641V78.7132H57.8133V76.1661ZM73.7578 76.1661H82.3V78.3685H76.9523V80.0079H81.913V82.1118H76.9523V84.1454H82.4548V86.4814H73.7578V76.1661ZM88.9565 76.1661H93.1502L94.7685 82.4425L96.3799 76.1661H100.56V86.4814H97.956V78.6147L95.9366 86.4814H93.5794L91.567 78.6147V86.4814H88.9565V76.1661ZM106.857 83.0688L109.89 82.8788C109.955 83.3713 110.089 83.7466 110.291 84.0046C110.619 84.4221 111.088 84.6309 111.698 84.6309C112.153 84.6309 112.503 84.5253 112.747 84.3142C112.995 84.0984 113.12 83.8498 113.12 83.5684C113.12 83.301 113.002 83.0617 112.768 82.8507C112.533 82.6396 111.989 82.4402 111.135 82.2526C109.737 81.9383 108.741 81.5208 108.145 81.0001C107.544 80.4794 107.244 79.8156 107.244 79.0088C107.244 78.4787 107.397 77.9791 107.701 77.51C108.011 77.0362 108.473 76.6656 109.088 76.3983C109.707 76.1262 110.554 75.9901 111.628 75.9901C112.946 75.9901 113.95 76.2364 114.639 76.729C115.334 77.2168 115.746 77.9955 115.878 79.0651L112.873 79.241C112.794 78.7766 112.625 78.4388 112.367 78.2277C112.113 78.0166 111.761 77.9111 111.311 77.9111C110.941 77.9111 110.661 77.9908 110.474 78.1503C110.286 78.3051 110.192 78.4951 110.192 78.7203C110.192 78.8845 110.27 79.0322 110.425 79.1636C110.575 79.2996 110.931 79.4263 111.494 79.5435C112.887 79.8438 113.884 80.1487 114.485 80.4583C115.09 80.7632 115.528 81.1432 115.8 81.5982C116.077 82.0532 116.216 82.5622 116.216 83.1251C116.216 83.7865 116.033 84.3963 115.667 84.9545C115.301 85.5128 114.79 85.9373 114.133 86.2281C113.476 86.5143 112.648 86.6574 111.649 86.6574C109.895 86.6574 108.68 86.3196 108.004 85.6441C107.329 84.9686 106.946 84.1102 106.857 83.0688Z" fill="#2B2A29"/>
</svg>
