<svg width="128" height="128" viewBox="0 0 128 128" fill="none" xmlns="http://www.w3.org/2000/svg">
<path fill-rule="evenodd" clip-rule="evenodd" d="M64 0.751468C29.0688 0.751468 0.751468 29.0688 0.751468 64C0.751468 98.9312 29.0688 127.249 64 127.249C98.9312 127.249 127.249 98.9312 127.249 64C127.249 29.0688 98.9312 0.751468 64 0.751468ZM0 64C0 28.6538 28.6538 0 64 0C99.3462 0 128 28.6538 128 64C128 99.3462 99.3462 128 64 128C28.6538 128 0 99.3462 0 64Z" fill="#2B2A29"/>
<path fill-rule="evenodd" clip-rule="evenodd" d="M35.4462 16.5135C37.6614 15.1359 39.2058 14.2008 42.379 13.8154H84.863C87.8395 13.8351 90.2652 14.7062 92.2397 16.2742L119.561 43.7319C121.226 45.7628 120.468 50.7288 116.965 50.972L71.5782 51.0404C70.8155 51.1091 70.0072 50.7215 69.1532 49.8791L54.5025 35.2623C52.9007 33.0107 53.7823 28.2476 57.6787 27.8858L71.6466 27.8517C73.9916 27.8629 73.9799 23.1271 71.6124 23.1729L44.2914 23.1046C42.431 23.178 41.0513 24.0324 39.9199 25.2903L23.4248 41.8537L41.1495 41.8192L41.2116 31.5052C41.7697 26.6192 49.7471 26.6559 50.4644 31.4917L50.471 47.2494C50.2761 49.2222 48.8349 50.9004 46.6135 50.972H10.9596C8.09319 50.6299 6.58584 46.6808 8.36404 43.5952L35.4462 16.5135ZM82.815 24.1298C83.1931 22.7523 84.0191 22.2855 85.4788 23.1053L104.399 41.8199H74.482C72.3253 41.7559 72.3243 37.2684 74.5504 37.039H78.9045C81.0873 36.7896 82.5452 35.6945 82.815 33.2139V24.1298Z" fill="#E31E24" stroke="#E31E24" stroke-width="0.755906" stroke-miterlimit="22.9256"/>
<path d="M11.4996 61.5873L14.5323 61.3974C14.598 61.8899 14.7316 62.2652 14.9334 62.5232C15.2617 62.9407 15.7308 63.1494 16.3406 63.1494C16.7957 63.1494 17.1451 63.0439 17.3891 62.8328C17.6377 62.617 17.762 62.3684 17.762 62.0869C17.762 61.8195 17.6447 61.5803 17.4102 61.3692C17.1756 61.1581 16.6315 60.9588 15.7777 60.7711C14.3798 60.4568 13.383 60.0393 12.7872 59.5186C12.1868 58.9979 11.8866 58.3342 11.8866 57.5273C11.8866 56.9972 12.039 56.4977 12.344 56.0286C12.6536 55.5548 13.1156 55.1842 13.7301 54.9168C14.3493 54.6447 15.1961 54.5087 16.2703 54.5087C17.5884 54.5087 18.5923 54.755 19.2819 55.2475C19.9761 55.7354 20.3889 56.5141 20.5203 57.5836L17.5157 57.7595C17.436 57.2951 17.2671 56.9574 17.0091 56.7463C16.7558 56.5352 16.404 56.4296 15.9536 56.4296C15.5831 56.4296 15.3039 56.5094 15.1163 56.6689C14.9287 56.8237 14.8348 57.0137 14.8348 57.2388C14.8348 57.403 14.9122 57.5508 15.067 57.6821C15.2172 57.8182 15.5737 57.9448 16.1366 58.0621C17.5298 58.3623 18.5266 58.6672 19.1271 58.9768C19.7322 59.2817 20.1708 59.6617 20.4429 60.1167C20.7196 60.5717 20.858 61.0807 20.858 61.6436C20.858 62.3051 20.6751 62.9149 20.3092 63.4731C19.9433 64.0313 19.432 64.4559 18.7752 64.7467C18.1185 65.0328 17.2906 65.1759 16.2914 65.1759C14.537 65.1759 13.322 64.8382 12.6465 64.1627C11.971 63.4872 11.5887 62.6287 11.4996 61.5873ZM26.2409 54.6846H29.7802L31.863 58.1676L33.9458 54.6846H37.464L33.4532 60.6796V65H30.2587V60.6796L26.2409 54.6846ZM42.7554 61.5873L45.788 61.3974C45.8537 61.8899 45.9874 62.2652 46.1891 62.5232C46.5175 62.9407 46.9866 63.1494 47.5964 63.1494C48.0514 63.1494 48.4009 63.0439 48.6448 62.8328C48.8935 62.617 49.0178 62.3684 49.0178 62.0869C49.0178 61.8195 48.9005 61.5803 48.6659 61.3692C48.4314 61.1581 47.8872 60.9588 47.0335 60.7711C45.6356 60.4568 44.6388 60.0393 44.043 59.5186C43.4426 58.9979 43.1424 58.3342 43.1424 57.5273C43.1424 56.9972 43.2948 56.4977 43.5997 56.0286C43.9093 55.5548 44.3714 55.1842 44.9859 54.9168C45.6051 54.6447 46.4518 54.5087 47.526 54.5087C48.8442 54.5087 49.8481 54.755 50.5376 55.2475C51.2319 55.7354 51.6447 56.5141 51.776 57.5836L48.7715 57.7595C48.6917 57.2951 48.5229 56.9574 48.2649 56.7463C48.0116 56.5352 47.6597 56.4296 47.2094 56.4296C46.8388 56.4296 46.5597 56.5094 46.3721 56.6689C46.1844 56.8237 46.0906 57.0137 46.0906 57.2388C46.0906 57.403 46.168 57.5508 46.3228 57.6821C46.4729 57.8182 46.8294 57.9448 47.3924 58.0621C48.7856 58.3623 49.7824 58.6672 50.3828 58.9768C50.988 59.2817 51.4266 59.6617 51.6986 60.1167C51.9754 60.5717 52.1138 61.0807 52.1138 61.6436C52.1138 62.3051 51.9308 62.9149 51.5649 63.4731C51.1991 64.0313 50.6877 64.4559 50.031 64.7467C49.3743 65.0328 48.5463 65.1759 47.5472 65.1759C45.7927 65.1759 44.5778 64.8382 43.9023 64.1627C43.2268 63.4872 42.8445 62.6287 42.7554 61.5873ZM57.8133 54.6846H67.5024V57.2318H64.2516V65H61.0641V57.2318H57.8133V54.6846ZM73.7578 54.6846H82.3V56.887H76.9523V58.5265H81.913V60.6304H76.9523V62.6639H82.4548V65H73.7578V54.6846ZM88.9565 54.6846H93.1502L94.7685 60.9611L96.3799 54.6846H100.56V65H97.956V57.1333L95.9366 65H93.5794L91.567 57.1333V65H88.9565V54.6846ZM106.857 61.5873L109.89 61.3974C109.955 61.8899 110.089 62.2652 110.291 62.5232C110.619 62.9407 111.088 63.1494 111.698 63.1494C112.153 63.1494 112.503 63.0439 112.747 62.8328C112.995 62.617 113.12 62.3684 113.12 62.0869C113.12 61.8195 113.002 61.5803 112.768 61.3692C112.533 61.1581 111.989 60.9588 111.135 60.7711C109.737 60.4568 108.741 60.0393 108.145 59.5186C107.544 58.9979 107.244 58.3342 107.244 57.5273C107.244 56.9972 107.397 56.4977 107.701 56.0286C108.011 55.5548 108.473 55.1842 109.088 54.9168C109.707 54.6447 110.554 54.5087 111.628 54.5087C112.946 54.5087 113.95 54.755 114.639 55.2475C115.334 55.7354 115.746 56.5141 115.878 57.5836L112.873 57.7595C112.794 57.2951 112.625 56.9574 112.367 56.7463C112.113 56.5352 111.761 56.4296 111.311 56.4296C110.941 56.4296 110.661 56.5094 110.474 56.6689C110.286 56.8237 110.192 57.0137 110.192 57.2388C110.192 57.403 110.27 57.5508 110.425 57.6821C110.575 57.8182 110.931 57.9448 111.494 58.0621C112.887 58.3623 113.884 58.6672 114.485 58.9768C115.09 59.2817 115.528 59.6617 115.8 60.1167C116.077 60.5717 116.216 61.0807 116.216 61.6436C116.216 62.3051 116.033 62.9149 115.667 63.4731C115.301 64.0313 114.79 64.4559 114.133 64.7467C113.476 65.0328 112.648 65.1759 111.649 65.1759C109.895 65.1759 108.68 64.8382 108.004 64.1627C107.329 63.4872 106.946 62.6287 106.857 61.5873Z" fill="#2B2A29"/>
<path fill-rule="evenodd" clip-rule="evenodd" d="M21.1291 85.6023C20.675 85.6023 20.359 85.5285 20.1867 85.3812C20.0114 85.2343 19.9395 84.9573 19.9678 84.5519C19.9787 84.3912 20.0234 84.152 20.1023 83.8386C20.182 83.5252 20.2652 83.2449 20.3543 83.0002L21.4446 79.9466C21.5501 79.6656 21.6304 79.3587 21.6853 79.0228C21.7398 78.688 21.7726 78.4531 21.782 78.32C21.8267 77.6772 21.633 77.1544 21.2032 76.7523C20.7717 76.3513 20.1325 76.1484 19.2858 76.1484C18.8168 76.1484 18.3129 76.2306 17.7741 76.3968C17.2356 76.5607 16.6692 76.7592 16.0762 76.9905L15.7773 77.9336C15.9511 77.8699 16.1616 77.8052 16.4041 77.7332C16.6488 77.6638 16.8851 77.6307 17.112 77.6307C17.5766 77.6307 17.8831 77.7056 18.038 77.8598C18.1903 78.0135 18.2536 78.2869 18.2263 78.6767C18.2111 78.8952 18.1689 79.1355 18.0969 79.3976C18.0256 79.6576 17.9388 79.9364 17.841 80.2306L16.7452 83.2929C16.6448 83.6154 16.5681 83.9026 16.5143 84.1575C16.4619 84.4127 16.427 84.6635 16.4099 84.9082C16.3656 85.5386 16.5645 86.0567 17.0084 86.4657C17.4527 86.8748 18.102 87.0798 18.9546 87.0798C19.5094 87.0798 20.002 87.0082 20.4314 86.8646C20.8622 86.7213 21.437 86.5137 22.1605 86.2403L22.4615 85.298C22.335 85.3536 22.1358 85.4187 21.862 85.4917C21.5857 85.5648 21.3432 85.6023 21.1291 85.6023Z" fill="#E31E24"/>
<path fill-rule="evenodd" clip-rule="evenodd" d="M23.062 71.1265C22.681 70.748 22.2004 70.5601 21.6248 70.5601C21.0504 70.5601 20.5414 70.748 20.1026 71.1265C19.6674 71.5035 19.4267 71.9591 19.3896 72.4891C19.3525 73.02 19.5281 73.4744 19.9121 73.8482C20.2982 74.2219 20.7814 74.4088 21.3558 74.4088C21.9313 74.4088 22.4367 74.2219 22.8719 73.8482C23.3067 73.4744 23.5437 73.021 23.5808 72.4891C23.6179 71.9591 23.4445 71.5035 23.062 71.1265Z" fill="#E31E24"/>
<path fill-rule="evenodd" clip-rule="evenodd" d="M101.776 79.5629C101.771 79.6712 101.762 79.7781 101.749 79.8832C101.749 79.8846 101.749 79.8865 101.749 79.8876C101.664 80.6143 101.416 81.2655 101.002 81.8381C100.919 81.9519 100.831 82.0595 100.737 82.1638C100.725 82.1777 100.711 82.1915 100.698 82.2053C100.606 82.3056 100.51 82.402 100.409 82.494L100.408 82.4943C99.9643 82.8939 99.4281 83.2138 98.7936 83.4491L99.0776 83.9355L99.6688 84.9491L100.646 86.6248H96.7682L95.4143 84.2584L95.2372 83.9482L95.2012 83.8853H94.2832L94.1516 84.5358L94.1062 84.7619L93.7295 86.6248H89.9942L90.3851 84.7026L90.3887 84.6866L90.8741 82.2995L90.9151 82.097L91.2623 80.3896L91.4521 79.4553L91.8099 77.6974L91.831 77.5924L92.2098 75.7283H93.2492H93.3434H95.1765H95.3423H97.0951H97.1794C97.9193 75.7283 98.5744 75.8105 99.147 75.9727C99.1678 75.9785 99.1874 75.9861 99.2081 75.9927C99.7356 76.149 100.192 76.3733 100.574 76.6704C100.847 76.8827 101.07 77.1259 101.251 77.3957C101.255 77.4015 101.259 77.4069 101.263 77.4124C101.312 77.488 101.357 77.5662 101.399 77.6458C101.404 77.6545 101.409 77.6633 101.413 77.6716C101.456 77.7549 101.496 77.8399 101.531 77.9276C101.698 78.3369 101.785 78.7958 101.785 79.3088C101.785 79.3949 101.78 79.4785 101.776 79.5629ZM8.49772 91.8191H8.52644C9.0169 91.8147 9.43645 91.5232 9.6226 91.1076C9.80911 91.5232 10.229 91.8147 10.7191 91.8191H10.7424C11.2328 91.8147 11.6524 91.5232 11.8389 91.1076C12.0251 91.5232 12.445 91.8147 12.9354 91.8191H12.9583C13.4488 91.8147 13.8687 91.5232 14.0548 91.1076C14.241 91.5232 14.6609 91.8147 15.151 91.8191H15.1743C15.6647 91.8147 16.0846 91.5232 16.2708 91.1076C16.4569 91.5232 16.8769 91.8147 17.3673 91.8191H17.3906C17.8807 91.8147 18.3006 91.5232 18.4867 91.1076C18.6732 91.5232 19.0928 91.8147 19.5833 91.8191H19.6065C20.097 91.8147 20.5165 91.5232 20.703 91.1076C20.8892 91.5232 21.3091 91.8147 21.7992 91.8191H21.8225C22.3129 91.8147 22.7325 91.5232 22.919 91.1076C23.1051 91.5232 23.525 91.8147 24.0151 91.8191H24.0384C24.5289 91.8147 24.9488 91.5232 25.1349 91.1076C25.3211 91.5232 25.741 91.8147 26.2311 91.8191H26.2543C26.7448 91.8147 27.1647 91.5232 27.3509 91.1076C27.537 91.5232 27.9569 91.8147 28.4474 91.8191H28.4707C28.9607 91.8147 29.3807 91.5232 29.5668 91.1076C29.753 91.5232 30.1729 91.8147 30.6633 91.8191H30.6866C31.1767 91.8147 31.5966 91.5232 31.7831 91.1076C31.9689 91.5232 32.3888 91.8147 32.8793 91.8191H32.9025C33.3926 91.8147 33.8125 91.5232 33.9991 91.1076C34.1852 91.5232 34.6051 91.8147 35.0952 91.8191H35.1185C35.6086 91.8147 36.0288 91.5232 36.215 91.1076C36.4011 91.5232 36.8211 91.8147 37.3112 91.8191H37.3344C37.8249 91.8147 38.2448 91.5232 38.4309 91.1076C38.6174 91.5232 39.037 91.8147 39.5275 91.8191H39.5504C40.0408 91.8147 40.4607 91.5232 40.6469 91.1076C40.833 91.5232 41.2529 91.8147 41.7434 91.8191H41.7667C42.2568 91.8147 42.6767 91.5232 42.8628 91.1076C43.049 91.5232 43.4689 91.8147 43.9593 91.8191H43.9826C44.4727 91.8147 44.8926 91.5232 45.0788 91.1076C45.2653 91.5232 45.6848 91.8147 46.1753 91.8191H46.1986C46.6886 91.8147 47.1089 91.5232 47.2951 91.1076C47.4812 91.5232 47.9011 91.8147 48.3916 91.8191H48.4145C48.9049 91.8147 49.3249 91.5232 49.511 91.1076C49.6975 91.5232 50.1171 91.8147 50.6075 91.8191H50.6308C51.1209 91.8147 51.5408 91.5232 51.727 91.1076C51.9131 91.5232 52.333 91.8147 52.8235 91.8191H52.8467C53.3368 91.8147 53.7568 91.5232 53.9429 91.1076C54.129 91.5232 54.549 91.8147 55.0391 91.8191H55.0623C55.5528 91.8147 55.9731 91.5232 56.1592 91.1076C56.345 91.5232 56.7653 91.8147 57.2557 91.8191H57.2786C57.7687 91.8147 58.189 91.5232 58.3751 91.1076C58.5613 91.5232 58.9812 91.8147 59.4713 91.8191H59.4946C59.985 91.8147 60.4049 91.5232 60.5911 91.1076C60.7772 91.5232 61.1972 91.8147 61.6876 91.8191H61.7109C62.201 91.8147 62.6209 91.5232 62.807 91.1076C62.9932 91.5232 63.4131 91.8147 63.9032 91.8191H63.9265C64.4169 91.8147 64.8368 91.5232 65.023 91.1076C65.2091 91.5232 65.629 91.8147 66.1195 91.8191H66.1424C66.6328 91.8147 67.0531 91.5232 67.2393 91.1076C67.4251 91.5232 67.8453 91.8147 68.3354 91.8191H68.3583C68.8488 91.8147 69.2687 91.5232 69.4552 91.1076C69.6414 91.5232 70.0613 91.8147 70.5517 91.8191H70.5746C71.0647 91.8147 71.485 91.5232 71.6712 91.1076C71.8573 91.5232 72.2772 91.8147 72.7677 91.8191H72.7909C73.293 91.8144 73.7217 91.5086 73.9002 91.0767C74.0794 91.5086 74.5081 91.8144 75.0098 91.8191H75.0334C75.5359 91.8144 75.9645 91.5086 76.143 91.0767C76.3219 91.5086 76.7502 91.8144 77.2526 91.8191H77.2763C77.7784 91.8144 78.207 91.5086 78.3859 91.0767C78.5644 91.5086 78.993 91.8144 79.4951 91.8191H79.5188C80.0212 91.8144 80.4499 91.5086 80.6287 91.0767C80.8072 91.5086 81.2355 91.8144 81.738 91.8191H81.7616C82.2641 91.8144 82.6927 91.5086 82.8712 91.0767C83.0501 91.5086 83.4787 91.8144 83.9805 91.8191H84.0045C84.5065 91.8144 84.9355 91.5086 85.1141 91.0767C85.2929 91.5086 85.7212 91.8144 86.2237 91.8191H86.2462C86.7043 91.8151 87.1009 91.5613 87.3035 91.1894C87.5056 91.5613 87.9026 91.8151 88.3604 91.8191H88.3811C88.7974 91.8158 89.1635 91.6061 89.3787 91.2883C89.5917 91.581 89.9393 91.7718 90.3334 91.7718C90.761 91.7718 91.134 91.5468 91.3398 91.2109C91.5426 91.5192 91.8942 91.7246 92.2956 91.7246C92.7337 91.7246 93.1093 91.4788 93.2998 91.1225C93.4899 91.4523 93.8448 91.677 94.2574 91.677C94.7053 91.677 95.0889 91.4141 95.2623 91.0378C95.4357 91.3868 95.7971 91.6297 96.2199 91.6297C96.6828 91.6297 97.0729 91.3388 97.2212 90.9349C97.3714 91.313 97.7433 91.5824 98.1821 91.5824C98.6686 91.5824 99.074 91.2505 99.1834 90.8051C99.2961 91.2243 99.6818 91.5352 100.144 91.5352C100.694 91.5352 101.141 91.0967 101.141 90.5564C101.141 90.0158 100.694 89.5777 100.144 89.5777C99.6771 89.5777 99.2881 89.894 99.1794 90.3194C99.066 89.8806 98.6642 89.5544 98.1821 89.5544C97.7389 89.5544 97.3641 89.8293 97.2176 90.214C97.0656 89.8155 96.678 89.5308 96.2199 89.5308C95.7924 89.5308 95.4263 89.7788 95.2558 90.1351C95.0798 89.7649 94.7002 89.5075 94.2574 89.5075C93.84 89.5075 93.4812 89.738 93.2936 90.0736C93.1005 89.7242 92.7286 89.4843 92.2956 89.4843C91.8891 89.4843 91.5343 89.6948 91.3325 90.01C91.1256 89.6806 90.7563 89.4606 90.3334 89.4606C89.9346 89.4606 89.5827 89.6562 89.37 89.9555C89.1515 89.6428 88.7861 89.437 88.3713 89.437C87.9088 89.437 87.5074 89.6922 87.3035 90.0671C87.0991 89.6922 86.6978 89.437 86.2353 89.437C85.7278 89.437 85.2944 89.7442 85.1141 90.1798C84.9341 89.7442 84.5 89.437 83.9925 89.437C83.4853 89.437 83.0512 89.7442 82.8712 90.1798C82.6913 89.7442 82.2575 89.437 81.75 89.437C81.2424 89.437 80.8087 89.7442 80.6287 90.1798C80.4484 89.7442 80.0147 89.437 79.5071 89.437C78.9999 89.437 78.5659 89.7442 78.3859 90.1798C78.2056 89.7442 77.7718 89.437 77.2646 89.437C76.7571 89.437 76.3234 89.7442 76.143 90.1798C75.9631 89.7442 75.529 89.437 75.0214 89.437C74.5146 89.437 74.0809 89.7442 73.9002 90.1798C73.7202 89.7442 73.2861 89.437 72.7793 89.437C72.2838 89.437 71.8588 89.7301 71.6712 90.1489C71.4836 89.7301 71.0582 89.437 70.5634 89.437C70.0678 89.437 69.6428 89.7301 69.4552 90.1489C69.2673 89.7301 68.8422 89.437 68.3471 89.437C67.8519 89.437 67.4265 89.7301 67.2393 90.1489C67.0517 89.7301 66.6263 89.437 66.1311 89.437C65.6359 89.437 65.2106 89.7301 65.023 90.1489C64.8357 89.7301 64.4104 89.437 63.9148 89.437C63.42 89.437 62.9946 89.7301 62.807 90.1489C62.6194 89.7301 62.1944 89.437 61.6992 89.437C61.2037 89.437 60.7787 89.7301 60.5911 90.1489C60.4035 89.7301 59.9785 89.437 59.4829 89.437C58.9878 89.437 58.5627 89.7301 58.3751 90.1489C58.1875 89.7301 57.7622 89.437 57.2674 89.437C56.7718 89.437 56.3464 89.7301 56.1592 90.1489C55.9716 89.7301 55.5462 89.437 55.0507 89.437C54.5559 89.437 54.1305 89.7301 53.9429 90.1489C53.7557 89.7301 53.3303 89.437 52.8351 89.437C52.3399 89.437 51.9146 89.7301 51.727 90.1489C51.5394 89.7301 51.1143 89.437 50.6192 89.437C50.1236 89.437 49.699 89.7301 49.511 90.1489C49.3234 89.7301 48.898 89.437 48.4032 89.437C47.9077 89.437 47.4823 89.7301 47.2951 90.1489C47.1075 89.7301 46.6821 89.437 46.1869 89.437C45.6917 89.437 45.2667 89.7301 45.0788 90.1489C44.8915 89.7301 44.4662 89.437 43.971 89.437C43.4758 89.437 43.0504 89.7301 42.8628 90.1489C42.6752 89.7301 42.2502 89.437 41.755 89.437C41.2599 89.437 40.8345 89.7301 40.6469 90.1489C40.4593 89.7301 40.0343 89.437 39.5391 89.437C39.0435 89.437 38.6185 89.7301 38.4309 90.1489C38.2433 89.7301 37.8183 89.437 37.3228 89.437C36.8276 89.437 36.4026 89.7301 36.215 90.1489C36.0274 89.7301 35.602 89.437 35.1068 89.437C34.6117 89.437 34.1867 89.7301 33.9991 90.1489C33.8115 89.7301 33.3861 89.437 32.8909 89.437C32.3957 89.437 31.9703 89.7301 31.7831 90.1489C31.5955 89.7301 31.1701 89.437 30.675 89.437C30.1798 89.437 29.7544 89.7301 29.5668 90.1489C29.3792 89.7301 28.9542 89.437 28.459 89.437C27.9635 89.437 27.5385 89.7301 27.3509 90.1489C27.1633 89.7301 26.7383 89.437 26.2427 89.437C25.7475 89.437 25.3225 89.7301 25.1349 90.1489C24.9473 89.7301 24.5223 89.437 24.0268 89.437C23.5316 89.437 23.1066 89.7301 22.919 90.1489C22.7314 89.7301 22.306 89.437 21.8108 89.437C21.3156 89.437 20.8906 89.7301 20.703 90.1489C20.5154 89.7301 20.0901 89.437 19.5949 89.437C19.0997 89.437 18.6743 89.7301 18.4867 90.1489C18.2991 89.7301 17.8741 89.437 17.3789 89.437C16.8838 89.437 16.4584 89.7301 16.2708 90.1489C16.0832 89.7301 15.6582 89.437 15.1626 89.437C14.6678 89.437 14.2424 89.7301 14.0548 90.1489C13.8672 89.7301 13.4422 89.437 12.9471 89.437C12.4515 89.437 12.0265 89.7301 11.8389 90.1489C11.6513 89.7301 11.2259 89.437 10.7308 89.437C10.2356 89.437 9.8102 89.7301 9.6226 90.1489C9.435 89.7301 9.00999 89.437 8.51481 89.437C8.33048 89.437 8.15597 89.4777 8 89.5505V91.706C8.15124 91.7762 8.31958 91.8166 8.49772 91.8191ZM99.1797 87.9446C99.0987 87.6308 98.8693 87.3767 98.5693 87.256H99.8247C99.5073 87.3625 99.2626 87.6217 99.1797 87.9446ZM97.2176 87.8377C97.1143 87.5657 96.8994 87.3494 96.629 87.2374C96.674 87.248 96.7202 87.256 96.7682 87.256H97.7949C97.5295 87.3629 97.319 87.573 97.2176 87.8377ZM94.7384 84.8615L94.8082 84.5165H94.8275L95.2888 85.3229C95.2783 85.3422 95.2659 85.3603 95.2565 85.38C95.1489 85.1542 94.9653 84.9709 94.7384 84.8615ZM96.2199 87.1538C95.7927 87.1538 95.427 87.4018 95.2561 87.7577C95.0802 87.3872 94.7006 87.1295 94.2574 87.1295C94.2011 87.1295 94.1458 87.1342 94.0916 87.1425C94.1756 87.0855 94.2447 87.0091 94.293 86.9186C94.725 86.9048 95.0925 86.6481 95.2616 86.2827C95.4281 86.6205 95.772 86.8564 96.1752 86.8731L96.2108 86.9349C96.2788 87.0535 96.3843 87.1404 96.5053 87.1949C96.4145 87.1698 96.3192 87.1538 96.2199 87.1538ZM93.294 87.6952C93.1929 87.5119 93.0424 87.3603 92.8606 87.256H93.7295C93.7371 87.256 93.7444 87.2545 93.7524 87.2542C93.5594 87.3538 93.399 87.5068 93.294 87.6952ZM91.3332 87.6301C91.2376 87.4778 91.106 87.3505 90.9522 87.256H91.7273C91.5674 87.3476 91.4318 87.4763 91.3332 87.6301ZM89.3707 87.5741C89.1522 87.2611 88.7864 87.0553 88.3713 87.0553C87.9088 87.0553 87.5074 87.3105 87.3035 87.685C87.2086 87.5112 87.0701 87.365 86.9039 87.256H86.921C87.2249 87.256 87.4871 87.0447 87.5478 86.7503L87.5507 86.7361C87.7663 86.9331 88.0539 87.0553 88.3713 87.0553C88.7821 87.0553 89.1442 86.8531 89.3631 86.5452C89.3413 86.7164 89.3878 86.8899 89.4994 87.0251C89.5739 87.1145 89.6725 87.1778 89.7812 87.216C89.6172 87.3018 89.4761 87.425 89.3707 87.5741ZM77.7097 86.6248L78.0485 84.9604L78.1376 84.5209L78.475 82.863L78.5357 82.5623L79.0708 79.9308L79.0905 79.8338L79.5588 77.5302L79.5606 77.5236L79.9256 75.7283H80.5477H80.7094H82.7901H82.9523H85.0333H85.1951H87.2736H87.3329H88.9308L88.5643 77.5106L88.5578 77.5429L88.3611 78.4991H83.0275L82.8883 79.2008L82.7745 79.7756H83.4384H84.5469H85.6812H86.7872H87.4587L87.3038 80.5383L86.921 82.4216H86.781H85.6874H84.5411H83.4442H82.2982H82.2201L81.9354 83.8541H87.4903L87.4169 84.2115L87.3355 84.6074L86.921 86.6248H77.7097ZM85.1141 87.7977C85.0221 87.5759 84.8636 87.3876 84.6636 87.256H85.5649C85.3646 87.3876 85.206 87.5759 85.1141 87.7977ZM82.8712 87.7977C82.7792 87.5759 82.6207 87.3876 82.4208 87.256H83.322C83.1217 87.3876 82.9632 87.5759 82.8712 87.7977ZM80.6287 87.7977C80.5368 87.5759 80.3782 87.3876 80.1779 87.256H81.0788C80.8792 87.3876 80.7204 87.5759 80.6287 87.7977ZM78.3859 87.7977C78.2939 87.5759 78.1354 87.3876 77.9351 87.256H78.8363C78.636 87.3876 78.4779 87.5759 78.3859 87.7977ZM77.4511 84.6874C77.3901 84.6779 77.3279 84.6736 77.2646 84.6736C76.9105 84.6736 76.5942 84.8252 76.3732 85.0637L76.5081 84.4074C76.7153 84.5725 76.9771 84.6736 77.2646 84.6736C77.3304 84.6736 77.3944 84.6677 77.457 84.6576L77.4511 84.6874ZM76.143 87.7977C76.0409 87.5508 75.8555 87.3476 75.6224 87.216C75.8249 87.1414 75.9812 86.9688 76.0263 86.7503L76.098 86.4034C76.1129 86.3732 76.1299 86.3441 76.143 86.3125C76.3212 86.7423 76.7462 87.0458 77.2454 87.0538C77.2461 87.0549 77.2468 87.0553 77.2476 87.0564C76.748 87.0633 76.3215 87.3672 76.143 87.7977ZM66.663 86.6248L67.4676 82.6688L67.597 82.0311L68.0188 79.9555L68.0199 79.9515L68.5103 77.5393L68.5154 77.5153L68.8786 75.7283H69.3858H69.5243H71.6021H71.7402H72.6135L71.3192 82.1202L71.2425 82.498L70.9837 83.7759H75.9849L75.7871 84.7397L75.7504 84.9168L75.3992 86.6248H66.663ZM73.9002 87.7977C73.8086 87.5759 73.6497 87.3876 73.4497 87.256H74.351C74.151 87.3876 73.9925 87.5759 73.9002 87.7977ZM71.6712 87.7668C71.5777 87.5585 71.4254 87.3814 71.2352 87.256H72.1071C71.9169 87.3814 71.7646 87.5585 71.6712 87.7668ZM69.4552 87.7668C69.3621 87.5585 69.2094 87.3814 69.0193 87.256H69.8911C69.7006 87.3814 69.5483 87.5585 69.4552 87.7668ZM67.2393 87.7668C67.1458 87.5585 66.9935 87.3814 66.803 87.256H67.6752C67.4847 87.3814 67.3324 87.5585 67.2393 87.7668ZM66.4009 84.7063C66.3133 84.6866 66.2242 84.6736 66.1311 84.6736C65.6359 84.6736 65.2106 84.9662 65.023 85.3851C64.9888 85.3083 64.9441 85.2382 64.895 85.1709L64.7052 84.3831C64.8401 84.2678 64.9503 84.1249 65.023 83.9617C65.2106 84.3805 65.6359 84.6736 66.1311 84.6736C66.2289 84.6736 66.3231 84.659 66.4147 84.6372L66.4009 84.7063ZM66.1311 87.0553C65.6359 87.0553 65.2106 87.348 65.023 87.7668C64.9295 87.5585 64.7772 87.3814 64.5871 87.256H64.5878C64.7837 87.256 64.9688 87.1676 65.0899 87.016C65.1746 86.9106 65.2189 86.7819 65.2244 86.6506C65.4462 86.8979 65.7694 87.0553 66.1311 87.0553C66.1529 87.0553 66.1733 87.0517 66.1951 87.0506C66.198 87.0542 66.202 87.0571 66.2057 87.0607C66.1806 87.0589 66.1562 87.0553 66.1311 87.0553ZM60.8689 86.6248L60.5046 84.7255H59.8389H59.1274H57.6229H56.9114H56.2792L56.0247 85.1618L55.1714 86.6248H51.2303L52.4545 84.735L52.5221 84.6307L53.7618 82.7172L54.2381 81.9817L58.289 75.7283H58.3057H58.4442H60.5216H60.6602H61.9606L62.3493 77.3397L62.4591 77.7952L62.8005 79.2106V79.2102L63.0154 80.1032L63.5276 82.2271L63.5563 82.3449L64.1133 84.6565L64.1221 84.6925L64.5878 86.6248H60.8689ZM62.807 87.7668C62.7136 87.5585 62.5613 87.3814 62.3711 87.256H63.2429C63.0528 87.3814 62.9005 87.5585 62.807 87.7668ZM58.3599 85.3567H58.3901C58.3853 85.3665 58.3795 85.3752 58.3751 85.3851C58.3708 85.3752 58.3646 85.3665 58.3599 85.3567ZM60.5911 87.7668C60.4035 87.348 59.9785 87.0553 59.4829 87.0553C58.9878 87.0553 58.5627 87.348 58.3751 87.7668C58.1875 87.348 57.7622 87.0553 57.2674 87.0553C56.7718 87.0553 56.3464 87.348 56.1592 87.7668C56.0345 87.4887 55.804 87.2683 55.5186 87.1502C55.6022 87.0971 55.6742 87.0273 55.7258 86.9397L55.8171 86.783C55.9632 86.6648 56.0821 86.5157 56.1592 86.3434C56.3464 86.7622 56.7718 87.0553 57.2674 87.0553C57.7622 87.0553 58.1875 86.7622 58.3751 86.3434C58.5627 86.7622 58.9878 87.0553 59.4829 87.0553C59.7756 87.0553 60.0421 86.9513 60.2515 86.7815C60.3235 87.0586 60.5751 87.256 60.8689 87.256H61.027C60.8369 87.3814 60.6845 87.5585 60.5911 87.7668ZM53.9429 87.7668C53.8495 87.5585 53.6971 87.3814 53.507 87.256H54.3788C54.1887 87.3814 54.0363 87.5585 53.9429 87.7668ZM51.727 87.7668C51.6335 87.5585 51.4812 87.3814 51.291 87.256H52.1629C51.9727 87.3814 51.8204 87.5585 51.727 87.7668ZM50.6192 87.0553C50.1236 87.0553 49.699 87.348 49.511 87.7668C49.4179 87.5585 49.2652 87.3814 49.0751 87.256H49.2856C49.567 87.256 49.8106 87.0738 49.8935 86.8135C50.0956 86.964 50.3458 87.0553 50.6192 87.0553C50.6657 87.0553 50.7115 87.0502 50.757 87.0451C50.7631 87.0516 50.7679 87.06 50.774 87.0666C50.7231 87.0604 50.6719 87.0553 50.6192 87.0553ZM40.0743 86.6248L42.2902 75.7283H42.7937H42.9323H45.0097H45.1482H47.2256H47.3641H49.4416H49.5801H51.2958L50.7257 78.4991H45.3922L45.2104 79.4164L45.1391 79.7756H45.6343H46.7399H47.8502H48.9558H49.8237L49.2856 82.4216H48.95H47.8561H46.7341H45.6398H44.585L44.5785 82.4554L44.3 83.8541H49.8549L49.7601 84.3169L49.5586 85.2963L49.2856 86.6248H40.0743ZM47.2951 87.7668C47.2016 87.5585 47.0493 87.3814 46.8588 87.256H47.731C47.5405 87.3814 47.3885 87.5585 47.2951 87.7668ZM45.0788 87.7668C44.9857 87.5585 44.8334 87.3814 44.6428 87.256H45.515C45.3245 87.3814 45.1722 87.5585 45.0788 87.7668ZM42.8628 87.7668C42.7694 87.5585 42.6171 87.3814 42.4269 87.256H43.2991C43.1086 87.3814 42.9563 87.5585 42.8628 87.7668ZM40.6469 87.7668C40.5534 87.5585 40.4015 87.3814 40.211 87.256H41.0828C40.8927 87.3814 40.7403 87.5585 40.6469 87.7668ZM39.8121 84.707C39.7238 84.687 39.6333 84.6736 39.5391 84.6736C39.0435 84.6736 38.6185 84.9662 38.4309 85.3851C38.3579 85.2215 38.2477 85.0786 38.1128 84.9637C38.2764 84.6874 38.4059 84.3958 38.4993 84.0889C38.7102 84.438 39.0959 84.6736 39.5391 84.6736C39.6387 84.6736 39.734 84.6586 39.8263 84.6365L39.8121 84.707ZM39.5391 87.0553C39.0435 87.0553 38.6185 87.348 38.4309 87.7668C38.2433 87.348 37.8183 87.0553 37.3228 87.0553C36.8276 87.0553 36.4026 87.348 36.215 87.7668C36.0528 87.4047 35.7129 87.1378 35.3035 87.0716C35.4217 87.032 35.5449 86.9982 35.658 86.9531C35.9143 86.851 36.1543 86.735 36.3804 86.6085C36.6022 86.88 36.941 87.0553 37.3228 87.0553C37.8183 87.0553 38.2433 86.7622 38.4309 86.3434C38.6185 86.7622 39.0435 87.0553 39.5391 87.0553C39.562 87.0553 39.5838 87.0517 39.606 87.0502C39.6096 87.0542 39.6136 87.0575 39.6173 87.0611C39.5911 87.0593 39.5656 87.0553 39.5391 87.0553ZM34.2503 86.7012C34.0529 86.7404 33.8482 86.7713 33.6388 86.7968C33.2581 86.8426 32.864 86.8739 32.443 86.8739C31.4824 86.8739 30.5804 86.7728 29.7366 86.5703C29.6904 86.559 29.6493 86.5456 29.6043 86.5347C29.5635 86.523 29.5225 86.5121 29.481 86.5008C28.7539 86.3078 28.138 86.0657 27.6475 85.769L28.2198 84.6921L28.2412 84.6517L29.0876 83.06C29.9526 83.5494 30.8455 83.8588 31.766 83.9933C31.7784 83.9948 31.7907 83.9977 31.8031 83.9991C32.1394 84.0464 32.479 84.0718 32.8226 84.0718C33.2974 84.0718 33.6617 84.0148 33.9147 83.901C34.1678 83.7865 34.2946 83.6308 34.2946 83.4338C34.2946 83.2469 34.1652 83.0964 33.9067 82.9822C33.6482 82.8681 33.2392 82.7437 32.68 82.6089C31.9416 82.4216 31.3294 82.2326 30.8444 82.0406C30.3587 81.8486 29.9344 81.5531 29.5704 81.1535C29.2061 80.7539 29.024 80.2271 29.024 79.5734C29.024 78.8685 29.1909 78.2388 29.5228 77.6832C29.5243 77.6811 29.5254 77.6782 29.5272 77.6756C29.5799 77.588 29.6359 77.5015 29.697 77.4175C29.7319 77.3695 29.7759 77.3277 29.8133 77.2811C29.8311 77.2615 29.8478 77.2411 29.8649 77.2208C30.3023 76.7009 30.8866 76.285 31.6355 75.9854C32.2605 75.736 32.9702 75.5796 33.7624 75.5149C33.7624 75.5146 33.7624 75.5149 33.7627 75.5149C34.0409 75.492 34.3281 75.4793 34.6269 75.4793C35.1152 75.4793 35.5817 75.5113 36.031 75.568C36.143 75.5822 36.2561 75.5949 36.3655 75.6127C36.5571 75.6436 36.7454 75.6793 36.9298 75.7207C37.642 75.8818 38.2564 76.1126 38.7734 76.4133L37.4282 79.091C36.9956 78.8212 36.5182 78.6187 35.9958 78.4838C35.4737 78.3489 34.9378 78.2813 34.3895 78.2813C33.8722 78.2813 33.4715 78.354 33.1865 78.4991C32.9018 78.6445 32.7593 78.8161 32.7593 79.0128C32.7593 79.2102 32.8884 79.3658 33.1472 79.48C33.2712 79.5349 33.4363 79.5923 33.6373 79.6523C33.7442 79.684 33.862 79.7163 33.99 79.749C33.9921 79.7498 33.994 79.7505 33.9961 79.7509C34.1267 79.7843 34.2681 79.8188 34.4212 79.8534C35.0305 79.9948 35.5533 80.1439 35.9994 80.2995C36.0783 80.3271 36.1594 80.3544 36.2332 80.3827C36.2663 80.3951 36.2968 80.4122 36.3292 80.4256C36.7785 80.6132 37.1726 80.887 37.5071 81.2546C37.7245 81.4934 37.8678 81.7839 37.9536 82.114C38.0092 82.3293 38.0452 82.5576 38.0452 82.811C38.0452 83.6203 37.8183 84.3314 37.365 84.9437C36.9112 85.5559 36.2623 86.0311 35.4181 86.3678C35.0578 86.5118 34.6644 86.6186 34.2503 86.7012ZM33.9991 87.7668C33.9402 87.6355 33.8558 87.5185 33.7551 87.417C33.9551 87.3919 34.1518 87.3636 34.3423 87.3265C34.1957 87.4447 34.0761 87.5941 33.9991 87.7668ZM31.7831 87.7668C31.7358 87.661 31.673 87.5636 31.5981 87.4767C31.7162 87.4843 31.8362 87.4876 31.9562 87.4919C31.8867 87.5752 31.8278 87.6668 31.7831 87.7668ZM29.5668 87.7668C29.3792 87.348 28.9542 87.0553 28.459 87.0553C27.9635 87.0553 27.5385 87.348 27.3509 87.7668C27.1633 87.348 26.7383 87.0553 26.2427 87.0553C25.7475 87.0553 25.3225 87.348 25.1349 87.7668C24.9473 87.348 24.5223 87.0553 24.0268 87.0553C23.5316 87.0553 23.1066 87.348 22.919 87.7668C22.7314 87.348 22.306 87.0553 21.8108 87.0553C21.8083 87.0553 21.8057 87.0556 21.8032 87.0556C21.8039 87.0553 21.805 87.0553 21.8057 87.0549C21.8076 87.0549 21.8094 87.0553 21.8108 87.0553C22.306 87.0553 22.7314 86.7622 22.919 86.3434C23.1066 86.7622 23.5316 87.0553 24.0268 87.0553C24.5223 87.0553 24.9473 86.7622 25.1349 86.3434C25.3225 86.7622 25.7475 87.0553 26.2427 87.0553C26.7383 87.0553 27.1633 86.7622 27.3509 86.3434C27.5385 86.7622 27.9635 87.0553 28.459 87.0553C28.6023 87.0553 28.7386 87.028 28.8658 86.9833C29.0956 87.0553 29.3338 87.1236 29.5853 87.1836C29.7173 87.2153 29.854 87.24 29.9889 87.2669C29.8053 87.3916 29.6577 87.5639 29.5668 87.7668ZM20.703 87.7668C20.6594 87.6697 20.6016 87.5799 20.5347 87.4985C20.5685 87.4879 20.6045 87.4807 20.6376 87.4694C20.7598 87.4287 20.8957 87.3818 21.0401 87.3312C20.8965 87.4487 20.779 87.5963 20.703 87.7668ZM19.9995 86.9844C19.9992 86.9844 19.9992 86.9844 19.9988 86.9844C19.9988 86.9844 19.9988 86.9844 19.9992 86.9844C19.8577 87.0138 19.7101 87.036 19.5571 87.0524C19.5567 87.0524 19.5563 87.0524 19.556 87.0524C19.4651 87.0626 19.3735 87.0709 19.2786 87.076C19.1735 87.0826 19.0663 87.0869 18.9554 87.0869C18.754 87.0869 18.5649 87.0746 18.3864 87.0517C18.3853 87.0517 18.3838 87.0517 18.3828 87.0513C17.8065 86.9771 17.348 86.7848 17.0092 86.4728C16.5653 86.0638 16.3664 85.545 16.4108 84.9153C16.4111 84.9088 16.4122 84.9019 16.4126 84.895C16.4199 84.7975 16.4304 84.6986 16.4438 84.5994C16.4624 84.4558 16.4849 84.3111 16.5151 84.1646C16.5689 83.9093 16.6456 83.6225 16.746 83.2996L17.107 82.2907L17.1179 82.2602L17.8418 80.2377C17.8654 80.166 17.8861 80.0984 17.9087 80.029C17.9407 79.9301 17.9716 79.8323 18.0003 79.7374C18.0348 79.624 18.0683 79.512 18.0977 79.4047C18.1697 79.1426 18.2119 78.9023 18.2271 78.6834C18.2544 78.2937 18.1912 78.0203 18.0388 77.8665C17.8839 77.7127 17.5775 77.6378 17.1128 77.6378C17.0208 77.6378 16.9263 77.6469 16.8318 77.6578C16.7834 77.6636 16.7351 77.672 16.6863 77.6796C16.5933 77.696 16.5002 77.7131 16.4049 77.74C16.3202 77.7654 16.2446 77.7887 16.1679 77.8123C16.1112 77.8298 16.0563 77.8472 16.0032 77.8643C15.9243 77.8901 15.8461 77.9156 15.7782 77.9407L15.8436 77.7349H15.8432L15.9545 77.3844L16.077 76.9972C16.67 76.7663 17.2364 76.5678 17.7749 76.4039C18.3137 76.2373 18.8176 76.1552 19.2866 76.1552C20.1333 76.1552 20.7725 76.358 21.204 76.7591C21.6338 77.1615 21.8276 77.6843 21.7828 78.3268C21.7734 78.4602 21.7407 78.6947 21.6861 79.0299C21.637 79.3306 21.5643 79.6047 21.4745 79.8614C21.464 79.8916 21.4563 79.9246 21.4454 79.9537L21.4407 79.9675L20.5351 82.5027L20.4754 82.6699L20.3551 83.007C20.266 83.252 20.1828 83.5323 20.1032 83.8457C20.0243 84.1587 19.9795 84.398 19.9686 84.559C19.9672 84.579 19.969 84.595 19.9679 84.6143C19.9661 84.6557 19.9668 84.6936 19.9672 84.7317C19.9694 85.0411 20.0395 85.264 20.1875 85.3883C20.3598 85.5352 20.6758 85.6094 21.1299 85.6094C21.344 85.6094 21.5865 85.5716 21.8628 85.4985C22.1366 85.4258 22.3358 85.3607 22.4623 85.3051L22.1613 86.2471C21.6923 86.4245 21.292 86.571 20.9466 86.6935C20.943 86.6946 20.9401 86.6957 20.9364 86.6972C20.8561 86.7255 20.7776 86.7532 20.7041 86.7786C20.6078 86.8124 20.5158 86.8437 20.4322 86.8713C20.2951 86.9171 20.1493 86.9531 19.9995 86.9844ZM18.4867 87.7668C18.4751 87.7406 18.4598 87.7162 18.4464 87.6912C18.4722 87.6937 18.4969 87.697 18.5231 87.6992C18.5111 87.7217 18.4973 87.7435 18.4867 87.7668ZM27.6639 84.3791L27.2345 85.1866C27.016 84.8775 26.6546 84.6736 26.2427 84.6736C25.7475 84.6736 25.3225 84.9662 25.1349 85.3851C24.9473 84.9662 24.5223 84.6736 24.0268 84.6736C23.6396 84.6736 23.2967 84.8539 23.0753 85.1324C22.9993 84.8695 22.7583 84.6757 22.4685 84.6739C22.4663 84.6739 22.4645 84.6739 22.4623 84.6739C22.4503 84.6739 22.4383 84.6739 22.4267 84.6746H22.426C22.3427 84.6794 22.2638 84.6997 22.1922 84.7328C22.1911 84.7332 22.1893 84.7339 22.1886 84.7343C22.0697 84.6954 21.9432 84.6736 21.8108 84.6736C21.5025 84.6736 21.2211 84.787 21.0077 84.9739C20.7834 84.964 20.666 84.9331 20.622 84.9157C20.6111 84.8764 20.594 84.7823 20.6067 84.6023C20.6114 84.531 20.6336 84.3572 20.7234 83.9995C20.9194 84.3972 21.3313 84.6736 21.8108 84.6736C22.306 84.6736 22.7314 84.3805 22.919 83.9617C23.1066 84.3805 23.5316 84.6736 24.0268 84.6736C24.5223 84.6736 24.9473 84.3805 25.1349 83.9617C25.3225 84.3805 25.7475 84.6736 26.2427 84.6736C26.7383 84.6736 27.1633 84.3805 27.3509 83.9617C27.4232 84.1231 27.5312 84.2649 27.6639 84.3791ZM22.919 81.5796C23.1066 81.9984 23.5316 82.2915 24.0268 82.2915C24.5223 82.2915 24.9473 81.9984 25.1349 81.5796C25.3225 81.9984 25.7475 82.2915 26.2427 82.2915C26.7383 82.2915 27.1633 81.9984 27.3509 81.5796C27.5385 81.9984 27.9635 82.2915 28.459 82.2915C28.832 82.2915 29.1654 82.1249 29.3872 81.8635C29.6228 82.0762 29.8769 82.2591 30.1503 82.4093C30.0016 82.4802 29.8707 82.5798 29.7635 82.7008C29.6435 82.6412 29.5243 82.5798 29.4057 82.5121C29.3079 82.4572 29.1982 82.4289 29.0876 82.4289C29.0691 82.4289 29.0509 82.4347 29.0324 82.4365C28.8611 82.3456 28.667 82.2915 28.459 82.2915C27.9635 82.2915 27.5385 82.5841 27.3509 83.003C27.1633 82.5841 26.7383 82.2915 26.2427 82.2915C25.7475 82.2915 25.3225 82.5841 25.1349 83.003C24.9473 82.5841 24.5223 82.2915 24.0268 82.2915C23.5316 82.2915 23.1066 82.5841 22.919 83.003C22.7314 82.5841 22.306 82.2915 21.8108 82.2915C21.6025 82.2915 21.408 82.3456 21.2368 82.4369L21.3255 82.1893C21.4742 82.2536 21.6378 82.2915 21.8108 82.2915C22.306 82.2915 22.7314 81.9984 22.919 81.5796ZM22.1435 79.8625C22.4911 79.7647 22.775 79.5189 22.919 79.1979C23.1066 79.6167 23.5316 79.9094 24.0268 79.9094C24.5223 79.9094 24.9473 79.6167 25.1349 79.1979C25.3225 79.6167 25.7475 79.9094 26.2427 79.9094C26.7383 79.9094 27.1633 79.6167 27.3509 79.1979C27.5308 79.5996 27.9304 79.8825 28.3998 79.905C28.3998 79.9079 28.4005 79.9108 28.4008 79.9137C27.9308 79.9359 27.5312 80.2188 27.3509 80.6209C27.1633 80.202 26.7383 79.9094 26.2427 79.9094C25.7475 79.9094 25.3225 80.202 25.1349 80.6209C24.9473 80.202 24.5223 79.9094 24.0268 79.9094C23.5316 79.9094 23.1066 80.202 22.919 80.6209C22.7714 80.2915 22.4758 80.0428 22.1159 79.9505C22.1253 79.921 22.1344 79.8919 22.1435 79.8625ZM22.919 76.8161C23.1066 77.235 23.5316 77.5276 24.0268 77.5276C24.5223 77.5273 24.9473 77.235 25.1349 76.8161C25.3225 77.235 25.7475 77.5276 26.2427 77.5276C26.7383 77.5273 27.1633 77.235 27.3509 76.8161C27.5385 77.235 27.9635 77.5276 28.459 77.5276C28.6284 77.5273 28.7888 77.4909 28.9349 77.4291C28.9044 77.4829 28.8728 77.5364 28.8448 77.5913C28.7233 77.5513 28.5943 77.5276 28.459 77.5276C27.9635 77.5273 27.5385 77.8203 27.3509 78.2391C27.1633 77.8203 26.7383 77.5276 26.2427 77.5276C25.7475 77.5273 25.3225 77.8203 25.1349 78.2391C24.9473 77.8203 24.5223 77.5276 24.0268 77.5276C23.5316 77.5273 23.1066 77.8203 22.919 78.2391C22.8103 77.9963 22.6198 77.7981 22.3842 77.6727C22.3685 77.5847 22.3493 77.4986 22.3253 77.4146C22.5892 77.2924 22.8008 77.079 22.919 76.8161ZM33.9991 74.434C34.0729 74.5995 34.1856 74.7442 34.3234 74.8598C34.0867 74.866 33.8525 74.8754 33.6271 74.8958C33.7867 74.7747 33.9165 74.618 33.9991 74.434ZM36.215 74.434C36.3495 74.7344 36.6073 74.9674 36.924 75.0768C36.5713 75.003 36.2059 74.9456 35.8278 74.9078C35.9947 74.7853 36.1299 74.6238 36.215 74.434ZM40.6469 78.2391C40.4593 77.8203 40.0343 77.5276 39.5391 77.5276C39.2606 77.5273 39.0065 77.6222 38.8021 77.7778L38.993 77.3975C39.1573 77.4797 39.342 77.5276 39.5391 77.5276C40.0343 77.5273 40.4593 77.235 40.6469 76.8161C40.7719 77.0954 41.0043 77.316 41.2911 77.4338L41.2497 77.6371C40.9817 77.7589 40.7661 77.973 40.6469 78.2391ZM40.3698 81.9635L40.2553 82.526C40.0546 82.3798 39.8081 82.2915 39.5391 82.2915C39.2013 82.2915 38.8985 82.4296 38.6789 82.6489C38.6654 82.3198 38.612 82.0141 38.5153 81.7352C38.7294 82.0693 39.1075 82.2915 39.5391 82.2915C39.8616 82.2915 40.1528 82.1657 40.3698 81.9635ZM39.5391 79.9094C39.0435 79.9094 38.6185 80.202 38.4309 80.6209C38.2433 80.202 37.8183 79.9094 37.3228 79.9094C37.1719 79.9094 37.029 79.9396 36.8956 79.989C36.7563 79.9159 36.6124 79.8505 36.4637 79.7938C36.295 79.7294 36.1085 79.6669 35.9147 79.6051C36.0387 79.4953 36.139 79.3604 36.2088 79.2091C36.2139 79.211 36.219 79.2131 36.2241 79.215C36.4157 79.6243 36.8345 79.9094 37.3228 79.9094C37.8183 79.9094 38.2433 79.6167 38.4309 79.1979C38.6185 79.6167 39.0435 79.9094 39.5391 79.9094C40.0343 79.9094 40.4593 79.6167 40.6469 79.1979C40.7011 79.3186 40.7767 79.4269 40.8661 79.5229L40.644 80.6154C40.4549 80.1995 40.0317 79.9094 39.5391 79.9094ZM37.3228 75.1455C37.8183 75.1455 38.2433 74.8529 38.4309 74.434C38.6185 74.8529 39.0435 75.1455 39.5391 75.1455C40.0343 75.1455 40.4593 74.8529 40.6469 74.434C40.8345 74.8529 41.2599 75.1455 41.755 75.1455C42.2502 75.1455 42.6752 74.8529 42.8628 74.434C43.0061 74.7533 43.2875 74.9983 43.6325 75.0972H42.2902C42.183 75.0972 42.0819 75.1245 41.9924 75.1714C41.915 75.1561 41.8365 75.1455 41.755 75.1455C41.2599 75.1455 40.8345 75.4382 40.6469 75.857C40.4593 75.4382 40.0343 75.1455 39.5391 75.1455C39.1504 75.1455 38.8069 75.3273 38.5855 75.6076C38.4168 75.5302 38.2397 75.4593 38.0568 75.3935C37.8529 75.2393 37.5998 75.1455 37.3228 75.1455C37.2973 75.1455 37.273 75.1495 37.2479 75.1514C37.2279 75.1463 37.2086 75.1405 37.1886 75.1357C37.233 75.1405 37.2773 75.1455 37.3228 75.1455ZM45.0788 74.434C45.222 74.7533 45.5038 74.9983 45.8488 75.0972H44.3091C44.6545 74.9983 44.9359 74.7533 45.0788 74.434ZM47.2951 74.434C47.438 74.7533 47.7194 74.9983 48.0647 75.0972H46.525C46.8704 74.9983 47.1518 74.7533 47.2951 74.434ZM49.511 74.434C49.6543 74.7533 49.9357 74.9983 50.2807 75.0972H48.7413C49.0864 74.9983 49.3681 74.7533 49.511 74.434ZM53.9429 78.2391C53.7557 77.8203 53.3303 77.5276 52.8351 77.5276C52.3399 77.5273 51.9146 77.8203 51.727 78.2391C51.6713 78.1152 51.5932 78.0043 51.5005 77.9065L51.723 76.823C51.7244 76.8205 51.7259 76.8183 51.727 76.8161C51.9146 77.235 52.3396 77.5276 52.8351 77.5276C53.3303 77.5273 53.7553 77.235 53.9429 76.8161C54.1305 77.235 54.5559 77.5276 55.0507 77.5276C55.5462 77.5273 55.9716 77.235 56.1592 76.8161C56.2406 76.9987 56.3693 77.1546 56.5279 77.2757L56.037 78.033C55.8178 77.7283 55.4593 77.5276 55.0507 77.5276C54.5559 77.5273 54.1305 77.8203 53.9429 78.2391ZM52.8351 79.9094C52.3399 79.9094 51.9146 80.202 51.727 80.6209C51.5394 80.202 51.1143 79.9094 50.6192 79.9094C50.5603 79.9094 50.5025 79.9145 50.4457 79.9221C50.4479 79.9141 50.4472 79.905 50.4487 79.897C50.5046 79.9046 50.561 79.9094 50.6192 79.9094C51.1143 79.9094 51.5394 79.6167 51.727 79.1979C51.9146 79.6167 52.3396 79.9094 52.8351 79.9094C53.3303 79.9094 53.7553 79.6167 53.9429 79.1979C54.1025 79.5542 54.4348 79.817 54.8351 79.8883L54.8031 79.9377C54.4174 80.017 54.0981 80.2744 53.9429 80.6209C53.7557 80.202 53.3303 79.9094 52.8351 79.9094ZM51.9698 84.3107L51.4935 85.0458C51.2736 84.8179 50.9642 84.6736 50.6192 84.6736C50.5195 84.6736 50.4243 84.6877 50.3316 84.7103L50.3465 84.6397C50.4345 84.6597 50.525 84.6736 50.6192 84.6736C51.1143 84.6736 51.5394 84.3805 51.727 83.9617C51.7859 84.0929 51.8702 84.2096 51.9698 84.3107ZM51.727 83.003C51.5394 82.5841 51.1143 82.2915 50.6192 82.2915C50.3578 82.2915 50.1171 82.3744 49.9193 82.5132L49.9993 82.1202C50.1807 82.2275 50.3919 82.2915 50.6192 82.2915C51.1143 82.2915 51.5394 81.9984 51.727 81.5796C51.9146 81.9984 52.3396 82.2915 52.8351 82.2915C53.0202 82.2915 53.1954 82.2504 53.3521 82.1773L53.2336 82.3598C53.1089 82.3169 52.9754 82.2915 52.8351 82.2915C52.3399 82.2915 51.9146 82.5841 51.727 83.003ZM51.727 74.434C51.9146 74.8529 52.3396 75.1455 52.8351 75.1455C53.3303 75.1455 53.7553 74.8529 53.9429 74.434C54.1305 74.8529 54.5559 75.1455 55.0507 75.1455C55.5462 75.1455 55.9716 74.8529 56.1592 74.434C56.3464 74.8529 56.7718 75.1455 57.2674 75.1455C57.7622 75.1455 58.1875 74.8529 58.3751 74.434C58.5184 74.7533 58.7994 74.9983 59.1448 75.0972H58.289C58.1159 75.0972 57.9541 75.1685 57.8352 75.2877C57.6655 75.1986 57.4728 75.1455 57.2674 75.1455C56.7718 75.1455 56.3464 75.4382 56.1592 75.857C55.9716 75.4382 55.5462 75.1455 55.0507 75.1455C54.5559 75.1455 54.1305 75.4382 53.9429 75.857C53.7557 75.4382 53.3303 75.1455 52.8351 75.1455C52.465 75.1455 52.1345 75.3092 51.9124 75.5666C51.8898 75.4808 51.8491 75.3993 51.7909 75.3288C51.6691 75.1823 51.4874 75.0972 51.2958 75.0972H50.9573C51.3023 74.9983 51.5837 74.7533 51.727 74.434ZM60.5911 74.434C60.7343 74.7533 61.0154 74.9983 61.3608 75.0972H59.8214C60.1664 74.9983 60.4482 74.7533 60.5911 74.434ZM67.2393 78.2391C67.0517 77.8203 66.6263 77.5276 66.1311 77.5276C65.6359 77.5273 65.2106 77.8203 65.023 78.2391C64.8357 77.8203 64.4104 77.5276 63.9148 77.5276C63.6116 77.5273 63.3349 77.6382 63.1226 77.8199L62.9306 77.0241C63.1502 77.3277 63.508 77.5276 63.9148 77.5276C64.4104 77.5273 64.8357 77.235 65.023 76.8161C65.2106 77.235 65.6359 77.5276 66.1311 77.5276C66.6263 77.5273 67.0517 77.235 67.2393 76.8161C67.364 77.0943 67.5948 77.3142 67.8799 77.4324L67.8377 77.6385C67.5716 77.7607 67.3578 77.9745 67.2393 78.2391ZM66.9575 81.9679L66.8444 82.5238C66.6445 82.3791 66.3987 82.2915 66.1311 82.2915C65.6359 82.2915 65.2106 82.5841 65.023 83.003C64.8743 82.6707 64.5743 82.4205 64.21 82.33L64.1926 82.2566C64.5649 82.1704 64.8717 81.9174 65.023 81.5796C65.2106 81.9984 65.6359 82.2915 66.1311 82.2915C66.4514 82.2915 66.7412 82.1675 66.9575 81.9679ZM66.1311 79.9094C65.6359 79.9094 65.2106 80.202 65.023 80.6209C64.8357 80.202 64.4104 79.9094 63.9148 79.9094C63.8181 79.9094 63.7254 79.9235 63.6349 79.9446L63.6171 79.8701C63.7127 79.8937 63.8116 79.9094 63.9148 79.9094C64.4104 79.9094 64.8357 79.6167 65.023 79.1979C65.2106 79.6167 65.6359 79.9094 66.1311 79.9094C66.6263 79.9094 67.0517 79.6167 67.2393 79.1979C67.2927 79.3171 67.3673 79.4247 67.4556 79.5196L67.2335 80.6103C67.0437 80.1977 66.6219 79.9094 66.1311 79.9094ZM62.807 74.434C62.9946 74.8529 63.42 75.1455 63.9148 75.1455C64.4104 75.1455 64.8357 74.8529 65.023 74.434C65.2106 74.8529 65.6359 75.1455 66.1311 75.1455C66.6263 75.1455 67.0517 74.8529 67.2393 74.434C67.4265 74.8529 67.8519 75.1455 68.3471 75.1455C68.8422 75.1455 69.2673 74.8529 69.4552 74.434C69.5985 74.7533 69.8799 74.9983 70.2249 75.0972H68.8786C68.7721 75.0972 68.6714 75.1245 68.5819 75.171C68.5059 75.1561 68.4278 75.1455 68.3471 75.1455C67.8519 75.1455 67.4265 75.4382 67.2393 75.857C67.0517 75.4382 66.6263 75.1455 66.1311 75.1455C65.6359 75.1455 65.2106 75.4382 65.023 75.857C64.8357 75.4382 64.4104 75.1455 63.9148 75.1455C63.42 75.1455 62.9946 75.4382 62.807 75.857C62.7438 75.716 62.6518 75.5909 62.5413 75.4848C62.4478 75.2692 62.245 75.1212 62.0043 75.1045C62.3646 75.0121 62.6594 74.7631 62.807 74.434ZM71.6712 74.434C71.814 74.7533 72.0958 74.9983 72.4408 75.0972H70.9015C71.2465 74.9983 71.5279 74.7533 71.6712 74.434ZM77.987 82.0526L77.902 82.4729C77.7162 82.3594 77.4991 82.2915 77.2646 82.2915C76.7571 82.2915 76.3234 82.5987 76.143 83.0339C75.9631 82.5987 75.529 82.2915 75.0214 82.2915C74.5146 82.2915 74.0809 82.5987 73.9002 83.0339C73.7202 82.5987 73.2861 82.2915 72.7793 82.2915C72.4052 82.2915 72.0718 82.4583 71.85 82.7205L71.9947 82.0053C72.206 82.1828 72.479 82.2915 72.7793 82.2915C73.2861 82.2915 73.7202 81.9842 73.9002 81.5491C74.0809 81.9842 74.5146 82.2915 75.0214 82.2915C75.529 82.2915 75.9631 81.9842 76.143 81.5491C76.3234 81.9842 76.7571 82.2915 77.2646 82.2915C77.5362 82.2915 77.7849 82.2013 77.987 82.0526ZM73.9002 79.167C74.0809 79.6022 74.5146 79.9094 75.0214 79.9094C75.529 79.9094 75.9631 79.6022 76.143 79.167C76.3234 79.6022 76.7571 79.9094 77.2646 79.9094C77.7718 79.9094 78.2056 79.6022 78.3859 79.167C78.4219 79.2535 78.4702 79.3335 78.5244 79.4084L78.3044 80.4918C78.0932 80.1431 77.7071 79.9094 77.2646 79.9094C76.7571 79.9094 76.3234 80.2166 76.143 80.6518C75.9631 80.2166 75.529 79.9094 75.0214 79.9094C74.5146 79.9094 74.0809 80.2166 73.9002 80.6518C73.7202 80.2166 73.2861 79.9094 72.7793 79.9094C72.6492 79.9094 72.5245 79.9308 72.4074 79.9679L72.4296 79.8585C72.5405 79.8912 72.6572 79.9094 72.7793 79.9094C73.2861 79.9094 73.7202 79.6022 73.9002 79.167ZM78.9363 77.3844L78.8705 77.7087C78.6546 77.841 78.4826 78.0355 78.3859 78.27C78.2056 77.8349 77.7718 77.5276 77.2646 77.5276C76.7571 77.5273 76.3234 77.8349 76.143 78.27C75.9631 77.8349 75.529 77.5276 75.0214 77.5276C74.5146 77.5273 74.0809 77.8349 73.9002 78.27C73.7348 77.8701 73.3541 77.5811 72.9 77.5367L72.9037 77.5182C73.3563 77.4724 73.7351 77.1841 73.9002 76.7852C74.0809 77.2204 74.5146 77.5276 75.0214 77.5276C75.529 77.5273 75.9631 77.2204 76.143 76.7852C76.3234 77.2204 76.7571 77.5276 77.2646 77.5276C77.7718 77.5273 78.2056 77.2204 78.3859 76.7852C78.4928 77.0426 78.6895 77.2535 78.9363 77.3844ZM73.9002 74.4031C74.0809 74.8383 74.5146 75.1455 75.0214 75.1455C75.529 75.1455 75.9631 74.8383 76.143 74.4031C76.3234 74.8383 76.7571 75.1455 77.2646 75.1455C77.7718 75.1455 78.2056 74.8383 78.3859 74.4031C78.5659 74.8383 78.9999 75.1455 79.5071 75.1455C80.0147 75.1455 80.4484 74.8383 80.6287 74.4031C80.7673 74.738 81.0566 74.9958 81.4137 75.0972H79.9256C79.8303 75.0972 79.7405 75.1197 79.6591 75.1572C79.6093 75.151 79.5588 75.1455 79.5071 75.1455C78.9999 75.1455 78.5659 75.4528 78.3859 75.888C78.2056 75.4528 77.7718 75.1455 77.2646 75.1455C76.7571 75.1455 76.3234 75.4528 76.143 75.888C75.9631 75.4528 75.529 75.1455 75.0214 75.1455C74.5146 75.1455 74.0809 75.4528 73.9002 75.888C73.7315 75.4797 73.3385 75.1877 72.872 75.1525C72.8615 75.1477 72.8495 75.1452 72.8382 75.1412C73.3196 75.1179 73.7275 74.8212 73.9002 74.4031ZM82.8712 74.4031C83.0101 74.738 83.2995 74.9958 83.6569 75.0972H82.0859C82.4429 74.9958 82.7327 74.738 82.8712 74.4031ZM85.1141 74.4031C85.2526 74.738 85.542 74.9958 85.8994 75.0972H84.3288C84.6858 74.9958 84.9755 74.738 85.1141 74.4031ZM87.3035 74.5159C87.4551 74.7947 87.7165 75.0067 88.0306 75.0972H86.5763C86.8901 75.0067 87.1515 74.7947 87.3035 74.5159ZM89.7761 84.4896L89.6939 84.895C89.5692 84.9757 89.4569 85.0728 89.3711 85.1927C89.1529 84.8793 88.7868 84.6736 88.3713 84.6736C88.2266 84.6736 88.0884 84.7008 87.9597 84.747L87.9881 84.6099C88.1088 84.6496 88.2371 84.6736 88.3713 84.6736C88.7908 84.6736 89.1602 84.4634 89.3776 84.1449C89.4812 84.2878 89.6183 84.4056 89.7761 84.4896ZM89.3718 82.8114C89.1533 82.4976 88.7868 82.2915 88.3713 82.2915C88.039 82.2915 87.739 82.4245 87.5209 82.6376C87.5314 82.6081 87.5412 82.578 87.5478 82.5463L87.6485 82.0526C87.8503 82.2013 88.0997 82.2915 88.3713 82.2915C88.7904 82.2915 89.1598 82.082 89.3769 81.7636C89.5714 82.0319 89.8811 82.2075 90.2338 82.2373L90.2149 82.3333C89.867 82.3682 89.5623 82.5445 89.3718 82.8114ZM89.3765 79.3826C89.5896 79.6763 89.9382 79.8687 90.3334 79.8687C90.473 79.8687 90.6061 79.8425 90.7301 79.7985L90.6905 79.9948C90.5774 79.9592 90.4581 79.9381 90.3334 79.9381C89.9353 79.9381 89.5849 80.133 89.3722 80.43C89.154 80.1159 88.7872 79.9094 88.3713 79.9094C88.2695 79.9094 88.1709 79.9239 88.0764 79.9472L88.0804 79.9279C88.0851 79.9108 88.0844 79.8919 88.0866 79.8737C88.1786 79.8956 88.2731 79.9094 88.3713 79.9094C88.7901 79.9094 89.1591 79.7003 89.3765 79.3826ZM89.3024 77.0961C89.3285 77.0655 89.3533 77.0343 89.3762 77.0012C89.5892 77.2953 89.9382 77.488 90.3334 77.488C90.7377 77.488 91.0918 77.2848 91.3034 76.9787L91.1238 77.8614C90.9151 77.6734 90.6385 77.5575 90.3334 77.5575C89.9357 77.5575 89.5852 77.752 89.3725 78.049C89.3111 77.9606 89.2373 77.8821 89.1548 77.813L89.3024 77.0961ZM23.5818 72.4951C23.5447 73.0267 23.3076 73.4804 22.8728 73.8542C22.4376 74.2275 21.9323 74.4148 21.3567 74.4148C20.7823 74.4148 20.2991 74.2275 19.913 73.8542C19.5291 73.4804 19.3535 73.026 19.3906 72.4951C19.4276 71.9651 19.6683 71.5095 20.1035 71.1321C20.5423 70.754 21.0513 70.5661 21.6258 70.5661C22.1402 70.5661 22.5743 70.7249 22.9339 71.0267C22.9386 71.0311 22.9437 71.0347 22.9484 71.0387C22.9859 71.071 23.0273 71.0965 23.063 71.1321C23.4454 71.5095 23.6188 71.9651 23.5818 72.4951ZM103.068 76.3071C103.068 75.7862 102.637 75.3637 102.106 75.3637C101.575 75.3637 101.144 75.7862 101.144 76.3071C101.144 76.3144 101.146 76.321 101.147 76.3279C101.144 76.326 101.142 76.3242 101.14 76.3224C101.14 76.3184 101.141 76.3151 101.141 76.3115C101.141 75.7709 100.694 75.3324 100.144 75.3324C99.9589 75.3324 99.7873 75.3841 99.6393 75.4702C98.9325 75.2248 98.1127 75.0972 97.1794 75.0972H92.2098C91.9818 75.0972 91.7772 75.2161 91.6641 75.3997C91.5325 75.4866 91.4201 75.5986 91.3351 75.7298C91.1282 75.3986 90.7577 75.1768 90.3334 75.1768C90.0179 75.1768 89.735 75.3026 89.5241 75.5022C89.4998 75.4404 89.4696 75.3811 89.4263 75.3288C89.3049 75.1823 89.1231 75.0972 88.9308 75.0972H88.7079C88.9831 75.0187 89.2191 74.8481 89.3754 74.6202C89.5885 74.9147 89.9379 75.1074 90.3334 75.1074C90.7592 75.1074 91.1307 74.8841 91.3369 74.5508C91.5398 74.8616 91.892 75.0692 92.2956 75.0692C92.7315 75.0692 93.106 74.8256 93.2972 74.4719C93.4867 74.8038 93.8429 75.0307 94.2574 75.0307C94.7035 75.0307 95.0852 74.7696 95.2594 74.3955C95.4321 74.7474 95.7957 74.9925 96.2199 74.9925C96.6806 74.9925 97.0703 74.7038 97.2197 74.3021C97.3688 74.6827 97.7418 74.9543 98.1821 74.9543C98.6668 74.9543 99.071 74.6242 99.1816 74.1817C99.2928 74.6031 99.6797 74.9161 100.144 74.9161C100.694 74.9161 101.141 74.4777 101.141 73.937C101.141 73.3968 100.694 72.9583 100.144 72.9583C99.6789 72.9583 99.291 73.2724 99.1808 73.6956C99.0692 73.2543 98.6657 72.926 98.1821 72.926C97.7407 72.926 97.367 73.1986 97.2187 73.5811C97.0681 73.1805 96.6795 72.8932 96.2199 72.8932C95.7942 72.8932 95.4299 73.1394 95.2579 73.4931C95.0831 73.1208 94.702 72.8609 94.2574 72.8609C93.8422 72.8609 93.4841 73.0892 93.2961 73.423C93.1038 73.0707 92.7301 72.8285 92.2956 72.8285C91.8909 72.8285 91.5372 73.0372 91.3354 73.3499C91.1286 73.0183 90.7577 72.7962 90.3334 72.7962C89.9364 72.7962 89.5863 72.99 89.3736 73.2863C89.1558 72.9711 88.7879 72.7635 88.3713 72.7635C87.9088 72.7635 87.5074 73.0187 87.3035 73.3935C87.0991 73.0187 86.6978 72.7635 86.2353 72.7635C85.7278 72.7635 85.2944 73.0707 85.1141 73.5062C84.9341 73.0707 84.5 72.7635 83.9925 72.7635C83.4853 72.7635 83.0512 73.0707 82.8712 73.5062C82.6913 73.0707 82.2575 72.7635 81.75 72.7635C81.2424 72.7635 80.8087 73.0707 80.6287 73.5062C80.4484 73.0707 80.0147 72.7635 79.5071 72.7635C78.9999 72.7635 78.5659 73.0707 78.3859 73.5062C78.2056 73.0707 77.7718 72.7635 77.2646 72.7635C76.7571 72.7635 76.3234 73.0707 76.143 73.5062C75.9631 73.0707 75.529 72.7635 75.0214 72.7635C74.5146 72.7635 74.0809 73.0707 73.9002 73.5062C73.7202 73.0707 73.2861 72.7635 72.7793 72.7635C72.2838 72.7635 71.8588 73.0565 71.6712 73.4753C71.4836 73.0565 71.0582 72.7635 70.5634 72.7635C70.0678 72.7635 69.6428 73.0565 69.4552 73.4753C69.2673 73.0565 68.8422 72.7635 68.3471 72.7635C67.8519 72.7635 67.4265 73.0565 67.2393 73.4753C67.0517 73.0565 66.6263 72.7635 66.1311 72.7635C65.6359 72.7635 65.2106 73.0565 65.023 73.4753C64.8357 73.0565 64.4104 72.7635 63.9148 72.7635C63.42 72.7635 62.9946 73.0565 62.807 73.4753C62.6194 73.0565 62.1944 72.7635 61.6992 72.7635C61.2037 72.7635 60.7787 73.0565 60.5911 73.4753C60.4035 73.0565 59.9785 72.7635 59.4829 72.7635C58.9878 72.7635 58.5627 73.0565 58.3751 73.4753C58.1875 73.0565 57.7622 72.7635 57.2674 72.7635C56.7718 72.7635 56.3464 73.0565 56.1592 73.4753C55.9716 73.0565 55.5462 72.7635 55.0507 72.7635C54.5559 72.7635 54.1305 73.0565 53.9429 73.4753C53.7557 73.0565 53.3303 72.7635 52.8351 72.7635C52.3399 72.7635 51.9146 73.0565 51.727 73.4753C51.5394 73.0565 51.1143 72.7635 50.6192 72.7635C50.1236 72.7635 49.699 73.0565 49.511 73.4753C49.3234 73.0565 48.898 72.7635 48.4032 72.7635C47.9077 72.7635 47.4823 73.0565 47.2951 73.4753C47.1075 73.0565 46.6821 72.7635 46.1869 72.7635C45.6917 72.7635 45.2667 73.0565 45.0788 73.4753C44.8915 73.0565 44.4662 72.7635 43.971 72.7635C43.4758 72.7635 43.0504 73.0565 42.8628 73.4753C42.6752 73.0565 42.2502 72.7635 41.755 72.7635C41.2599 72.7635 40.8345 73.0565 40.6469 73.4753C40.4593 73.0565 40.0343 72.7635 39.5391 72.7635C39.0435 72.7635 38.6185 73.0565 38.4309 73.4753C38.2433 73.0565 37.8183 72.7635 37.3228 72.7635C36.8276 72.7635 36.4026 73.0565 36.215 73.4753C36.0274 73.0565 35.602 72.7635 35.1068 72.7635C34.6117 72.7635 34.1867 73.0565 33.9991 73.4753C33.8115 73.0565 33.3861 72.7635 32.8909 72.7635C32.3957 72.7635 31.9703 73.0565 31.7831 73.4753C31.5955 73.0565 31.1701 72.7635 30.675 72.7635C30.1798 72.7635 29.7544 73.0565 29.5668 73.4753C29.3792 73.0565 28.9542 72.7635 28.459 72.7635C27.9635 72.7635 27.5385 73.0565 27.3509 73.4753C27.1633 73.0565 26.7383 72.7635 26.2427 72.7635C25.7475 72.7635 25.3225 73.0565 25.1349 73.4753C24.9684 73.1038 24.615 72.8329 24.1918 72.7758C24.1929 72.7678 24.1933 72.7595 24.1947 72.7515C24.6165 72.6937 24.9688 72.4228 25.1349 72.052C25.3225 72.4708 25.7475 72.7635 26.2427 72.7635C26.7383 72.7635 27.1633 72.4708 27.3509 72.052C27.5385 72.4708 27.9635 72.7635 28.459 72.7635C28.9542 72.7635 29.3792 72.4708 29.5668 72.052C29.7544 72.4708 30.1798 72.7635 30.675 72.7635C31.1701 72.7635 31.5955 72.4708 31.7831 72.052C31.9703 72.4708 32.3957 72.7635 32.8909 72.7635C33.3861 72.7635 33.8115 72.4708 33.9991 72.052C34.1867 72.4708 34.6117 72.7635 35.1068 72.7635C35.602 72.7635 36.0274 72.4708 36.215 72.052C36.4026 72.4708 36.8276 72.7635 37.3228 72.7635C37.8183 72.7635 38.2433 72.4708 38.4309 72.052C38.6185 72.4708 39.0435 72.7635 39.5391 72.7635C40.0343 72.7635 40.4593 72.4708 40.6469 72.052C40.8345 72.4708 41.2599 72.7635 41.755 72.7635C42.2502 72.7635 42.6752 72.4708 42.8628 72.052C43.0504 72.4708 43.4758 72.7635 43.971 72.7635C44.4662 72.7635 44.8915 72.4708 45.0788 72.052C45.2667 72.4708 45.6917 72.7635 46.1869 72.7635C46.6821 72.7635 47.1075 72.4708 47.2951 72.052C47.4827 72.4708 47.9077 72.7635 48.4032 72.7635C48.8984 72.7635 49.3234 72.4708 49.511 72.052C49.699 72.4708 50.1236 72.7635 50.6192 72.7635C51.1143 72.7635 51.5394 72.4708 51.727 72.052C51.9146 72.4708 52.3396 72.7635 52.8351 72.7635C53.3303 72.7635 53.7553 72.4708 53.9429 72.052C54.1305 72.4708 54.5559 72.7635 55.0507 72.7635C55.5462 72.7635 55.9716 72.4708 56.1592 72.052C56.3464 72.4708 56.7718 72.7635 57.2674 72.7635C57.7622 72.7635 58.1875 72.4708 58.3751 72.052C58.5627 72.4708 58.9878 72.7635 59.4829 72.7635C59.9785 72.7635 60.4035 72.4708 60.5911 72.052C60.7787 72.4708 61.2037 72.7635 61.6992 72.7635C62.1944 72.7635 62.6194 72.4708 62.807 72.052C62.9946 72.4708 63.42 72.7635 63.9148 72.7635C64.4104 72.7635 64.8357 72.4708 65.023 72.052C65.2106 72.4708 65.6359 72.7635 66.1311 72.7635C66.6263 72.7635 67.0517 72.4708 67.2393 72.052C67.4265 72.4708 67.8519 72.7635 68.3471 72.7635C68.8422 72.7635 69.2673 72.4708 69.4552 72.052C69.6428 72.4708 70.0678 72.7635 70.5634 72.7635C71.0582 72.7635 71.4836 72.4708 71.6712 72.052C71.8588 72.4708 72.2838 72.7635 72.7793 72.7635C73.2861 72.7635 73.7202 72.4566 73.9002 72.0214C74.0809 72.4566 74.5146 72.7635 75.0214 72.7635C75.529 72.7635 75.9631 72.4566 76.143 72.0214C76.3234 72.4566 76.7571 72.7635 77.2646 72.7635C77.7718 72.7635 78.2056 72.4566 78.3859 72.0214C78.5659 72.4566 78.9999 72.7635 79.5071 72.7635C80.0147 72.7635 80.4484 72.4566 80.6287 72.0214C80.8087 72.4566 81.2424 72.7635 81.75 72.7635C82.2575 72.7635 82.6913 72.4566 82.8712 72.0214C83.0512 72.4566 83.4853 72.7635 83.9925 72.7635C84.5 72.7635 84.9341 72.4566 85.1141 72.0214C85.2944 72.4566 85.7278 72.7635 86.2353 72.7635C86.6981 72.7635 87.0991 72.5086 87.3035 72.1338C87.5074 72.5086 87.9088 72.7635 88.3713 72.7635C88.789 72.7635 89.1577 72.5555 89.3751 72.2388C89.5881 72.5337 89.9375 72.7267 90.3334 72.7267C90.7588 72.7267 91.1304 72.5035 91.3365 72.1708C91.539 72.4821 91.892 72.6897 92.2956 72.6897C92.7311 72.6897 93.1053 72.4464 93.2969 72.093C93.4859 72.4253 93.8426 72.6526 94.2574 72.6526C94.7031 72.6526 95.0849 72.3919 95.259 72.0181C95.4317 72.3708 95.7953 72.6158 96.2199 72.6158C96.6806 72.6158 97.0696 72.3275 97.2194 71.9258C97.3685 72.3068 97.7415 72.5788 98.1821 72.5788C98.6668 72.5788 99.0703 72.2494 99.1816 71.8069C99.2925 72.2286 99.6797 72.5417 100.144 72.5417C100.694 72.5417 101.141 72.1036 101.141 71.563C101.141 71.0227 100.694 70.5842 100.144 70.5842C99.6793 70.5842 99.2914 70.8984 99.1808 71.3208C99.0696 70.8791 98.666 70.5504 98.1821 70.5504C97.7411 70.5504 97.3674 70.8231 97.219 71.2052C97.0689 70.8042 96.6799 70.517 96.2199 70.517C95.7946 70.517 95.4303 70.7627 95.2583 71.1158C95.0838 70.7431 94.7024 70.4832 94.2574 70.4832C93.8426 70.4832 93.4848 70.7111 93.2965 71.0441C93.1042 70.6919 92.7304 70.4493 92.2956 70.4493C91.8913 70.4493 91.5379 70.6577 91.3362 70.97C91.1289 70.638 90.7581 70.4155 90.3334 70.4155C89.9368 70.4155 89.587 70.6093 89.374 70.9049C89.1562 70.5893 88.7883 70.3817 88.3713 70.3817C87.9088 70.3817 87.5074 70.6369 87.3035 71.0114C87.0991 70.6369 86.6978 70.3817 86.2353 70.3817C85.7278 70.3817 85.2944 70.6889 85.1141 71.1241C84.9341 70.6889 84.5 70.3817 83.9925 70.3817C83.4853 70.3817 83.0512 70.6889 82.8712 71.1241C82.6913 70.6889 82.2575 70.3817 81.75 70.3817C81.2424 70.3817 80.8087 70.6889 80.6287 71.1241C80.4484 70.6889 80.0147 70.3817 79.5071 70.3817C78.9999 70.3817 78.5659 70.6889 78.3859 71.1241C78.2056 70.6889 77.7718 70.3817 77.2646 70.3817C76.7571 70.3817 76.3234 70.6889 76.143 71.1241C75.9631 70.6889 75.529 70.3817 75.0214 70.3817C74.5146 70.3817 74.0809 70.6889 73.9002 71.1241C73.7202 70.6889 73.2861 70.3817 72.7793 70.3817C72.2838 70.3817 71.8588 70.6744 71.6712 71.0932C71.4836 70.6744 71.0582 70.3817 70.5634 70.3817C70.0678 70.3817 69.6428 70.6744 69.4552 71.0932C69.2673 70.6744 68.8422 70.3817 68.3471 70.3817C67.8519 70.3817 67.4265 70.6744 67.2393 71.0932C67.0517 70.6744 66.6263 70.3817 66.1311 70.3817C65.6359 70.3817 65.2106 70.6744 65.023 71.0932C64.8357 70.6744 64.4104 70.3817 63.9148 70.3817C63.42 70.3817 62.9946 70.6744 62.807 71.0932C62.6194 70.6744 62.1944 70.3817 61.6992 70.3817C61.2037 70.3817 60.7787 70.6744 60.5911 71.0932C60.4035 70.6744 59.9785 70.3817 59.4829 70.3817C58.9878 70.3817 58.5627 70.6744 58.3751 71.0932C58.1875 70.6744 57.7622 70.3817 57.2674 70.3817C56.7718 70.3817 56.3464 70.6744 56.1592 71.0932C55.9716 70.6744 55.5462 70.3817 55.0507 70.3817C54.5559 70.3817 54.1305 70.6744 53.9429 71.0932C53.7557 70.6744 53.3303 70.3817 52.8351 70.3817C52.3399 70.3817 51.9146 70.6744 51.727 71.0932C51.5394 70.6744 51.1143 70.3817 50.6192 70.3817C50.1236 70.3817 49.699 70.6744 49.511 71.0932C49.3234 70.6744 48.898 70.3817 48.4032 70.3817C47.9077 70.3817 47.4823 70.6744 47.2951 71.0932C47.1075 70.6744 46.6821 70.3817 46.1869 70.3817C45.6917 70.3817 45.2667 70.6744 45.0788 71.0932C44.8915 70.6744 44.4662 70.3817 43.971 70.3817C43.4758 70.3817 43.0504 70.6744 42.8628 71.0932C42.6752 70.6744 42.2502 70.3817 41.755 70.3817C41.2599 70.3817 40.8345 70.6744 40.6469 71.0932C40.4593 70.6744 40.0343 70.3817 39.5391 70.3817C39.0435 70.3817 38.6185 70.6744 38.4309 71.0932C38.2433 70.6744 37.8183 70.3817 37.3228 70.3817C36.8276 70.3817 36.4026 70.6744 36.215 71.0932C36.0274 70.6744 35.602 70.3817 35.1068 70.3817C34.6117 70.3817 34.1867 70.6744 33.9991 71.0932C33.8115 70.6744 33.3861 70.3817 32.8909 70.3817C32.3957 70.3817 31.9703 70.6744 31.7831 71.0932C31.5955 70.6744 31.1701 70.3817 30.675 70.3817C30.1798 70.3817 29.7544 70.6744 29.5668 71.0932C29.3792 70.6744 28.9542 70.3817 28.459 70.3817C27.9635 70.3817 27.5385 70.6744 27.3509 71.0932C27.1633 70.6744 26.7383 70.3817 26.2427 70.3817C25.7475 70.3817 25.3225 70.6744 25.1349 71.0932C24.9473 70.6744 24.5223 70.3817 24.0268 70.3817C23.7897 70.3817 23.5694 70.4504 23.3829 70.5664C23.1455 70.3599 22.8812 70.2039 22.591 70.0985C22.7307 69.9825 22.8441 69.8371 22.919 69.6702C23.1066 70.0891 23.5316 70.3817 24.0268 70.3817C24.5223 70.3817 24.9473 70.0891 25.1349 69.6702C25.3225 70.0891 25.7475 70.3817 26.2427 70.3817C26.7383 70.3817 27.1633 70.0891 27.3509 69.6702C27.5385 70.0891 27.9635 70.3817 28.459 70.3817C28.9542 70.3817 29.3792 70.0891 29.5668 69.6702C29.7544 70.0891 30.1798 70.3817 30.675 70.3817C31.1701 70.3817 31.5955 70.0891 31.7831 69.6702C31.9703 70.0891 32.3957 70.3817 32.8909 70.3817C33.3861 70.3817 33.8115 70.0891 33.9991 69.6702C34.1867 70.0891 34.6117 70.3817 35.1068 70.3817C35.602 70.3817 36.0274 70.0891 36.215 69.6702C36.4026 70.0891 36.8276 70.3817 37.3228 70.3817C37.8183 70.3817 38.2433 70.0891 38.4309 69.6702C38.6185 70.0891 39.0435 70.3817 39.5391 70.3817C40.0343 70.3817 40.4593 70.0891 40.6469 69.6702C40.8345 70.0891 41.2599 70.3817 41.755 70.3817C42.2502 70.3817 42.6752 70.0891 42.8628 69.6702C43.0504 70.0891 43.4758 70.3817 43.971 70.3817C44.4662 70.3817 44.8915 70.0891 45.0788 69.6702C45.2667 70.0891 45.6917 70.3817 46.1869 70.3817C46.6821 70.3817 47.1075 70.0891 47.2951 69.6702C47.4827 70.0891 47.9077 70.3817 48.4032 70.3817C48.8984 70.3817 49.3234 70.0891 49.511 69.6702C49.699 70.0891 50.1236 70.3817 50.6192 70.3817C51.1143 70.3817 51.5394 70.0891 51.727 69.6702C51.9146 70.0891 52.3396 70.3817 52.8351 70.3817C53.3303 70.3817 53.7553 70.0891 53.9429 69.6702C54.1305 70.0891 54.5559 70.3817 55.0507 70.3817C55.5462 70.3817 55.9716 70.0891 56.1592 69.6702C56.3464 70.0891 56.7718 70.3817 57.2674 70.3817C57.7622 70.3817 58.1875 70.0891 58.3751 69.6702C58.5627 70.0891 58.9878 70.3817 59.4829 70.3817C59.9785 70.3817 60.4035 70.0891 60.5911 69.6702C60.7787 70.0891 61.2037 70.3817 61.6992 70.3817C62.1944 70.3817 62.6194 70.0891 62.807 69.6702C62.9946 70.0891 63.42 70.3817 63.9148 70.3817C64.4104 70.3817 64.8357 70.0891 65.023 69.6702C65.2106 70.0891 65.6359 70.3817 66.1311 70.3817C66.6263 70.3817 67.0517 70.0891 67.2393 69.6702C67.4265 70.0891 67.8519 70.3817 68.3471 70.3817C68.8422 70.3817 69.2673 70.0891 69.4552 69.6702C69.6428 70.0891 70.0678 70.3817 70.5634 70.3817C71.0582 70.3817 71.4836 70.0891 71.6712 69.6702C71.8588 70.0891 72.2838 70.3817 72.7793 70.3817C73.2861 70.3817 73.7202 70.0745 73.9002 69.6393C74.0809 70.0745 74.5146 70.3817 75.0214 70.3817C75.529 70.3817 75.9631 70.0745 76.143 69.6393C76.3234 70.0745 76.7571 70.3817 77.2646 70.3817C77.7718 70.3817 78.2056 70.0745 78.3859 69.6393C78.5659 70.0745 78.9999 70.3817 79.5071 70.3817C80.0147 70.3817 80.4484 70.0745 80.6287 69.6393C80.8087 70.0745 81.2424 70.3817 81.75 70.3817C82.2575 70.3817 82.6913 70.0745 82.8712 69.6393C83.0512 70.0745 83.4853 70.3817 83.9925 70.3817C84.5 70.3817 84.9341 70.0745 85.1141 69.6393C85.2944 70.0745 85.7278 70.3817 86.2353 70.3817C86.6981 70.3817 87.0991 70.1265 87.3035 69.752C87.5074 70.1265 87.9088 70.3817 88.3713 70.3817C88.7886 70.3817 89.1569 70.1738 89.3747 69.8575C89.5874 70.1527 89.9371 70.3461 90.3334 70.3461C90.7584 70.3461 91.13 70.1232 91.3362 69.7906C91.5387 70.1025 91.8917 70.3105 92.2956 70.3105C92.7308 70.3105 93.1049 70.0672 93.2965 69.7146C93.4856 70.0472 93.8426 70.2748 94.2574 70.2748C94.7028 70.2748 95.0845 70.0142 95.2587 69.6408C95.4314 69.9934 95.7949 70.2392 96.2199 70.2392C96.6802 70.2392 97.0692 69.9509 97.2194 69.5499C97.3681 69.9313 97.7415 70.2032 98.1821 70.2032C98.6664 70.2032 99.0699 69.8742 99.1812 69.4321C99.2921 69.8542 99.6793 70.1676 100.144 70.1676C100.694 70.1676 101.141 69.7295 101.141 69.1889C101.141 68.6486 100.694 68.2098 100.144 68.2098C99.6793 68.2098 99.2921 68.5239 99.1812 68.946C99.0696 68.5039 98.6664 68.1749 98.1821 68.1749C97.7411 68.1749 97.3677 68.4472 97.219 68.8289C97.0692 68.4275 96.6802 68.14 96.2199 68.14C95.7949 68.14 95.431 68.3857 95.2583 68.7384C95.0842 68.3654 94.7028 68.1047 94.2574 68.1047C93.8429 68.1047 93.4852 68.3327 93.2965 68.6653C93.1045 68.3127 92.7308 68.0698 92.2956 68.0698C91.8913 68.0698 91.5383 68.2781 91.3362 68.5897C91.1296 68.2574 90.7584 68.0349 90.3334 68.0349C89.9371 68.0349 89.587 68.2283 89.3747 68.5239C89.1566 68.2076 88.7886 68 88.3713 68C87.9088 68 87.5074 68.2549 87.3035 68.6297C87.0991 68.2549 86.6978 68 86.2353 68C85.7278 68 85.2944 68.3068 85.1141 68.7424C84.9341 68.3068 84.5 68 83.9925 68C83.4853 68 83.0512 68.3068 82.8712 68.7424C82.6913 68.3068 82.2575 68 81.75 68C81.2424 68 80.8087 68.3068 80.6287 68.7424C80.4484 68.3068 80.0147 68 79.5071 68C78.9999 68 78.5659 68.3068 78.3859 68.7424C78.2056 68.3068 77.7718 68 77.2646 68C76.7571 68 76.3234 68.3068 76.143 68.7424C75.9631 68.3068 75.529 68 75.0214 68C74.5146 68 74.0809 68.3068 73.9002 68.7424C73.7202 68.3068 73.2861 68 72.7793 68C72.2838 68 71.8588 68.2927 71.6712 68.7115C71.4836 68.2927 71.0582 68 70.5634 68C70.0678 68 69.6428 68.2927 69.4552 68.7115C69.2673 68.2927 68.8422 68 68.3471 68C67.8519 68 67.4265 68.2927 67.2393 68.7115C67.0517 68.2927 66.6263 68 66.1311 68C65.6359 68 65.2106 68.2927 65.023 68.7115C64.8357 68.2927 64.4104 68 63.9148 68C63.42 68 62.9946 68.2927 62.807 68.7115C62.6194 68.2927 62.1944 68 61.6992 68C61.2037 68 60.7787 68.2927 60.5911 68.7115C60.4035 68.2927 59.9785 68 59.4829 68C58.9878 68 58.5627 68.2927 58.3751 68.7115C58.1875 68.2927 57.7622 68 57.2674 68C56.7718 68 56.3464 68.2927 56.1592 68.7115C55.9716 68.2927 55.5462 68 55.0507 68C54.5559 68 54.1305 68.2927 53.9429 68.7115C53.7557 68.2927 53.3303 68 52.8351 68C52.3399 68 51.9146 68.2927 51.727 68.7115C51.5394 68.2927 51.1143 68 50.6192 68C50.1236 68 49.699 68.2927 49.511 68.7115C49.3234 68.2927 48.898 68 48.4032 68C47.9077 68 47.4823 68.2927 47.2951 68.7115C47.1075 68.2927 46.6821 68 46.1869 68C45.6917 68 45.2667 68.2927 45.0788 68.7115C44.8915 68.2927 44.4662 68 43.971 68C43.4758 68 43.0504 68.2927 42.8628 68.7115C42.6752 68.2927 42.2502 68 41.755 68C41.2599 68 40.8345 68.2927 40.6469 68.7115C40.4593 68.2927 40.0343 68 39.5391 68C39.0435 68 38.6185 68.2927 38.4309 68.7115C38.2433 68.2927 37.8183 68 37.3228 68C36.8276 68 36.4026 68.2927 36.215 68.7115C36.0274 68.2927 35.602 68 35.1068 68C34.6117 68 34.1867 68.2927 33.9991 68.7115C33.8115 68.2927 33.3861 68 32.8909 68C32.3957 68 31.9703 68.2927 31.7831 68.7115C31.5955 68.2927 31.1701 68 30.675 68C30.1798 68 29.7544 68.2927 29.5668 68.7115C29.3792 68.2927 28.9542 68 28.459 68C27.9635 68 27.5385 68.2927 27.3509 68.7115C27.1633 68.2927 26.7383 68 26.2427 68C25.7475 68 25.3225 68.2927 25.1349 68.7115C24.9473 68.2927 24.5223 68 24.0268 68C23.5316 68 23.1066 68.2927 22.919 68.7115C22.7314 68.2927 22.306 68 21.8108 68C21.3156 68 20.8906 68.2927 20.703 68.7115C20.5154 68.2927 20.0901 68 19.5949 68C19.0997 68 18.6743 68.2927 18.4867 68.7115C18.2991 68.2927 17.8741 68 17.3789 68C16.8838 68 16.4584 68.2927 16.2708 68.7115C16.0832 68.2927 15.6582 68 15.1626 68C14.6678 68 14.2424 68.2927 14.0548 68.7115C13.8672 68.2927 13.4422 68 12.9471 68C12.4515 68 12.0265 68.2927 11.8389 68.7115C11.6513 68.2927 11.2259 68 10.7308 68C10.2356 68 9.8102 68.2927 9.6226 68.7115C9.435 68.2927 9.00999 68 8.51481 68C8.33048 68 8.15597 68.0407 8 68.1131V70.2683C8.15597 70.341 8.33048 70.3817 8.51481 70.3817C9.00999 70.3817 9.435 70.0891 9.6226 69.6702C9.8102 70.0891 10.2356 70.3817 10.7308 70.3817C11.2259 70.3817 11.6513 70.0891 11.8389 69.6702C12.0265 70.0891 12.4515 70.3817 12.9471 70.3817C13.4422 70.3817 13.8672 70.0891 14.0548 69.6702C14.2424 70.0891 14.6678 70.3817 15.1626 70.3817C15.6582 70.3817 16.0832 70.0891 16.2708 69.6702C16.4584 70.0891 16.8838 70.3817 17.3789 70.3817C17.8741 70.3817 18.2991 70.0891 18.4867 69.6702C18.6743 70.0891 19.0997 70.3817 19.5949 70.3817C20.0901 70.3817 20.5154 70.0891 20.703 69.6702C20.7605 69.7986 20.8426 69.9135 20.9404 70.0134C20.5932 70.0934 20.2682 70.2359 19.9675 70.4406C19.8501 70.4032 19.725 70.3817 19.5949 70.3817C19.0997 70.3817 18.6743 70.6744 18.4867 71.0932C18.2991 70.6744 17.8741 70.3817 17.3789 70.3817C16.8838 70.3817 16.4584 70.6744 16.2708 71.0932C16.0832 70.6744 15.6582 70.3817 15.1626 70.3817C14.6678 70.3817 14.2424 70.6744 14.0548 71.0932C13.8672 70.6744 13.4422 70.3817 12.9471 70.3817C12.4515 70.3817 12.0265 70.6744 11.8389 71.0932C11.6513 70.6744 11.2259 70.3817 10.7308 70.3817C10.2356 70.3817 9.8102 70.6744 9.6226 71.0932C9.435 70.6744 9.00999 70.3817 8.51481 70.3817C8.33048 70.3817 8.15597 70.4224 8 70.4952V72.6504C8.15597 72.7227 8.33048 72.7635 8.51481 72.7635C9.00999 72.7635 9.435 72.4708 9.6226 72.052C9.8102 72.4708 10.2356 72.7635 10.7308 72.7635C11.2259 72.7635 11.6513 72.4708 11.8389 72.052C12.0265 72.4708 12.4515 72.7635 12.9471 72.7635C13.4422 72.7635 13.8672 72.4708 14.0548 72.052C14.2424 72.4708 14.6678 72.7635 15.1626 72.7635C15.6582 72.7635 16.0832 72.4708 16.2708 72.052C16.4584 72.4708 16.8838 72.7635 17.3789 72.7635C17.8741 72.7635 18.2991 72.4708 18.4867 72.052C18.5507 72.1945 18.6434 72.3203 18.7554 72.4272C18.755 72.4352 18.7532 72.4432 18.7525 72.4515C18.738 72.6635 18.7525 72.8682 18.7896 73.0659C18.6612 73.1786 18.5573 73.3179 18.4867 73.4753C18.2991 73.0565 17.8741 72.7635 17.3789 72.7635C16.8838 72.7635 16.4584 73.0565 16.2708 73.4753C16.0832 73.0565 15.6582 72.7635 15.1626 72.7635C14.6678 72.7635 14.2424 73.0565 14.0548 73.4753C13.8672 73.0565 13.4422 72.7635 12.9471 72.7635C12.4515 72.7635 12.0265 73.0565 11.8389 73.4753C11.6513 73.0565 11.2259 72.7635 10.7308 72.7635C10.2356 72.7635 9.8102 73.0565 9.6226 73.4753C9.435 73.0565 9.00999 72.7635 8.51481 72.7635C8.33048 72.7635 8.15597 72.8045 8 72.8769V75.0325C8.15597 75.1048 8.33048 75.1455 8.51481 75.1455C9.00999 75.1455 9.435 74.8529 9.6226 74.434C9.8102 74.8529 10.2356 75.1455 10.7308 75.1455C11.2259 75.1455 11.6513 74.8529 11.8389 74.434C12.0265 74.8529 12.4515 75.1455 12.9471 75.1455C13.4422 75.1455 13.8672 74.8529 14.0548 74.434C14.2424 74.8529 14.6678 75.1455 15.1626 75.1455C15.6582 75.1455 16.0832 74.8529 16.2708 74.434C16.4584 74.8529 16.8838 75.1455 17.3789 75.1455C17.8741 75.1455 18.2991 74.8529 18.4867 74.434C18.6743 74.8529 19.0997 75.1455 19.5949 75.1455C19.8868 75.1455 20.1526 75.0419 20.3613 74.8729C20.6587 74.9838 20.9812 75.0416 21.328 75.0448C21.4763 75.1085 21.6389 75.1455 21.8108 75.1455C22.1922 75.1455 22.5307 74.971 22.7525 74.6998C22.8321 74.6569 22.9103 74.6104 22.9862 74.5595C23.1971 74.9096 23.5832 75.1455 24.0268 75.1455C24.5223 75.1455 24.9473 74.8529 25.1349 74.434C25.3225 74.8529 25.7475 75.1455 26.2427 75.1455C26.7383 75.1455 27.1633 74.8529 27.3509 74.434C27.5385 74.8529 27.9635 75.1455 28.459 75.1455C28.9542 75.1455 29.3792 74.8529 29.5668 74.434C29.7544 74.8529 30.1798 75.1455 30.675 75.1455C31.1701 75.1455 31.5955 74.8529 31.7831 74.434C31.9173 74.7336 32.1743 74.9667 32.4906 75.0761C32.1114 75.1608 31.7464 75.2619 31.4108 75.395C31.2069 75.2401 30.9527 75.1455 30.675 75.1455C30.1798 75.1455 29.7544 75.4382 29.5668 75.857C29.3792 75.4382 28.9542 75.1455 28.459 75.1455C27.9635 75.1455 27.5385 75.4382 27.3509 75.857C27.1633 75.4382 26.7383 75.1455 26.2427 75.1455C25.7475 75.1455 25.3225 75.4382 25.1349 75.857C24.9473 75.4382 24.5223 75.1455 24.0268 75.1455C23.5316 75.1455 23.1066 75.4382 22.919 75.857C22.7314 75.4382 22.306 75.1455 21.8108 75.1455C21.3538 75.1455 20.959 75.3964 20.7528 75.7643C20.711 75.7483 20.6707 75.7309 20.6274 75.7167C20.4147 75.3746 20.0323 75.1455 19.5949 75.1455C19.2244 75.1455 18.8936 75.3095 18.6714 75.5673C18.562 75.5807 18.4518 75.5967 18.3399 75.6175C18.1188 75.3317 17.772 75.1455 17.3789 75.1455C16.8838 75.1455 16.4584 75.4382 16.2708 75.857C16.0832 75.4382 15.6582 75.1455 15.1626 75.1455C14.6678 75.1455 14.2424 75.4382 14.0548 75.857C13.8672 75.4382 13.4422 75.1455 12.9471 75.1455C12.4515 75.1455 12.0265 75.4382 11.8389 75.857C11.6513 75.4382 11.2259 75.1455 10.7308 75.1455C10.2356 75.1455 9.8102 75.4382 9.6226 75.857C9.435 75.4382 9.00999 75.1455 8.51481 75.1455C8.33048 75.1455 8.15597 75.1863 8 75.259V77.4142C8.15597 77.4866 8.33048 77.5276 8.51481 77.5276C9.00999 77.5273 9.435 77.235 9.6226 76.8161C9.8102 77.235 10.2356 77.5276 10.7308 77.5276C11.2259 77.5273 11.6513 77.235 11.8389 76.8161C12.0265 77.235 12.4515 77.5276 12.9471 77.5276C13.4422 77.5273 13.8672 77.235 14.0548 76.8161C14.2424 77.235 14.6678 77.5276 15.1626 77.5276C15.1892 77.5273 15.2146 77.5233 15.2404 77.5218L15.2372 77.5327C15.2121 77.5316 15.1881 77.5276 15.1626 77.5276C14.6678 77.5273 14.2424 77.8203 14.0548 78.2391C13.8672 77.8203 13.4422 77.5276 12.9471 77.5276C12.4515 77.5273 12.0265 77.8203 11.8389 78.2391C11.6513 77.8203 11.2259 77.5276 10.7308 77.5276C10.2356 77.5273 9.8102 77.8203 9.6226 78.2391C9.435 77.8203 9.00999 77.5276 8.51481 77.5276C8.33048 77.5273 8.15597 77.5684 8 77.6411V79.7959C8.15597 79.8687 8.33048 79.9094 8.51481 79.9094C9.00999 79.9094 9.435 79.6167 9.6226 79.1979C9.8102 79.6167 10.2356 79.9094 10.7308 79.9094C11.2259 79.9094 11.6513 79.6167 11.8389 79.1979C12.0265 79.6167 12.4515 79.9094 12.9471 79.9094C13.4422 79.9094 13.8672 79.6167 14.0548 79.1979C14.2424 79.6167 14.6678 79.9094 15.1626 79.9094C15.6582 79.9094 16.0832 79.6167 16.2708 79.1979C16.4457 79.5876 16.827 79.8654 17.2786 79.9021C17.2768 79.9072 17.2753 79.9119 17.2735 79.9174C16.8245 79.9555 16.4449 80.2322 16.2708 80.6209C16.0832 80.202 15.6582 79.9094 15.1626 79.9094C14.6678 79.9094 14.2424 80.202 14.0548 80.6209C13.8672 80.202 13.4422 79.9094 12.9471 79.9094C12.4515 79.9094 12.0265 80.202 11.8389 80.6209C11.6513 80.202 11.2259 79.9094 10.7308 79.9094C10.2356 79.9094 9.8102 80.202 9.6226 80.6209C9.435 80.202 9.00999 79.9094 8.51481 79.9094C8.33048 79.9094 8.15597 79.9501 8 80.0228V82.178C8.15597 82.2507 8.33048 82.2915 8.51481 82.2915C9.00999 82.2915 9.435 81.9984 9.6226 81.5796C9.8102 81.9984 10.2356 82.2915 10.7308 82.2915C11.2259 82.2915 11.6513 81.9984 11.8389 81.5796C12.0265 81.9984 12.4515 82.2915 12.9471 82.2915C13.4422 82.2915 13.8672 81.9984 14.0548 81.5796C14.2424 81.9984 14.6678 82.2915 15.1626 82.2915C15.6582 82.2915 16.0832 81.9984 16.2708 81.5796C16.3359 81.725 16.4311 81.8537 16.5464 81.9617L16.2126 82.8946C16.0039 82.5354 15.6135 82.2915 15.1626 82.2915C14.6678 82.2915 14.2424 82.5841 14.0548 83.003C13.8672 82.5841 13.4422 82.2915 12.9471 82.2915C12.4515 82.2915 12.0265 82.5841 11.8389 83.003C11.6513 82.5841 11.2259 82.2915 10.7308 82.2915C10.2356 82.2915 9.8102 82.5841 9.6226 83.003C9.435 82.5841 9.00999 82.2915 8.51481 82.2915C8.33048 82.2915 8.15597 82.3322 8 82.4045V84.5598C8.15597 84.6325 8.33048 84.6736 8.51481 84.6736C9.00999 84.6736 9.435 84.3805 9.6226 83.9617C9.8102 84.3805 10.2356 84.6736 10.7308 84.6736C11.2259 84.6736 11.6513 84.3805 11.8389 83.9617C12.0265 84.3805 12.4515 84.6736 12.9471 84.6736C13.4422 84.6736 13.8672 84.3805 14.0548 83.9617C14.2424 84.3805 14.6678 84.6736 15.1626 84.6736C15.4026 84.6736 15.6251 84.6034 15.8131 84.4852C15.7967 84.6052 15.7843 84.7237 15.7756 84.8404C15.5956 84.7357 15.3873 84.6736 15.1626 84.6736C14.6678 84.6736 14.2424 84.9662 14.0548 85.3851C13.8672 84.9662 13.4422 84.6736 12.9471 84.6736C12.4515 84.6736 12.0265 84.9662 11.8389 85.3851C11.6513 84.9662 11.2259 84.6736 10.7308 84.6736C10.2356 84.6736 9.8102 84.9662 9.6226 85.3851C9.435 84.9662 9.00999 84.6736 8.51481 84.6736C8.33048 84.6736 8.15597 84.7139 8 84.7866V86.9419C8.15597 87.0142 8.33048 87.0553 8.51481 87.0553C9.00999 87.0553 9.435 86.7622 9.6226 86.3434C9.8102 86.7622 10.2356 87.0553 10.7308 87.0553C11.2259 87.0553 11.6513 86.7622 11.8389 86.3434C12.0265 86.7622 12.4515 87.0553 12.9471 87.0553C13.4422 87.0553 13.8672 86.7622 14.0548 86.3434C14.2424 86.7622 14.6678 87.0553 15.1626 87.0553C15.5967 87.0553 15.9767 86.8306 16.1904 86.4936C16.2981 86.6506 16.4253 86.7986 16.5729 86.9342C16.6649 87.0189 16.766 87.0946 16.8707 87.1662C16.6038 87.288 16.3897 87.5014 16.2708 87.7668C16.0832 87.348 15.6582 87.0553 15.1626 87.0553C14.6678 87.0553 14.2424 87.348 14.0548 87.7668C13.8672 87.348 13.4422 87.0553 12.9471 87.0553C12.4515 87.0553 12.0265 87.348 11.8389 87.7668C11.6513 87.348 11.2259 87.0553 10.7308 87.0553C10.2356 87.0553 9.8102 87.348 9.6226 87.7668C9.435 87.348 9.00999 87.0553 8.51481 87.0553C8.33048 87.0553 8.15597 87.096 8 87.1687V89.3239C8.15597 89.3963 8.33048 89.437 8.51481 89.437C9.00999 89.437 9.435 89.1443 9.6226 88.7255C9.8102 89.1443 10.2356 89.437 10.7308 89.437C11.2259 89.437 11.6513 89.1443 11.8389 88.7255C12.0265 89.1443 12.4515 89.437 12.9471 89.437C13.4422 89.437 13.8672 89.1443 14.0548 88.7255C14.2424 89.1443 14.6678 89.437 15.1626 89.437C15.6582 89.437 16.0832 89.1443 16.2708 88.7255C16.4584 89.1443 16.8838 89.437 17.3789 89.437C17.8741 89.437 18.2991 89.1443 18.4867 88.7255C18.6743 89.1443 19.0997 89.437 19.5949 89.437C20.0901 89.437 20.5154 89.1443 20.703 88.7255C20.8906 89.1443 21.3156 89.437 21.8108 89.437C22.306 89.437 22.7314 89.1443 22.919 88.7255C23.1066 89.1443 23.5316 89.437 24.0268 89.437C24.5223 89.437 24.9473 89.1443 25.1349 88.7255C25.3225 89.1443 25.7475 89.437 26.2427 89.437C26.7383 89.437 27.1633 89.1443 27.3509 88.7255C27.5385 89.1443 27.9635 89.437 28.459 89.437C28.9542 89.437 29.3792 89.1443 29.5668 88.7255C29.7544 89.1443 30.1798 89.437 30.675 89.437C31.1701 89.437 31.5955 89.1443 31.7831 88.7255C31.9703 89.1443 32.3957 89.437 32.8909 89.437C33.3861 89.437 33.8115 89.1443 33.9991 88.7255C34.1867 89.1443 34.6117 89.437 35.1068 89.437C35.602 89.437 36.0274 89.1443 36.215 88.7255C36.4026 89.1443 36.8276 89.437 37.3228 89.437C37.8183 89.437 38.2433 89.1443 38.4309 88.7255C38.6185 89.1443 39.0435 89.437 39.5391 89.437C40.0343 89.437 40.4593 89.1443 40.6469 88.7255C40.8345 89.1443 41.2599 89.437 41.755 89.437C42.2502 89.437 42.6752 89.1443 42.8628 88.7255C43.0504 89.1443 43.4758 89.437 43.971 89.437C44.4662 89.437 44.8915 89.1443 45.0788 88.7255C45.2667 89.1443 45.6917 89.437 46.1869 89.437C46.6821 89.437 47.1075 89.1443 47.2951 88.7255C47.4827 89.1443 47.9077 89.437 48.4032 89.437C48.8984 89.437 49.3234 89.1443 49.511 88.7255C49.699 89.1443 50.1236 89.437 50.6192 89.437C51.1143 89.437 51.5394 89.1443 51.727 88.7255C51.9146 89.1443 52.3396 89.437 52.8351 89.437C53.3303 89.437 53.7553 89.1443 53.9429 88.7255C54.1305 89.1443 54.5559 89.437 55.0507 89.437C55.5462 89.437 55.9716 89.1443 56.1592 88.7255C56.3464 89.1443 56.7718 89.437 57.2674 89.437C57.7622 89.437 58.1875 89.1443 58.3751 88.7255C58.5627 89.1443 58.9878 89.437 59.4829 89.437C59.9785 89.437 60.4035 89.1443 60.5911 88.7255C60.7787 89.1443 61.2037 89.437 61.6992 89.437C62.1944 89.437 62.6194 89.1443 62.807 88.7255C62.9946 89.1443 63.42 89.437 63.9148 89.437C64.4104 89.437 64.8357 89.1443 65.023 88.7255C65.2106 89.1443 65.6359 89.437 66.1311 89.437C66.6263 89.437 67.0517 89.1443 67.2393 88.7255C67.4265 89.1443 67.8519 89.437 68.3471 89.437C68.8422 89.437 69.2673 89.1443 69.4552 88.7255C69.6428 89.1443 70.0678 89.437 70.5634 89.437C71.0582 89.437 71.4836 89.1443 71.6712 88.7255C71.8588 89.1443 72.2838 89.437 72.7793 89.437C73.2861 89.437 73.7202 89.1298 73.9002 88.6946C74.0809 89.1298 74.5146 89.437 75.0214 89.437C75.529 89.437 75.9631 89.1298 76.143 88.6946C76.3234 89.1298 76.7571 89.437 77.2646 89.437C77.7718 89.437 78.2056 89.1298 78.3859 88.6946C78.5659 89.1298 78.9999 89.437 79.5071 89.437C80.0147 89.437 80.4484 89.1298 80.6287 88.6946C80.8087 89.1298 81.2424 89.437 81.75 89.437C82.2575 89.437 82.6913 89.1298 82.8712 88.6946C83.0512 89.1298 83.4853 89.437 83.9925 89.437C84.5 89.437 84.9341 89.1298 85.1141 88.6946C85.2944 89.1298 85.7278 89.437 86.2353 89.437C86.6981 89.437 87.0991 89.1822 87.3035 88.8073C87.5074 89.1822 87.9088 89.437 88.3713 89.437C88.7912 89.437 89.1613 89.2269 89.378 88.9073C89.5914 89.2 89.9393 89.3912 90.3334 89.3912C90.761 89.3912 91.1336 89.1665 91.339 88.8309C91.5423 89.14 91.8939 89.3454 92.2956 89.3454C92.7333 89.3454 93.1085 89.0996 93.2994 88.7441C93.4892 89.0738 93.8448 89.2989 94.2574 89.2989C94.705 89.2989 95.0885 89.0364 95.262 88.6601C95.4354 89.0102 95.7971 89.253 96.2199 89.253C96.6824 89.253 97.0725 88.9626 97.2212 88.5586C97.371 88.9371 97.7433 89.2072 98.1821 89.2072C98.6686 89.2072 99.0736 88.8753 99.183 88.4303C99.2957 88.8499 99.6815 89.1611 100.144 89.1611C100.694 89.1611 101.141 88.7226 101.141 88.1823C101.141 87.7482 100.851 87.3839 100.453 87.256H100.646C100.874 87.256 101.085 87.136 101.199 86.9408C101.314 86.7455 101.314 86.5052 101.2 86.31L101.086 86.1147C101.119 86.0177 101.141 85.9159 101.141 85.8082C101.141 85.3367 100.801 84.9433 100.349 84.8503L100.091 84.4081C100.109 84.4092 100.126 84.4129 100.144 84.4129C100.694 84.4129 101.141 83.9744 101.141 83.4342C101.141 83.2164 101.066 83.0171 100.943 82.8546C101.154 82.6536 101.352 82.4409 101.522 82.2049C101.591 82.11 101.655 82.0126 101.716 81.9137C101.835 81.9661 101.967 81.9962 102.106 81.9962C102.637 81.9962 103.068 81.5738 103.068 81.0528C103.068 80.6191 102.767 80.2573 102.36 80.1471C102.39 79.9588 102.407 79.7658 102.415 79.5691C102.794 79.4418 103.068 79.0939 103.068 78.6802C103.068 78.1719 102.657 77.7603 102.144 77.7403C102.075 77.5622 101.994 77.3902 101.899 77.2273C101.966 77.2419 102.035 77.2506 102.106 77.2506C102.637 77.2506 103.068 76.8281 103.068 76.3071ZM97.1463 80.2649C97.1042 80.3024 97.054 80.3347 96.9987 80.3631C96.8046 80.1555 96.5293 80.0239 96.2199 80.0239C96.0232 80.0239 95.8408 80.0781 95.683 80.1697L95.7888 79.6549C95.92 79.713 96.0658 79.7461 96.2199 79.7461C96.5973 79.7461 96.9238 79.5509 97.1132 79.2604C97.3568 79.3498 97.363 79.5142 97.363 79.6669C97.363 80.0293 97.2394 80.1817 97.1463 80.2649ZM96.6097 78.5616H95.3594L94.8369 81.1142H96.3723C96.8893 81.1142 97.2903 80.9873 97.5753 80.7332C97.7662 80.5627 97.8876 80.3427 97.9505 80.081H97.9502C97.9636 80.0264 97.9738 79.9697 97.9822 79.9119C97.9927 79.8327 98.0021 79.753 98.0021 79.6669C98.0021 78.9299 97.5382 78.5616 96.6097 78.5616ZM104.068 77.7665C103.557 77.7665 103.142 78.1733 103.142 78.6743C103.142 79.1757 103.557 79.5825 104.068 79.5825C104.579 79.5825 104.994 79.1757 104.994 78.6743C104.994 78.1733 104.579 77.7665 104.068 77.7665ZM104.068 75.3946C103.557 75.3946 103.142 75.8018 103.142 76.3031C103.142 76.8041 103.557 77.211 104.068 77.211C104.579 77.211 104.994 76.8041 104.994 76.3031C104.994 75.8018 104.579 75.3946 104.068 75.3946ZM104.068 73.023C103.557 73.023 103.142 73.4302 103.142 73.9316C103.142 74.4326 103.557 74.8394 104.068 74.8394C104.579 74.8394 104.994 74.4326 104.994 73.9316C104.994 73.4299 104.579 73.0234 104.068 73.023ZM104.068 68.2803C103.557 68.2803 103.142 68.6868 103.142 69.1881C103.142 69.6895 103.557 70.0963 104.068 70.0963C104.579 70.0963 104.994 69.6895 104.994 69.1881C104.994 68.6868 104.579 68.2803 104.068 68.2803ZM104.068 80.1377C103.557 80.1377 103.142 80.5449 103.142 81.0459C103.142 81.5472 103.557 81.9544 104.068 81.9544C104.579 81.9544 104.994 81.5472 104.994 81.0459C104.994 80.5449 104.579 80.1377 104.068 80.1377ZM106.03 84.907C105.539 84.907 105.14 85.2985 105.14 85.7799C105.14 86.2616 105.539 86.6528 106.03 86.6528C106.522 86.6528 106.921 86.2616 106.921 85.7799C106.921 85.2985 106.522 84.907 106.03 84.907ZM106.03 82.5369C105.539 82.5369 105.14 82.9277 105.14 83.4098C105.14 83.8915 105.539 84.2824 106.03 84.2824C106.522 84.2824 106.921 83.8915 106.921 83.4098C106.921 82.9277 106.522 82.5369 106.03 82.5369ZM106.03 87.2774C105.539 87.2774 105.14 87.6683 105.14 88.15C105.14 88.6321 105.539 89.0229 106.03 89.0229C106.522 89.0229 106.921 88.6321 106.921 88.15C106.921 87.6683 106.522 87.2774 106.03 87.2774ZM104.068 70.6515C103.557 70.6515 103.142 71.0587 103.142 71.5597C103.142 72.061 103.557 72.4679 104.068 72.4679C104.579 72.4679 104.994 72.061 104.994 71.5597C104.994 71.0587 104.579 70.6519 104.068 70.6515ZM104.068 82.5096C103.557 82.5096 103.142 82.9164 103.142 83.4174C103.142 83.9192 103.557 84.326 104.068 84.326C104.579 84.326 104.994 83.9192 104.994 83.4174C104.994 82.9164 104.579 82.5096 104.068 82.5096ZM102.106 70.618C101.575 70.618 101.144 71.0405 101.144 71.5615C101.144 72.0821 101.575 72.505 102.106 72.505C102.637 72.505 103.068 72.0821 103.068 71.5615C103.068 71.0405 102.637 70.618 102.106 70.618ZM106.03 80.1668C105.539 80.1668 105.14 80.5576 105.14 81.0397C105.14 81.5211 105.539 81.9123 106.03 81.9123C106.522 81.9123 106.921 81.5211 106.921 81.0397C106.921 80.5576 106.522 80.1668 106.03 80.1668ZM102.106 72.9907C101.575 72.9907 101.144 73.4135 101.144 73.9345C101.144 74.4551 101.575 74.8776 102.106 74.8776C102.637 74.8776 103.068 74.4551 103.068 73.9345C103.068 73.4135 102.637 72.9907 102.106 72.9907ZM104.068 84.8811C103.557 84.8811 103.142 85.288 103.142 85.7893C103.142 86.2907 103.557 86.6975 104.068 86.6975C104.579 86.6975 104.994 86.2907 104.994 85.7893C104.994 85.288 104.579 84.8811 104.068 84.8811ZM104.068 87.2527C103.557 87.2527 103.142 87.6595 103.142 88.1609C103.142 88.6622 103.557 89.0687 104.068 89.0687C104.579 89.0687 104.994 88.6622 104.994 88.1609C104.994 87.6595 104.579 87.2527 104.068 87.2527ZM102.106 68.245C101.575 68.245 101.144 68.6675 101.144 69.1885C101.144 69.7095 101.575 70.132 102.106 70.132C102.637 70.132 103.068 69.7095 103.068 69.1885C103.068 68.6675 102.637 68.245 102.106 68.245ZM104.068 89.6242C103.557 89.6242 103.142 90.0311 103.142 90.5324C103.142 91.0338 103.557 91.4406 104.068 91.4406C104.579 91.4406 104.994 91.0338 104.994 90.5324C104.994 90.0311 104.579 89.6242 104.068 89.6242ZM115.841 75.5818C115.448 75.5818 115.129 75.8938 115.129 76.2777C115.129 76.6616 115.448 76.9739 115.841 76.9739C116.234 76.9739 116.553 76.6616 116.553 76.2777C116.553 75.8938 116.234 75.5818 115.841 75.5818ZM115.841 68.4905C115.448 68.4905 115.129 68.8024 115.129 69.186C115.129 69.5702 115.448 69.8822 115.841 69.8822C116.234 69.8822 116.553 69.5702 116.553 69.186C116.553 68.8024 116.234 68.4905 115.841 68.4905ZM115.841 73.2179C115.448 73.2179 115.129 73.5302 115.129 73.9141C115.129 74.2977 115.448 74.61 115.841 74.61C116.234 74.61 116.553 74.2977 116.553 73.9141C116.553 73.5302 116.234 73.2179 115.841 73.2179ZM113.879 68.4552C113.466 68.4552 113.131 68.7831 113.131 69.1867C113.131 69.5902 113.466 69.9182 113.879 69.9182C114.291 69.9182 114.627 69.5902 114.627 69.1867C114.627 68.7831 114.291 68.4552 113.879 68.4552ZM115.841 70.8544C115.448 70.8544 115.129 71.1663 115.129 71.5502C115.129 71.9342 115.448 72.2461 115.841 72.2461C116.234 72.2457 116.553 71.9342 116.553 71.5502C116.553 71.1663 116.234 70.8544 115.841 70.8544ZM113.879 70.8205C113.466 70.8205 113.131 71.1485 113.131 71.5517C113.131 71.9552 113.466 72.2832 113.879 72.2832C114.291 72.2832 114.627 71.9552 114.627 71.5517C114.627 71.1485 114.291 70.8205 113.879 70.8205ZM111.917 68.4203C111.484 68.4203 111.133 68.7639 111.133 69.1867C111.133 69.6099 111.484 69.9538 111.917 69.9538C112.349 69.9538 112.7 69.6102 112.7 69.1867C112.7 68.7639 112.349 68.4203 111.917 68.4203ZM111.917 70.7864C111.484 70.7864 111.133 71.1303 111.133 71.5535C111.133 71.9763 111.484 72.3199 111.917 72.3199C112.349 72.3199 112.7 71.9763 112.7 71.5535C112.7 71.1303 112.349 70.7864 111.917 70.7864ZM113.879 75.5506C113.466 75.5506 113.131 75.8785 113.131 76.2821C113.131 76.6856 113.466 77.0132 113.879 77.0132C114.291 77.0132 114.627 76.6856 114.627 76.2821C114.627 75.8785 114.291 75.5506 113.879 75.5506ZM113.879 73.1852C113.466 73.1852 113.131 73.5131 113.131 73.9167C113.131 74.3203 113.466 74.6482 113.879 74.6482C114.291 74.6482 114.627 74.3203 114.627 73.9167C114.627 73.5131 114.291 73.1852 113.879 73.1852ZM119.765 70.9216C119.412 70.9216 119.124 71.2023 119.124 71.5466C119.124 71.8916 119.412 72.1719 119.765 72.1719C120.118 72.1719 120.406 71.8916 120.406 71.5466C120.406 71.2023 120.118 70.9216 119.765 70.9216ZM117.803 73.2503C117.429 73.2503 117.126 73.5466 117.126 73.9112C117.126 74.2755 117.429 74.5718 117.803 74.5718C118.176 74.5718 118.479 74.2755 118.479 73.9112C118.479 73.5466 118.176 73.2503 117.803 73.2503ZM102.106 87.228C101.575 87.228 101.144 87.6504 101.144 88.1714C101.144 88.6924 101.575 89.1153 102.106 89.1153C102.637 89.1153 103.068 88.6924 103.068 88.1714C103.068 87.6504 102.637 87.228 102.106 87.228ZM102.106 89.601C101.575 89.601 101.144 90.0238 101.144 90.5444C101.144 91.0654 101.575 91.4879 102.106 91.4879C102.637 91.4879 103.068 91.0654 103.068 90.5444C103.068 90.0238 102.637 89.601 102.106 89.601ZM106.03 77.7963C105.539 77.7963 105.14 78.1875 105.14 78.6689C105.14 79.1506 105.539 79.5418 106.03 79.5418C106.522 79.5418 106.921 79.1506 106.921 78.6689C106.921 78.1875 106.522 77.7963 106.03 77.7963ZM102.106 82.4823C101.575 82.4823 101.144 82.9048 101.144 83.4258C101.144 83.9468 101.575 84.3696 102.106 84.3696C102.637 84.3696 103.068 83.9468 103.068 83.4258C103.068 82.9048 102.637 82.4823 102.106 82.4823ZM102.106 84.8553C101.575 84.8553 101.144 85.2782 101.144 85.7988C101.144 86.3194 101.575 86.7419 102.106 86.7419C102.637 86.7419 103.068 86.3194 103.068 85.7988C103.068 85.2782 102.637 84.8553 102.106 84.8553ZM117.803 68.5254C117.429 68.5254 117.126 68.8217 117.126 69.186C117.126 69.5502 117.429 69.8466 117.803 69.8466C118.176 69.8466 118.479 69.5502 118.479 69.186C118.479 68.8217 118.176 68.5254 117.803 68.5254ZM117.803 70.8882C117.429 70.8882 117.126 71.1841 117.126 71.5484C117.126 71.9127 117.429 72.209 117.803 72.209C118.176 72.209 118.479 71.9127 118.479 71.5484C118.479 71.1841 118.176 70.8882 117.803 70.8882ZM119.765 68.5603C119.412 68.5603 119.124 68.8409 119.124 69.1856C119.124 69.5302 119.412 69.8109 119.765 69.8109C120.118 69.8109 120.406 69.5302 120.406 69.1856C120.406 68.8409 120.118 68.5603 119.765 68.5603ZM111.917 73.1532C111.484 73.1532 111.133 73.4964 111.133 73.92C111.133 74.3428 111.484 74.6864 111.917 74.6864C112.349 74.6864 112.7 74.3428 112.7 73.92C112.7 73.4964 112.349 73.1532 111.917 73.1532ZM121.727 68.5955C121.393 68.5955 121.122 68.8602 121.122 69.1852C121.122 69.5106 121.393 69.7753 121.727 69.7753C122.061 69.7753 122.332 69.5106 122.332 69.1852C122.332 68.8598 122.061 68.5955 121.727 68.5955ZM113.879 77.9159C113.466 77.9159 113.131 78.2435 113.131 78.6471C113.131 79.0506 113.466 79.3782 113.879 79.3782C114.291 79.3782 114.627 79.0506 114.627 78.6471C114.627 78.2435 114.291 77.9159 113.879 77.9159ZM107.992 80.1948C107.521 80.1948 107.137 80.5703 107.137 81.0324C107.137 81.4949 107.521 81.8701 107.992 81.8701C108.464 81.8701 108.847 81.4949 108.847 81.0324C108.847 80.5703 108.464 80.1948 107.992 80.1948ZM107.992 77.8261C107.521 77.8261 107.137 78.2013 107.137 78.6634C107.137 79.1255 107.521 79.5007 107.992 79.5007C108.464 79.5007 108.847 79.1255 108.847 78.6634C108.847 78.2013 108.464 77.8261 107.992 77.8261ZM107.992 73.0881C107.521 73.0881 107.137 73.4633 107.137 73.9254C107.137 74.3875 107.521 74.7627 107.992 74.7627C108.464 74.7627 108.847 74.3879 108.847 73.9254C108.847 73.4633 108.464 73.0881 107.992 73.0881ZM107.992 82.5641C107.521 82.5641 107.137 82.9393 107.137 83.4014C107.137 83.8635 107.521 84.2387 107.992 84.2387C108.464 84.2387 108.847 83.8635 108.847 83.4014C108.847 82.9393 108.464 82.5641 107.992 82.5641ZM107.992 75.4571C107.521 75.4571 107.137 75.8323 107.137 76.2944C107.137 76.7569 107.521 77.1321 107.992 77.1321C108.464 77.1321 108.847 76.7569 108.847 76.2944C108.847 75.8323 108.464 75.4571 107.992 75.4571ZM106.03 70.6853C105.539 70.6853 105.14 71.0765 105.14 71.5582C105.14 72.04 105.539 72.4308 106.03 72.4308C106.522 72.4308 106.921 72.04 106.921 71.5582C106.921 71.0765 106.522 70.6853 106.03 70.6853ZM106.03 73.0558C105.539 73.0558 105.14 73.4466 105.14 73.9287C105.14 74.41 105.539 74.8012 106.03 74.8012C106.522 74.8012 106.921 74.4104 106.921 73.9287C106.921 73.4466 106.522 73.0558 106.03 73.0558ZM107.992 70.7191C107.521 70.7191 107.137 71.0943 107.137 71.5568C107.137 72.0189 107.521 72.3941 107.992 72.3941C108.464 72.3941 108.847 72.0189 108.847 71.5568C108.847 71.0943 108.464 70.7191 107.992 70.7191ZM106.03 68.3152C105.539 68.3152 105.14 68.706 105.14 69.1878C105.14 69.6695 105.539 70.0607 106.03 70.0607C106.522 70.0607 106.921 69.6695 106.921 69.1878C106.921 68.706 106.522 68.3152 106.03 68.3152ZM111.917 75.5193C111.484 75.5193 111.133 75.8632 111.133 76.2861C111.133 76.7093 111.484 77.0528 111.917 77.0528C112.349 77.0528 112.7 76.7093 112.7 76.2861C112.7 75.8632 112.349 75.5193 111.917 75.5193ZM106.03 75.4259C105.539 75.4259 105.14 75.8171 105.14 76.2988C105.14 76.7805 105.539 77.1717 106.03 77.1717C106.522 77.1717 106.921 76.7805 106.921 76.2988C106.921 75.8171 106.522 75.4259 106.03 75.4259ZM107.992 84.9331C107.521 84.9331 107.137 85.3083 107.137 85.7704C107.137 86.2325 107.521 86.6081 107.992 86.6081C108.464 86.6081 108.847 86.2325 108.847 85.7704C108.847 85.3083 108.464 84.9331 107.992 84.9331ZM109.954 68.385C109.503 68.385 109.135 68.7446 109.135 69.187C109.136 69.6299 109.503 69.9894 109.954 69.9894C110.407 69.9894 110.774 69.6299 110.774 69.187C110.774 68.7446 110.407 68.385 109.954 68.385ZM107.992 68.3501C107.521 68.3501 107.137 68.7253 107.137 69.1874C107.137 69.6499 107.521 70.0251 107.992 70.0251C108.464 70.0251 108.847 69.6499 108.847 69.1874C108.847 68.7253 108.464 68.3501 107.992 68.3501ZM109.954 70.7529C109.503 70.7529 109.135 71.1125 109.135 71.555C109.136 71.9974 109.503 72.357 109.954 72.357C110.407 72.357 110.774 71.9974 110.774 71.555C110.774 71.1125 110.407 70.7529 109.954 70.7529ZM111.917 80.2522C111.484 80.2522 111.133 80.5961 111.133 81.019C111.133 81.4418 111.484 81.7854 111.917 81.7854C112.349 81.7854 112.7 81.4418 112.7 81.019C112.7 80.5961 112.349 80.2522 111.917 80.2522ZM111.917 77.8858C111.484 77.8858 111.133 78.2293 111.133 78.6525C111.133 79.0757 111.484 79.4193 111.917 79.4193C112.349 79.4193 112.7 79.0757 112.7 78.6525C112.7 78.2293 112.349 77.8861 111.917 77.8858ZM109.954 82.5914C109.503 82.5914 109.135 82.951 109.135 83.3934C109.136 83.8363 109.503 84.1955 109.954 84.1955C110.407 84.1955 110.774 83.8363 110.774 83.3934C110.774 82.951 110.407 82.5914 109.954 82.5914ZM109.954 80.2239C109.503 80.2239 109.135 80.5827 109.135 81.0259C109.136 81.4683 109.503 81.8279 109.954 81.8279C110.407 81.8279 110.774 81.4683 110.774 81.0259C110.774 80.5827 110.407 80.2239 109.954 80.2239ZM109.954 75.4884C109.503 75.4884 109.135 75.8476 109.135 76.2904C109.136 76.7329 109.503 77.0924 109.954 77.0924C110.407 77.0924 110.774 76.7329 110.774 76.2904C110.774 75.8476 110.407 75.4884 109.954 75.4884ZM109.954 77.8559C109.503 77.8559 109.135 78.2155 109.135 78.658C109.136 79.1004 109.503 79.46 109.954 79.46C110.407 79.46 110.774 79.1004 110.774 78.658C110.774 78.2155 110.407 77.8559 109.954 77.8559ZM109.954 73.1205C109.503 73.1205 109.135 73.48 109.135 73.9225C109.136 74.3653 109.503 74.7245 109.954 74.7245C110.407 74.7245 110.774 74.3653 110.774 73.9225C110.774 73.48 110.407 73.1205 109.954 73.1205ZM59.5622 79.9036L59.4448 79.2931L57.8145 82.0791H57.9538H58.7962H59.9825L59.5633 79.9083L59.5622 79.9036Z" fill="#2B2A29"/>
<path d="M106.008 76.8748C107.621 76.8748 108.928 75.5679 108.928 73.9557C108.928 72.3435 107.621 71.0366 106.008 71.0366C104.396 71.0366 103.089 72.3435 103.089 73.9557C103.089 75.5679 104.396 76.8748 106.008 76.8748Z" fill="#FEFEFE" stroke="#2B2A29" stroke-width="0.666709" stroke-miterlimit="22.9256"/>
<path d="M104.912 75.1528V72.0058H106.307C106.587 72.0058 106.801 72.0345 106.947 72.0917C107.093 72.1475 107.209 72.247 107.296 72.3901C107.384 72.5332 107.427 72.6913 107.427 72.8645C107.427 73.0878 107.355 73.2759 107.211 73.4291C107.066 73.5822 106.843 73.6795 106.541 73.721C106.651 73.774 106.735 73.8262 106.792 73.8777C106.914 73.9893 107.029 74.1289 107.138 74.2963L107.685 75.1528H107.161L106.745 74.4981C106.623 74.3092 106.523 74.1647 106.444 74.0645C106.366 73.9643 106.295 73.8942 106.232 73.8541C106.17 73.814 106.107 73.7861 106.043 73.7704C105.996 73.7604 105.918 73.7554 105.811 73.7554H105.328V75.1528H104.912ZM105.328 73.3947H106.223C106.413 73.3947 106.562 73.3754 106.67 73.3368C106.777 73.2967 106.859 73.2337 106.914 73.1479C106.97 73.0606 106.998 72.9661 106.998 72.8645C106.998 72.7157 106.944 72.5933 106.835 72.4974C106.728 72.4015 106.557 72.3536 106.324 72.3536H105.328V73.3947Z" fill="#2B2A29"/>
<path d="M104.912 75.1528H104.768V75.2968H104.912V75.1528ZM104.912 72.0058V71.8618H104.768V72.0058H104.912ZM106.947 72.0917L106.894 72.2258L106.895 72.2262L106.947 72.0917ZM106.541 73.721L106.521 73.5784L106.047 73.6435L106.478 73.8508L106.541 73.721ZM106.792 73.8777L106.889 73.7716L106.888 73.7707L106.792 73.8777ZM107.138 74.2963L107.259 74.2188L107.258 74.2179L107.138 74.2963ZM107.685 75.1528V75.2968H107.948L107.806 75.0753L107.685 75.1528ZM107.161 75.1528L107.04 75.2301L107.082 75.2968H107.161V75.1528ZM106.745 74.4981L106.866 74.4208L106.866 74.4201L106.745 74.4981ZM106.232 73.8541L106.153 73.9748L106.154 73.9756L106.232 73.8541ZM106.043 73.7704L106.077 73.6304L106.073 73.6295L106.043 73.7704ZM105.328 73.7554V73.6114H105.184V73.7554H105.328ZM105.328 75.1528V75.2968H105.472V75.1528H105.328ZM105.328 73.3947H105.184V73.5387H105.328V73.3947ZM106.67 73.3368L106.718 73.4723L106.72 73.4717L106.67 73.3368ZM106.914 73.1479L107.035 73.2263L107.036 73.2254L106.914 73.1479ZM106.835 72.4974L106.739 72.6048L106.74 72.6054L106.835 72.4974ZM105.328 72.3536V72.2096H105.184V72.3536H105.328ZM105.056 75.1528V72.0058H104.768V75.1528H105.056ZM104.912 72.1498H106.307V71.8618H104.912V72.1498ZM106.307 72.1498C106.581 72.1498 106.773 72.1784 106.894 72.2258L106.999 71.9576C106.828 71.8906 106.593 71.8618 106.307 71.8618V72.1498ZM106.895 72.2262C107.009 72.2698 107.102 72.3471 107.174 72.4651L107.419 72.3151C107.317 72.1469 107.176 72.0252 106.998 71.9572L106.895 72.2262ZM107.174 72.4651C107.247 72.5848 107.283 72.7169 107.283 72.8645H107.571C107.571 72.6658 107.521 72.4816 107.419 72.3151L107.174 72.4651ZM107.283 72.8645C107.283 73.0534 107.224 73.2055 107.106 73.3302L107.315 73.5279C107.487 73.3463 107.571 73.1221 107.571 72.8645H107.283ZM107.106 73.3302C106.992 73.4508 106.805 73.5394 106.521 73.5784L106.56 73.8637C106.881 73.8196 107.14 73.7136 107.315 73.5279L107.106 73.3302ZM106.478 73.8508C106.583 73.9009 106.653 73.9461 106.696 73.9848L106.888 73.7707C106.817 73.7063 106.719 73.6471 106.603 73.5912L106.478 73.8508ZM106.695 73.9838C106.806 74.0857 106.913 74.2154 107.017 74.3748L107.258 74.2179C107.144 74.0423 107.022 73.8929 106.889 73.7716L106.695 73.9838ZM107.016 74.3739L107.564 75.2304L107.806 75.0753L107.259 74.2188L107.016 74.3739ZM107.685 75.0088H107.161V75.2968H107.685V75.0088ZM107.283 75.0755L106.866 74.4208L106.623 74.5754L107.04 75.2301L107.283 75.0755ZM106.866 74.4201C106.743 74.2298 106.64 74.0809 106.557 73.9755L106.331 74.1534C106.406 74.2484 106.503 74.3886 106.624 74.5761L106.866 74.4201ZM106.557 73.9755C106.475 73.8703 106.392 73.7855 106.309 73.7326L106.154 73.9756C106.197 74.0029 106.256 74.0583 106.331 74.1534L106.557 73.9755ZM106.31 73.7334C106.237 73.6855 106.159 73.6505 106.077 73.6305L106.009 73.9103C106.056 73.9218 106.104 73.9426 106.153 73.9748L106.31 73.7334ZM106.073 73.6295C106.01 73.6161 105.919 73.6114 105.811 73.6114V73.8994C105.917 73.8994 105.982 73.9046 106.013 73.9113L106.073 73.6295ZM105.811 73.6114H105.328V73.8994H105.811V73.6114ZM105.184 73.7554V75.1528H105.472V73.7554H105.184ZM105.328 75.0088H104.912V75.2968H105.328V75.0088ZM105.328 73.5387H106.223V73.2507H105.328V73.5387ZM106.223 73.5387C106.421 73.5387 106.588 73.519 106.718 73.4723L106.621 73.2013C106.536 73.2318 106.406 73.2507 106.223 73.2507V73.5387ZM106.72 73.4717C106.853 73.4222 106.96 73.3411 107.035 73.2263L106.794 73.0694C106.757 73.1263 106.701 73.1712 106.619 73.2019L106.72 73.4717ZM107.036 73.2254C107.106 73.1155 107.142 72.9942 107.142 72.8645H106.854C106.854 72.938 106.834 73.0057 106.793 73.0703L107.036 73.2254ZM107.142 72.8645C107.142 72.6756 107.071 72.5134 106.93 72.3894L106.74 72.6054C106.817 72.6732 106.854 72.7558 106.854 72.8645H107.142ZM106.931 72.39C106.785 72.2597 106.572 72.2096 106.324 72.2096V72.4976C106.543 72.4976 106.67 72.5434 106.739 72.6048L106.931 72.39ZM106.324 72.2096H105.328V72.4976H106.324V72.2096ZM105.184 72.3536V73.3947H105.472V72.3536H105.184Z" fill="#2B2A29"/>
</svg>
