<svg width="128" height="128" viewBox="0 0 128 128" fill="none" xmlns="http://www.w3.org/2000/svg">
<path fill-rule="evenodd" clip-rule="evenodd" d="M64 0.751468C29.0688 0.751468 0.751468 29.0688 0.751468 64C0.751468 98.9312 29.0688 127.249 64 127.249C98.9312 127.249 127.249 98.9312 127.249 64C127.249 29.0688 98.9312 0.751468 64 0.751468ZM0 64C0 28.6538 28.6538 0 64 0C99.3462 0 128 28.6538 128 64C128 99.3462 99.3462 128 64 128C28.6538 128 0 99.3462 0 64Z" fill="#2B2A29"/>
<path fill-rule="evenodd" clip-rule="evenodd" d="M35.2747 16.2325C37.503 14.8468 39.0565 13.9062 42.2485 13.5186H84.9833C87.9774 13.5383 90.4174 14.4146 92.4036 15.9919L119.886 43.6117C121.561 45.6546 120.798 50.6499 117.275 50.8946L71.6201 50.9633C70.8528 51.0324 70.0399 50.6426 69.1808 49.7952L54.4436 35.092C52.8323 32.8272 53.7191 28.036 57.6385 27.6721L71.6889 27.6377C74.0477 27.649 74.036 22.8852 71.6545 22.9313L44.1721 22.8626C42.3008 22.9364 40.9129 23.7959 39.7748 25.0612L23.1823 41.7224L41.0116 41.6877L41.0742 31.3128C41.6356 26.3979 49.6601 26.4348 50.3816 31.2992L50.3882 47.15C50.1922 49.1344 48.7425 50.8225 46.508 50.8946H10.6435C7.76017 50.5504 6.24392 46.578 8.03263 43.4742L35.2747 16.2325ZM82.9232 23.8939C83.3036 22.5082 84.1345 22.0386 85.6028 22.8633L104.634 41.6884H74.5411C72.3716 41.6241 72.3705 37.1101 74.6098 36.8793H78.9896C81.1854 36.6284 82.6519 35.5269 82.9232 33.0316V23.8939Z" fill="#E31E24" stroke="#E31E24" stroke-width="0.755906" stroke-miterlimit="22.9256"/>
<path d="M11.4996 61.5873L14.5323 61.3974C14.598 61.8899 14.7316 62.2652 14.9334 62.5232C15.2617 62.9407 15.7308 63.1494 16.3406 63.1494C16.7957 63.1494 17.1451 63.0439 17.3891 62.8328C17.6377 62.617 17.762 62.3684 17.762 62.0869C17.762 61.8195 17.6447 61.5803 17.4102 61.3692C17.1756 61.1581 16.6315 60.9588 15.7777 60.7711C14.3798 60.4568 13.383 60.0393 12.7872 59.5186C12.1868 58.9979 11.8866 58.3342 11.8866 57.5273C11.8866 56.9972 12.039 56.4977 12.344 56.0286C12.6536 55.5548 13.1156 55.1842 13.7301 54.9168C14.3493 54.6447 15.1961 54.5087 16.2703 54.5087C17.5884 54.5087 18.5923 54.755 19.2819 55.2475C19.9761 55.7354 20.3889 56.5141 20.5203 57.5836L17.5157 57.7595C17.436 57.2951 17.2671 56.9574 17.0091 56.7463C16.7558 56.5352 16.404 56.4296 15.9536 56.4296C15.5831 56.4296 15.3039 56.5094 15.1163 56.6689C14.9287 56.8237 14.8348 57.0137 14.8348 57.2388C14.8348 57.403 14.9122 57.5508 15.067 57.6821C15.2172 57.8182 15.5737 57.9448 16.1366 58.0621C17.5298 58.3623 18.5266 58.6672 19.1271 58.9768C19.7322 59.2817 20.1708 59.6617 20.4429 60.1167C20.7196 60.5717 20.858 61.0807 20.858 61.6436C20.858 62.3051 20.6751 62.9149 20.3092 63.4731C19.9433 64.0313 19.432 64.4559 18.7752 64.7467C18.1185 65.0328 17.2906 65.1759 16.2914 65.1759C14.537 65.1759 13.322 64.8382 12.6465 64.1627C11.971 63.4872 11.5887 62.6287 11.4996 61.5873ZM26.2409 54.6846H29.7802L31.863 58.1676L33.9458 54.6846H37.464L33.4532 60.6796V65H30.2587V60.6796L26.2409 54.6846ZM42.7554 61.5873L45.788 61.3974C45.8537 61.8899 45.9874 62.2652 46.1891 62.5232C46.5175 62.9407 46.9866 63.1494 47.5964 63.1494C48.0514 63.1494 48.4009 63.0439 48.6448 62.8328C48.8935 62.617 49.0178 62.3684 49.0178 62.0869C49.0178 61.8195 48.9005 61.5803 48.6659 61.3692C48.4314 61.1581 47.8872 60.9588 47.0335 60.7711C45.6356 60.4568 44.6388 60.0393 44.043 59.5186C43.4426 58.9979 43.1424 58.3342 43.1424 57.5273C43.1424 56.9972 43.2948 56.4977 43.5997 56.0286C43.9093 55.5548 44.3714 55.1842 44.9859 54.9168C45.6051 54.6447 46.4518 54.5087 47.526 54.5087C48.8442 54.5087 49.8481 54.755 50.5376 55.2475C51.2319 55.7354 51.6447 56.5141 51.776 57.5836L48.7715 57.7595C48.6917 57.2951 48.5229 56.9574 48.2649 56.7463C48.0116 56.5352 47.6597 56.4296 47.2094 56.4296C46.8388 56.4296 46.5597 56.5094 46.3721 56.6689C46.1844 56.8237 46.0906 57.0137 46.0906 57.2388C46.0906 57.403 46.168 57.5508 46.3228 57.6821C46.4729 57.8182 46.8294 57.9448 47.3924 58.0621C48.7856 58.3623 49.7824 58.6672 50.3828 58.9768C50.988 59.2817 51.4266 59.6617 51.6986 60.1167C51.9754 60.5717 52.1138 61.0807 52.1138 61.6436C52.1138 62.3051 51.9308 62.9149 51.5649 63.4731C51.1991 64.0313 50.6877 64.4559 50.031 64.7467C49.3743 65.0328 48.5463 65.1759 47.5472 65.1759C45.7927 65.1759 44.5778 64.8382 43.9023 64.1627C43.2268 63.4872 42.8445 62.6287 42.7554 61.5873ZM57.8133 54.6846H67.5024V57.2318H64.2516V65H61.0641V57.2318H57.8133V54.6846ZM73.7578 54.6846H82.3V56.887H76.9523V58.5265H81.913V60.6304H76.9523V62.6639H82.4548V65H73.7578V54.6846ZM88.9565 54.6846H93.1502L94.7685 60.9611L96.3799 54.6846H100.56V65H97.956V57.1333L95.9366 65H93.5794L91.567 57.1333V65H88.9565V54.6846ZM106.857 61.5873L109.89 61.3974C109.955 61.8899 110.089 62.2652 110.291 62.5232C110.619 62.9407 111.088 63.1494 111.698 63.1494C112.153 63.1494 112.503 63.0439 112.747 62.8328C112.995 62.617 113.12 62.3684 113.12 62.0869C113.12 61.8195 113.002 61.5803 112.768 61.3692C112.533 61.1581 111.989 60.9588 111.135 60.7711C109.737 60.4568 108.741 60.0393 108.145 59.5186C107.544 58.9979 107.244 58.3342 107.244 57.5273C107.244 56.9972 107.397 56.4977 107.701 56.0286C108.011 55.5548 108.473 55.1842 109.088 54.9168C109.707 54.6447 110.554 54.5087 111.628 54.5087C112.946 54.5087 113.95 54.755 114.639 55.2475C115.334 55.7354 115.746 56.5141 115.878 57.5836L112.873 57.7595C112.794 57.2951 112.625 56.9574 112.367 56.7463C112.113 56.5352 111.761 56.4296 111.311 56.4296C110.941 56.4296 110.661 56.5094 110.474 56.6689C110.286 56.8237 110.192 57.0137 110.192 57.2388C110.192 57.403 110.27 57.5508 110.425 57.6821C110.575 57.8182 110.931 57.9448 111.494 58.0621C112.887 58.3623 113.884 58.6672 114.485 58.9768C115.09 59.2817 115.528 59.6617 115.8 60.1167C116.077 60.5717 116.216 61.0807 116.216 61.6436C116.216 62.3051 116.033 62.9149 115.667 63.4731C115.301 64.0313 114.79 64.4559 114.133 64.7467C113.476 65.0328 112.648 65.1759 111.649 65.1759C109.895 65.1759 108.68 64.8382 108.004 64.1627C107.329 63.4872 106.946 62.6287 106.857 61.5873Z" fill="#2B2A29"/>
<path fill-rule="evenodd" clip-rule="evenodd" d="M109.269 71.7823V76.6912H122.402C122.659 76.6912 122.868 76.8982 122.867 77.1831V78.6091C122.867 78.8658 122.659 79.0739 122.402 79.0739L107.35 79.075C107.093 79.075 106.885 78.8662 106.885 78.6091V69.8641C106.885 69.607 107.093 69.3985 107.35 69.3985H122.402C122.659 69.3985 122.868 69.6052 122.867 69.8904V71.3163C122.867 71.5727 122.659 71.7815 122.402 71.7815L109.269 71.7823ZM105.498 68.9878L104.071 68.9886C103.814 68.9886 103.605 68.7798 103.605 68.5227C103.605 68.5088 103.606 68.4978 103.606 68.4897V67.0704C103.606 66.814 103.814 66.6063 104.071 66.606L105.498 66.6045C105.756 66.6041 105.964 66.8115 105.963 67.0967V68.5227C105.963 68.779 105.755 68.9878 105.498 68.9878ZM105.911 69.7862V78.6091C105.911 78.8665 105.702 79.075 105.445 79.075H104.071C103.814 79.075 103.605 78.8662 103.605 78.6091V69.7862C103.605 69.5291 103.814 69.3203 104.071 69.3203H105.445C105.702 69.3203 105.911 69.5287 105.911 69.7862ZM89.0124 71.7823V76.6912H102.114C102.371 76.6912 102.58 76.9001 102.58 77.1572C102.58 77.1696 102.579 77.1787 102.579 77.1846V78.6091C102.579 78.8658 102.371 79.0739 102.114 79.0739L87.0782 79.075C86.8211 79.075 86.6126 78.8662 86.6126 78.6091V67.0704C86.6126 66.8133 86.8211 66.6045 87.0782 66.6045H88.5465C88.8036 66.6045 89.0124 66.8133 89.0124 67.0704V69.3985H102.114C102.371 69.3985 102.58 69.607 102.58 69.8641C102.58 69.8765 102.579 69.886 102.579 69.8919V71.3163C102.579 71.5727 102.37 71.7815 102.114 71.7815L89.0124 71.7823ZM72.1248 75.1754V76.6927H85.2101C85.4668 76.6927 85.6749 76.9004 85.6749 77.1572V78.6091C85.6749 78.8658 85.4668 79.0739 85.2101 79.0739L70.1664 79.075C69.9093 79.075 69.7009 78.8662 69.7009 78.6091V69.9102C69.7009 69.6531 69.9093 69.4443 70.1664 69.4443H85.2101C85.4676 69.4443 85.676 69.6527 85.676 69.9102V74.7109C85.676 74.968 85.4672 75.1768 85.2101 75.1768C85.1973 75.1768 85.1882 75.1761 85.1823 75.1754H72.1248ZM66.3495 71.7527H55.1714V78.6091C55.1714 78.8654 54.9633 79.0739 54.707 79.0739H53.2547C52.9983 79.0739 52.7903 78.8654 52.7903 78.6091L52.7888 69.7862C52.7888 69.5291 52.9976 69.3203 53.2547 69.3203H68.2742C68.5313 69.3203 68.7402 69.5291 68.7402 69.7862V78.6091C68.7402 78.8662 68.5313 79.075 68.2742 79.075H66.8139C66.5568 79.075 66.3484 78.8662 66.3484 78.6091C66.3484 78.5955 66.3487 78.5846 66.3495 78.5765V71.7527ZM35.4748 72.7525V71.7823H22.3811C22.124 71.7823 21.9156 71.5734 21.9156 71.3163C21.9156 71.3025 21.9159 71.2915 21.9167 71.2834V69.8641C21.9167 69.6077 22.1247 69.3996 22.3811 69.3996L37.4332 69.3985C37.6903 69.3985 37.8987 69.607 37.8987 69.8641V78.6091C37.8987 78.8662 37.6903 79.075 37.4332 79.075H22.3811C22.124 79.075 21.9156 78.8662 21.9156 78.6091V73.2184C21.9156 72.9613 22.124 72.7525 22.3811 72.7525H35.4748ZM49.745 79.4688V79.0428H39.231C38.9739 79.0428 38.7651 78.834 38.7651 78.5769V69.8023C38.7651 69.5452 38.9739 69.3364 39.231 69.3364C39.2464 69.3364 39.2574 69.3367 39.2647 69.3382L51.3705 69.3294C51.6273 69.3294 51.835 69.5375 51.835 69.7942L51.8365 81.4192C51.8365 81.6763 51.6276 81.8851 51.3705 81.8851H39.231C38.9739 81.8851 38.7651 81.6763 38.7651 81.4192V79.9348C38.7651 79.6777 38.9739 79.4688 39.231 79.4688H49.745ZM18.5386 71.7808H14.2546V78.6091C14.2546 78.8665 14.0461 79.075 13.7887 79.075H12.3287C12.0713 79.075 11.8628 78.8665 11.8628 78.6091V71.7808H7.44388V78.6091C7.44388 78.8665 7.23542 79.075 6.97796 79.075H5.59593C5.33883 79.075 5.13037 78.8662 5.13037 78.6091V69.8641C5.13037 69.607 5.33883 69.3985 5.59593 69.3985H20.4648C20.7219 69.3985 20.9307 69.607 20.9307 69.8641V78.6091C20.9307 78.8662 20.7219 79.075 20.4648 79.075H19.0045C18.7474 79.075 18.5386 78.8662 18.5386 78.6091V71.7808ZM72.1248 71.828V72.7927H83.2842V71.828H72.1248ZM35.4748 76.6912V75.1607H24.2993V76.6912H35.4748ZM49.7435 76.6185V71.7607H40.8581V76.6185H49.7435Z" fill="#898778"/>
<path d="M122.402 71.6362H109.123V76.8377H122.402C122.579 76.8377 122.722 76.9811 122.722 77.1574C122.722 77.1658 122.721 77.1735 122.721 77.1815V78.6093C122.721 78.7852 122.578 78.9278 122.402 78.9278V78.9289H107.351C107.174 78.9289 107.031 78.7859 107.031 78.6093V78.6009V69.8643C107.031 69.688 107.174 69.545 107.351 69.545H107.359H122.402C122.579 69.545 122.722 69.688 122.722 69.8643C122.722 69.8727 122.721 69.8808 122.721 69.8888V71.3165C122.721 71.4921 122.578 71.6347 122.402 71.6347V71.6362ZM105.499 68.8425H104.071C103.895 68.8425 103.751 68.6991 103.751 68.5229C103.751 68.5126 103.752 68.5024 103.753 68.4925V67.0706C103.753 66.8951 103.895 66.7524 104.071 66.7524V66.751H105.499C105.675 66.751 105.818 66.8943 105.818 67.0706C105.818 67.079 105.818 67.0871 105.817 67.0951V68.5229C105.817 68.6984 105.675 68.841 105.499 68.841V68.8425ZM105.765 69.7864V78.6093C105.765 78.7859 105.622 78.9289 105.445 78.9289H104.071C103.895 78.9289 103.751 78.7859 103.751 78.6093V78.6009V69.7864C103.751 69.6098 103.895 69.4668 104.071 69.4668H104.079H105.445C105.622 69.4668 105.765 69.6098 105.765 69.7864ZM102.114 71.6362H88.8663V76.8377H102.114C102.291 76.8377 102.434 76.9811 102.434 77.1574C102.434 77.1658 102.433 77.1735 102.433 77.1815V78.6093C102.433 78.7852 102.29 78.9278 102.114 78.9278V78.9289H87.0784C86.9021 78.9289 86.7591 78.7859 86.7591 78.6093V78.6009V67.0706C86.7591 66.8943 86.9021 66.751 87.0784 66.751H87.0864H88.5467C88.723 66.751 88.8663 66.8943 88.8663 67.0706V69.545H102.114C102.291 69.545 102.434 69.688 102.434 69.8643C102.434 69.8727 102.433 69.8808 102.433 69.8888V71.3165C102.433 71.4921 102.29 71.6347 102.114 71.6347V71.6362ZM71.9788 71.6819V72.9392H83.4307V71.6819H71.9788ZM69.8474 78.6093V78.6009V69.9104C69.8474 69.7337 69.9904 69.5907 70.1666 69.5907H70.1747H85.2103C85.3869 69.5907 85.5299 69.7337 85.5299 69.9104V74.7111C85.5299 74.8874 85.3869 75.0307 85.2103 75.0307C85.2023 75.0307 85.1938 75.03 85.1858 75.0293H71.9788V76.8392H85.2103C85.3862 76.8392 85.5288 76.9815 85.5288 77.1574V78.6093C85.5288 78.7852 85.3862 78.9278 85.2103 78.9278V78.9289H70.1666C69.9904 78.9289 69.8474 78.7859 69.8474 78.6093ZM53.2549 69.4668H53.263H68.2744C68.4507 69.4668 68.5941 69.6098 68.5941 69.7864V78.6093C68.5941 78.7859 68.4507 78.9289 68.2744 78.9289H66.8141C66.6379 78.9289 66.4949 78.7859 66.4949 78.6093C66.4949 78.5994 66.4952 78.5891 66.496 78.5793V71.6066H55.0253V78.6093C55.0253 78.7852 54.8827 78.9278 54.7072 78.9278H53.2549C53.0794 78.9278 52.9367 78.7852 52.9367 78.6093H52.9353V69.7864C52.9353 69.6098 53.0786 69.4668 53.2549 69.4668ZM37.7526 69.8643V78.6093C37.7526 78.7859 37.6097 78.9289 37.4334 78.9289H22.3813C22.205 78.9289 22.062 78.7859 22.062 78.6093V78.6009V73.2186C22.062 73.042 22.205 72.899 22.3813 72.899H22.3894H35.6213V71.6362H22.3813C22.205 71.6362 22.062 71.4928 22.062 71.3165C22.062 71.3063 22.0624 71.2961 22.0631 71.2862V69.8643C22.0631 69.6888 22.2058 69.5461 22.3813 69.5461V69.545H37.4334C37.6097 69.545 37.7526 69.688 37.7526 69.8643ZM35.6213 76.8377V75.0147H24.1532V76.8377H35.6213ZM51.3707 81.739H39.2312C39.055 81.739 38.9116 81.5957 38.9116 81.4194V81.411V79.935C38.9116 79.7587 39.055 79.6153 39.2312 79.6153H39.2393H49.8914V78.8967H39.2312C39.055 78.8967 38.9116 78.7533 38.9116 78.5771V78.5687V69.8025C38.9116 69.6259 39.055 69.4829 39.2312 69.4829C39.2415 69.4829 39.251 69.4832 39.2609 69.4843L51.3707 69.4759C51.5467 69.4759 51.6889 69.6185 51.6889 69.7944H51.6904V81.4194C51.6904 81.5957 51.547 81.739 51.3707 81.739ZM49.89 76.765V71.6146H40.712V76.765H49.89ZM20.7846 69.8643V78.6093C20.7846 78.7859 20.6412 78.9289 20.465 78.9289H19.0047C18.8284 78.9289 18.685 78.7859 18.685 78.6093V78.6009V71.6347H14.1085V78.6093C14.1085 78.7859 13.9655 78.9289 13.7889 78.9289H12.3289C12.1523 78.9289 12.0093 78.7859 12.0093 78.6093V78.6009V71.6347H7.29779V78.6093C7.29779 78.7859 7.1548 78.9289 6.97816 78.9289H5.59612C5.41985 78.9289 5.27686 78.7859 5.27686 78.6093V78.6009V69.8643C5.27686 69.688 5.41985 69.545 5.59612 69.545H5.60417H20.465C20.6412 69.545 20.7846 69.688 20.7846 69.8643Z" fill="#E31E24"/>
</svg>
