<svg width="191" height="142" viewBox="0 0 191 142" fill="none" xmlns="http://www.w3.org/2000/svg">
<path fill-rule="evenodd" clip-rule="evenodd" d="M63.8747 0.7258C28.9985 0.7258 0.725849 28.9965 0.725849 63.8704C0.725849 96.4026 25.3307 123.185 56.9467 126.635L57.4849 126.694L57.4827 126.698L189.555 141.112L118.18 31.6315L118.176 31.6251C117.314 30.1773 116.399 28.7657 115.428 27.3964L115.299 27.2157C103.846 11.1794 85.082 0.7258 63.8747 0.7258ZM115.913 26.8259C116.934 28.2567 117.894 29.7329 118.796 31.2475L191 142L56.3275 127.302L56.3309 127.296C24.6097 123.563 0 96.5927 0 63.8704C0 28.5957 28.5976 0 63.8747 0C85.1479 0 103.991 10.3998 115.599 26.3904L115.615 26.3694L115.913 26.8259Z" fill="#2B2A29"/>
<path fill-rule="evenodd" clip-rule="evenodd" d="M35.3686 16.4709C37.5799 15.0959 39.1216 14.1625 42.2892 13.7778H84.698C87.6693 13.7974 90.0907 14.667 92.0618 16.2322L119.334 43.6394C120.997 45.6666 120.24 50.6234 116.744 50.8662L71.4368 50.9345C70.6754 51.0031 69.8686 50.6162 69.0161 49.7754L54.3913 35.1853C52.7923 32.9379 53.6724 28.1835 57.5618 27.8225L71.505 27.7883C73.8459 27.7996 73.8343 23.0725 71.4709 23.1182L44.1982 23.0499C42.3411 23.1232 40.9638 23.9761 39.8344 25.2317L23.3685 41.7647L41.0618 41.7302L41.1239 31.4351C41.681 26.5581 49.6443 26.5948 50.3603 31.4217L50.3668 47.1505C50.1723 49.1196 48.7337 50.7947 46.5162 50.8662H10.9253C8.06399 50.5247 6.55931 46.5829 8.33437 43.503L35.3686 16.4709ZM82.6537 24.0733C83.0311 22.6983 83.8557 22.2323 85.3128 23.0507L104.199 41.731H74.3355C72.1826 41.6671 72.1815 37.1878 74.4037 36.9588H78.7501C80.9291 36.7099 82.3844 35.6168 82.6537 33.1407V24.0733Z" fill="#E31E24" stroke="#E31E24" stroke-width="0.755906" stroke-miterlimit="22.9256"/>
<path d="M11.4996 61.5873L14.5323 61.3974C14.598 61.8899 14.7316 62.2652 14.9334 62.5232C15.2617 62.9407 15.7308 63.1494 16.3406 63.1494C16.7957 63.1494 17.1451 63.0439 17.3891 62.8328C17.6377 62.617 17.762 62.3684 17.762 62.0869C17.762 61.8195 17.6447 61.5803 17.4102 61.3692C17.1756 61.1581 16.6315 60.9588 15.7777 60.7711C14.3798 60.4568 13.383 60.0393 12.7872 59.5186C12.1868 58.9979 11.8866 58.3342 11.8866 57.5273C11.8866 56.9972 12.039 56.4977 12.344 56.0286C12.6536 55.5548 13.1156 55.1842 13.7301 54.9168C14.3493 54.6447 15.1961 54.5087 16.2703 54.5087C17.5884 54.5087 18.5923 54.755 19.2819 55.2475C19.9761 55.7354 20.3889 56.5141 20.5203 57.5836L17.5157 57.7595C17.436 57.2951 17.2671 56.9574 17.0091 56.7463C16.7558 56.5352 16.404 56.4296 15.9536 56.4296C15.5831 56.4296 15.3039 56.5094 15.1163 56.6689C14.9287 56.8237 14.8348 57.0137 14.8348 57.2388C14.8348 57.403 14.9122 57.5508 15.067 57.6821C15.2172 57.8182 15.5737 57.9448 16.1366 58.0621C17.5298 58.3623 18.5266 58.6672 19.1271 58.9768C19.7322 59.2817 20.1708 59.6617 20.4429 60.1167C20.7196 60.5717 20.858 61.0807 20.858 61.6436C20.858 62.3051 20.6751 62.9149 20.3092 63.4731C19.9433 64.0313 19.432 64.4559 18.7752 64.7467C18.1185 65.0328 17.2906 65.1759 16.2914 65.1759C14.537 65.1759 13.322 64.8382 12.6465 64.1627C11.971 63.4872 11.5887 62.6287 11.4996 61.5873ZM26.2409 54.6846H29.7802L31.863 58.1676L33.9458 54.6846H37.464L33.4532 60.6796V65H30.2587V60.6796L26.2409 54.6846ZM42.7554 61.5873L45.788 61.3974C45.8537 61.8899 45.9874 62.2652 46.1891 62.5232C46.5175 62.9407 46.9866 63.1494 47.5964 63.1494C48.0514 63.1494 48.4009 63.0439 48.6448 62.8328C48.8935 62.617 49.0178 62.3684 49.0178 62.0869C49.0178 61.8195 48.9005 61.5803 48.6659 61.3692C48.4314 61.1581 47.8872 60.9588 47.0335 60.7711C45.6356 60.4568 44.6388 60.0393 44.043 59.5186C43.4426 58.9979 43.1424 58.3342 43.1424 57.5273C43.1424 56.9972 43.2948 56.4977 43.5997 56.0286C43.9093 55.5548 44.3714 55.1842 44.9859 54.9168C45.6051 54.6447 46.4518 54.5087 47.526 54.5087C48.8442 54.5087 49.8481 54.755 50.5376 55.2475C51.2319 55.7354 51.6447 56.5141 51.776 57.5836L48.7715 57.7595C48.6917 57.2951 48.5229 56.9574 48.2649 56.7463C48.0116 56.5352 47.6597 56.4296 47.2094 56.4296C46.8388 56.4296 46.5597 56.5094 46.3721 56.6689C46.1844 56.8237 46.0906 57.0137 46.0906 57.2388C46.0906 57.403 46.168 57.5508 46.3228 57.6821C46.4729 57.8182 46.8294 57.9448 47.3924 58.0621C48.7856 58.3623 49.7824 58.6672 50.3828 58.9768C50.988 59.2817 51.4266 59.6617 51.6986 60.1167C51.9754 60.5717 52.1138 61.0807 52.1138 61.6436C52.1138 62.3051 51.9308 62.9149 51.5649 63.4731C51.1991 64.0313 50.6877 64.4559 50.031 64.7467C49.3743 65.0328 48.5463 65.1759 47.5472 65.1759C45.7927 65.1759 44.5778 64.8382 43.9023 64.1627C43.2268 63.4872 42.8445 62.6287 42.7554 61.5873ZM57.8133 54.6846H67.5024V57.2318H64.2516V65H61.0641V57.2318H57.8133V54.6846ZM73.7578 54.6846H82.3V56.887H76.9523V58.5265H81.913V60.6304H76.9523V62.6639H82.4548V65H73.7578V54.6846ZM88.9565 54.6846H93.1502L94.7685 60.9611L96.3799 54.6846H100.56V65H97.956V57.1333L95.9366 65H93.5794L91.567 57.1333V65H88.9565V54.6846ZM106.857 61.5873L109.89 61.3974C109.955 61.8899 110.089 62.2652 110.291 62.5232C110.619 62.9407 111.088 63.1494 111.698 63.1494C112.153 63.1494 112.503 63.0439 112.747 62.8328C112.995 62.617 113.12 62.3684 113.12 62.0869C113.12 61.8195 113.002 61.5803 112.768 61.3692C112.533 61.1581 111.989 60.9588 111.135 60.7711C109.737 60.4568 108.741 60.0393 108.145 59.5186C107.544 58.9979 107.244 58.3342 107.244 57.5273C107.244 56.9972 107.397 56.4977 107.701 56.0286C108.011 55.5548 108.473 55.1842 109.088 54.9168C109.707 54.6447 110.554 54.5087 111.628 54.5087C112.946 54.5087 113.95 54.755 114.639 55.2475C115.334 55.7354 115.746 56.5141 115.878 57.5836L112.873 57.7595C112.794 57.2951 112.625 56.9574 112.367 56.7463C112.113 56.5352 111.761 56.4296 111.311 56.4296C110.941 56.4296 110.661 56.5094 110.474 56.6689C110.286 56.8237 110.192 57.0137 110.192 57.2388C110.192 57.403 110.27 57.5508 110.425 57.6821C110.575 57.8182 110.931 57.9448 111.494 58.0621C112.887 58.3623 113.884 58.6672 114.485 58.9768C115.09 59.2817 115.528 59.6617 115.8 60.1167C116.077 60.5717 116.216 61.0807 116.216 61.6436C116.216 62.3051 116.033 62.9149 115.667 63.4731C115.301 64.0313 114.79 64.4559 114.133 64.7467C113.476 65.0328 112.648 65.1759 111.649 65.1759C109.895 65.1759 108.68 64.8382 108.004 64.1627C107.329 63.4872 106.946 62.6287 106.857 61.5873Z" fill="#2B2A29"/>
<path fill-rule="evenodd" clip-rule="evenodd" d="M108.798 71.593V76.4642H121.832C122.087 76.4642 122.294 76.6696 122.293 76.9523V78.3673C122.293 78.622 122.087 78.8285 121.832 78.8285L106.895 78.8296C106.64 78.8296 106.433 78.6224 106.433 78.3673V69.6896C106.433 69.4345 106.64 69.2276 106.895 69.2276H121.832C122.087 69.2276 122.294 69.4327 122.293 69.7157V71.1307C122.293 71.3851 122.086 71.5923 121.832 71.5923L108.798 71.593ZM105.057 68.8201L103.64 68.8208C103.385 68.8208 103.178 68.6136 103.178 68.3585C103.178 68.3447 103.179 68.3338 103.179 68.3258V66.9174C103.179 66.663 103.386 66.4569 103.64 66.4565L105.057 66.4551C105.312 66.4547 105.519 66.6605 105.518 66.9435V68.3585C105.518 68.6129 105.311 68.8201 105.057 68.8201ZM105.466 69.6123V78.3673C105.466 78.6228 105.259 78.8296 105.004 78.8296H103.64C103.385 78.8296 103.178 78.6224 103.178 78.3673V69.6123C103.178 69.3572 103.385 69.15 103.64 69.15H105.004C105.259 69.15 105.466 69.3568 105.466 69.6123ZM88.6968 71.593V76.4642H101.698C101.953 76.4642 102.161 76.6714 102.161 76.9266C102.161 76.9389 102.16 76.948 102.159 76.9538V78.3673C102.159 78.622 101.953 78.8285 101.698 78.8285L86.7773 78.8296C86.5221 78.8296 86.3153 78.6224 86.3153 78.3673V66.9174C86.3153 66.6623 86.5221 66.4551 86.7773 66.4551H88.2344C88.4895 66.4551 88.6968 66.6623 88.6968 66.9174V69.2276H101.698C101.953 69.2276 102.161 69.4345 102.161 69.6896C102.161 69.7019 102.16 69.7114 102.159 69.7172V71.1307C102.159 71.3851 101.953 71.5923 101.698 71.5923L88.6968 71.593ZM71.938 74.96V76.4657H84.9234C85.1782 76.4657 85.3847 76.6718 85.3847 76.9266V78.3673C85.3847 78.622 85.1782 78.8285 84.9234 78.8285L69.9945 78.8296C69.7394 78.8296 69.5325 78.6224 69.5325 78.3673V69.7353C69.5325 69.4802 69.7394 69.273 69.9945 69.273H84.9234C85.1789 69.273 85.3858 69.4798 85.3858 69.7353V74.4991C85.3858 74.7542 85.1786 74.9615 84.9234 74.9615C84.9107 74.9615 84.9017 74.9607 84.8959 74.96H71.938ZM66.2067 71.5636H55.1139V78.3673C55.1139 78.6217 54.9074 78.8285 54.653 78.8285H53.2118C52.9574 78.8285 52.7509 78.6217 52.7509 78.3673L52.7495 69.6123C52.7495 69.3572 52.9567 69.15 53.2118 69.15H68.1168C68.3719 69.15 68.5791 69.3572 68.5791 69.6123V78.3673C68.5791 78.6224 68.3719 78.8296 68.1168 78.8296H66.6676C66.4125 78.8296 66.2056 78.6224 66.2056 78.3673C66.2056 78.3538 66.206 78.343 66.2067 78.335V71.5636ZM35.5675 72.5558V71.593H22.5737C22.3186 71.593 22.1117 71.3858 22.1117 71.1307C22.1117 71.1169 22.1121 71.106 22.1128 71.098V69.6896C22.1128 69.4352 22.3193 69.2287 22.5737 69.2287L37.511 69.2276C37.7661 69.2276 37.973 69.4345 37.973 69.6896V78.3673C37.973 78.6224 37.7661 78.8296 37.511 78.8296H22.5737C22.3186 78.8296 22.1117 78.6224 22.1117 78.3673V73.0181C22.1117 72.763 22.3186 72.5558 22.5737 72.5558H35.5675ZM49.7288 79.2204V78.7977H39.2951C39.04 78.7977 38.8328 78.5905 38.8328 78.3353V69.6283C38.8328 69.3732 39.04 69.1659 39.2951 69.1659C39.3104 69.1659 39.3213 69.1663 39.3285 69.1678L51.342 69.159C51.5968 69.159 51.803 69.3655 51.803 69.6203L51.8044 81.1558C51.8044 81.4109 51.5972 81.6181 51.342 81.6181H39.2951C39.04 81.6181 38.8328 81.4109 38.8328 81.1558V79.6828C38.8328 79.4277 39.04 79.2204 39.2951 79.2204H49.7288ZM18.7605 71.5916H14.5092V78.3673C14.5092 78.6228 14.3023 78.8296 14.0468 78.8296H12.598C12.3425 78.8296 12.1357 78.6228 12.1357 78.3673V71.5916H7.75045V78.3673C7.75045 78.6228 7.54358 78.8296 7.28808 78.8296H5.91659C5.66146 78.8296 5.45459 78.6224 5.45459 78.3673V69.6896C5.45459 69.4345 5.66146 69.2276 5.91659 69.2276H20.672C20.9272 69.2276 21.1344 69.4345 21.1344 69.6896V78.3673C21.1344 78.6224 20.9272 78.8296 20.672 78.8296H19.2229C18.9677 78.8296 18.7605 78.6224 18.7605 78.3673V71.5916ZM71.938 71.6384V72.5957H83.0123V71.6384H71.938ZM35.5675 76.4642V74.9455H24.4773V76.4642H35.5675ZM49.7274 76.392V71.5716H40.9098V76.392H49.7274Z" fill="#898778"/>
<path d="M121.832 71.4477H108.653V76.6093H121.832C122.007 76.6093 122.149 76.7515 122.149 76.9264C122.149 76.9348 122.148 76.9424 122.148 76.9504V78.3671C122.148 78.5417 122.006 78.6832 121.832 78.6832V78.6843H106.895C106.72 78.6843 106.578 78.5424 106.578 78.3671V78.3588V69.6895C106.578 69.5145 106.72 69.3727 106.895 69.3727H106.903H121.832C122.007 69.3727 122.149 69.5145 122.149 69.6895C122.149 69.6978 122.148 69.7058 122.148 69.7138V71.1305C122.148 71.3047 122.006 71.4463 121.832 71.4463V71.4477ZM105.057 68.6755H103.64C103.465 68.6755 103.323 68.5333 103.323 68.3584C103.323 68.3482 103.324 68.338 103.324 68.3282V66.9173C103.324 66.7431 103.466 66.6016 103.64 66.6016V66.6001H105.057C105.232 66.6001 105.374 66.7424 105.374 66.9173C105.374 66.9256 105.373 66.9336 105.373 66.9416V68.3584C105.373 68.5325 105.231 68.6741 105.057 68.6741V68.6755ZM105.321 69.6122V78.3671C105.321 78.5424 105.179 78.6843 105.004 78.6843H103.64C103.465 78.6843 103.323 78.5424 103.323 78.3671V78.3588V69.6122C103.323 69.4369 103.465 69.295 103.64 69.295H103.648H105.004C105.179 69.295 105.321 69.4369 105.321 69.6122ZM101.698 71.4477H88.5514V76.6093H101.698C101.873 76.6093 102.015 76.7515 102.015 76.9264C102.015 76.9348 102.015 76.9424 102.014 76.9504V78.3671C102.014 78.5417 101.873 78.6832 101.698 78.6832V78.6843H86.7771C86.6022 78.6843 86.4603 78.5424 86.4603 78.3671V78.3588V66.9173C86.4603 66.7424 86.6022 66.6001 86.7771 66.6001H86.7851H88.2343C88.4092 66.6001 88.5514 66.7424 88.5514 66.9173V69.3727H101.698C101.873 69.3727 102.015 69.5145 102.015 69.6895C102.015 69.6978 102.015 69.7058 102.014 69.7138V71.1305C102.014 71.3047 101.873 71.4463 101.698 71.4463V71.4477ZM71.7927 71.4931V72.7407H83.1573V71.4931H71.7927ZM69.6776 78.3671V78.3588V69.7352C69.6776 69.5599 69.8195 69.418 69.9944 69.418H70.0024H84.9233C85.0986 69.418 85.2405 69.5599 85.2405 69.7352V74.499C85.2405 74.6739 85.0986 74.8162 84.9233 74.8162C84.9153 74.8162 84.907 74.8154 84.899 74.8147H71.7927V76.6107H84.9233C85.0979 76.6107 85.2394 76.7519 85.2394 76.9264V78.3671C85.2394 78.5417 85.0979 78.6832 84.9233 78.6832V78.6843H69.9944C69.8195 78.6843 69.6776 78.5424 69.6776 78.3671ZM53.2117 69.295H53.2197H68.1166C68.2916 69.295 68.4338 69.4369 68.4338 69.6122V78.3671C68.4338 78.5424 68.2916 78.6843 68.1166 78.6843H66.6675C66.4925 78.6843 66.3506 78.5424 66.3506 78.3671C66.3506 78.3573 66.351 78.3472 66.3517 78.3374V71.4183H54.9686V78.3671C54.9686 78.5417 54.8271 78.6832 54.6529 78.6832H53.2117C53.0375 78.6832 52.8959 78.5417 52.8959 78.3671H52.8945V69.6122C52.8945 69.4369 53.0367 69.295 53.2117 69.295ZM37.8277 69.6895V78.3671C37.8277 78.5424 37.6858 78.6843 37.5108 78.6843H22.5736C22.3987 78.6843 22.2568 78.5424 22.2568 78.3671V78.3588V73.018C22.2568 72.8427 22.3987 72.7008 22.5736 72.7008H22.5816H35.7125V71.4477H22.5736C22.3987 71.4477 22.2568 71.3055 22.2568 71.1305C22.2568 71.1204 22.2571 71.1102 22.2578 71.1004V69.6895C22.2578 69.5153 22.3994 69.3737 22.5736 69.3737V69.3727H37.5108C37.6858 69.3727 37.8277 69.5145 37.8277 69.6895ZM35.7125 76.6093V74.8002H24.332V76.6093H35.7125ZM51.3419 81.4728H39.295C39.12 81.4728 38.9778 81.3306 38.9778 81.1557V81.1473V79.6826C38.9778 79.5077 39.12 79.3655 39.295 79.3655H39.303H49.8739V78.6524H39.295C39.12 78.6524 38.9778 78.5101 38.9778 78.3352V78.3268V69.6282C38.9778 69.4529 39.12 69.311 39.295 69.311C39.3051 69.311 39.3146 69.3113 39.3244 69.3124L51.3419 69.3041C51.5165 69.3041 51.6576 69.4456 51.6576 69.6201H51.6591V81.1557C51.6591 81.3306 51.5168 81.4728 51.3419 81.4728ZM49.8724 76.537V71.4263H40.7645V76.537H49.8724ZM20.9891 69.6895V78.3671C20.9891 78.5424 20.8468 78.6843 20.6719 78.6843H19.2227C19.0478 78.6843 18.9055 78.5424 18.9055 78.3671V78.3588V71.4463H14.3639V78.3671C14.3639 78.5424 14.222 78.6843 14.0467 78.6843H12.5979C12.4226 78.6843 12.2807 78.5424 12.2807 78.3671V78.3588V71.4463H7.60513V78.3671C7.60513 78.5424 7.46323 78.6843 7.28793 78.6843H5.91644C5.74151 78.6843 5.59961 78.5424 5.59961 78.3671V78.3588V69.6895C5.59961 69.5145 5.74151 69.3727 5.91644 69.3727H5.92443H20.6719C20.8468 69.3727 20.9891 69.5145 20.9891 69.6895Z" fill="#E31E24"/>
<path d="M49.7554 105.933H59.3017V116.679H56.4648V108.231H52.5924V116.679H49.7554V105.933ZM62.3042 105.933H64.9547V107.51C65.2998 106.971 65.7625 106.536 66.349 106.202C66.9359 105.87 67.588 105.705 68.3026 105.705C69.5486 105.705 70.6079 106.195 71.4779 107.175C72.3474 108.152 72.7822 109.518 72.7822 111.264C72.7822 113.062 72.3442 114.457 71.4673 115.454C70.5909 116.451 69.5279 116.948 68.2783 116.948C67.6849 116.948 67.1463 116.831 66.6633 116.593C66.1835 116.358 65.6725 115.954 65.1412 115.381V120.758H62.3042V105.933ZM65.0998 111.14C65.0998 112.351 65.3379 113.245 65.8177 113.825C66.2938 114.402 66.8771 114.691 67.5605 114.691C68.2199 114.691 68.7686 114.425 69.2067 113.894C69.6451 113.363 69.8625 112.493 69.8625 111.282C69.8625 110.15 69.6382 109.311 69.186 108.762C68.7374 108.214 68.1781 107.941 67.5122 107.941C66.8186 107.941 66.2419 108.21 65.7865 108.749C65.3274 109.287 65.0998 110.084 65.0998 111.14ZM74.3733 111.175C74.3733 110.229 74.6045 109.314 75.0704 108.431C75.5364 107.544 76.1955 106.871 77.048 106.405C77.9005 105.939 78.8496 105.705 79.9024 105.705C81.528 105.705 82.8566 106.233 83.8953 107.289C84.9344 108.348 85.4519 109.68 85.4519 111.295C85.4519 112.924 84.9275 114.274 83.8815 115.344C82.8327 116.413 81.5142 116.948 79.9231 116.948C78.9396 116.948 78.0007 116.724 77.1068 116.279C76.2162 115.833 75.5364 115.181 75.0704 114.318C74.6045 113.459 74.3733 112.41 74.3733 111.175ZM77.293 111.327C77.293 112.393 77.5452 113.211 78.049 113.777C78.5563 114.346 79.1777 114.629 79.9195 114.629C80.658 114.629 81.2794 114.346 81.7798 113.777C82.2803 113.211 82.5322 112.386 82.5322 111.306C82.5322 110.253 82.2803 109.442 81.7798 108.876C81.2794 108.307 80.658 108.024 79.9195 108.024C79.1777 108.024 78.5563 108.307 78.049 108.876C77.5452 109.442 77.293 110.26 77.293 111.327ZM96.2961 116.679H88.1579V119.516H85.8595V114.36H87.019C87.5021 113.818 87.8991 112.976 88.2167 111.827C88.5306 110.681 88.7204 108.714 88.7792 105.933H97.4556V114.36H98.6155V119.516H96.2961V116.679ZM94.6393 114.36L94.6499 108.272H91.2021C91.0881 111.244 90.6189 113.273 89.7939 114.36H94.6393ZM102.67 109.245L100.103 108.79C100.393 107.741 100.893 106.964 101.601 106.461C102.308 105.956 103.361 105.705 104.755 105.705C106.022 105.705 106.968 105.853 107.588 106.154C108.207 106.454 108.645 106.833 108.897 107.296C109.149 107.758 109.276 108.603 109.276 109.839L109.235 113.152C109.235 114.094 109.28 114.791 109.369 115.24C109.459 115.689 109.628 116.168 109.877 116.679H107.06C106.988 116.493 106.895 116.217 106.788 115.851C106.743 115.682 106.708 115.571 106.688 115.52C106.205 115.996 105.687 116.351 105.135 116.589C104.582 116.827 103.996 116.948 103.371 116.948C102.27 116.948 101.401 116.648 100.766 116.048C100.13 115.451 99.8128 114.691 99.8128 113.773C99.8128 113.169 99.9576 112.628 100.248 112.151C100.538 111.678 100.942 111.312 101.466 111.061C101.987 110.809 102.739 110.588 103.723 110.398C105.048 110.15 105.97 109.915 106.481 109.701V109.415C106.481 108.863 106.346 108.469 106.077 108.231C105.804 107.996 105.293 107.879 104.545 107.879C104.037 107.879 103.644 107.979 103.361 108.182C103.074 108.383 102.847 108.738 102.67 109.245ZM106.481 111.544C106.118 111.665 105.542 111.81 104.752 111.979C103.965 112.148 103.447 112.313 103.205 112.472C102.836 112.738 102.65 113.069 102.65 113.473C102.65 113.873 102.798 114.215 103.095 114.505C103.392 114.795 103.768 114.94 104.227 114.94C104.738 114.94 105.228 114.771 105.694 114.436C106.036 114.177 106.263 113.867 106.37 113.494C106.443 113.252 106.481 112.79 106.481 112.11V111.544ZM116.528 116.679V112.103C116.158 112.13 115.899 112.213 115.754 112.351C115.609 112.489 115.354 112.897 114.992 113.577L113.639 116.679H110.584L112.1 113.718C112.869 112.241 113.666 111.392 114.495 111.178C113.877 110.94 113.404 110.329 113.076 109.339C112.824 108.6 112.6 108.159 112.393 108.013C112.189 107.869 111.709 107.796 110.957 107.796V105.922C111.516 105.888 111.906 105.87 112.127 105.87C112.752 105.87 113.287 106.008 113.732 106.285C114.177 106.564 114.595 107.254 114.985 108.355C115.285 109.215 115.53 109.756 115.71 109.984C115.893 110.208 116.165 110.329 116.528 110.343V105.933H119.365V110.343C119.727 110.343 120.003 110.226 120.186 109.988C120.372 109.753 120.614 109.208 120.907 108.355C121.294 107.268 121.701 106.581 122.136 106.295C122.567 106.012 123.126 105.87 123.806 105.87C124 105.87 124.376 105.888 124.935 105.922V107.796C124.189 107.796 123.713 107.869 123.503 108.013C123.295 108.159 123.068 108.6 122.819 109.339C122.488 110.329 122.015 110.94 121.397 111.178C122.226 111.392 123.023 112.241 123.792 113.718L125.308 116.679H122.253L120.911 113.577C120.669 113.024 120.445 112.648 120.238 112.448C120.034 112.244 119.741 112.13 119.365 112.103V116.679H116.528Z" fill="#2B2A29"/>
<path d="M46.6133 92.1963C46.6133 90.6848 46.8412 89.415 47.2934 88.3866C47.628 87.6307 48.0907 86.951 48.674 86.3504C49.2572 85.7498 49.8956 85.3048 50.5895 85.0113C51.5142 84.6215 52.5808 84.4248 53.7887 84.4248C55.9767 84.4248 57.7231 85.1045 59.038 86.4607C60.3496 87.8205 61.0054 89.7083 61.0054 92.1274C61.0054 94.5261 60.3529 96.4034 59.0518 97.7563C57.7507 99.1125 56.0079 99.7889 53.83 99.7889C51.6249 99.7889 49.868 99.1158 48.5669 97.7665C47.2658 96.4205 46.6133 94.5639 46.6133 92.1963ZM49.6989 92.0965C49.6989 93.7771 50.089 95.0505 50.8653 95.92C51.642 96.7863 52.6291 97.2214 53.8231 97.2214C55.0208 97.2214 56.001 96.7899 56.7704 95.9305C57.5369 95.0679 57.9198 93.7771 57.9198 92.0551C57.9198 90.3535 57.5471 89.0837 56.7984 88.2483C56.0526 87.41 55.0622 86.9923 53.8231 86.9923C52.5877 86.9923 51.5901 87.4169 50.8345 88.2621C50.0785 89.1113 49.6989 90.388 49.6989 92.0965ZM72.1428 97.7803V99.5196H69.2024V97.7803C66.8314 97.6939 65.1609 97.1074 64.1843 96.0271C63.2073 94.9435 62.7206 93.5906 62.7206 91.9652C62.7206 90.2537 63.2316 88.8834 64.2496 87.848C65.2712 86.8127 66.9211 86.2502 69.2024 86.1642V84.6937H72.1428V86.1642C74.5 86.2502 76.167 86.8301 77.1505 87.9032C78.1344 88.9731 78.6243 90.3328 78.6243 91.9757C78.6243 93.608 78.1344 94.9609 77.1574 96.0376C76.1775 97.1107 74.5069 97.6939 72.1428 97.7803ZM72.1428 95.2748C72.9264 95.2748 73.6025 95.1438 74.1687 94.8814C74.7312 94.6191 75.1315 94.267 75.3696 93.8221C75.608 93.3801 75.7253 92.7312 75.7253 91.8755C75.7253 89.7395 74.5313 88.6696 72.1428 88.6696V95.2748ZM69.2024 95.2748V88.6696C67.9358 88.6696 67.0245 88.9491 66.462 89.5116C65.8995 90.0741 65.62 90.9229 65.62 92.0584C65.62 94.2017 66.814 95.2748 69.2024 95.2748ZM81.0574 84.6937H83.853V94.5639L89.8583 84.6937H92.8401V99.5196H90.0448V89.8084L84.0395 99.5196H81.0574V84.6937ZM105.386 94.0533L108.285 94.9435C107.839 96.5758 107.098 97.7872 106.062 98.5808C105.027 99.3712 103.715 99.7682 102.124 99.7682C100.153 99.7682 98.5347 99.095 97.2648 97.7494C95.9982 96.4034 95.3631 94.5639 95.3631 92.2275C95.3631 89.7602 96.0015 87.8412 97.275 86.4745C98.5485 85.1082 100.226 84.4248 102.304 84.4248C104.119 84.4248 105.593 84.963 106.725 86.0364C107.401 86.6715 107.905 87.5824 108.243 88.7731L105.282 89.4771C105.106 88.711 104.74 88.1035 104.184 87.6583C103.625 87.2134 102.949 86.9923 102.155 86.9923C101.054 86.9923 100.16 87.3857 99.4769 88.1761C98.7902 88.9629 98.4483 90.2399 98.4483 92.0065C98.4483 93.8773 98.7866 95.2128 99.4598 96.0064C100.136 96.8037 101.013 97.2007 102.093 97.2007C102.89 97.2007 103.577 96.9485 104.15 96.4412C104.723 95.9338 105.137 95.1402 105.386 94.0533Z" fill="#2B2A29"/>
</svg>
