<svg width="191" height="142" viewBox="0 0 191 142" fill="none" xmlns="http://www.w3.org/2000/svg">
<path fill-rule="evenodd" clip-rule="evenodd" d="M63.8747 0.7258C28.9985 0.7258 0.725849 28.9965 0.725849 63.8704C0.725849 96.4026 25.3307 123.185 56.9467 126.635L57.4849 126.694L57.4827 126.698L189.555 141.112L118.18 31.6315L118.176 31.6251C117.314 30.1768 116.398 28.7647 115.427 27.395L115.299 27.2157C103.846 11.1794 85.082 0.7258 63.8747 0.7258ZM115.913 26.826C116.934 28.2568 117.894 29.7329 118.796 31.2475L191 142L56.3275 127.302L56.3309 127.296C24.6097 123.563 0 96.5927 0 63.8704C0 28.5957 28.5976 0 63.8747 0C85.1494 0 103.993 10.4012 115.602 26.3937L115.617 26.3727L115.913 26.826Z" fill="#2B2A29"/>
<path fill-rule="evenodd" clip-rule="evenodd" d="M35.3686 16.4704C37.5799 15.0954 39.1216 14.162 42.2892 13.7773H84.698C87.6693 13.7969 90.0907 14.6664 92.0618 16.2316L119.334 43.6389C120.997 45.6661 120.24 50.6229 116.744 50.8657L71.4368 50.9339C70.6754 51.0025 69.8686 50.6157 69.0161 49.7748L54.3913 35.1848C52.7923 32.9374 53.6724 28.183 57.5618 27.8219L71.505 27.7878C73.8459 27.7991 73.8343 23.0719 71.4709 23.1177L44.1982 23.0494C42.3411 23.1227 40.9638 23.9756 39.8344 25.2312L23.3685 41.7642L41.0618 41.7297L41.1239 31.4346C41.681 26.5576 49.6443 26.5942 50.3603 31.4212L50.3668 47.15C50.1723 49.1191 48.7337 50.7942 46.5162 50.8657H10.9253C8.064 50.5242 6.55931 46.5824 8.33437 43.5025L35.3686 16.4704ZM82.6537 24.0728C83.0312 22.6978 83.8557 22.2318 85.3128 23.0501L104.199 41.7304H74.3355C72.1826 41.6666 72.1815 37.1873 74.4037 36.9583H78.7501C80.9291 36.7093 82.3844 35.6163 82.6537 33.1402V24.0728Z" fill="#E31E24" stroke="#E31E24" stroke-width="0.755906" stroke-miterlimit="22.9256"/>
<path d="M11.4996 61.5873L14.5323 61.3974C14.598 61.8899 14.7316 62.2652 14.9334 62.5232C15.2617 62.9407 15.7308 63.1494 16.3406 63.1494C16.7957 63.1494 17.1451 63.0439 17.3891 62.8328C17.6377 62.617 17.762 62.3684 17.762 62.0869C17.762 61.8195 17.6447 61.5803 17.4102 61.3692C17.1756 61.1581 16.6315 60.9588 15.7777 60.7711C14.3798 60.4568 13.383 60.0393 12.7872 59.5186C12.1868 58.9979 11.8866 58.3342 11.8866 57.5273C11.8866 56.9972 12.039 56.4977 12.344 56.0286C12.6536 55.5548 13.1156 55.1842 13.7301 54.9168C14.3493 54.6447 15.1961 54.5087 16.2703 54.5087C17.5884 54.5087 18.5923 54.755 19.2819 55.2475C19.9761 55.7354 20.3889 56.5141 20.5203 57.5836L17.5157 57.7595C17.436 57.2951 17.2671 56.9574 17.0091 56.7463C16.7558 56.5352 16.404 56.4296 15.9536 56.4296C15.5831 56.4296 15.3039 56.5094 15.1163 56.6689C14.9287 56.8237 14.8348 57.0137 14.8348 57.2388C14.8348 57.403 14.9122 57.5508 15.067 57.6821C15.2172 57.8182 15.5737 57.9448 16.1366 58.0621C17.5298 58.3623 18.5266 58.6672 19.1271 58.9768C19.7322 59.2817 20.1708 59.6617 20.4429 60.1167C20.7196 60.5717 20.858 61.0807 20.858 61.6436C20.858 62.3051 20.6751 62.9149 20.3092 63.4731C19.9433 64.0313 19.432 64.4559 18.7752 64.7467C18.1185 65.0328 17.2906 65.1759 16.2914 65.1759C14.537 65.1759 13.322 64.8382 12.6465 64.1627C11.971 63.4872 11.5887 62.6287 11.4996 61.5873ZM26.2409 54.6846H29.7802L31.863 58.1676L33.9458 54.6846H37.464L33.4532 60.6796V65H30.2587V60.6796L26.2409 54.6846ZM42.7554 61.5873L45.788 61.3974C45.8537 61.8899 45.9874 62.2652 46.1891 62.5232C46.5175 62.9407 46.9866 63.1494 47.5964 63.1494C48.0514 63.1494 48.4009 63.0439 48.6448 62.8328C48.8935 62.617 49.0178 62.3684 49.0178 62.0869C49.0178 61.8195 48.9005 61.5803 48.6659 61.3692C48.4314 61.1581 47.8872 60.9588 47.0335 60.7711C45.6356 60.4568 44.6388 60.0393 44.043 59.5186C43.4426 58.9979 43.1424 58.3342 43.1424 57.5273C43.1424 56.9972 43.2948 56.4977 43.5997 56.0286C43.9093 55.5548 44.3714 55.1842 44.9859 54.9168C45.6051 54.6447 46.4518 54.5087 47.526 54.5087C48.8442 54.5087 49.8481 54.755 50.5376 55.2475C51.2319 55.7354 51.6447 56.5141 51.776 57.5836L48.7715 57.7595C48.6917 57.2951 48.5229 56.9574 48.2649 56.7463C48.0116 56.5352 47.6597 56.4296 47.2094 56.4296C46.8388 56.4296 46.5597 56.5094 46.3721 56.6689C46.1844 56.8237 46.0906 57.0137 46.0906 57.2388C46.0906 57.403 46.168 57.5508 46.3228 57.6821C46.4729 57.8182 46.8294 57.9448 47.3924 58.0621C48.7856 58.3623 49.7824 58.6672 50.3828 58.9768C50.988 59.2817 51.4266 59.6617 51.6986 60.1167C51.9754 60.5717 52.1138 61.0807 52.1138 61.6436C52.1138 62.3051 51.9308 62.9149 51.5649 63.4731C51.1991 64.0313 50.6877 64.4559 50.031 64.7467C49.3743 65.0328 48.5463 65.1759 47.5472 65.1759C45.7927 65.1759 44.5778 64.8382 43.9023 64.1627C43.2268 63.4872 42.8445 62.6287 42.7554 61.5873ZM57.8133 54.6846H67.5024V57.2318H64.2516V65H61.0641V57.2318H57.8133V54.6846ZM73.7578 54.6846H82.3V56.887H76.9523V58.5265H81.913V60.6304H76.9523V62.6639H82.4548V65H73.7578V54.6846ZM88.9565 54.6846H93.1502L94.7685 60.9611L96.3799 54.6846H100.56V65H97.956V57.1333L95.9366 65H93.5794L91.567 57.1333V65H88.9565V54.6846ZM106.857 61.5873L109.89 61.3974C109.955 61.8899 110.089 62.2652 110.291 62.5232C110.619 62.9407 111.088 63.1494 111.698 63.1494C112.153 63.1494 112.503 63.0439 112.747 62.8328C112.995 62.617 113.12 62.3684 113.12 62.0869C113.12 61.8195 113.002 61.5803 112.768 61.3692C112.533 61.1581 111.989 60.9588 111.135 60.7711C109.737 60.4568 108.741 60.0393 108.145 59.5186C107.544 58.9979 107.244 58.3342 107.244 57.5273C107.244 56.9972 107.397 56.4977 107.701 56.0286C108.011 55.5548 108.473 55.1842 109.088 54.9168C109.707 54.6447 110.554 54.5087 111.628 54.5087C112.946 54.5087 113.95 54.755 114.639 55.2475C115.334 55.7354 115.746 56.5141 115.878 57.5836L112.873 57.7595C112.794 57.2951 112.625 56.9574 112.367 56.7463C112.113 56.5352 111.761 56.4296 111.311 56.4296C110.941 56.4296 110.661 56.5094 110.474 56.6689C110.286 56.8237 110.192 57.0137 110.192 57.2388C110.192 57.403 110.27 57.5508 110.425 57.6821C110.575 57.8182 110.931 57.9448 111.494 58.0621C112.887 58.3623 113.884 58.6672 114.485 58.9768C115.09 59.2817 115.528 59.6617 115.8 60.1167C116.077 60.5717 116.216 61.0807 116.216 61.6436C116.216 62.3051 116.033 62.9149 115.667 63.4731C115.301 64.0313 114.79 64.4559 114.133 64.7467C113.476 65.0328 112.648 65.1759 111.649 65.1759C109.895 65.1759 108.68 64.8382 108.004 64.1627C107.329 63.4872 106.946 62.6287 106.857 61.5873Z" fill="#2B2A29"/>
<path fill-rule="evenodd" clip-rule="evenodd" d="M108.798 71.593V76.4642H121.832C122.087 76.4642 122.294 76.6697 122.293 76.9524V78.3673C122.293 78.622 122.087 78.8285 121.832 78.8285L106.895 78.8296C106.64 78.8296 106.433 78.6224 106.433 78.3673V69.6896C106.433 69.4345 106.64 69.2276 106.895 69.2276H121.832C122.087 69.2276 122.294 69.4327 122.293 69.7158V71.1307C122.293 71.3851 122.086 71.5923 121.832 71.5923L108.798 71.593ZM105.057 68.8201L103.64 68.8208C103.385 68.8208 103.178 68.6136 103.178 68.3585C103.178 68.3447 103.179 68.3338 103.179 68.3259V66.9174C103.179 66.663 103.386 66.4569 103.64 66.4565L105.057 66.4551C105.312 66.4547 105.519 66.6605 105.518 66.9435V68.3585C105.518 68.6129 105.311 68.8201 105.057 68.8201ZM105.466 69.6123V78.3673C105.466 78.6228 105.259 78.8296 105.004 78.8296H103.64C103.385 78.8296 103.178 78.6224 103.178 78.3673V69.6123C103.178 69.3572 103.385 69.15 103.64 69.15H105.004C105.259 69.15 105.466 69.3568 105.466 69.6123ZM88.6968 71.593V76.4642H101.698C101.953 76.4642 102.161 76.6715 102.161 76.9266C102.161 76.9389 102.16 76.948 102.159 76.9538V78.3673C102.159 78.622 101.953 78.8285 101.698 78.8285L86.7773 78.8296C86.5221 78.8296 86.3153 78.6224 86.3153 78.3673V66.9174C86.3153 66.6623 86.5221 66.4551 86.7773 66.4551H88.2344C88.4896 66.4551 88.6968 66.6623 88.6968 66.9174V69.2276H101.698C101.953 69.2276 102.161 69.4345 102.161 69.6896C102.161 69.7019 102.16 69.7114 102.159 69.7172V71.1307C102.159 71.3851 101.953 71.5923 101.698 71.5923L88.6968 71.593ZM71.938 74.96V76.4657H84.9235C85.1782 76.4657 85.3848 76.6718 85.3848 76.9266V78.3673C85.3848 78.622 85.1782 78.8285 84.9235 78.8285L69.9946 78.8296C69.7394 78.8296 69.5326 78.6224 69.5326 78.3673V69.7354C69.5326 69.4802 69.7394 69.273 69.9946 69.273H84.9235C85.179 69.273 85.3858 69.4799 85.3858 69.7354V74.4991C85.3858 74.7542 85.1786 74.9615 84.9235 74.9615C84.9107 74.9615 84.9017 74.9607 84.8959 74.96H71.938ZM66.2067 71.5636H55.1139V78.3673C55.1139 78.6217 54.9074 78.8285 54.653 78.8285H53.2119C52.9574 78.8285 52.7509 78.6217 52.7509 78.3673L52.7495 69.6123C52.7495 69.3572 52.9567 69.15 53.2119 69.15H68.1168C68.3719 69.15 68.5792 69.3572 68.5792 69.6123V78.3673C68.5792 78.6224 68.3719 78.8296 68.1168 78.8296H66.6676C66.4125 78.8296 66.2056 78.6224 66.2056 78.3673C66.2056 78.3538 66.206 78.343 66.2067 78.335V71.5636ZM35.5675 72.5558V71.593H22.5738C22.3186 71.593 22.1117 71.3858 22.1117 71.1307C22.1117 71.1169 22.1121 71.106 22.1128 71.098V69.6896C22.1128 69.4352 22.3193 69.2287 22.5738 69.2287L37.511 69.2276C37.7661 69.2276 37.973 69.4345 37.973 69.6896V78.3673C37.973 78.6224 37.7661 78.8296 37.511 78.8296H22.5738C22.3186 78.8296 22.1117 78.6224 22.1117 78.3673V73.0181C22.1117 72.763 22.3186 72.5558 22.5738 72.5558H35.5675ZM49.7289 79.2205V78.7977H39.2951C39.04 78.7977 38.8328 78.5905 38.8328 78.3353V69.6283C38.8328 69.3732 39.04 69.1659 39.2951 69.1659C39.3104 69.1659 39.3213 69.1663 39.3285 69.1678L51.3421 69.1591C51.5968 69.1591 51.803 69.3656 51.803 69.6203L51.8044 81.1558C51.8044 81.4109 51.5972 81.6181 51.3421 81.6181H39.2951C39.04 81.6181 38.8328 81.4109 38.8328 81.1558V79.6828C38.8328 79.4277 39.04 79.2205 39.2951 79.2205H49.7289ZM18.7605 71.5916H14.5092V78.3673C14.5092 78.6228 14.3023 78.8296 14.0468 78.8296H12.598C12.3425 78.8296 12.1357 78.6228 12.1357 78.3673V71.5916H7.75046V78.3673C7.75046 78.6228 7.54358 78.8296 7.28809 78.8296H5.91659C5.66146 78.8296 5.45459 78.6224 5.45459 78.3673V69.6896C5.45459 69.4345 5.66146 69.2276 5.91659 69.2276H20.672C20.9272 69.2276 21.1344 69.4345 21.1344 69.6896V78.3673C21.1344 78.6224 20.9272 78.8296 20.672 78.8296H19.2229C18.9677 78.8296 18.7605 78.6224 18.7605 78.3673V71.5916ZM71.938 71.6384V72.5957H83.0123V71.6384H71.938ZM35.5675 76.4642V74.9455H24.4773V76.4642H35.5675ZM49.7274 76.392V71.5716H40.9098V76.392H49.7274Z" fill="#898778"/>
<path d="M121.832 71.4472H108.654V76.6088H121.832C122.007 76.6088 122.149 76.751 122.149 76.926C122.149 76.9343 122.149 76.9419 122.148 76.9499V78.3666C122.148 78.5412 122.007 78.6827 121.832 78.6827V78.6838H106.895C106.72 78.6838 106.578 78.5419 106.578 78.3666V78.3583V69.689C106.578 69.5141 106.72 69.3722 106.895 69.3722H106.903H121.832C122.007 69.3722 122.149 69.5141 122.149 69.689C122.149 69.6973 122.149 69.7053 122.148 69.7133V71.1301C122.148 71.3043 122.007 71.4458 121.832 71.4458V71.4472ZM105.057 68.6751H103.641C103.466 68.6751 103.323 68.5328 103.323 68.3579C103.323 68.3477 103.324 68.3375 103.325 68.3277V66.9168C103.325 66.7426 103.466 66.6011 103.641 66.6011V66.5996H105.057C105.233 66.5996 105.375 66.7419 105.375 66.9168C105.375 66.9251 105.374 66.9331 105.374 66.9411V68.3579C105.374 68.5321 105.232 68.6736 105.057 68.6736V68.6751ZM105.321 69.6117V78.3666C105.321 78.5419 105.179 78.6838 105.004 78.6838H103.641C103.466 78.6838 103.323 78.5419 103.323 78.3666V78.3583V69.6117C103.323 69.4364 103.466 69.2945 103.641 69.2945H103.649H105.004C105.179 69.2945 105.321 69.4364 105.321 69.6117ZM101.699 71.4472H88.552V76.6088H101.699C101.874 76.6088 102.016 76.751 102.016 76.926C102.016 76.9343 102.015 76.9419 102.015 76.9499V78.3666C102.015 78.5412 101.873 78.6827 101.699 78.6827V78.6838H86.7776C86.6027 78.6838 86.4608 78.5419 86.4608 78.3666V78.3583V66.9168C86.4608 66.7419 86.6027 66.5996 86.7776 66.5996H86.7856H88.2348C88.4097 66.5996 88.552 66.7419 88.552 66.9168V69.3722H101.699C101.874 69.3722 102.016 69.5141 102.016 69.689C102.016 69.6973 102.015 69.7053 102.015 69.7133V71.1301C102.015 71.3043 101.873 71.4458 101.699 71.4458V71.4472ZM71.7932 71.4926V72.7402H83.1578V71.4926H71.7932ZM69.6781 78.3666V78.3583V69.7347C69.6781 69.5594 69.82 69.4175 69.9949 69.4175H70.0029H84.9238C85.0991 69.4175 85.241 69.5594 85.241 69.7347V74.4985C85.241 74.6734 85.0991 74.8157 84.9238 74.8157C84.9158 74.8157 84.9075 74.815 84.8995 74.8142H71.7932V76.6102H84.9238C85.0984 76.6102 85.2399 76.7514 85.2399 76.926V78.3666C85.2399 78.5412 85.0984 78.6827 84.9238 78.6827V78.6838H69.9949C69.82 78.6838 69.6781 78.5419 69.6781 78.3666ZM53.2122 69.2945H53.2202H68.1171C68.2921 69.2945 68.4343 69.4364 68.4343 69.6117V78.3666C68.4343 78.5419 68.2921 78.6838 68.1171 78.6838H66.668C66.493 78.6838 66.3511 78.5419 66.3511 78.3666C66.3511 78.3568 66.3515 78.3467 66.3522 78.3369V71.4179H54.9691V78.3666C54.9691 78.5412 54.8276 78.6827 54.6534 78.6827H53.2122C53.038 78.6827 52.8964 78.5412 52.8964 78.3666H52.895V69.6117C52.895 69.4364 53.0373 69.2945 53.2122 69.2945ZM37.8282 69.689V78.3666C37.8282 78.5419 37.6863 78.6838 37.5113 78.6838H22.5741C22.3992 78.6838 22.2573 78.5419 22.2573 78.3666V78.3583V73.0175C22.2573 72.8422 22.3992 72.7003 22.5741 72.7003H22.5821H35.713V71.4472H22.5741C22.3992 71.4472 22.2573 71.305 22.2573 71.1301C22.2573 71.1199 22.2576 71.1098 22.2583 71.1V69.689C22.2583 69.5148 22.3999 69.3733 22.5741 69.3733V69.3722H37.5113C37.6863 69.3722 37.8282 69.5141 37.8282 69.689ZM35.713 76.6088V74.7997H24.3325V76.6088H35.713ZM51.3424 81.4723H39.2955C39.1205 81.4723 38.9783 81.3301 38.9783 81.1552V81.1468V79.6822C38.9783 79.5072 39.1205 79.365 39.2955 79.365H39.3035H49.8744V78.6519H39.2955C39.1205 78.6519 38.9783 78.5096 38.9783 78.3347V78.3264V69.6277C38.9783 69.4524 39.1205 69.3105 39.2955 69.3105C39.3056 69.3105 39.3151 69.3108 39.3249 69.3119L51.3424 69.3036C51.517 69.3036 51.6581 69.4451 51.6581 69.6197H51.6596V81.1552C51.6596 81.3301 51.5173 81.4723 51.3424 81.4723ZM49.8729 76.5365V71.4258H40.765V76.5365H49.8729ZM20.9896 69.689V78.3666C20.9896 78.5419 20.8473 78.6838 20.6724 78.6838H19.2232C19.0483 78.6838 18.906 78.5419 18.906 78.3666V78.3583V71.4458H14.3644V78.3666C14.3644 78.5419 14.2225 78.6838 14.0472 78.6838H12.5984C12.4231 78.6838 12.2812 78.5419 12.2812 78.3666V78.3583V71.4458H7.60563V78.3666C7.60563 78.5419 7.46372 78.6838 7.28842 78.6838H5.91693C5.742 78.6838 5.6001 78.5419 5.6001 78.3666V78.3583V69.689C5.6001 69.5141 5.742 69.3722 5.91693 69.3722H5.92492H20.6724C20.8473 69.3722 20.9896 69.5141 20.9896 69.689Z" fill="#E31E24"/>
<path d="M26.5723 96.8818H35.5503V108.179H33.2624V98.791H28.8601V108.179H26.5723V96.8818ZM37.8832 108.179V96.8818H41.5411C42.9271 96.8818 43.829 96.9373 44.25 97.0502C44.8967 97.2211 45.4385 97.5894 45.8751 98.1574C46.3117 98.7253 46.5298 99.4591 46.5298 100.358C46.5298 101.053 46.4035 101.634 46.1539 102.107C45.9013 102.58 45.5833 102.951 45.1965 103.222C44.8099 103.49 44.4154 103.669 44.0159 103.756C43.4715 103.864 42.685 103.919 41.6543 103.919H40.171V108.179H37.8832ZM40.171 98.791V102.01H41.4148C42.3116 102.01 42.9086 101.949 43.2113 101.831C43.5136 101.713 43.7502 101.528 43.9211 101.274C44.0921 101.021 44.1788 100.729 44.1788 100.392C44.1788 99.9795 44.058 99.6405 43.8184 99.3724C43.5767 99.1038 43.274 98.9358 42.9035 98.8672C42.6324 98.8175 42.088 98.791 41.2678 98.791H40.171ZM47.7268 102.599C47.7268 101.447 47.9002 100.479 48.2447 99.6957C48.4998 99.1198 48.8522 98.6016 49.2964 98.1443C49.741 97.6867 50.2277 97.3474 50.7561 97.1238C51.4609 96.8266 52.2735 96.6768 53.1939 96.6768C54.8611 96.6768 56.192 97.195 57.194 98.2285C58.1932 99.2642 58.6929 100.703 58.6929 102.546C58.6929 104.374 58.1957 105.804 57.2046 106.835C56.213 107.869 54.8851 108.384 53.2254 108.384C51.5451 108.384 50.2066 107.871 49.2151 106.843C48.2236 105.817 47.7268 104.403 47.7268 102.599ZM50.0778 102.522C50.0778 103.803 50.3747 104.773 50.9666 105.436C51.5582 106.096 52.3105 106.427 53.2204 106.427C54.1327 106.427 54.8796 106.099 55.4661 105.444C56.0501 104.786 56.3419 103.803 56.3419 102.491C56.3419 101.194 56.0577 100.227 55.4872 99.5905C54.9192 98.9514 54.1643 98.6331 53.2204 98.6331C52.2789 98.6331 51.5186 98.9568 50.943 99.601C50.367 100.248 50.0778 101.221 50.0778 102.522ZM60.505 96.8818H62.635V104.403L67.2107 96.8818H69.483V108.179H67.353V100.779L62.7769 108.179H60.505V96.8818ZM73.4251 99.9585L71.2004 99.4381C71.6791 97.5971 73.0386 96.6768 75.2793 96.6768C76.6047 96.6768 77.6067 96.9689 78.2825 97.5524C78.9582 98.1363 79.295 98.8226 79.295 99.6115C79.295 100.15 79.1397 100.637 78.8323 101.074C78.5245 101.507 78.0615 101.889 77.4463 102.22C78.1932 102.478 78.7557 102.841 79.1292 103.311C79.5026 103.785 79.6895 104.363 79.6895 105.055C79.6895 106.049 79.3266 106.851 78.5982 107.464C77.8724 108.076 76.7836 108.384 75.3344 108.384C74.1538 108.384 73.22 108.187 72.5363 107.792C71.8525 107.398 71.3397 106.659 70.9953 105.575L73.0781 104.897C73.2937 105.578 73.583 106.02 73.9408 106.22C74.2983 106.422 74.7403 106.522 75.2662 106.522C75.9866 106.522 76.5125 106.367 76.8438 106.054C77.1726 105.741 77.3385 105.383 77.3385 104.978C77.3385 104.516 77.1516 104.14 76.7781 103.856C76.4076 103.572 75.8447 103.43 75.0953 103.43H74.577V101.726H74.8376C75.5344 101.726 76.0683 101.568 76.4363 101.255C76.8072 100.942 76.9912 100.524 76.9912 100.006C76.9912 99.593 76.8413 99.2461 76.5415 98.9619C76.2417 98.6807 75.8131 98.5388 75.2557 98.5388C74.3008 98.5388 73.6908 99.012 73.4251 99.9585ZM81.7012 96.8818H86.2193C87.1161 96.8818 87.7813 96.9188 88.2204 96.9925C88.6621 97.0687 89.0541 97.2236 89.4014 97.4577C89.7483 97.6947 90.0376 98.0075 90.2691 98.3994C90.5003 98.791 90.6161 99.233 90.6161 99.7193C90.6161 100.245 90.4742 100.732 90.19 101.171C89.9062 101.613 89.5197 101.941 89.033 102.162C89.7193 102.365 90.2456 102.707 90.6161 103.19C90.9845 103.674 91.1685 104.242 91.1685 104.897C91.1685 105.412 91.0502 105.912 90.811 106.398C90.5715 106.885 90.2456 107.274 89.83 107.566C89.417 107.856 88.9067 108.034 88.2992 108.103C87.9206 108.142 87.0028 108.168 85.5486 108.179H81.7012V96.8818ZM83.9891 98.7594V101.363H85.4829C86.3692 101.363 86.9212 101.35 87.1371 101.323C87.5262 101.279 87.8339 101.145 88.0575 100.921C88.2811 100.698 88.3914 100.406 88.3914 100.043C88.3914 99.6932 88.2941 99.4116 88.1021 99.1935C87.9101 98.975 87.6234 98.8436 87.2449 98.799C87.0188 98.7725 86.3691 98.7594 85.2989 98.7594H83.9891ZM83.9891 103.24V106.27H86.1035C86.9241 106.27 87.4474 106.246 87.6681 106.201C88.0074 106.138 88.2836 105.988 88.4966 105.749C88.7097 105.507 88.8174 105.189 88.8174 104.786C88.8174 104.445 88.7358 104.158 88.5703 103.921C88.4074 103.685 88.1678 103.511 87.8575 103.403C87.5472 103.296 86.8714 103.24 85.8327 103.24H83.9891ZM92.2311 102.599C92.2311 101.447 92.4046 100.479 92.749 99.6957C93.0041 99.1198 93.3566 98.6016 93.8008 98.1443C94.2454 97.6867 94.732 97.3474 95.2605 97.1238C95.9653 96.8266 96.7778 96.6768 97.6982 96.6768C99.3655 96.6768 100.696 97.195 101.698 98.2285C102.697 99.2642 103.197 100.703 103.197 102.546C103.197 104.374 102.7 105.804 101.709 106.835C100.717 107.869 99.3894 108.384 97.7298 108.384C96.0495 108.384 94.711 107.871 93.7195 106.843C92.728 105.817 92.2311 104.403 92.2311 102.599ZM94.5821 102.522C94.5821 103.803 94.879 104.773 95.4709 105.436C96.0625 106.096 96.8149 106.427 97.7247 106.427C98.6371 106.427 99.384 106.099 99.9705 105.444C100.554 104.786 100.846 103.803 100.846 102.491C100.846 101.194 100.562 100.227 99.9915 99.5905C99.4236 98.9514 98.6687 98.6331 97.7247 98.6331C96.7833 98.6331 96.023 98.9568 95.4474 99.601C94.8714 100.248 94.5821 101.221 94.5821 102.522ZM105.685 96.8818H113.48V106.27H114.474V110.64H112.565V108.179H105.48V110.64H103.571V106.27H104.534C105.001 105.305 105.312 104.184 105.462 102.912C105.612 101.636 105.685 100.025 105.685 98.0757V96.8818ZM107.863 98.791C107.863 102.21 107.547 104.703 106.916 106.27H111.192V98.791H107.863ZM123.236 104.014L125.446 104.692C125.106 105.936 124.541 106.859 123.752 107.464C122.963 108.066 121.964 108.368 120.752 108.368C119.25 108.368 118.017 107.856 117.049 106.83C116.084 105.804 115.599 104.403 115.599 102.623C115.599 100.742 116.086 99.2802 117.057 98.2387C118.027 97.1975 119.305 96.6768 120.888 96.6768C122.271 96.6768 123.394 97.0872 124.257 97.9048C124.772 98.3889 125.156 99.0831 125.414 99.99L123.158 100.527C123.023 99.9429 122.745 99.4801 122.322 99.1408C121.895 98.8015 121.38 98.6331 120.775 98.6331C119.936 98.6331 119.255 98.9329 118.734 99.5353C118.211 100.135 117.951 101.108 117.951 102.454C117.951 103.88 118.209 104.897 118.721 105.502C119.237 106.109 119.904 106.412 120.728 106.412C121.335 106.412 121.858 106.22 122.295 105.833C122.732 105.447 123.047 104.842 123.236 104.014ZM129.554 108.179V98.791H126.208V96.8818H135.171V98.791H131.841V108.179H129.554ZM136.651 96.8818H141.169C142.066 96.8818 142.731 96.9188 143.17 96.9925C143.612 97.0687 144.004 97.2236 144.351 97.4577C144.698 97.6947 144.988 98.0075 145.219 98.3994C145.45 98.791 145.566 99.233 145.566 99.7193C145.566 100.245 145.424 100.732 145.14 101.171C144.856 101.613 144.47 101.941 143.983 102.162C144.669 102.365 145.196 102.707 145.566 103.19C145.935 103.674 146.119 104.242 146.119 104.897C146.119 105.412 146 105.912 145.761 106.398C145.522 106.885 145.196 107.274 144.78 107.566C144.367 107.856 143.857 108.034 143.249 108.103C142.871 108.142 141.953 108.168 140.499 108.179H136.651V96.8818ZM138.939 98.7594V101.363H140.433C141.319 101.363 141.871 101.35 142.087 101.323C142.476 101.279 142.784 101.145 143.008 100.921C143.231 100.698 143.341 100.406 143.341 100.043C143.341 99.6932 143.244 99.4116 143.052 99.1935C142.86 98.975 142.573 98.8436 142.195 98.799C141.969 98.7725 141.319 98.7594 140.249 98.7594H138.939ZM138.939 103.24V106.27H141.054C141.874 106.27 142.397 106.246 142.618 106.201C142.957 106.138 143.234 105.988 143.447 105.749C143.66 105.507 143.767 105.189 143.767 104.786C143.767 104.445 143.686 104.158 143.52 103.921C143.357 103.685 143.118 103.511 142.808 103.403C142.497 103.296 141.822 103.24 140.783 103.24H138.939ZM147.181 102.599C147.181 101.447 147.355 100.479 147.699 99.6957C147.954 99.1198 148.307 98.6016 148.751 98.1443C149.195 97.6867 149.682 97.3474 150.21 97.1238C150.915 96.8266 151.728 96.6768 152.648 96.6768C154.316 96.6768 155.646 97.195 156.648 98.2285C157.648 99.2642 158.147 100.703 158.147 102.546C158.147 104.374 157.65 105.804 156.659 106.835C155.667 107.869 154.339 108.384 152.68 108.384C150.999 108.384 149.661 107.871 148.67 106.843C147.678 105.817 147.181 104.403 147.181 102.599ZM149.532 102.522C149.532 103.803 149.829 104.773 150.421 105.436C151.013 106.096 151.765 106.427 152.675 106.427C153.587 106.427 154.334 106.099 154.921 105.444C155.504 104.786 155.796 103.803 155.796 102.491C155.796 101.194 155.512 100.227 154.942 99.5905C154.374 98.9514 153.619 98.6331 152.675 98.6331C151.733 98.6331 150.973 98.9568 150.397 99.601C149.821 100.248 149.532 101.221 149.532 102.522Z" fill="#2B2A29"/>
</svg>
