<svg width="24" height="24" viewBox="0 0 24 24" fill="none" xmlns="http://www.w3.org/2000/svg">
<g clip-path="url(#clip0_259_879)">
<path d="M19.4628 2.33168C20.2464 2.94608 20.7864 3.93848 21.0072 4.97768C21.0339 4.98614 21.06 4.99657 21.0852 5.00888L23.5392 6.14408C23.6764 6.20706 23.7926 6.30799 23.8743 6.43493C23.956 6.56188 23.9996 6.70954 24 6.86048V21.7009C23.9991 21.8242 23.9697 21.9455 23.914 22.0555C23.8584 22.1655 23.778 22.2611 23.6791 22.3348C23.5803 22.4086 23.4658 22.4584 23.3445 22.4804C23.2232 22.5024 23.0984 22.496 22.98 22.4617L16.1772 20.5417L8.0892 22.7713C7.94327 22.8114 7.78903 22.8097 7.644 22.7665L0.5688 20.6605C0.405265 20.6124 0.261588 20.5129 0.159114 20.3767C0.0566412 20.2405 0.000839592 20.0749 0 19.9045L0 4.79768C0 4.26968 0.5136 3.89048 1.026 4.03928L7.8684 6.03248L11.346 4.96808C11.3939 4.95395 11.4428 4.94391 11.4924 4.93808C11.6268 4.15088 12.0024 3.39488 12.6324 2.65808C13.38 1.78208 14.6916 1.26848 15.9696 1.20728C17.2956 1.14368 18.3084 1.42688 19.4616 2.33048L19.4628 2.33168ZM1.5996 5.85728V19.3153L7.4436 21.0541V7.55768L1.5996 5.85728ZM11.4504 6.59408L9.0432 7.32968V20.8645L15.1212 19.1917V15.2377C15.1212 14.8009 15.48 14.4469 15.9216 14.4469C16.3632 14.4469 16.7208 14.8009 16.7208 15.2389V19.0513L22.4004 20.6533V7.36328L21.0564 6.73928C21.0336 6.87128 21.0048 7.00088 20.9688 7.12688C20.7079 8.04699 20.2701 8.90742 19.68 9.66008L16.7076 13.3717C16.6293 13.4693 16.5294 13.5472 16.4157 13.5994C16.302 13.6516 16.1777 13.6765 16.0527 13.6722C15.9277 13.6679 15.8054 13.6345 15.6955 13.5746C15.5857 13.5147 15.4914 13.43 15.42 13.3273L12.642 9.30368C12.1836 8.66288 11.862 8.09168 11.6808 7.58048C11.5671 7.26141 11.4898 6.93051 11.4504 6.59408ZM16.0464 2.78888C15.1752 2.83088 14.28 3.18128 13.854 3.67928C13.3416 4.27928 13.0896 4.84088 13.0392 5.40968C12.9792 6.09488 13.02 6.57848 13.1904 7.05728C13.3164 7.41128 13.5672 7.86008 13.9548 8.40128L16.128 11.5477L18.42 8.68568C18.8824 8.09474 19.2252 7.41935 19.4292 6.69728C19.7172 5.68928 19.2828 4.20848 18.4692 3.57248C17.6352 2.91848 17.0052 2.74208 16.0476 2.78888H16.0464ZM16.212 3.62528C17.5368 3.62528 18.612 4.68728 18.612 5.99768C18.6103 6.31106 18.5468 6.62103 18.4253 6.90989C18.3037 7.19874 18.1264 7.46081 17.9035 7.68112C17.6806 7.90144 17.4165 8.07568 17.1263 8.19389C16.8361 8.3121 16.5254 8.37197 16.212 8.37008C14.8872 8.37008 13.812 7.30808 13.812 5.99768C13.812 4.68728 14.8872 3.62528 16.212 3.62528ZM16.212 5.20688C16.1075 5.20625 16.0039 5.2262 15.9072 5.2656C15.8104 5.305 15.7223 5.36307 15.648 5.43651C15.5737 5.50994 15.5146 5.59729 15.474 5.69358C15.4334 5.78986 15.4122 5.8932 15.4116 5.99768C15.4116 6.43448 15.7704 6.78848 16.212 6.78848C16.3165 6.78895 16.42 6.76884 16.5167 6.7293C16.6134 6.68975 16.7014 6.63154 16.7756 6.558C16.8498 6.48446 16.9088 6.39701 16.9493 6.30067C16.9897 6.20432 17.0107 6.10096 17.0112 5.99648C17.0096 5.78589 16.9246 5.58452 16.7748 5.43651C16.625 5.28849 16.4226 5.20592 16.212 5.20688Z" fill="#F5F5F5"/>
</g>
<defs>
<clipPath id="clip0_259_879">
<rect width="24" height="24" fill="white"/>
</clipPath>
</defs>
</svg>
