<svg width="24" height="24" viewBox="0 0 24 24" fill="none" xmlns="http://www.w3.org/2000/svg">
<path d="M9 15L7.95 16.05L9.9 18H3V19.5H9.9L7.95 21.45L9 22.5L12.75 18.75L9 15ZM13.5 11.25H7.5V12.75H13.5V11.25ZM13.5 6H7.5V7.5H13.5V6Z" fill="#F5F5F5"/>
<path d="M14.25 21H18V18H16.5V16.5H18V12.75H16.5V11.25H18V7.5H16.5V6H18V3H4.5V15H3V3C3 2.175 3.675 1.5 4.5 1.5H18C18.825 1.5 19.5 2.175 19.5 3V6H21V7.5H19.5V11.25H21V12.75H19.5V16.5H21V18H19.5V21C19.5 21.825 18.825 22.5 18 22.5H14.25V21Z" fill="#F5F5F5"/>
</svg>
