<svg width="130" height="130" viewBox="0 0 130 130" fill="none" xmlns="http://www.w3.org/2000/svg">
<path d="M65 129C100.346 129 129 100.346 129 65C129 29.6538 100.346 1 65 1C29.6538 1 1 29.6538 1 65C1 100.346 29.6538 129 65 129Z" fill="#F5F5F5" stroke="#2B2A29" stroke-width="0.755906" stroke-miterlimit="22.9256"/>
<path fill-rule="evenodd" clip-rule="evenodd" d="M36.2747 27.714C38.503 26.3283 40.0565 25.3877 43.2485 25H85.9833C88.9774 25.0197 91.4174 25.896 93.4036 27.4733L120.886 55.0932C122.561 57.1361 121.798 62.1313 118.275 62.376L72.6201 62.4447C71.8528 62.5139 71.0399 62.124 70.1808 61.2767L55.4436 46.5735C53.8323 44.3086 54.7191 39.5174 58.6385 39.1535L72.6889 39.1191C75.0477 39.1305 75.036 34.3667 72.6545 34.4127L45.1721 34.344C43.3008 34.4179 41.9129 35.2773 40.7748 36.5427L24.1823 53.2039L42.0116 53.1691L42.0742 42.7942C42.6356 37.8794 50.6601 37.9163 51.3816 42.7807L51.3882 58.6315C51.1922 60.6158 49.7425 62.304 47.508 62.376H11.6435C8.76017 62.0319 7.24392 58.0595 9.03263 54.9557L36.2747 27.714ZM83.9232 35.3753C84.3036 33.9896 85.1345 33.52 86.6028 34.3447L105.634 53.1699H75.5411C73.3716 53.1055 73.3705 48.5915 75.6098 48.3607H79.9896C82.1854 48.1099 83.6519 47.0083 83.9232 44.5131V35.3753Z" fill="#E31E24" stroke="#E31E24" stroke-width="0.755906" stroke-miterlimit="22.9256"/>
<path d="M12.4996 84.0688L15.5323 83.8788C15.598 84.3713 15.7316 84.7466 15.9334 85.0046C16.2617 85.4221 16.7308 85.6309 17.3406 85.6309C17.7957 85.6309 18.1451 85.5253 18.3891 85.3142C18.6377 85.0984 18.762 84.8498 18.762 84.5684C18.762 84.301 18.6447 84.0617 18.4102 83.8507C18.1756 83.6396 17.6315 83.4402 16.7777 83.2526C15.3798 82.9383 14.383 82.5208 13.7872 82.0001C13.1868 81.4794 12.8866 80.8156 12.8866 80.0088C12.8866 79.4787 13.039 78.9791 13.344 78.51C13.6536 78.0362 14.1156 77.6656 14.7301 77.3983C15.3493 77.1262 16.1961 76.9901 17.2703 76.9901C18.5884 76.9901 19.5923 77.2364 20.2819 77.729C20.9761 78.2168 21.3889 78.9955 21.5203 80.0651L18.5157 80.241C18.436 79.7766 18.2671 79.4388 18.0091 79.2277C17.7558 79.0166 17.404 78.9111 16.9536 78.9111C16.5831 78.9111 16.3039 78.9908 16.1163 79.1503C15.9287 79.3051 15.8348 79.4951 15.8348 79.7203C15.8348 79.8845 15.9122 80.0322 16.067 80.1636C16.2172 80.2996 16.5737 80.4263 17.1366 80.5435C18.5298 80.8438 19.5266 81.1487 20.1271 81.4583C20.7322 81.7632 21.1708 82.1432 21.4429 82.5982C21.7196 83.0532 21.858 83.5622 21.858 84.1251C21.858 84.7865 21.6751 85.3963 21.3092 85.9545C20.9433 86.5128 20.432 86.9373 19.7752 87.2281C19.1185 87.5143 18.2906 87.6574 17.2914 87.6574C15.537 87.6574 14.322 87.3196 13.6465 86.6441C12.971 85.9686 12.5887 85.1102 12.4996 84.0688ZM27.2409 77.1661H30.7802L32.863 80.6491L34.9458 77.1661H38.464L34.4532 83.1611V87.4814H31.2587V83.1611L27.2409 77.1661ZM43.7554 84.0688L46.788 83.8788C46.8537 84.3713 46.9874 84.7466 47.1891 85.0046C47.5175 85.4221 47.9866 85.6309 48.5964 85.6309C49.0514 85.6309 49.4009 85.5253 49.6448 85.3142C49.8935 85.0984 50.0178 84.8498 50.0178 84.5684C50.0178 84.301 49.9005 84.0617 49.6659 83.8507C49.4314 83.6396 48.8872 83.4402 48.0335 83.2526C46.6356 82.9383 45.6388 82.5208 45.043 82.0001C44.4426 81.4794 44.1424 80.8156 44.1424 80.0088C44.1424 79.4787 44.2948 78.9791 44.5997 78.51C44.9093 78.0362 45.3714 77.6656 45.9859 77.3983C46.6051 77.1262 47.4518 76.9901 48.526 76.9901C49.8442 76.9901 50.8481 77.2364 51.5376 77.729C52.2319 78.2168 52.6447 78.9955 52.776 80.0651L49.7715 80.241C49.6917 79.7766 49.5229 79.4388 49.2649 79.2277C49.0116 79.0166 48.6597 78.9111 48.2094 78.9111C47.8388 78.9111 47.5597 78.9908 47.3721 79.1503C47.1844 79.3051 47.0906 79.4951 47.0906 79.7203C47.0906 79.8845 47.168 80.0322 47.3228 80.1636C47.4729 80.2996 47.8294 80.4263 48.3924 80.5435C49.7856 80.8438 50.7824 81.1487 51.3828 81.4583C51.988 81.7632 52.4266 82.1432 52.6986 82.5982C52.9754 83.0532 53.1138 83.5622 53.1138 84.1251C53.1138 84.7865 52.9308 85.3963 52.5649 85.9545C52.1991 86.5128 51.6877 86.9373 51.031 87.2281C50.3743 87.5143 49.5463 87.6574 48.5472 87.6574C46.7927 87.6574 45.5778 87.3196 44.9023 86.6441C44.2268 85.9686 43.8445 85.1102 43.7554 84.0688ZM58.8133 77.1661H68.5024V79.7132H65.2516V87.4814H62.0641V79.7132H58.8133V77.1661ZM74.7578 77.1661H83.3V79.3685H77.9523V81.0079H82.913V83.1118H77.9523V85.1454H83.4548V87.4814H74.7578V77.1661ZM89.9565 77.1661H94.1502L95.7685 83.4425L97.3799 77.1661H101.56V87.4814H98.956V79.6147L96.9366 87.4814H94.5794L92.567 79.6147V87.4814H89.9565V77.1661ZM107.857 84.0688L110.89 83.8788C110.955 84.3713 111.089 84.7466 111.291 85.0046C111.619 85.4221 112.088 85.6309 112.698 85.6309C113.153 85.6309 113.503 85.5253 113.747 85.3142C113.995 85.0984 114.12 84.8498 114.12 84.5684C114.12 84.301 114.002 84.0617 113.768 83.8507C113.533 83.6396 112.989 83.4402 112.135 83.2526C110.737 82.9383 109.741 82.5208 109.145 82.0001C108.544 81.4794 108.244 80.8156 108.244 80.0088C108.244 79.4787 108.397 78.9791 108.701 78.51C109.011 78.0362 109.473 77.6656 110.088 77.3983C110.707 77.1262 111.554 76.9901 112.628 76.9901C113.946 76.9901 114.95 77.2364 115.639 77.729C116.334 78.2168 116.746 78.9955 116.878 80.0651L113.873 80.241C113.794 79.7766 113.625 79.4388 113.367 79.2277C113.113 79.0166 112.761 78.9111 112.311 78.9111C111.941 78.9111 111.661 78.9908 111.474 79.1503C111.286 79.3051 111.192 79.4951 111.192 79.7203C111.192 79.8845 111.27 80.0322 111.425 80.1636C111.575 80.2996 111.931 80.4263 112.494 80.5435C113.887 80.8438 114.884 81.1487 115.485 81.4583C116.09 81.7632 116.528 82.1432 116.8 82.5982C117.077 83.0532 117.216 83.5622 117.216 84.1251C117.216 84.7865 117.033 85.3963 116.667 85.9545C116.301 86.5128 115.79 86.9373 115.133 87.2281C114.476 87.5143 113.648 87.6574 112.649 87.6574C110.895 87.6574 109.68 87.3196 109.004 86.6441C108.329 85.9686 107.946 85.1102 107.857 84.0688Z" fill="#2B2A29"/>
</svg>
