<svg width="130" height="130" viewBox="0 0 130 130" fill="none" xmlns="http://www.w3.org/2000/svg">
<path d="M65 129C100.346 129 129 100.346 129 65C129 29.6538 100.346 1 65 1C29.6538 1 1 29.6538 1 65C1 100.346 29.6538 129 65 129Z" fill="#F5F5F5" stroke="#2B2A29" stroke-width="0.755906" stroke-miterlimit="22.9256"/>
<path fill-rule="evenodd" clip-rule="evenodd" d="M36.4462 17.5135C38.6614 16.1359 40.2058 15.2008 43.379 14.8154H85.863C88.8395 14.8351 91.2652 15.7062 93.2397 17.2742L120.561 44.7319C122.226 46.7628 121.468 51.7288 117.965 51.972L72.5782 52.0404C71.8155 52.1091 71.0072 51.7215 70.1532 50.8791L55.5025 36.2623C53.9007 34.0107 54.7823 29.2476 58.6787 28.8858L72.6466 28.8517C74.9916 28.8629 74.9799 24.1271 72.6124 24.1729L45.2914 24.1046C43.431 24.178 42.0513 25.0324 40.9199 26.2903L24.4248 42.8537L42.1495 42.8192L42.2116 32.5052C42.7697 27.6192 50.7471 27.6559 51.4644 32.4917L51.471 48.2494C51.2761 50.2222 49.8349 51.9004 47.6135 51.972H11.9596C9.09319 51.6299 7.58584 47.6808 9.36404 44.5952L36.4462 17.5135ZM83.815 25.1298C84.1931 23.7523 85.0191 23.2855 86.4788 24.1053L105.399 42.8199H75.482C73.3253 42.7559 73.3243 38.2684 75.5504 38.039H79.9045C82.0873 37.7896 83.5452 36.6945 83.815 34.2139V25.1298Z" fill="#E31E24" stroke="#E31E24" stroke-width="0.755906" stroke-miterlimit="22.9256"/>
<path d="M12.4996 62.5873L15.5323 62.3974C15.598 62.8899 15.7316 63.2652 15.9334 63.5232C16.2617 63.9407 16.7308 64.1494 17.3406 64.1494C17.7957 64.1494 18.1451 64.0439 18.3891 63.8328C18.6377 63.617 18.762 63.3684 18.762 63.0869C18.762 62.8195 18.6447 62.5803 18.4102 62.3692C18.1756 62.1581 17.6315 61.9588 16.7777 61.7711C15.3798 61.4568 14.383 61.0393 13.7872 60.5186C13.1868 59.9979 12.8866 59.3342 12.8866 58.5273C12.8866 57.9972 13.039 57.4977 13.344 57.0286C13.6536 56.5548 14.1156 56.1842 14.7301 55.9168C15.3493 55.6447 16.1961 55.5087 17.2703 55.5087C18.5884 55.5087 19.5923 55.755 20.2819 56.2475C20.9761 56.7354 21.3889 57.5141 21.5203 58.5836L18.5157 58.7595C18.436 58.2951 18.2671 57.9574 18.0091 57.7463C17.7558 57.5352 17.404 57.4296 16.9536 57.4296C16.5831 57.4296 16.3039 57.5094 16.1163 57.6689C15.9287 57.8237 15.8348 58.0137 15.8348 58.2388C15.8348 58.403 15.9122 58.5508 16.067 58.6821C16.2172 58.8182 16.5737 58.9448 17.1366 59.0621C18.5298 59.3623 19.5266 59.6672 20.1271 59.9768C20.7322 60.2817 21.1708 60.6617 21.4429 61.1167C21.7196 61.5717 21.858 62.0807 21.858 62.6436C21.858 63.3051 21.6751 63.9149 21.3092 64.4731C20.9433 65.0313 20.432 65.4559 19.7752 65.7467C19.1185 66.0328 18.2906 66.1759 17.2914 66.1759C15.537 66.1759 14.322 65.8382 13.6465 65.1627C12.971 64.4872 12.5887 63.6287 12.4996 62.5873ZM27.2409 55.6846H30.7802L32.863 59.1676L34.9458 55.6846H38.464L34.4532 61.6796V66H31.2587V61.6796L27.2409 55.6846ZM43.7554 62.5873L46.788 62.3974C46.8537 62.8899 46.9874 63.2652 47.1891 63.5232C47.5175 63.9407 47.9866 64.1494 48.5964 64.1494C49.0514 64.1494 49.4009 64.0439 49.6448 63.8328C49.8935 63.617 50.0178 63.3684 50.0178 63.0869C50.0178 62.8195 49.9005 62.5803 49.6659 62.3692C49.4314 62.1581 48.8872 61.9588 48.0335 61.7711C46.6356 61.4568 45.6388 61.0393 45.043 60.5186C44.4426 59.9979 44.1424 59.3342 44.1424 58.5273C44.1424 57.9972 44.2948 57.4977 44.5997 57.0286C44.9093 56.5548 45.3714 56.1842 45.9859 55.9168C46.6051 55.6447 47.4518 55.5087 48.526 55.5087C49.8442 55.5087 50.8481 55.755 51.5376 56.2475C52.2319 56.7354 52.6447 57.5141 52.776 58.5836L49.7715 58.7595C49.6917 58.2951 49.5229 57.9574 49.2649 57.7463C49.0116 57.5352 48.6597 57.4296 48.2094 57.4296C47.8388 57.4296 47.5597 57.5094 47.3721 57.6689C47.1844 57.8237 47.0906 58.0137 47.0906 58.2388C47.0906 58.403 47.168 58.5508 47.3228 58.6821C47.4729 58.8182 47.8294 58.9448 48.3924 59.0621C49.7856 59.3623 50.7824 59.6672 51.3828 59.9768C51.988 60.2817 52.4266 60.6617 52.6986 61.1167C52.9754 61.5717 53.1138 62.0807 53.1138 62.6436C53.1138 63.3051 52.9308 63.9149 52.5649 64.4731C52.1991 65.0313 51.6877 65.4559 51.031 65.7467C50.3743 66.0328 49.5463 66.1759 48.5472 66.1759C46.7927 66.1759 45.5778 65.8382 44.9023 65.1627C44.2268 64.4872 43.8445 63.6287 43.7554 62.5873ZM58.8133 55.6846H68.5024V58.2318H65.2516V66H62.0641V58.2318H58.8133V55.6846ZM74.7578 55.6846H83.3V57.887H77.9523V59.5265H82.913V61.6304H77.9523V63.6639H83.4548V66H74.7578V55.6846ZM89.9565 55.6846H94.1502L95.7685 61.9611L97.3799 55.6846H101.56V66H98.956V58.1333L96.9366 66H94.5794L92.567 58.1333V66H89.9565V55.6846ZM107.857 62.5873L110.89 62.3974C110.955 62.8899 111.089 63.2652 111.291 63.5232C111.619 63.9407 112.088 64.1494 112.698 64.1494C113.153 64.1494 113.503 64.0439 113.747 63.8328C113.995 63.617 114.12 63.3684 114.12 63.0869C114.12 62.8195 114.002 62.5803 113.768 62.3692C113.533 62.1581 112.989 61.9588 112.135 61.7711C110.737 61.4568 109.741 61.0393 109.145 60.5186C108.544 59.9979 108.244 59.3342 108.244 58.5273C108.244 57.9972 108.397 57.4977 108.701 57.0286C109.011 56.5548 109.473 56.1842 110.088 55.9168C110.707 55.6447 111.554 55.5087 112.628 55.5087C113.946 55.5087 114.95 55.755 115.639 56.2475C116.334 56.7354 116.746 57.5141 116.878 58.5836L113.873 58.7595C113.794 58.2951 113.625 57.9574 113.367 57.7463C113.113 57.5352 112.761 57.4296 112.311 57.4296C111.941 57.4296 111.661 57.5094 111.474 57.6689C111.286 57.8237 111.192 58.0137 111.192 58.2388C111.192 58.403 111.27 58.5508 111.425 58.6821C111.575 58.8182 111.931 58.9448 112.494 59.0621C113.887 59.3623 114.884 59.6672 115.485 59.9768C116.09 60.2817 116.528 60.6617 116.8 61.1167C117.077 61.5717 117.216 62.0807 117.216 62.6436C117.216 63.3051 117.033 63.9149 116.667 64.4731C116.301 65.0313 115.79 65.4559 115.133 65.7467C114.476 66.0328 113.648 66.1759 112.649 66.1759C110.895 66.1759 109.68 65.8382 109.004 65.1627C108.329 64.4872 107.946 63.6287 107.857 62.5873Z" fill="#2B2A29"/>
<path fill-rule="evenodd" clip-rule="evenodd" d="M22.1291 86.6023C21.675 86.6023 21.359 86.5285 21.1867 86.3812C21.0114 86.2343 20.9395 85.9573 20.9678 85.5519C20.9787 85.3912 21.0234 85.152 21.1023 84.8386C21.182 84.5252 21.2652 84.2449 21.3543 84.0002L22.4446 80.9466C22.5501 80.6656 22.6304 80.3587 22.6853 80.0228C22.7398 79.688 22.7726 79.4531 22.782 79.32C22.8267 78.6772 22.633 78.1544 22.2032 77.7523C21.7717 77.3513 21.1325 77.1484 20.2858 77.1484C19.8168 77.1484 19.3129 77.2306 18.7741 77.3968C18.2356 77.5607 17.6692 77.7592 17.0762 77.9905L16.7773 78.9336C16.9511 78.8699 17.1616 78.8052 17.4041 78.7332C17.6488 78.6638 17.8851 78.6307 18.112 78.6307C18.5766 78.6307 18.8831 78.7056 19.038 78.8598C19.1903 79.0135 19.2536 79.2869 19.2263 79.6767C19.2111 79.8952 19.1689 80.1355 19.0969 80.3976C19.0256 80.6576 18.9388 80.9364 18.841 81.2306L17.7452 84.2929C17.6448 84.6154 17.5681 84.9026 17.5143 85.1575C17.4619 85.4127 17.427 85.6635 17.4099 85.9082C17.3656 86.5386 17.5645 87.0567 18.0084 87.4657C18.4527 87.8748 19.102 88.0798 19.9546 88.0798C20.5094 88.0798 21.002 88.0082 21.4314 87.8646C21.8622 87.7213 22.437 87.5137 23.1605 87.2403L23.4615 86.298C23.335 86.3536 23.1358 86.4187 22.862 86.4917C22.5857 86.5648 22.3432 86.6023 22.1291 86.6023Z" fill="#E31E24"/>
<path fill-rule="evenodd" clip-rule="evenodd" d="M24.062 72.1265C23.681 71.748 23.2004 71.5601 22.6248 71.5601C22.0504 71.5601 21.5414 71.748 21.1026 72.1265C20.6674 72.5035 20.4267 72.9591 20.3896 73.4891C20.3525 74.02 20.5281 74.4744 20.9121 74.8482C21.2982 75.2219 21.7814 75.4088 22.3558 75.4088C22.9313 75.4088 23.4367 75.2219 23.8719 74.8482C24.3067 74.4744 24.5437 74.021 24.5808 73.4891C24.6179 72.9591 24.4445 72.5035 24.062 72.1265Z" fill="#E31E24"/>
<path fill-rule="evenodd" clip-rule="evenodd" d="M102.776 80.5629C102.771 80.6712 102.762 80.7781 102.749 80.8832C102.749 80.8846 102.749 80.8865 102.749 80.8876C102.664 81.6143 102.416 82.2655 102.002 82.8381C101.919 82.9519 101.831 83.0595 101.737 83.1638C101.725 83.1777 101.711 83.1915 101.698 83.2053C101.606 83.3056 101.51 83.402 101.409 83.494L101.408 83.4943C100.964 83.8939 100.428 84.2138 99.7936 84.4491L100.078 84.9355L100.669 85.9491L101.646 87.6248H97.7682L96.4143 85.2584L96.2372 84.9482L96.2012 84.8853H95.2832L95.1516 85.5358L95.1062 85.7619L94.7295 87.6248H90.9942L91.3851 85.7026L91.3887 85.6866L91.8741 83.2995L91.9151 83.097L92.2623 81.3896L92.4521 80.4553L92.8099 78.6974L92.831 78.5924L93.2098 76.7283H94.2492H94.3434H96.1765H96.3423H98.0951H98.1794C98.9193 76.7283 99.5744 76.8105 100.147 76.9727C100.168 76.9785 100.187 76.9861 100.208 76.9927C100.736 77.149 101.192 77.3733 101.574 77.6704C101.847 77.8827 102.07 78.1259 102.251 78.3957C102.255 78.4015 102.259 78.4069 102.263 78.4124C102.312 78.488 102.357 78.5662 102.399 78.6458C102.404 78.6545 102.409 78.6633 102.413 78.6716C102.456 78.7549 102.496 78.8399 102.531 78.9276C102.698 79.3369 102.785 79.7958 102.785 80.3088C102.785 80.3949 102.78 80.4785 102.776 80.5629ZM9.49772 92.8191H9.52644C10.0169 92.8147 10.4365 92.5232 10.6226 92.1076C10.8091 92.5232 11.229 92.8147 11.7191 92.8191H11.7424C12.2328 92.8147 12.6524 92.5232 12.8389 92.1076C13.0251 92.5232 13.445 92.8147 13.9354 92.8191H13.9583C14.4488 92.8147 14.8687 92.5232 15.0548 92.1076C15.241 92.5232 15.6609 92.8147 16.151 92.8191H16.1743C16.6647 92.8147 17.0846 92.5232 17.2708 92.1076C17.4569 92.5232 17.8769 92.8147 18.3673 92.8191H18.3906C18.8807 92.8147 19.3006 92.5232 19.4867 92.1076C19.6732 92.5232 20.0928 92.8147 20.5833 92.8191H20.6065C21.097 92.8147 21.5165 92.5232 21.703 92.1076C21.8892 92.5232 22.3091 92.8147 22.7992 92.8191H22.8225C23.3129 92.8147 23.7325 92.5232 23.919 92.1076C24.1051 92.5232 24.525 92.8147 25.0151 92.8191H25.0384C25.5289 92.8147 25.9488 92.5232 26.1349 92.1076C26.3211 92.5232 26.741 92.8147 27.2311 92.8191H27.2543C27.7448 92.8147 28.1647 92.5232 28.3509 92.1076C28.537 92.5232 28.9569 92.8147 29.4474 92.8191H29.4707C29.9607 92.8147 30.3807 92.5232 30.5668 92.1076C30.753 92.5232 31.1729 92.8147 31.6633 92.8191H31.6866C32.1767 92.8147 32.5966 92.5232 32.7831 92.1076C32.9689 92.5232 33.3888 92.8147 33.8793 92.8191H33.9025C34.3926 92.8147 34.8125 92.5232 34.9991 92.1076C35.1852 92.5232 35.6051 92.8147 36.0952 92.8191H36.1185C36.6086 92.8147 37.0288 92.5232 37.215 92.1076C37.4011 92.5232 37.8211 92.8147 38.3112 92.8191H38.3344C38.8249 92.8147 39.2448 92.5232 39.4309 92.1076C39.6174 92.5232 40.037 92.8147 40.5275 92.8191H40.5504C41.0408 92.8147 41.4607 92.5232 41.6469 92.1076C41.833 92.5232 42.2529 92.8147 42.7434 92.8191H42.7667C43.2568 92.8147 43.6767 92.5232 43.8628 92.1076C44.049 92.5232 44.4689 92.8147 44.9593 92.8191H44.9826C45.4727 92.8147 45.8926 92.5232 46.0788 92.1076C46.2653 92.5232 46.6848 92.8147 47.1753 92.8191H47.1986C47.6886 92.8147 48.1089 92.5232 48.2951 92.1076C48.4812 92.5232 48.9011 92.8147 49.3916 92.8191H49.4145C49.9049 92.8147 50.3249 92.5232 50.511 92.1076C50.6975 92.5232 51.1171 92.8147 51.6075 92.8191H51.6308C52.1209 92.8147 52.5408 92.5232 52.727 92.1076C52.9131 92.5232 53.333 92.8147 53.8235 92.8191H53.8467C54.3368 92.8147 54.7568 92.5232 54.9429 92.1076C55.129 92.5232 55.549 92.8147 56.0391 92.8191H56.0623C56.5528 92.8147 56.9731 92.5232 57.1592 92.1076C57.345 92.5232 57.7653 92.8147 58.2557 92.8191H58.2786C58.7687 92.8147 59.189 92.5232 59.3751 92.1076C59.5613 92.5232 59.9812 92.8147 60.4713 92.8191H60.4946C60.985 92.8147 61.4049 92.5232 61.5911 92.1076C61.7772 92.5232 62.1972 92.8147 62.6876 92.8191H62.7109C63.201 92.8147 63.6209 92.5232 63.807 92.1076C63.9932 92.5232 64.4131 92.8147 64.9032 92.8191H64.9265C65.4169 92.8147 65.8368 92.5232 66.023 92.1076C66.2091 92.5232 66.629 92.8147 67.1195 92.8191H67.1424C67.6328 92.8147 68.0531 92.5232 68.2393 92.1076C68.4251 92.5232 68.8453 92.8147 69.3354 92.8191H69.3583C69.8488 92.8147 70.2687 92.5232 70.4552 92.1076C70.6414 92.5232 71.0613 92.8147 71.5517 92.8191H71.5746C72.0647 92.8147 72.485 92.5232 72.6712 92.1076C72.8573 92.5232 73.2772 92.8147 73.7677 92.8191H73.7909C74.293 92.8144 74.7217 92.5086 74.9002 92.0767C75.0794 92.5086 75.5081 92.8144 76.0098 92.8191H76.0334C76.5359 92.8144 76.9645 92.5086 77.143 92.0767C77.3219 92.5086 77.7502 92.8144 78.2526 92.8191H78.2763C78.7784 92.8144 79.207 92.5086 79.3859 92.0767C79.5644 92.5086 79.993 92.8144 80.4951 92.8191H80.5188C81.0212 92.8144 81.4499 92.5086 81.6287 92.0767C81.8072 92.5086 82.2355 92.8144 82.738 92.8191H82.7616C83.2641 92.8144 83.6927 92.5086 83.8712 92.0767C84.0501 92.5086 84.4787 92.8144 84.9805 92.8191H85.0045C85.5065 92.8144 85.9355 92.5086 86.1141 92.0767C86.2929 92.5086 86.7212 92.8144 87.2237 92.8191H87.2462C87.7043 92.8151 88.1009 92.5613 88.3035 92.1894C88.5056 92.5613 88.9026 92.8151 89.3604 92.8191H89.3811C89.7974 92.8158 90.1635 92.6061 90.3787 92.2883C90.5917 92.581 90.9393 92.7718 91.3334 92.7718C91.761 92.7718 92.134 92.5468 92.3398 92.2109C92.5426 92.5192 92.8942 92.7246 93.2956 92.7246C93.7337 92.7246 94.1093 92.4788 94.2998 92.1225C94.4899 92.4523 94.8448 92.677 95.2574 92.677C95.7053 92.677 96.0889 92.4141 96.2623 92.0378C96.4357 92.3868 96.7971 92.6297 97.2199 92.6297C97.6828 92.6297 98.0729 92.3388 98.2212 91.9349C98.3714 92.313 98.7433 92.5824 99.1821 92.5824C99.6686 92.5824 100.074 92.2505 100.183 91.8051C100.296 92.2243 100.682 92.5352 101.144 92.5352C101.694 92.5352 102.141 92.0967 102.141 91.5564C102.141 91.0158 101.694 90.5777 101.144 90.5777C100.677 90.5777 100.288 90.894 100.179 91.3194C100.066 90.8806 99.6642 90.5544 99.1821 90.5544C98.7389 90.5544 98.3641 90.8293 98.2176 91.214C98.0656 90.8155 97.678 90.5308 97.2199 90.5308C96.7924 90.5308 96.4263 90.7788 96.2558 91.1351C96.0798 90.7649 95.7002 90.5075 95.2574 90.5075C94.84 90.5075 94.4812 90.738 94.2936 91.0736C94.1005 90.7242 93.7286 90.4843 93.2956 90.4843C92.8891 90.4843 92.5343 90.6948 92.3325 91.01C92.1256 90.6806 91.7563 90.4606 91.3334 90.4606C90.9346 90.4606 90.5827 90.6562 90.37 90.9555C90.1515 90.6428 89.7861 90.437 89.3713 90.437C88.9088 90.437 88.5074 90.6922 88.3035 91.0671C88.0991 90.6922 87.6978 90.437 87.2353 90.437C86.7278 90.437 86.2944 90.7442 86.1141 91.1798C85.9341 90.7442 85.5 90.437 84.9925 90.437C84.4853 90.437 84.0512 90.7442 83.8712 91.1798C83.6913 90.7442 83.2575 90.437 82.75 90.437C82.2424 90.437 81.8087 90.7442 81.6287 91.1798C81.4484 90.7442 81.0147 90.437 80.5071 90.437C79.9999 90.437 79.5659 90.7442 79.3859 91.1798C79.2056 90.7442 78.7718 90.437 78.2646 90.437C77.7571 90.437 77.3234 90.7442 77.143 91.1798C76.9631 90.7442 76.529 90.437 76.0214 90.437C75.5146 90.437 75.0809 90.7442 74.9002 91.1798C74.7202 90.7442 74.2861 90.437 73.7793 90.437C73.2838 90.437 72.8588 90.7301 72.6712 91.1489C72.4836 90.7301 72.0582 90.437 71.5634 90.437C71.0678 90.437 70.6428 90.7301 70.4552 91.1489C70.2673 90.7301 69.8422 90.437 69.3471 90.437C68.8519 90.437 68.4265 90.7301 68.2393 91.1489C68.0517 90.7301 67.6263 90.437 67.1311 90.437C66.6359 90.437 66.2106 90.7301 66.023 91.1489C65.8357 90.7301 65.4104 90.437 64.9148 90.437C64.42 90.437 63.9946 90.7301 63.807 91.1489C63.6194 90.7301 63.1944 90.437 62.6992 90.437C62.2037 90.437 61.7787 90.7301 61.5911 91.1489C61.4035 90.7301 60.9785 90.437 60.4829 90.437C59.9878 90.437 59.5627 90.7301 59.3751 91.1489C59.1875 90.7301 58.7622 90.437 58.2674 90.437C57.7718 90.437 57.3464 90.7301 57.1592 91.1489C56.9716 90.7301 56.5462 90.437 56.0507 90.437C55.5559 90.437 55.1305 90.7301 54.9429 91.1489C54.7557 90.7301 54.3303 90.437 53.8351 90.437C53.3399 90.437 52.9146 90.7301 52.727 91.1489C52.5394 90.7301 52.1143 90.437 51.6192 90.437C51.1236 90.437 50.699 90.7301 50.511 91.1489C50.3234 90.7301 49.898 90.437 49.4032 90.437C48.9077 90.437 48.4823 90.7301 48.2951 91.1489C48.1075 90.7301 47.6821 90.437 47.1869 90.437C46.6917 90.437 46.2667 90.7301 46.0788 91.1489C45.8915 90.7301 45.4662 90.437 44.971 90.437C44.4758 90.437 44.0504 90.7301 43.8628 91.1489C43.6752 90.7301 43.2502 90.437 42.755 90.437C42.2599 90.437 41.8345 90.7301 41.6469 91.1489C41.4593 90.7301 41.0343 90.437 40.5391 90.437C40.0435 90.437 39.6185 90.7301 39.4309 91.1489C39.2433 90.7301 38.8183 90.437 38.3228 90.437C37.8276 90.437 37.4026 90.7301 37.215 91.1489C37.0274 90.7301 36.602 90.437 36.1068 90.437C35.6117 90.437 35.1867 90.7301 34.9991 91.1489C34.8115 90.7301 34.3861 90.437 33.8909 90.437C33.3957 90.437 32.9703 90.7301 32.7831 91.1489C32.5955 90.7301 32.1701 90.437 31.675 90.437C31.1798 90.437 30.7544 90.7301 30.5668 91.1489C30.3792 90.7301 29.9542 90.437 29.459 90.437C28.9635 90.437 28.5385 90.7301 28.3509 91.1489C28.1633 90.7301 27.7383 90.437 27.2427 90.437C26.7475 90.437 26.3225 90.7301 26.1349 91.1489C25.9473 90.7301 25.5223 90.437 25.0268 90.437C24.5316 90.437 24.1066 90.7301 23.919 91.1489C23.7314 90.7301 23.306 90.437 22.8108 90.437C22.3156 90.437 21.8906 90.7301 21.703 91.1489C21.5154 90.7301 21.0901 90.437 20.5949 90.437C20.0997 90.437 19.6743 90.7301 19.4867 91.1489C19.2991 90.7301 18.8741 90.437 18.3789 90.437C17.8838 90.437 17.4584 90.7301 17.2708 91.1489C17.0832 90.7301 16.6582 90.437 16.1626 90.437C15.6678 90.437 15.2424 90.7301 15.0548 91.1489C14.8672 90.7301 14.4422 90.437 13.9471 90.437C13.4515 90.437 13.0265 90.7301 12.8389 91.1489C12.6513 90.7301 12.2259 90.437 11.7308 90.437C11.2356 90.437 10.8102 90.7301 10.6226 91.1489C10.435 90.7301 10.01 90.437 9.51481 90.437C9.33048 90.437 9.15597 90.4777 9 90.5505V92.706C9.15124 92.7762 9.31958 92.8166 9.49772 92.8191ZM100.18 88.9446C100.099 88.6308 99.8693 88.3767 99.5693 88.256H100.825C100.507 88.3625 100.263 88.6217 100.18 88.9446ZM98.2176 88.8377C98.1143 88.5657 97.8994 88.3494 97.629 88.2374C97.674 88.248 97.7202 88.256 97.7682 88.256H98.7949C98.5295 88.3629 98.319 88.573 98.2176 88.8377ZM95.7384 85.8615L95.8082 85.5165H95.8275L96.2888 86.3229C96.2783 86.3422 96.2659 86.3603 96.2565 86.38C96.1489 86.1542 95.9653 85.9709 95.7384 85.8615ZM97.2199 88.1538C96.7927 88.1538 96.427 88.4018 96.2561 88.7577C96.0802 88.3872 95.7006 88.1295 95.2574 88.1295C95.2011 88.1295 95.1458 88.1342 95.0916 88.1425C95.1756 88.0855 95.2447 88.0091 95.293 87.9186C95.725 87.9048 96.0925 87.6481 96.2616 87.2827C96.4281 87.6205 96.772 87.8564 97.1752 87.8731L97.2108 87.9349C97.2788 88.0535 97.3843 88.1404 97.5053 88.1949C97.4145 88.1698 97.3192 88.1538 97.2199 88.1538ZM94.294 88.6952C94.1929 88.5119 94.0424 88.3603 93.8606 88.256H94.7295C94.7371 88.256 94.7444 88.2545 94.7524 88.2542C94.5594 88.3538 94.399 88.5068 94.294 88.6952ZM92.3332 88.6301C92.2376 88.4778 92.106 88.3505 91.9522 88.256H92.7273C92.5674 88.3476 92.4318 88.4763 92.3332 88.6301ZM90.3707 88.5741C90.1522 88.2611 89.7864 88.0553 89.3713 88.0553C88.9088 88.0553 88.5074 88.3105 88.3035 88.685C88.2086 88.5112 88.0701 88.365 87.9039 88.256H87.921C88.2249 88.256 88.4871 88.0447 88.5478 87.7503L88.5507 87.7361C88.7663 87.9331 89.0539 88.0553 89.3713 88.0553C89.7821 88.0553 90.1442 87.8531 90.3631 87.5452C90.3413 87.7164 90.3878 87.8899 90.4994 88.0251C90.5739 88.1145 90.6725 88.1778 90.7812 88.216C90.6172 88.3018 90.4761 88.425 90.3707 88.5741ZM78.7097 87.6248L79.0485 85.9604L79.1376 85.5209L79.475 83.863L79.5357 83.5623L80.0708 80.9308L80.0905 80.8338L80.5588 78.5302L80.5606 78.5236L80.9256 76.7283H81.5477H81.7094H83.7901H83.9523H86.0333H86.1951H88.2736H88.3329H89.9308L89.5643 78.5106L89.5578 78.5429L89.3611 79.4991H84.0275L83.8883 80.2008L83.7745 80.7756H84.4384H85.5469H86.6812H87.7872H88.4587L88.3038 81.5383L87.921 83.4216H87.781H86.6874H85.5411H84.4442H83.2982H83.2201L82.9354 84.8541H88.4903L88.4169 85.2115L88.3355 85.6074L87.921 87.6248H78.7097ZM86.1141 88.7977C86.0221 88.5759 85.8636 88.3876 85.6636 88.256H86.5649C86.3646 88.3876 86.206 88.5759 86.1141 88.7977ZM83.8712 88.7977C83.7792 88.5759 83.6207 88.3876 83.4208 88.256H84.322C84.1217 88.3876 83.9632 88.5759 83.8712 88.7977ZM81.6287 88.7977C81.5368 88.5759 81.3782 88.3876 81.1779 88.256H82.0788C81.8792 88.3876 81.7204 88.5759 81.6287 88.7977ZM79.3859 88.7977C79.2939 88.5759 79.1354 88.3876 78.9351 88.256H79.8363C79.636 88.3876 79.4779 88.5759 79.3859 88.7977ZM78.4511 85.6874C78.3901 85.6779 78.3279 85.6736 78.2646 85.6736C77.9105 85.6736 77.5942 85.8252 77.3732 86.0637L77.5081 85.4074C77.7153 85.5725 77.9771 85.6736 78.2646 85.6736C78.3304 85.6736 78.3944 85.6677 78.457 85.6576L78.4511 85.6874ZM77.143 88.7977C77.0409 88.5508 76.8555 88.3476 76.6224 88.216C76.8249 88.1414 76.9812 87.9688 77.0263 87.7503L77.098 87.4034C77.1129 87.3732 77.1299 87.3441 77.143 87.3125C77.3212 87.7423 77.7462 88.0458 78.2454 88.0538C78.2461 88.0549 78.2468 88.0553 78.2476 88.0564C77.748 88.0633 77.3215 88.3672 77.143 88.7977ZM67.663 87.6248L68.4676 83.6688L68.597 83.0311L69.0188 80.9555L69.0199 80.9515L69.5103 78.5393L69.5154 78.5153L69.8786 76.7283H70.3858H70.5243H72.6021H72.7402H73.6135L72.3192 83.1202L72.2425 83.498L71.9837 84.7759H76.9849L76.7871 85.7397L76.7504 85.9168L76.3992 87.6248H67.663ZM74.9002 88.7977C74.8086 88.5759 74.6497 88.3876 74.4497 88.256H75.351C75.151 88.3876 74.9925 88.5759 74.9002 88.7977ZM72.6712 88.7668C72.5777 88.5585 72.4254 88.3814 72.2352 88.256H73.1071C72.9169 88.3814 72.7646 88.5585 72.6712 88.7668ZM70.4552 88.7668C70.3621 88.5585 70.2094 88.3814 70.0193 88.256H70.8911C70.7006 88.3814 70.5483 88.5585 70.4552 88.7668ZM68.2393 88.7668C68.1458 88.5585 67.9935 88.3814 67.803 88.256H68.6752C68.4847 88.3814 68.3324 88.5585 68.2393 88.7668ZM67.4009 85.7063C67.3133 85.6866 67.2242 85.6736 67.1311 85.6736C66.6359 85.6736 66.2106 85.9662 66.023 86.3851C65.9888 86.3083 65.9441 86.2382 65.895 86.1709L65.7052 85.3831C65.8401 85.2678 65.9503 85.1249 66.023 84.9617C66.2106 85.3805 66.6359 85.6736 67.1311 85.6736C67.2289 85.6736 67.3231 85.659 67.4147 85.6372L67.4009 85.7063ZM67.1311 88.0553C66.6359 88.0553 66.2106 88.348 66.023 88.7668C65.9295 88.5585 65.7772 88.3814 65.5871 88.256H65.5878C65.7837 88.256 65.9688 88.1676 66.0899 88.016C66.1746 87.9106 66.2189 87.7819 66.2244 87.6506C66.4462 87.8979 66.7694 88.0553 67.1311 88.0553C67.1529 88.0553 67.1733 88.0517 67.1951 88.0506C67.198 88.0542 67.202 88.0571 67.2057 88.0607C67.1806 88.0589 67.1562 88.0553 67.1311 88.0553ZM61.8689 87.6248L61.5046 85.7255H60.8389H60.1274H58.6229H57.9114H57.2792L57.0247 86.1618L56.1714 87.6248H52.2303L53.4545 85.735L53.5221 85.6307L54.7618 83.7172L55.2381 82.9817L59.289 76.7283H59.3057H59.4442H61.5216H61.6602H62.9606L63.3493 78.3397L63.4591 78.7952L63.8005 80.2106V80.2102L64.0154 81.1032L64.5276 83.2271L64.5563 83.3449L65.1133 85.6565L65.1221 85.6925L65.5878 87.6248H61.8689ZM63.807 88.7668C63.7136 88.5585 63.5613 88.3814 63.3711 88.256H64.2429C64.0528 88.3814 63.9005 88.5585 63.807 88.7668ZM59.3599 86.3567H59.3901C59.3853 86.3665 59.3795 86.3752 59.3751 86.3851C59.3708 86.3752 59.3646 86.3665 59.3599 86.3567ZM61.5911 88.7668C61.4035 88.348 60.9785 88.0553 60.4829 88.0553C59.9878 88.0553 59.5627 88.348 59.3751 88.7668C59.1875 88.348 58.7622 88.0553 58.2674 88.0553C57.7718 88.0553 57.3464 88.348 57.1592 88.7668C57.0345 88.4887 56.804 88.2683 56.5186 88.1502C56.6022 88.0971 56.6742 88.0273 56.7258 87.9397L56.8171 87.783C56.9632 87.6648 57.0821 87.5157 57.1592 87.3434C57.3464 87.7622 57.7718 88.0553 58.2674 88.0553C58.7622 88.0553 59.1875 87.7622 59.3751 87.3434C59.5627 87.7622 59.9878 88.0553 60.4829 88.0553C60.7756 88.0553 61.0421 87.9513 61.2515 87.7815C61.3235 88.0586 61.5751 88.256 61.8689 88.256H62.027C61.8369 88.3814 61.6845 88.5585 61.5911 88.7668ZM54.9429 88.7668C54.8495 88.5585 54.6971 88.3814 54.507 88.256H55.3788C55.1887 88.3814 55.0363 88.5585 54.9429 88.7668ZM52.727 88.7668C52.6335 88.5585 52.4812 88.3814 52.291 88.256H53.1629C52.9727 88.3814 52.8204 88.5585 52.727 88.7668ZM51.6192 88.0553C51.1236 88.0553 50.699 88.348 50.511 88.7668C50.4179 88.5585 50.2652 88.3814 50.0751 88.256H50.2856C50.567 88.256 50.8106 88.0738 50.8935 87.8135C51.0956 87.964 51.3458 88.0553 51.6192 88.0553C51.6657 88.0553 51.7115 88.0502 51.757 88.0451C51.7631 88.0516 51.7679 88.06 51.774 88.0666C51.7231 88.0604 51.6719 88.0553 51.6192 88.0553ZM41.0743 87.6248L43.2902 76.7283H43.7937H43.9323H46.0097H46.1482H48.2256H48.3641H50.4416H50.5801H52.2958L51.7257 79.4991H46.3922L46.2104 80.4164L46.1391 80.7756H46.6343H47.7399H48.8502H49.9558H50.8237L50.2856 83.4216H49.95H48.8561H47.7341H46.6398H45.585L45.5785 83.4554L45.3 84.8541H50.8549L50.7601 85.3169L50.5586 86.2963L50.2856 87.6248H41.0743ZM48.2951 88.7668C48.2016 88.5585 48.0493 88.3814 47.8588 88.256H48.731C48.5405 88.3814 48.3885 88.5585 48.2951 88.7668ZM46.0788 88.7668C45.9857 88.5585 45.8334 88.3814 45.6428 88.256H46.515C46.3245 88.3814 46.1722 88.5585 46.0788 88.7668ZM43.8628 88.7668C43.7694 88.5585 43.6171 88.3814 43.4269 88.256H44.2991C44.1086 88.3814 43.9563 88.5585 43.8628 88.7668ZM41.6469 88.7668C41.5534 88.5585 41.4015 88.3814 41.211 88.256H42.0828C41.8927 88.3814 41.7403 88.5585 41.6469 88.7668ZM40.8121 85.707C40.7238 85.687 40.6333 85.6736 40.5391 85.6736C40.0435 85.6736 39.6185 85.9662 39.4309 86.3851C39.3579 86.2215 39.2477 86.0786 39.1128 85.9637C39.2764 85.6874 39.4059 85.3958 39.4993 85.0889C39.7102 85.438 40.0959 85.6736 40.5391 85.6736C40.6387 85.6736 40.734 85.6586 40.8263 85.6365L40.8121 85.707ZM40.5391 88.0553C40.0435 88.0553 39.6185 88.348 39.4309 88.7668C39.2433 88.348 38.8183 88.0553 38.3228 88.0553C37.8276 88.0553 37.4026 88.348 37.215 88.7668C37.0528 88.4047 36.7129 88.1378 36.3035 88.0716C36.4217 88.032 36.5449 87.9982 36.658 87.9531C36.9143 87.851 37.1543 87.735 37.3804 87.6085C37.6022 87.88 37.941 88.0553 38.3228 88.0553C38.8183 88.0553 39.2433 87.7622 39.4309 87.3434C39.6185 87.7622 40.0435 88.0553 40.5391 88.0553C40.562 88.0553 40.5838 88.0517 40.606 88.0502C40.6096 88.0542 40.6136 88.0575 40.6173 88.0611C40.5911 88.0593 40.5656 88.0553 40.5391 88.0553ZM35.2503 87.7012C35.0529 87.7404 34.8482 87.7713 34.6388 87.7968C34.2581 87.8426 33.864 87.8739 33.443 87.8739C32.4824 87.8739 31.5804 87.7728 30.7366 87.5703C30.6904 87.559 30.6493 87.5456 30.6043 87.5347C30.5635 87.523 30.5225 87.5121 30.481 87.5008C29.7539 87.3078 29.138 87.0657 28.6475 86.769L29.2198 85.6921L29.2412 85.6517L30.0876 84.06C30.9526 84.5494 31.8455 84.8588 32.766 84.9933C32.7784 84.9948 32.7907 84.9977 32.8031 84.9991C33.1394 85.0464 33.479 85.0718 33.8226 85.0718C34.2974 85.0718 34.6617 85.0148 34.9147 84.901C35.1678 84.7865 35.2946 84.6308 35.2946 84.4338C35.2946 84.2469 35.1652 84.0964 34.9067 83.9822C34.6482 83.8681 34.2392 83.7437 33.68 83.6089C32.9416 83.4216 32.3294 83.2326 31.8444 83.0406C31.3587 82.8486 30.9344 82.5531 30.5704 82.1535C30.2061 81.7539 30.024 81.2271 30.024 80.5734C30.024 79.8685 30.1909 79.2388 30.5228 78.6832C30.5243 78.6811 30.5254 78.6782 30.5272 78.6756C30.5799 78.588 30.6359 78.5015 30.697 78.4175C30.7319 78.3695 30.7759 78.3277 30.8133 78.2811C30.8311 78.2615 30.8478 78.2411 30.8649 78.2208C31.3023 77.7009 31.8866 77.285 32.6355 76.9854C33.2605 76.736 33.9702 76.5796 34.7624 76.5149C34.7624 76.5146 34.7624 76.5149 34.7627 76.5149C35.0409 76.492 35.3281 76.4793 35.6269 76.4793C36.1152 76.4793 36.5817 76.5113 37.031 76.568C37.143 76.5822 37.2561 76.5949 37.3655 76.6127C37.5571 76.6436 37.7454 76.6793 37.9298 76.7207C38.642 76.8818 39.2564 77.1126 39.7734 77.4133L38.4282 80.091C37.9956 79.8212 37.5182 79.6187 36.9958 79.4838C36.4737 79.3489 35.9378 79.2813 35.3895 79.2813C34.8722 79.2813 34.4715 79.354 34.1865 79.4991C33.9018 79.6445 33.7593 79.8161 33.7593 80.0128C33.7593 80.2102 33.8884 80.3658 34.1472 80.48C34.2712 80.5349 34.4363 80.5923 34.6373 80.6523C34.7442 80.684 34.862 80.7163 34.99 80.749C34.9921 80.7498 34.994 80.7505 34.9961 80.7509C35.1267 80.7843 35.2681 80.8188 35.4212 80.8534C36.0305 80.9948 36.5533 81.1439 36.9994 81.2995C37.0783 81.3271 37.1594 81.3544 37.2332 81.3827C37.2663 81.3951 37.2968 81.4122 37.3292 81.4256C37.7785 81.6132 38.1726 81.887 38.5071 82.2546C38.7245 82.4934 38.8678 82.7839 38.9536 83.114C39.0092 83.3293 39.0452 83.5576 39.0452 83.811C39.0452 84.6203 38.8183 85.3314 38.365 85.9437C37.9112 86.5559 37.2623 87.0311 36.4181 87.3678C36.0578 87.5118 35.6644 87.6186 35.2503 87.7012ZM34.9991 88.7668C34.9402 88.6355 34.8558 88.5185 34.7551 88.417C34.9551 88.3919 35.1518 88.3636 35.3423 88.3265C35.1957 88.4447 35.0761 88.5941 34.9991 88.7668ZM32.7831 88.7668C32.7358 88.661 32.673 88.5636 32.5981 88.4767C32.7162 88.4843 32.8362 88.4876 32.9562 88.4919C32.8867 88.5752 32.8278 88.6668 32.7831 88.7668ZM30.5668 88.7668C30.3792 88.348 29.9542 88.0553 29.459 88.0553C28.9635 88.0553 28.5385 88.348 28.3509 88.7668C28.1633 88.348 27.7383 88.0553 27.2427 88.0553C26.7475 88.0553 26.3225 88.348 26.1349 88.7668C25.9473 88.348 25.5223 88.0553 25.0268 88.0553C24.5316 88.0553 24.1066 88.348 23.919 88.7668C23.7314 88.348 23.306 88.0553 22.8108 88.0553C22.8083 88.0553 22.8057 88.0556 22.8032 88.0556C22.8039 88.0553 22.805 88.0553 22.8057 88.0549C22.8076 88.0549 22.8094 88.0553 22.8108 88.0553C23.306 88.0553 23.7314 87.7622 23.919 87.3434C24.1066 87.7622 24.5316 88.0553 25.0268 88.0553C25.5223 88.0553 25.9473 87.7622 26.1349 87.3434C26.3225 87.7622 26.7475 88.0553 27.2427 88.0553C27.7383 88.0553 28.1633 87.7622 28.3509 87.3434C28.5385 87.7622 28.9635 88.0553 29.459 88.0553C29.6023 88.0553 29.7386 88.028 29.8658 87.9833C30.0956 88.0553 30.3338 88.1236 30.5853 88.1836C30.7173 88.2153 30.854 88.24 30.9889 88.2669C30.8053 88.3916 30.6577 88.5639 30.5668 88.7668ZM21.703 88.7668C21.6594 88.6697 21.6016 88.5799 21.5347 88.4985C21.5685 88.4879 21.6045 88.4807 21.6376 88.4694C21.7598 88.4287 21.8957 88.3818 22.0401 88.3312C21.8965 88.4487 21.779 88.5963 21.703 88.7668ZM20.9995 87.9844C20.9992 87.9844 20.9992 87.9844 20.9988 87.9844C20.9988 87.9844 20.9988 87.9844 20.9992 87.9844C20.8577 88.0138 20.7101 88.036 20.5571 88.0524C20.5567 88.0524 20.5563 88.0524 20.556 88.0524C20.4651 88.0626 20.3735 88.0709 20.2786 88.076C20.1735 88.0826 20.0663 88.0869 19.9554 88.0869C19.754 88.0869 19.5649 88.0746 19.3864 88.0517C19.3853 88.0517 19.3838 88.0517 19.3828 88.0513C18.8065 87.9771 18.348 87.7848 18.0092 87.4728C17.5653 87.0638 17.3664 86.545 17.4108 85.9153C17.4111 85.9088 17.4122 85.9019 17.4126 85.895C17.4199 85.7975 17.4304 85.6986 17.4438 85.5994C17.4624 85.4558 17.4849 85.3111 17.5151 85.1646C17.5689 84.9093 17.6456 84.6225 17.746 84.2996L18.107 83.2907L18.1179 83.2602L18.8418 81.2377C18.8654 81.166 18.8861 81.0984 18.9087 81.029C18.9407 80.9301 18.9716 80.8323 19.0003 80.7374C19.0348 80.624 19.0683 80.512 19.0977 80.4047C19.1697 80.1426 19.2119 79.9023 19.2271 79.6834C19.2544 79.2937 19.1912 79.0203 19.0388 78.8665C18.8839 78.7127 18.5775 78.6378 18.1128 78.6378C18.0208 78.6378 17.9263 78.6469 17.8318 78.6578C17.7834 78.6636 17.7351 78.672 17.6863 78.6796C17.5933 78.696 17.5002 78.7131 17.4049 78.74C17.3202 78.7654 17.2446 78.7887 17.1679 78.8123C17.1112 78.8298 17.0563 78.8472 17.0032 78.8643C16.9243 78.8901 16.8461 78.9156 16.7782 78.9407L16.8436 78.7349H16.8432L16.9545 78.3844L17.077 77.9972C17.67 77.7663 18.2364 77.5678 18.7749 77.4039C19.3137 77.2373 19.8176 77.1552 20.2866 77.1552C21.1333 77.1552 21.7725 77.358 22.204 77.7591C22.6338 78.1615 22.8276 78.6843 22.7828 79.3268C22.7734 79.4602 22.7407 79.6947 22.6861 80.0299C22.637 80.3306 22.5643 80.6047 22.4745 80.8614C22.464 80.8916 22.4563 80.9246 22.4454 80.9537L22.4407 80.9675L21.5351 83.5027L21.4754 83.6699L21.3551 84.007C21.266 84.252 21.1828 84.5323 21.1032 84.8457C21.0243 85.1587 20.9795 85.398 20.9686 85.559C20.9672 85.579 20.969 85.595 20.9679 85.6143C20.9661 85.6557 20.9668 85.6936 20.9672 85.7317C20.9694 86.0411 21.0395 86.264 21.1875 86.3883C21.3598 86.5352 21.6758 86.6094 22.1299 86.6094C22.344 86.6094 22.5865 86.5716 22.8628 86.4985C23.1366 86.4258 23.3358 86.3607 23.4623 86.3051L23.1613 87.2471C22.6923 87.4245 22.292 87.571 21.9466 87.6935C21.943 87.6946 21.9401 87.6957 21.9364 87.6972C21.8561 87.7255 21.7776 87.7532 21.7041 87.7786C21.6078 87.8124 21.5158 87.8437 21.4322 87.8713C21.2951 87.9171 21.1493 87.9531 20.9995 87.9844ZM19.4867 88.7668C19.4751 88.7406 19.4598 88.7162 19.4464 88.6912C19.4722 88.6937 19.4969 88.697 19.5231 88.6992C19.5111 88.7217 19.4973 88.7435 19.4867 88.7668ZM28.6639 85.3791L28.2345 86.1866C28.016 85.8775 27.6546 85.6736 27.2427 85.6736C26.7475 85.6736 26.3225 85.9662 26.1349 86.3851C25.9473 85.9662 25.5223 85.6736 25.0268 85.6736C24.6396 85.6736 24.2967 85.8539 24.0753 86.1324C23.9993 85.8695 23.7583 85.6757 23.4685 85.6739C23.4663 85.6739 23.4645 85.6739 23.4623 85.6739C23.4503 85.6739 23.4383 85.6739 23.4267 85.6746H23.426C23.3427 85.6794 23.2638 85.6997 23.1922 85.7328C23.1911 85.7332 23.1893 85.7339 23.1886 85.7343C23.0697 85.6954 22.9432 85.6736 22.8108 85.6736C22.5025 85.6736 22.2211 85.787 22.0077 85.9739C21.7834 85.964 21.666 85.9331 21.622 85.9157C21.6111 85.8764 21.594 85.7823 21.6067 85.6023C21.6114 85.531 21.6336 85.3572 21.7234 84.9995C21.9194 85.3972 22.3313 85.6736 22.8108 85.6736C23.306 85.6736 23.7314 85.3805 23.919 84.9617C24.1066 85.3805 24.5316 85.6736 25.0268 85.6736C25.5223 85.6736 25.9473 85.3805 26.1349 84.9617C26.3225 85.3805 26.7475 85.6736 27.2427 85.6736C27.7383 85.6736 28.1633 85.3805 28.3509 84.9617C28.4232 85.1231 28.5312 85.2649 28.6639 85.3791ZM23.919 82.5796C24.1066 82.9984 24.5316 83.2915 25.0268 83.2915C25.5223 83.2915 25.9473 82.9984 26.1349 82.5796C26.3225 82.9984 26.7475 83.2915 27.2427 83.2915C27.7383 83.2915 28.1633 82.9984 28.3509 82.5796C28.5385 82.9984 28.9635 83.2915 29.459 83.2915C29.832 83.2915 30.1654 83.1249 30.3872 82.8635C30.6228 83.0762 30.8769 83.2591 31.1503 83.4093C31.0016 83.4802 30.8707 83.5798 30.7635 83.7008C30.6435 83.6412 30.5243 83.5798 30.4057 83.5121C30.3079 83.4572 30.1982 83.4289 30.0876 83.4289C30.0691 83.4289 30.0509 83.4347 30.0324 83.4365C29.8611 83.3456 29.667 83.2915 29.459 83.2915C28.9635 83.2915 28.5385 83.5841 28.3509 84.003C28.1633 83.5841 27.7383 83.2915 27.2427 83.2915C26.7475 83.2915 26.3225 83.5841 26.1349 84.003C25.9473 83.5841 25.5223 83.2915 25.0268 83.2915C24.5316 83.2915 24.1066 83.5841 23.919 84.003C23.7314 83.5841 23.306 83.2915 22.8108 83.2915C22.6025 83.2915 22.408 83.3456 22.2368 83.4369L22.3255 83.1893C22.4742 83.2536 22.6378 83.2915 22.8108 83.2915C23.306 83.2915 23.7314 82.9984 23.919 82.5796ZM23.1435 80.8625C23.4911 80.7647 23.775 80.5189 23.919 80.1979C24.1066 80.6167 24.5316 80.9094 25.0268 80.9094C25.5223 80.9094 25.9473 80.6167 26.1349 80.1979C26.3225 80.6167 26.7475 80.9094 27.2427 80.9094C27.7383 80.9094 28.1633 80.6167 28.3509 80.1979C28.5308 80.5996 28.9304 80.8825 29.3998 80.905C29.3998 80.9079 29.4005 80.9108 29.4008 80.9137C28.9308 80.9359 28.5312 81.2188 28.3509 81.6209C28.1633 81.202 27.7383 80.9094 27.2427 80.9094C26.7475 80.9094 26.3225 81.202 26.1349 81.6209C25.9473 81.202 25.5223 80.9094 25.0268 80.9094C24.5316 80.9094 24.1066 81.202 23.919 81.6209C23.7714 81.2915 23.4758 81.0428 23.1159 80.9505C23.1253 80.921 23.1344 80.8919 23.1435 80.8625ZM23.919 77.8161C24.1066 78.235 24.5316 78.5276 25.0268 78.5276C25.5223 78.5273 25.9473 78.235 26.1349 77.8161C26.3225 78.235 26.7475 78.5276 27.2427 78.5276C27.7383 78.5273 28.1633 78.235 28.3509 77.8161C28.5385 78.235 28.9635 78.5276 29.459 78.5276C29.6284 78.5273 29.7888 78.4909 29.9349 78.4291C29.9044 78.4829 29.8728 78.5364 29.8448 78.5913C29.7233 78.5513 29.5943 78.5276 29.459 78.5276C28.9635 78.5273 28.5385 78.8203 28.3509 79.2391C28.1633 78.8203 27.7383 78.5276 27.2427 78.5276C26.7475 78.5273 26.3225 78.8203 26.1349 79.2391C25.9473 78.8203 25.5223 78.5276 25.0268 78.5276C24.5316 78.5273 24.1066 78.8203 23.919 79.2391C23.8103 78.9963 23.6198 78.7981 23.3842 78.6727C23.3685 78.5847 23.3493 78.4986 23.3253 78.4146C23.5892 78.2924 23.8008 78.079 23.919 77.8161ZM34.9991 75.434C35.0729 75.5995 35.1856 75.7442 35.3234 75.8598C35.0867 75.866 34.8525 75.8754 34.6271 75.8958C34.7867 75.7747 34.9165 75.618 34.9991 75.434ZM37.215 75.434C37.3495 75.7344 37.6073 75.9674 37.924 76.0768C37.5713 76.003 37.2059 75.9456 36.8278 75.9078C36.9947 75.7853 37.1299 75.6238 37.215 75.434ZM41.6469 79.2391C41.4593 78.8203 41.0343 78.5276 40.5391 78.5276C40.2606 78.5273 40.0065 78.6222 39.8021 78.7778L39.993 78.3975C40.1573 78.4797 40.342 78.5276 40.5391 78.5276C41.0343 78.5273 41.4593 78.235 41.6469 77.8161C41.7719 78.0954 42.0043 78.316 42.2911 78.4338L42.2497 78.6371C41.9817 78.7589 41.7661 78.973 41.6469 79.2391ZM41.3698 82.9635L41.2553 83.526C41.0546 83.3798 40.8081 83.2915 40.5391 83.2915C40.2013 83.2915 39.8985 83.4296 39.6789 83.6489C39.6654 83.3198 39.612 83.0141 39.5153 82.7352C39.7294 83.0693 40.1075 83.2915 40.5391 83.2915C40.8616 83.2915 41.1528 83.1657 41.3698 82.9635ZM40.5391 80.9094C40.0435 80.9094 39.6185 81.202 39.4309 81.6209C39.2433 81.202 38.8183 80.9094 38.3228 80.9094C38.1719 80.9094 38.029 80.9396 37.8956 80.989C37.7563 80.9159 37.6124 80.8505 37.4637 80.7938C37.295 80.7294 37.1085 80.6669 36.9147 80.6051C37.0387 80.4953 37.139 80.3604 37.2088 80.2091C37.2139 80.211 37.219 80.2131 37.2241 80.215C37.4157 80.6243 37.8345 80.9094 38.3228 80.9094C38.8183 80.9094 39.2433 80.6167 39.4309 80.1979C39.6185 80.6167 40.0435 80.9094 40.5391 80.9094C41.0343 80.9094 41.4593 80.6167 41.6469 80.1979C41.7011 80.3186 41.7767 80.4269 41.8661 80.5229L41.644 81.6154C41.4549 81.1995 41.0317 80.9094 40.5391 80.9094ZM38.3228 76.1455C38.8183 76.1455 39.2433 75.8529 39.4309 75.434C39.6185 75.8529 40.0435 76.1455 40.5391 76.1455C41.0343 76.1455 41.4593 75.8529 41.6469 75.434C41.8345 75.8529 42.2599 76.1455 42.755 76.1455C43.2502 76.1455 43.6752 75.8529 43.8628 75.434C44.0061 75.7533 44.2875 75.9983 44.6325 76.0972H43.2902C43.183 76.0972 43.0819 76.1245 42.9924 76.1714C42.915 76.1561 42.8365 76.1455 42.755 76.1455C42.2599 76.1455 41.8345 76.4382 41.6469 76.857C41.4593 76.4382 41.0343 76.1455 40.5391 76.1455C40.1504 76.1455 39.8069 76.3273 39.5855 76.6076C39.4168 76.5302 39.2397 76.4593 39.0568 76.3935C38.8529 76.2393 38.5998 76.1455 38.3228 76.1455C38.2973 76.1455 38.273 76.1495 38.2479 76.1514C38.2279 76.1463 38.2086 76.1405 38.1886 76.1357C38.233 76.1405 38.2773 76.1455 38.3228 76.1455ZM46.0788 75.434C46.222 75.7533 46.5038 75.9983 46.8488 76.0972H45.3091C45.6545 75.9983 45.9359 75.7533 46.0788 75.434ZM48.2951 75.434C48.438 75.7533 48.7194 75.9983 49.0647 76.0972H47.525C47.8704 75.9983 48.1518 75.7533 48.2951 75.434ZM50.511 75.434C50.6543 75.7533 50.9357 75.9983 51.2807 76.0972H49.7413C50.0864 75.9983 50.3681 75.7533 50.511 75.434ZM54.9429 79.2391C54.7557 78.8203 54.3303 78.5276 53.8351 78.5276C53.3399 78.5273 52.9146 78.8203 52.727 79.2391C52.6713 79.1152 52.5932 79.0043 52.5005 78.9065L52.723 77.823C52.7244 77.8205 52.7259 77.8183 52.727 77.8161C52.9146 78.235 53.3396 78.5276 53.8351 78.5276C54.3303 78.5273 54.7553 78.235 54.9429 77.8161C55.1305 78.235 55.5559 78.5276 56.0507 78.5276C56.5462 78.5273 56.9716 78.235 57.1592 77.8161C57.2406 77.9987 57.3693 78.1546 57.5279 78.2757L57.037 79.033C56.8178 78.7283 56.4593 78.5276 56.0507 78.5276C55.5559 78.5273 55.1305 78.8203 54.9429 79.2391ZM53.8351 80.9094C53.3399 80.9094 52.9146 81.202 52.727 81.6209C52.5394 81.202 52.1143 80.9094 51.6192 80.9094C51.5603 80.9094 51.5025 80.9145 51.4457 80.9221C51.4479 80.9141 51.4472 80.905 51.4487 80.897C51.5046 80.9046 51.561 80.9094 51.6192 80.9094C52.1143 80.9094 52.5394 80.6167 52.727 80.1979C52.9146 80.6167 53.3396 80.9094 53.8351 80.9094C54.3303 80.9094 54.7553 80.6167 54.9429 80.1979C55.1025 80.5542 55.4348 80.817 55.8351 80.8883L55.8031 80.9377C55.4174 81.017 55.0981 81.2744 54.9429 81.6209C54.7557 81.202 54.3303 80.9094 53.8351 80.9094ZM52.9698 85.3107L52.4935 86.0458C52.2736 85.8179 51.9642 85.6736 51.6192 85.6736C51.5195 85.6736 51.4243 85.6877 51.3316 85.7103L51.3465 85.6397C51.4345 85.6597 51.525 85.6736 51.6192 85.6736C52.1143 85.6736 52.5394 85.3805 52.727 84.9617C52.7859 85.0929 52.8702 85.2096 52.9698 85.3107ZM52.727 84.003C52.5394 83.5841 52.1143 83.2915 51.6192 83.2915C51.3578 83.2915 51.1171 83.3744 50.9193 83.5132L50.9993 83.1202C51.1807 83.2275 51.3919 83.2915 51.6192 83.2915C52.1143 83.2915 52.5394 82.9984 52.727 82.5796C52.9146 82.9984 53.3396 83.2915 53.8351 83.2915C54.0202 83.2915 54.1954 83.2504 54.3521 83.1773L54.2336 83.3598C54.1089 83.3169 53.9754 83.2915 53.8351 83.2915C53.3399 83.2915 52.9146 83.5841 52.727 84.003ZM52.727 75.434C52.9146 75.8529 53.3396 76.1455 53.8351 76.1455C54.3303 76.1455 54.7553 75.8529 54.9429 75.434C55.1305 75.8529 55.5559 76.1455 56.0507 76.1455C56.5462 76.1455 56.9716 75.8529 57.1592 75.434C57.3464 75.8529 57.7718 76.1455 58.2674 76.1455C58.7622 76.1455 59.1875 75.8529 59.3751 75.434C59.5184 75.7533 59.7994 75.9983 60.1448 76.0972H59.289C59.1159 76.0972 58.9541 76.1685 58.8352 76.2877C58.6655 76.1986 58.4728 76.1455 58.2674 76.1455C57.7718 76.1455 57.3464 76.4382 57.1592 76.857C56.9716 76.4382 56.5462 76.1455 56.0507 76.1455C55.5559 76.1455 55.1305 76.4382 54.9429 76.857C54.7557 76.4382 54.3303 76.1455 53.8351 76.1455C53.465 76.1455 53.1345 76.3092 52.9124 76.5666C52.8898 76.4808 52.8491 76.3993 52.7909 76.3288C52.6691 76.1823 52.4874 76.0972 52.2958 76.0972H51.9573C52.3023 75.9983 52.5837 75.7533 52.727 75.434ZM61.5911 75.434C61.7343 75.7533 62.0154 75.9983 62.3608 76.0972H60.8214C61.1664 75.9983 61.4482 75.7533 61.5911 75.434ZM68.2393 79.2391C68.0517 78.8203 67.6263 78.5276 67.1311 78.5276C66.6359 78.5273 66.2106 78.8203 66.023 79.2391C65.8357 78.8203 65.4104 78.5276 64.9148 78.5276C64.6116 78.5273 64.3349 78.6382 64.1226 78.8199L63.9306 78.0241C64.1502 78.3277 64.508 78.5276 64.9148 78.5276C65.4104 78.5273 65.8357 78.235 66.023 77.8161C66.2106 78.235 66.6359 78.5276 67.1311 78.5276C67.6263 78.5273 68.0517 78.235 68.2393 77.8161C68.364 78.0943 68.5948 78.3142 68.8799 78.4324L68.8377 78.6385C68.5716 78.7607 68.3578 78.9745 68.2393 79.2391ZM67.9575 82.9679L67.8444 83.5238C67.6445 83.3791 67.3987 83.2915 67.1311 83.2915C66.6359 83.2915 66.2106 83.5841 66.023 84.003C65.8743 83.6707 65.5743 83.4205 65.21 83.33L65.1926 83.2566C65.5649 83.1704 65.8717 82.9174 66.023 82.5796C66.2106 82.9984 66.6359 83.2915 67.1311 83.2915C67.4514 83.2915 67.7412 83.1675 67.9575 82.9679ZM67.1311 80.9094C66.6359 80.9094 66.2106 81.202 66.023 81.6209C65.8357 81.202 65.4104 80.9094 64.9148 80.9094C64.8181 80.9094 64.7254 80.9235 64.6349 80.9446L64.6171 80.8701C64.7127 80.8937 64.8116 80.9094 64.9148 80.9094C65.4104 80.9094 65.8357 80.6167 66.023 80.1979C66.2106 80.6167 66.6359 80.9094 67.1311 80.9094C67.6263 80.9094 68.0517 80.6167 68.2393 80.1979C68.2927 80.3171 68.3673 80.4247 68.4556 80.5196L68.2335 81.6103C68.0437 81.1977 67.6219 80.9094 67.1311 80.9094ZM63.807 75.434C63.9946 75.8529 64.42 76.1455 64.9148 76.1455C65.4104 76.1455 65.8357 75.8529 66.023 75.434C66.2106 75.8529 66.6359 76.1455 67.1311 76.1455C67.6263 76.1455 68.0517 75.8529 68.2393 75.434C68.4265 75.8529 68.8519 76.1455 69.3471 76.1455C69.8422 76.1455 70.2673 75.8529 70.4552 75.434C70.5985 75.7533 70.8799 75.9983 71.2249 76.0972H69.8786C69.7721 76.0972 69.6714 76.1245 69.5819 76.171C69.5059 76.1561 69.4278 76.1455 69.3471 76.1455C68.8519 76.1455 68.4265 76.4382 68.2393 76.857C68.0517 76.4382 67.6263 76.1455 67.1311 76.1455C66.6359 76.1455 66.2106 76.4382 66.023 76.857C65.8357 76.4382 65.4104 76.1455 64.9148 76.1455C64.42 76.1455 63.9946 76.4382 63.807 76.857C63.7438 76.716 63.6518 76.5909 63.5413 76.4848C63.4478 76.2692 63.245 76.1212 63.0043 76.1045C63.3646 76.0121 63.6594 75.7631 63.807 75.434ZM72.6712 75.434C72.814 75.7533 73.0958 75.9983 73.4408 76.0972H71.9015C72.2465 75.9983 72.5279 75.7533 72.6712 75.434ZM78.987 83.0526L78.902 83.4729C78.7162 83.3594 78.4991 83.2915 78.2646 83.2915C77.7571 83.2915 77.3234 83.5987 77.143 84.0339C76.9631 83.5987 76.529 83.2915 76.0214 83.2915C75.5146 83.2915 75.0809 83.5987 74.9002 84.0339C74.7202 83.5987 74.2861 83.2915 73.7793 83.2915C73.4052 83.2915 73.0718 83.4583 72.85 83.7205L72.9947 83.0053C73.206 83.1828 73.479 83.2915 73.7793 83.2915C74.2861 83.2915 74.7202 82.9842 74.9002 82.5491C75.0809 82.9842 75.5146 83.2915 76.0214 83.2915C76.529 83.2915 76.9631 82.9842 77.143 82.5491C77.3234 82.9842 77.7571 83.2915 78.2646 83.2915C78.5362 83.2915 78.7849 83.2013 78.987 83.0526ZM74.9002 80.167C75.0809 80.6022 75.5146 80.9094 76.0214 80.9094C76.529 80.9094 76.9631 80.6022 77.143 80.167C77.3234 80.6022 77.7571 80.9094 78.2646 80.9094C78.7718 80.9094 79.2056 80.6022 79.3859 80.167C79.4219 80.2535 79.4702 80.3335 79.5244 80.4084L79.3044 81.4918C79.0932 81.1431 78.7071 80.9094 78.2646 80.9094C77.7571 80.9094 77.3234 81.2166 77.143 81.6518C76.9631 81.2166 76.529 80.9094 76.0214 80.9094C75.5146 80.9094 75.0809 81.2166 74.9002 81.6518C74.7202 81.2166 74.2861 80.9094 73.7793 80.9094C73.6492 80.9094 73.5245 80.9308 73.4074 80.9679L73.4296 80.8585C73.5405 80.8912 73.6572 80.9094 73.7793 80.9094C74.2861 80.9094 74.7202 80.6022 74.9002 80.167ZM79.9363 78.3844L79.8705 78.7087C79.6546 78.841 79.4826 79.0355 79.3859 79.27C79.2056 78.8349 78.7718 78.5276 78.2646 78.5276C77.7571 78.5273 77.3234 78.8349 77.143 79.27C76.9631 78.8349 76.529 78.5276 76.0214 78.5276C75.5146 78.5273 75.0809 78.8349 74.9002 79.27C74.7348 78.8701 74.3541 78.5811 73.9 78.5367L73.9037 78.5182C74.3563 78.4724 74.7351 78.1841 74.9002 77.7852C75.0809 78.2204 75.5146 78.5276 76.0214 78.5276C76.529 78.5273 76.9631 78.2204 77.143 77.7852C77.3234 78.2204 77.7571 78.5276 78.2646 78.5276C78.7718 78.5273 79.2056 78.2204 79.3859 77.7852C79.4928 78.0426 79.6895 78.2535 79.9363 78.3844ZM74.9002 75.4031C75.0809 75.8383 75.5146 76.1455 76.0214 76.1455C76.529 76.1455 76.9631 75.8383 77.143 75.4031C77.3234 75.8383 77.7571 76.1455 78.2646 76.1455C78.7718 76.1455 79.2056 75.8383 79.3859 75.4031C79.5659 75.8383 79.9999 76.1455 80.5071 76.1455C81.0147 76.1455 81.4484 75.8383 81.6287 75.4031C81.7673 75.738 82.0566 75.9958 82.4137 76.0972H80.9256C80.8303 76.0972 80.7405 76.1197 80.6591 76.1572C80.6093 76.151 80.5588 76.1455 80.5071 76.1455C79.9999 76.1455 79.5659 76.4528 79.3859 76.888C79.2056 76.4528 78.7718 76.1455 78.2646 76.1455C77.7571 76.1455 77.3234 76.4528 77.143 76.888C76.9631 76.4528 76.529 76.1455 76.0214 76.1455C75.5146 76.1455 75.0809 76.4528 74.9002 76.888C74.7315 76.4797 74.3385 76.1877 73.872 76.1525C73.8615 76.1477 73.8495 76.1452 73.8382 76.1412C74.3196 76.1179 74.7275 75.8212 74.9002 75.4031ZM83.8712 75.4031C84.0101 75.738 84.2995 75.9958 84.6569 76.0972H83.0859C83.4429 75.9958 83.7327 75.738 83.8712 75.4031ZM86.1141 75.4031C86.2526 75.738 86.542 75.9958 86.8994 76.0972H85.3288C85.6858 75.9958 85.9755 75.738 86.1141 75.4031ZM88.3035 75.5159C88.4551 75.7947 88.7165 76.0067 89.0306 76.0972H87.5763C87.8901 76.0067 88.1515 75.7947 88.3035 75.5159ZM90.7761 85.4896L90.6939 85.895C90.5692 85.9757 90.4569 86.0728 90.3711 86.1927C90.1529 85.8793 89.7868 85.6736 89.3713 85.6736C89.2266 85.6736 89.0884 85.7008 88.9597 85.747L88.9881 85.6099C89.1088 85.6496 89.2371 85.6736 89.3713 85.6736C89.7908 85.6736 90.1602 85.4634 90.3776 85.1449C90.4812 85.2878 90.6183 85.4056 90.7761 85.4896ZM90.3718 83.8114C90.1533 83.4976 89.7868 83.2915 89.3713 83.2915C89.039 83.2915 88.739 83.4245 88.5209 83.6376C88.5314 83.6081 88.5412 83.578 88.5478 83.5463L88.6485 83.0526C88.8503 83.2013 89.0997 83.2915 89.3713 83.2915C89.7904 83.2915 90.1598 83.082 90.3769 82.7636C90.5714 83.0319 90.8811 83.2075 91.2338 83.2373L91.2149 83.3333C90.867 83.3682 90.5623 83.5445 90.3718 83.8114ZM90.3765 80.3826C90.5896 80.6763 90.9382 80.8687 91.3334 80.8687C91.473 80.8687 91.6061 80.8425 91.7301 80.7985L91.6905 80.9948C91.5774 80.9592 91.4581 80.9381 91.3334 80.9381C90.9353 80.9381 90.5849 81.133 90.3722 81.43C90.154 81.1159 89.7872 80.9094 89.3713 80.9094C89.2695 80.9094 89.1709 80.9239 89.0764 80.9472L89.0804 80.9279C89.0851 80.9108 89.0844 80.8919 89.0866 80.8737C89.1786 80.8956 89.2731 80.9094 89.3713 80.9094C89.7901 80.9094 90.1591 80.7003 90.3765 80.3826ZM90.3024 78.0961C90.3285 78.0655 90.3533 78.0343 90.3762 78.0012C90.5892 78.2953 90.9382 78.488 91.3334 78.488C91.7377 78.488 92.0918 78.2848 92.3034 77.9787L92.1238 78.8614C91.9151 78.6734 91.6385 78.5575 91.3334 78.5575C90.9357 78.5575 90.5852 78.752 90.3725 79.049C90.3111 78.9606 90.2373 78.8821 90.1548 78.813L90.3024 78.0961ZM24.5818 73.4951C24.5447 74.0267 24.3076 74.4804 23.8728 74.8542C23.4376 75.2275 22.9323 75.4148 22.3567 75.4148C21.7823 75.4148 21.2991 75.2275 20.913 74.8542C20.5291 74.4804 20.3535 74.026 20.3906 73.4951C20.4276 72.9651 20.6683 72.5095 21.1035 72.1321C21.5423 71.754 22.0513 71.5661 22.6258 71.5661C23.1402 71.5661 23.5743 71.7249 23.9339 72.0267C23.9386 72.0311 23.9437 72.0347 23.9484 72.0387C23.9859 72.071 24.0273 72.0965 24.063 72.1321C24.4454 72.5095 24.6188 72.9651 24.5818 73.4951ZM104.068 77.3071C104.068 76.7862 103.637 76.3637 103.106 76.3637C102.575 76.3637 102.144 76.7862 102.144 77.3071C102.144 77.3144 102.146 77.321 102.147 77.3279C102.144 77.326 102.142 77.3242 102.14 77.3224C102.14 77.3184 102.141 77.3151 102.141 77.3115C102.141 76.7709 101.694 76.3324 101.144 76.3324C100.959 76.3324 100.787 76.3841 100.639 76.4702C99.9325 76.2248 99.1127 76.0972 98.1794 76.0972H93.2098C92.9818 76.0972 92.7772 76.2161 92.6641 76.3997C92.5325 76.4866 92.4201 76.5986 92.3351 76.7298C92.1282 76.3986 91.7577 76.1768 91.3334 76.1768C91.0179 76.1768 90.735 76.3026 90.5241 76.5022C90.4998 76.4404 90.4696 76.3811 90.4263 76.3288C90.3049 76.1823 90.1231 76.0972 89.9308 76.0972H89.7079C89.9831 76.0187 90.2191 75.8481 90.3754 75.6202C90.5885 75.9147 90.9379 76.1074 91.3334 76.1074C91.7592 76.1074 92.1307 75.8841 92.3369 75.5508C92.5398 75.8616 92.892 76.0692 93.2956 76.0692C93.7315 76.0692 94.106 75.8256 94.2972 75.4719C94.4867 75.8038 94.8429 76.0307 95.2574 76.0307C95.7035 76.0307 96.0852 75.7696 96.2594 75.3955C96.4321 75.7474 96.7957 75.9925 97.2199 75.9925C97.6806 75.9925 98.0703 75.7038 98.2197 75.3021C98.3688 75.6827 98.7418 75.9543 99.1821 75.9543C99.6668 75.9543 100.071 75.6242 100.182 75.1817C100.293 75.6031 100.68 75.9161 101.144 75.9161C101.694 75.9161 102.141 75.4777 102.141 74.937C102.141 74.3968 101.694 73.9583 101.144 73.9583C100.679 73.9583 100.291 74.2724 100.181 74.6956C100.069 74.2543 99.6657 73.926 99.1821 73.926C98.7407 73.926 98.367 74.1986 98.2187 74.5811C98.0681 74.1805 97.6795 73.8932 97.2199 73.8932C96.7942 73.8932 96.4299 74.1394 96.2579 74.4931C96.0831 74.1208 95.702 73.8609 95.2574 73.8609C94.8422 73.8609 94.4841 74.0892 94.2961 74.423C94.1038 74.0707 93.7301 73.8285 93.2956 73.8285C92.8909 73.8285 92.5372 74.0372 92.3354 74.3499C92.1286 74.0183 91.7577 73.7962 91.3334 73.7962C90.9364 73.7962 90.5863 73.99 90.3736 74.2863C90.1558 73.9711 89.7879 73.7635 89.3713 73.7635C88.9088 73.7635 88.5074 74.0187 88.3035 74.3935C88.0991 74.0187 87.6978 73.7635 87.2353 73.7635C86.7278 73.7635 86.2944 74.0707 86.1141 74.5062C85.9341 74.0707 85.5 73.7635 84.9925 73.7635C84.4853 73.7635 84.0512 74.0707 83.8712 74.5062C83.6913 74.0707 83.2575 73.7635 82.75 73.7635C82.2424 73.7635 81.8087 74.0707 81.6287 74.5062C81.4484 74.0707 81.0147 73.7635 80.5071 73.7635C79.9999 73.7635 79.5659 74.0707 79.3859 74.5062C79.2056 74.0707 78.7718 73.7635 78.2646 73.7635C77.7571 73.7635 77.3234 74.0707 77.143 74.5062C76.9631 74.0707 76.529 73.7635 76.0214 73.7635C75.5146 73.7635 75.0809 74.0707 74.9002 74.5062C74.7202 74.0707 74.2861 73.7635 73.7793 73.7635C73.2838 73.7635 72.8588 74.0565 72.6712 74.4753C72.4836 74.0565 72.0582 73.7635 71.5634 73.7635C71.0678 73.7635 70.6428 74.0565 70.4552 74.4753C70.2673 74.0565 69.8422 73.7635 69.3471 73.7635C68.8519 73.7635 68.4265 74.0565 68.2393 74.4753C68.0517 74.0565 67.6263 73.7635 67.1311 73.7635C66.6359 73.7635 66.2106 74.0565 66.023 74.4753C65.8357 74.0565 65.4104 73.7635 64.9148 73.7635C64.42 73.7635 63.9946 74.0565 63.807 74.4753C63.6194 74.0565 63.1944 73.7635 62.6992 73.7635C62.2037 73.7635 61.7787 74.0565 61.5911 74.4753C61.4035 74.0565 60.9785 73.7635 60.4829 73.7635C59.9878 73.7635 59.5627 74.0565 59.3751 74.4753C59.1875 74.0565 58.7622 73.7635 58.2674 73.7635C57.7718 73.7635 57.3464 74.0565 57.1592 74.4753C56.9716 74.0565 56.5462 73.7635 56.0507 73.7635C55.5559 73.7635 55.1305 74.0565 54.9429 74.4753C54.7557 74.0565 54.3303 73.7635 53.8351 73.7635C53.3399 73.7635 52.9146 74.0565 52.727 74.4753C52.5394 74.0565 52.1143 73.7635 51.6192 73.7635C51.1236 73.7635 50.699 74.0565 50.511 74.4753C50.3234 74.0565 49.898 73.7635 49.4032 73.7635C48.9077 73.7635 48.4823 74.0565 48.2951 74.4753C48.1075 74.0565 47.6821 73.7635 47.1869 73.7635C46.6917 73.7635 46.2667 74.0565 46.0788 74.4753C45.8915 74.0565 45.4662 73.7635 44.971 73.7635C44.4758 73.7635 44.0504 74.0565 43.8628 74.4753C43.6752 74.0565 43.2502 73.7635 42.755 73.7635C42.2599 73.7635 41.8345 74.0565 41.6469 74.4753C41.4593 74.0565 41.0343 73.7635 40.5391 73.7635C40.0435 73.7635 39.6185 74.0565 39.4309 74.4753C39.2433 74.0565 38.8183 73.7635 38.3228 73.7635C37.8276 73.7635 37.4026 74.0565 37.215 74.4753C37.0274 74.0565 36.602 73.7635 36.1068 73.7635C35.6117 73.7635 35.1867 74.0565 34.9991 74.4753C34.8115 74.0565 34.3861 73.7635 33.8909 73.7635C33.3957 73.7635 32.9703 74.0565 32.7831 74.4753C32.5955 74.0565 32.1701 73.7635 31.675 73.7635C31.1798 73.7635 30.7544 74.0565 30.5668 74.4753C30.3792 74.0565 29.9542 73.7635 29.459 73.7635C28.9635 73.7635 28.5385 74.0565 28.3509 74.4753C28.1633 74.0565 27.7383 73.7635 27.2427 73.7635C26.7475 73.7635 26.3225 74.0565 26.1349 74.4753C25.9684 74.1038 25.615 73.8329 25.1918 73.7758C25.1929 73.7678 25.1933 73.7595 25.1947 73.7515C25.6165 73.6937 25.9688 73.4228 26.1349 73.052C26.3225 73.4708 26.7475 73.7635 27.2427 73.7635C27.7383 73.7635 28.1633 73.4708 28.3509 73.052C28.5385 73.4708 28.9635 73.7635 29.459 73.7635C29.9542 73.7635 30.3792 73.4708 30.5668 73.052C30.7544 73.4708 31.1798 73.7635 31.675 73.7635C32.1701 73.7635 32.5955 73.4708 32.7831 73.052C32.9703 73.4708 33.3957 73.7635 33.8909 73.7635C34.3861 73.7635 34.8115 73.4708 34.9991 73.052C35.1867 73.4708 35.6117 73.7635 36.1068 73.7635C36.602 73.7635 37.0274 73.4708 37.215 73.052C37.4026 73.4708 37.8276 73.7635 38.3228 73.7635C38.8183 73.7635 39.2433 73.4708 39.4309 73.052C39.6185 73.4708 40.0435 73.7635 40.5391 73.7635C41.0343 73.7635 41.4593 73.4708 41.6469 73.052C41.8345 73.4708 42.2599 73.7635 42.755 73.7635C43.2502 73.7635 43.6752 73.4708 43.8628 73.052C44.0504 73.4708 44.4758 73.7635 44.971 73.7635C45.4662 73.7635 45.8915 73.4708 46.0788 73.052C46.2667 73.4708 46.6917 73.7635 47.1869 73.7635C47.6821 73.7635 48.1075 73.4708 48.2951 73.052C48.4827 73.4708 48.9077 73.7635 49.4032 73.7635C49.8984 73.7635 50.3234 73.4708 50.511 73.052C50.699 73.4708 51.1236 73.7635 51.6192 73.7635C52.1143 73.7635 52.5394 73.4708 52.727 73.052C52.9146 73.4708 53.3396 73.7635 53.8351 73.7635C54.3303 73.7635 54.7553 73.4708 54.9429 73.052C55.1305 73.4708 55.5559 73.7635 56.0507 73.7635C56.5462 73.7635 56.9716 73.4708 57.1592 73.052C57.3464 73.4708 57.7718 73.7635 58.2674 73.7635C58.7622 73.7635 59.1875 73.4708 59.3751 73.052C59.5627 73.4708 59.9878 73.7635 60.4829 73.7635C60.9785 73.7635 61.4035 73.4708 61.5911 73.052C61.7787 73.4708 62.2037 73.7635 62.6992 73.7635C63.1944 73.7635 63.6194 73.4708 63.807 73.052C63.9946 73.4708 64.42 73.7635 64.9148 73.7635C65.4104 73.7635 65.8357 73.4708 66.023 73.052C66.2106 73.4708 66.6359 73.7635 67.1311 73.7635C67.6263 73.7635 68.0517 73.4708 68.2393 73.052C68.4265 73.4708 68.8519 73.7635 69.3471 73.7635C69.8422 73.7635 70.2673 73.4708 70.4552 73.052C70.6428 73.4708 71.0678 73.7635 71.5634 73.7635C72.0582 73.7635 72.4836 73.4708 72.6712 73.052C72.8588 73.4708 73.2838 73.7635 73.7793 73.7635C74.2861 73.7635 74.7202 73.4566 74.9002 73.0214C75.0809 73.4566 75.5146 73.7635 76.0214 73.7635C76.529 73.7635 76.9631 73.4566 77.143 73.0214C77.3234 73.4566 77.7571 73.7635 78.2646 73.7635C78.7718 73.7635 79.2056 73.4566 79.3859 73.0214C79.5659 73.4566 79.9999 73.7635 80.5071 73.7635C81.0147 73.7635 81.4484 73.4566 81.6287 73.0214C81.8087 73.4566 82.2424 73.7635 82.75 73.7635C83.2575 73.7635 83.6913 73.4566 83.8712 73.0214C84.0512 73.4566 84.4853 73.7635 84.9925 73.7635C85.5 73.7635 85.9341 73.4566 86.1141 73.0214C86.2944 73.4566 86.7278 73.7635 87.2353 73.7635C87.6981 73.7635 88.0991 73.5086 88.3035 73.1338C88.5074 73.5086 88.9088 73.7635 89.3713 73.7635C89.789 73.7635 90.1577 73.5555 90.3751 73.2388C90.5881 73.5337 90.9375 73.7267 91.3334 73.7267C91.7588 73.7267 92.1304 73.5035 92.3365 73.1708C92.539 73.4821 92.892 73.6897 93.2956 73.6897C93.7311 73.6897 94.1053 73.4464 94.2969 73.093C94.4859 73.4253 94.8426 73.6526 95.2574 73.6526C95.7031 73.6526 96.0849 73.3919 96.259 73.0181C96.4317 73.3708 96.7953 73.6158 97.2199 73.6158C97.6806 73.6158 98.0696 73.3275 98.2194 72.9258C98.3685 73.3068 98.7415 73.5788 99.1821 73.5788C99.6668 73.5788 100.07 73.2494 100.182 72.8069C100.292 73.2286 100.68 73.5417 101.144 73.5417C101.694 73.5417 102.141 73.1036 102.141 72.563C102.141 72.0227 101.694 71.5842 101.144 71.5842C100.679 71.5842 100.291 71.8984 100.181 72.3208C100.07 71.8791 99.666 71.5504 99.1821 71.5504C98.7411 71.5504 98.3674 71.8231 98.219 72.2052C98.0689 71.8042 97.6799 71.517 97.2199 71.517C96.7946 71.517 96.4303 71.7627 96.2583 72.1158C96.0838 71.7431 95.7024 71.4832 95.2574 71.4832C94.8426 71.4832 94.4848 71.7111 94.2965 72.0441C94.1042 71.6919 93.7304 71.4493 93.2956 71.4493C92.8913 71.4493 92.5379 71.6577 92.3362 71.97C92.1289 71.638 91.7581 71.4155 91.3334 71.4155C90.9368 71.4155 90.587 71.6093 90.374 71.9049C90.1562 71.5893 89.7883 71.3817 89.3713 71.3817C88.9088 71.3817 88.5074 71.6369 88.3035 72.0114C88.0991 71.6369 87.6978 71.3817 87.2353 71.3817C86.7278 71.3817 86.2944 71.6889 86.1141 72.1241C85.9341 71.6889 85.5 71.3817 84.9925 71.3817C84.4853 71.3817 84.0512 71.6889 83.8712 72.1241C83.6913 71.6889 83.2575 71.3817 82.75 71.3817C82.2424 71.3817 81.8087 71.6889 81.6287 72.1241C81.4484 71.6889 81.0147 71.3817 80.5071 71.3817C79.9999 71.3817 79.5659 71.6889 79.3859 72.1241C79.2056 71.6889 78.7718 71.3817 78.2646 71.3817C77.7571 71.3817 77.3234 71.6889 77.143 72.1241C76.9631 71.6889 76.529 71.3817 76.0214 71.3817C75.5146 71.3817 75.0809 71.6889 74.9002 72.1241C74.7202 71.6889 74.2861 71.3817 73.7793 71.3817C73.2838 71.3817 72.8588 71.6744 72.6712 72.0932C72.4836 71.6744 72.0582 71.3817 71.5634 71.3817C71.0678 71.3817 70.6428 71.6744 70.4552 72.0932C70.2673 71.6744 69.8422 71.3817 69.3471 71.3817C68.8519 71.3817 68.4265 71.6744 68.2393 72.0932C68.0517 71.6744 67.6263 71.3817 67.1311 71.3817C66.6359 71.3817 66.2106 71.6744 66.023 72.0932C65.8357 71.6744 65.4104 71.3817 64.9148 71.3817C64.42 71.3817 63.9946 71.6744 63.807 72.0932C63.6194 71.6744 63.1944 71.3817 62.6992 71.3817C62.2037 71.3817 61.7787 71.6744 61.5911 72.0932C61.4035 71.6744 60.9785 71.3817 60.4829 71.3817C59.9878 71.3817 59.5627 71.6744 59.3751 72.0932C59.1875 71.6744 58.7622 71.3817 58.2674 71.3817C57.7718 71.3817 57.3464 71.6744 57.1592 72.0932C56.9716 71.6744 56.5462 71.3817 56.0507 71.3817C55.5559 71.3817 55.1305 71.6744 54.9429 72.0932C54.7557 71.6744 54.3303 71.3817 53.8351 71.3817C53.3399 71.3817 52.9146 71.6744 52.727 72.0932C52.5394 71.6744 52.1143 71.3817 51.6192 71.3817C51.1236 71.3817 50.699 71.6744 50.511 72.0932C50.3234 71.6744 49.898 71.3817 49.4032 71.3817C48.9077 71.3817 48.4823 71.6744 48.2951 72.0932C48.1075 71.6744 47.6821 71.3817 47.1869 71.3817C46.6917 71.3817 46.2667 71.6744 46.0788 72.0932C45.8915 71.6744 45.4662 71.3817 44.971 71.3817C44.4758 71.3817 44.0504 71.6744 43.8628 72.0932C43.6752 71.6744 43.2502 71.3817 42.755 71.3817C42.2599 71.3817 41.8345 71.6744 41.6469 72.0932C41.4593 71.6744 41.0343 71.3817 40.5391 71.3817C40.0435 71.3817 39.6185 71.6744 39.4309 72.0932C39.2433 71.6744 38.8183 71.3817 38.3228 71.3817C37.8276 71.3817 37.4026 71.6744 37.215 72.0932C37.0274 71.6744 36.602 71.3817 36.1068 71.3817C35.6117 71.3817 35.1867 71.6744 34.9991 72.0932C34.8115 71.6744 34.3861 71.3817 33.8909 71.3817C33.3957 71.3817 32.9703 71.6744 32.7831 72.0932C32.5955 71.6744 32.1701 71.3817 31.675 71.3817C31.1798 71.3817 30.7544 71.6744 30.5668 72.0932C30.3792 71.6744 29.9542 71.3817 29.459 71.3817C28.9635 71.3817 28.5385 71.6744 28.3509 72.0932C28.1633 71.6744 27.7383 71.3817 27.2427 71.3817C26.7475 71.3817 26.3225 71.6744 26.1349 72.0932C25.9473 71.6744 25.5223 71.3817 25.0268 71.3817C24.7897 71.3817 24.5694 71.4504 24.3829 71.5664C24.1455 71.3599 23.8812 71.2039 23.591 71.0985C23.7307 70.9825 23.8441 70.8371 23.919 70.6702C24.1066 71.0891 24.5316 71.3817 25.0268 71.3817C25.5223 71.3817 25.9473 71.0891 26.1349 70.6702C26.3225 71.0891 26.7475 71.3817 27.2427 71.3817C27.7383 71.3817 28.1633 71.0891 28.3509 70.6702C28.5385 71.0891 28.9635 71.3817 29.459 71.3817C29.9542 71.3817 30.3792 71.0891 30.5668 70.6702C30.7544 71.0891 31.1798 71.3817 31.675 71.3817C32.1701 71.3817 32.5955 71.0891 32.7831 70.6702C32.9703 71.0891 33.3957 71.3817 33.8909 71.3817C34.3861 71.3817 34.8115 71.0891 34.9991 70.6702C35.1867 71.0891 35.6117 71.3817 36.1068 71.3817C36.602 71.3817 37.0274 71.0891 37.215 70.6702C37.4026 71.0891 37.8276 71.3817 38.3228 71.3817C38.8183 71.3817 39.2433 71.0891 39.4309 70.6702C39.6185 71.0891 40.0435 71.3817 40.5391 71.3817C41.0343 71.3817 41.4593 71.0891 41.6469 70.6702C41.8345 71.0891 42.2599 71.3817 42.755 71.3817C43.2502 71.3817 43.6752 71.0891 43.8628 70.6702C44.0504 71.0891 44.4758 71.3817 44.971 71.3817C45.4662 71.3817 45.8915 71.0891 46.0788 70.6702C46.2667 71.0891 46.6917 71.3817 47.1869 71.3817C47.6821 71.3817 48.1075 71.0891 48.2951 70.6702C48.4827 71.0891 48.9077 71.3817 49.4032 71.3817C49.8984 71.3817 50.3234 71.0891 50.511 70.6702C50.699 71.0891 51.1236 71.3817 51.6192 71.3817C52.1143 71.3817 52.5394 71.0891 52.727 70.6702C52.9146 71.0891 53.3396 71.3817 53.8351 71.3817C54.3303 71.3817 54.7553 71.0891 54.9429 70.6702C55.1305 71.0891 55.5559 71.3817 56.0507 71.3817C56.5462 71.3817 56.9716 71.0891 57.1592 70.6702C57.3464 71.0891 57.7718 71.3817 58.2674 71.3817C58.7622 71.3817 59.1875 71.0891 59.3751 70.6702C59.5627 71.0891 59.9878 71.3817 60.4829 71.3817C60.9785 71.3817 61.4035 71.0891 61.5911 70.6702C61.7787 71.0891 62.2037 71.3817 62.6992 71.3817C63.1944 71.3817 63.6194 71.0891 63.807 70.6702C63.9946 71.0891 64.42 71.3817 64.9148 71.3817C65.4104 71.3817 65.8357 71.0891 66.023 70.6702C66.2106 71.0891 66.6359 71.3817 67.1311 71.3817C67.6263 71.3817 68.0517 71.0891 68.2393 70.6702C68.4265 71.0891 68.8519 71.3817 69.3471 71.3817C69.8422 71.3817 70.2673 71.0891 70.4552 70.6702C70.6428 71.0891 71.0678 71.3817 71.5634 71.3817C72.0582 71.3817 72.4836 71.0891 72.6712 70.6702C72.8588 71.0891 73.2838 71.3817 73.7793 71.3817C74.2861 71.3817 74.7202 71.0745 74.9002 70.6393C75.0809 71.0745 75.5146 71.3817 76.0214 71.3817C76.529 71.3817 76.9631 71.0745 77.143 70.6393C77.3234 71.0745 77.7571 71.3817 78.2646 71.3817C78.7718 71.3817 79.2056 71.0745 79.3859 70.6393C79.5659 71.0745 79.9999 71.3817 80.5071 71.3817C81.0147 71.3817 81.4484 71.0745 81.6287 70.6393C81.8087 71.0745 82.2424 71.3817 82.75 71.3817C83.2575 71.3817 83.6913 71.0745 83.8712 70.6393C84.0512 71.0745 84.4853 71.3817 84.9925 71.3817C85.5 71.3817 85.9341 71.0745 86.1141 70.6393C86.2944 71.0745 86.7278 71.3817 87.2353 71.3817C87.6981 71.3817 88.0991 71.1265 88.3035 70.752C88.5074 71.1265 88.9088 71.3817 89.3713 71.3817C89.7886 71.3817 90.1569 71.1738 90.3747 70.8575C90.5874 71.1527 90.9371 71.3461 91.3334 71.3461C91.7584 71.3461 92.13 71.1232 92.3362 70.7906C92.5387 71.1025 92.8917 71.3105 93.2956 71.3105C93.7308 71.3105 94.1049 71.0672 94.2965 70.7146C94.4856 71.0472 94.8426 71.2748 95.2574 71.2748C95.7028 71.2748 96.0845 71.0142 96.2587 70.6408C96.4314 70.9934 96.7949 71.2392 97.2199 71.2392C97.6802 71.2392 98.0692 70.9509 98.2194 70.5499C98.3681 70.9313 98.7415 71.2032 99.1821 71.2032C99.6664 71.2032 100.07 70.8742 100.181 70.4321C100.292 70.8542 100.679 71.1676 101.144 71.1676C101.694 71.1676 102.141 70.7295 102.141 70.1889C102.141 69.6486 101.694 69.2098 101.144 69.2098C100.679 69.2098 100.292 69.5239 100.181 69.946C100.07 69.5039 99.6664 69.1749 99.1821 69.1749C98.7411 69.1749 98.3677 69.4472 98.219 69.8289C98.0692 69.4275 97.6802 69.14 97.2199 69.14C96.7949 69.14 96.431 69.3857 96.2583 69.7384C96.0842 69.3654 95.7028 69.1047 95.2574 69.1047C94.8429 69.1047 94.4852 69.3327 94.2965 69.6653C94.1045 69.3127 93.7308 69.0698 93.2956 69.0698C92.8913 69.0698 92.5383 69.2781 92.3362 69.5897C92.1296 69.2574 91.7584 69.0349 91.3334 69.0349C90.9371 69.0349 90.587 69.2283 90.3747 69.5239C90.1566 69.2076 89.7886 69 89.3713 69C88.9088 69 88.5074 69.2549 88.3035 69.6297C88.0991 69.2549 87.6978 69 87.2353 69C86.7278 69 86.2944 69.3068 86.1141 69.7424C85.9341 69.3068 85.5 69 84.9925 69C84.4853 69 84.0512 69.3068 83.8712 69.7424C83.6913 69.3068 83.2575 69 82.75 69C82.2424 69 81.8087 69.3068 81.6287 69.7424C81.4484 69.3068 81.0147 69 80.5071 69C79.9999 69 79.5659 69.3068 79.3859 69.7424C79.2056 69.3068 78.7718 69 78.2646 69C77.7571 69 77.3234 69.3068 77.143 69.7424C76.9631 69.3068 76.529 69 76.0214 69C75.5146 69 75.0809 69.3068 74.9002 69.7424C74.7202 69.3068 74.2861 69 73.7793 69C73.2838 69 72.8588 69.2927 72.6712 69.7115C72.4836 69.2927 72.0582 69 71.5634 69C71.0678 69 70.6428 69.2927 70.4552 69.7115C70.2673 69.2927 69.8422 69 69.3471 69C68.8519 69 68.4265 69.2927 68.2393 69.7115C68.0517 69.2927 67.6263 69 67.1311 69C66.6359 69 66.2106 69.2927 66.023 69.7115C65.8357 69.2927 65.4104 69 64.9148 69C64.42 69 63.9946 69.2927 63.807 69.7115C63.6194 69.2927 63.1944 69 62.6992 69C62.2037 69 61.7787 69.2927 61.5911 69.7115C61.4035 69.2927 60.9785 69 60.4829 69C59.9878 69 59.5627 69.2927 59.3751 69.7115C59.1875 69.2927 58.7622 69 58.2674 69C57.7718 69 57.3464 69.2927 57.1592 69.7115C56.9716 69.2927 56.5462 69 56.0507 69C55.5559 69 55.1305 69.2927 54.9429 69.7115C54.7557 69.2927 54.3303 69 53.8351 69C53.3399 69 52.9146 69.2927 52.727 69.7115C52.5394 69.2927 52.1143 69 51.6192 69C51.1236 69 50.699 69.2927 50.511 69.7115C50.3234 69.2927 49.898 69 49.4032 69C48.9077 69 48.4823 69.2927 48.2951 69.7115C48.1075 69.2927 47.6821 69 47.1869 69C46.6917 69 46.2667 69.2927 46.0788 69.7115C45.8915 69.2927 45.4662 69 44.971 69C44.4758 69 44.0504 69.2927 43.8628 69.7115C43.6752 69.2927 43.2502 69 42.755 69C42.2599 69 41.8345 69.2927 41.6469 69.7115C41.4593 69.2927 41.0343 69 40.5391 69C40.0435 69 39.6185 69.2927 39.4309 69.7115C39.2433 69.2927 38.8183 69 38.3228 69C37.8276 69 37.4026 69.2927 37.215 69.7115C37.0274 69.2927 36.602 69 36.1068 69C35.6117 69 35.1867 69.2927 34.9991 69.7115C34.8115 69.2927 34.3861 69 33.8909 69C33.3957 69 32.9703 69.2927 32.7831 69.7115C32.5955 69.2927 32.1701 69 31.675 69C31.1798 69 30.7544 69.2927 30.5668 69.7115C30.3792 69.2927 29.9542 69 29.459 69C28.9635 69 28.5385 69.2927 28.3509 69.7115C28.1633 69.2927 27.7383 69 27.2427 69C26.7475 69 26.3225 69.2927 26.1349 69.7115C25.9473 69.2927 25.5223 69 25.0268 69C24.5316 69 24.1066 69.2927 23.919 69.7115C23.7314 69.2927 23.306 69 22.8108 69C22.3156 69 21.8906 69.2927 21.703 69.7115C21.5154 69.2927 21.0901 69 20.5949 69C20.0997 69 19.6743 69.2927 19.4867 69.7115C19.2991 69.2927 18.8741 69 18.3789 69C17.8838 69 17.4584 69.2927 17.2708 69.7115C17.0832 69.2927 16.6582 69 16.1626 69C15.6678 69 15.2424 69.2927 15.0548 69.7115C14.8672 69.2927 14.4422 69 13.9471 69C13.4515 69 13.0265 69.2927 12.8389 69.7115C12.6513 69.2927 12.2259 69 11.7308 69C11.2356 69 10.8102 69.2927 10.6226 69.7115C10.435 69.2927 10.01 69 9.51481 69C9.33048 69 9.15597 69.0407 9 69.1131V71.2683C9.15597 71.341 9.33048 71.3817 9.51481 71.3817C10.01 71.3817 10.435 71.0891 10.6226 70.6702C10.8102 71.0891 11.2356 71.3817 11.7308 71.3817C12.2259 71.3817 12.6513 71.0891 12.8389 70.6702C13.0265 71.0891 13.4515 71.3817 13.9471 71.3817C14.4422 71.3817 14.8672 71.0891 15.0548 70.6702C15.2424 71.0891 15.6678 71.3817 16.1626 71.3817C16.6582 71.3817 17.0832 71.0891 17.2708 70.6702C17.4584 71.0891 17.8838 71.3817 18.3789 71.3817C18.8741 71.3817 19.2991 71.0891 19.4867 70.6702C19.6743 71.0891 20.0997 71.3817 20.5949 71.3817C21.0901 71.3817 21.5154 71.0891 21.703 70.6702C21.7605 70.7986 21.8426 70.9135 21.9404 71.0134C21.5932 71.0934 21.2682 71.2359 20.9675 71.4406C20.8501 71.4032 20.725 71.3817 20.5949 71.3817C20.0997 71.3817 19.6743 71.6744 19.4867 72.0932C19.2991 71.6744 18.8741 71.3817 18.3789 71.3817C17.8838 71.3817 17.4584 71.6744 17.2708 72.0932C17.0832 71.6744 16.6582 71.3817 16.1626 71.3817C15.6678 71.3817 15.2424 71.6744 15.0548 72.0932C14.8672 71.6744 14.4422 71.3817 13.9471 71.3817C13.4515 71.3817 13.0265 71.6744 12.8389 72.0932C12.6513 71.6744 12.2259 71.3817 11.7308 71.3817C11.2356 71.3817 10.8102 71.6744 10.6226 72.0932C10.435 71.6744 10.01 71.3817 9.51481 71.3817C9.33048 71.3817 9.15597 71.4224 9 71.4952V73.6504C9.15597 73.7227 9.33048 73.7635 9.51481 73.7635C10.01 73.7635 10.435 73.4708 10.6226 73.052C10.8102 73.4708 11.2356 73.7635 11.7308 73.7635C12.2259 73.7635 12.6513 73.4708 12.8389 73.052C13.0265 73.4708 13.4515 73.7635 13.9471 73.7635C14.4422 73.7635 14.8672 73.4708 15.0548 73.052C15.2424 73.4708 15.6678 73.7635 16.1626 73.7635C16.6582 73.7635 17.0832 73.4708 17.2708 73.052C17.4584 73.4708 17.8838 73.7635 18.3789 73.7635C18.8741 73.7635 19.2991 73.4708 19.4867 73.052C19.5507 73.1945 19.6434 73.3203 19.7554 73.4272C19.755 73.4352 19.7532 73.4432 19.7525 73.4515C19.738 73.6635 19.7525 73.8682 19.7896 74.0659C19.6612 74.1786 19.5573 74.3179 19.4867 74.4753C19.2991 74.0565 18.8741 73.7635 18.3789 73.7635C17.8838 73.7635 17.4584 74.0565 17.2708 74.4753C17.0832 74.0565 16.6582 73.7635 16.1626 73.7635C15.6678 73.7635 15.2424 74.0565 15.0548 74.4753C14.8672 74.0565 14.4422 73.7635 13.9471 73.7635C13.4515 73.7635 13.0265 74.0565 12.8389 74.4753C12.6513 74.0565 12.2259 73.7635 11.7308 73.7635C11.2356 73.7635 10.8102 74.0565 10.6226 74.4753C10.435 74.0565 10.01 73.7635 9.51481 73.7635C9.33048 73.7635 9.15597 73.8045 9 73.8769V76.0325C9.15597 76.1048 9.33048 76.1455 9.51481 76.1455C10.01 76.1455 10.435 75.8529 10.6226 75.434C10.8102 75.8529 11.2356 76.1455 11.7308 76.1455C12.2259 76.1455 12.6513 75.8529 12.8389 75.434C13.0265 75.8529 13.4515 76.1455 13.9471 76.1455C14.4422 76.1455 14.8672 75.8529 15.0548 75.434C15.2424 75.8529 15.6678 76.1455 16.1626 76.1455C16.6582 76.1455 17.0832 75.8529 17.2708 75.434C17.4584 75.8529 17.8838 76.1455 18.3789 76.1455C18.8741 76.1455 19.2991 75.8529 19.4867 75.434C19.6743 75.8529 20.0997 76.1455 20.5949 76.1455C20.8868 76.1455 21.1526 76.0419 21.3613 75.8729C21.6587 75.9838 21.9812 76.0416 22.328 76.0448C22.4763 76.1085 22.6389 76.1455 22.8108 76.1455C23.1922 76.1455 23.5307 75.971 23.7525 75.6998C23.8321 75.6569 23.9103 75.6104 23.9862 75.5595C24.1971 75.9096 24.5832 76.1455 25.0268 76.1455C25.5223 76.1455 25.9473 75.8529 26.1349 75.434C26.3225 75.8529 26.7475 76.1455 27.2427 76.1455C27.7383 76.1455 28.1633 75.8529 28.3509 75.434C28.5385 75.8529 28.9635 76.1455 29.459 76.1455C29.9542 76.1455 30.3792 75.8529 30.5668 75.434C30.7544 75.8529 31.1798 76.1455 31.675 76.1455C32.1701 76.1455 32.5955 75.8529 32.7831 75.434C32.9173 75.7336 33.1743 75.9667 33.4906 76.0761C33.1114 76.1608 32.7464 76.2619 32.4108 76.395C32.2069 76.2401 31.9527 76.1455 31.675 76.1455C31.1798 76.1455 30.7544 76.4382 30.5668 76.857C30.3792 76.4382 29.9542 76.1455 29.459 76.1455C28.9635 76.1455 28.5385 76.4382 28.3509 76.857C28.1633 76.4382 27.7383 76.1455 27.2427 76.1455C26.7475 76.1455 26.3225 76.4382 26.1349 76.857C25.9473 76.4382 25.5223 76.1455 25.0268 76.1455C24.5316 76.1455 24.1066 76.4382 23.919 76.857C23.7314 76.4382 23.306 76.1455 22.8108 76.1455C22.3538 76.1455 21.959 76.3964 21.7528 76.7643C21.711 76.7483 21.6707 76.7309 21.6274 76.7167C21.4147 76.3746 21.0323 76.1455 20.5949 76.1455C20.2244 76.1455 19.8936 76.3095 19.6714 76.5673C19.562 76.5807 19.4518 76.5967 19.3399 76.6175C19.1188 76.3317 18.772 76.1455 18.3789 76.1455C17.8838 76.1455 17.4584 76.4382 17.2708 76.857C17.0832 76.4382 16.6582 76.1455 16.1626 76.1455C15.6678 76.1455 15.2424 76.4382 15.0548 76.857C14.8672 76.4382 14.4422 76.1455 13.9471 76.1455C13.4515 76.1455 13.0265 76.4382 12.8389 76.857C12.6513 76.4382 12.2259 76.1455 11.7308 76.1455C11.2356 76.1455 10.8102 76.4382 10.6226 76.857C10.435 76.4382 10.01 76.1455 9.51481 76.1455C9.33048 76.1455 9.15597 76.1863 9 76.259V78.4142C9.15597 78.4866 9.33048 78.5276 9.51481 78.5276C10.01 78.5273 10.435 78.235 10.6226 77.8161C10.8102 78.235 11.2356 78.5276 11.7308 78.5276C12.2259 78.5273 12.6513 78.235 12.8389 77.8161C13.0265 78.235 13.4515 78.5276 13.9471 78.5276C14.4422 78.5273 14.8672 78.235 15.0548 77.8161C15.2424 78.235 15.6678 78.5276 16.1626 78.5276C16.1892 78.5273 16.2146 78.5233 16.2404 78.5218L16.2372 78.5327C16.2121 78.5316 16.1881 78.5276 16.1626 78.5276C15.6678 78.5273 15.2424 78.8203 15.0548 79.2391C14.8672 78.8203 14.4422 78.5276 13.9471 78.5276C13.4515 78.5273 13.0265 78.8203 12.8389 79.2391C12.6513 78.8203 12.2259 78.5276 11.7308 78.5276C11.2356 78.5273 10.8102 78.8203 10.6226 79.2391C10.435 78.8203 10.01 78.5276 9.51481 78.5276C9.33048 78.5273 9.15597 78.5684 9 78.6411V80.7959C9.15597 80.8687 9.33048 80.9094 9.51481 80.9094C10.01 80.9094 10.435 80.6167 10.6226 80.1979C10.8102 80.6167 11.2356 80.9094 11.7308 80.9094C12.2259 80.9094 12.6513 80.6167 12.8389 80.1979C13.0265 80.6167 13.4515 80.9094 13.9471 80.9094C14.4422 80.9094 14.8672 80.6167 15.0548 80.1979C15.2424 80.6167 15.6678 80.9094 16.1626 80.9094C16.6582 80.9094 17.0832 80.6167 17.2708 80.1979C17.4457 80.5876 17.827 80.8654 18.2786 80.9021C18.2768 80.9072 18.2753 80.9119 18.2735 80.9174C17.8245 80.9555 17.4449 81.2322 17.2708 81.6209C17.0832 81.202 16.6582 80.9094 16.1626 80.9094C15.6678 80.9094 15.2424 81.202 15.0548 81.6209C14.8672 81.202 14.4422 80.9094 13.9471 80.9094C13.4515 80.9094 13.0265 81.202 12.8389 81.6209C12.6513 81.202 12.2259 80.9094 11.7308 80.9094C11.2356 80.9094 10.8102 81.202 10.6226 81.6209C10.435 81.202 10.01 80.9094 9.51481 80.9094C9.33048 80.9094 9.15597 80.9501 9 81.0228V83.178C9.15597 83.2507 9.33048 83.2915 9.51481 83.2915C10.01 83.2915 10.435 82.9984 10.6226 82.5796C10.8102 82.9984 11.2356 83.2915 11.7308 83.2915C12.2259 83.2915 12.6513 82.9984 12.8389 82.5796C13.0265 82.9984 13.4515 83.2915 13.9471 83.2915C14.4422 83.2915 14.8672 82.9984 15.0548 82.5796C15.2424 82.9984 15.6678 83.2915 16.1626 83.2915C16.6582 83.2915 17.0832 82.9984 17.2708 82.5796C17.3359 82.725 17.4311 82.8537 17.5464 82.9617L17.2126 83.8946C17.0039 83.5354 16.6135 83.2915 16.1626 83.2915C15.6678 83.2915 15.2424 83.5841 15.0548 84.003C14.8672 83.5841 14.4422 83.2915 13.9471 83.2915C13.4515 83.2915 13.0265 83.5841 12.8389 84.003C12.6513 83.5841 12.2259 83.2915 11.7308 83.2915C11.2356 83.2915 10.8102 83.5841 10.6226 84.003C10.435 83.5841 10.01 83.2915 9.51481 83.2915C9.33048 83.2915 9.15597 83.3322 9 83.4045V85.5598C9.15597 85.6325 9.33048 85.6736 9.51481 85.6736C10.01 85.6736 10.435 85.3805 10.6226 84.9617C10.8102 85.3805 11.2356 85.6736 11.7308 85.6736C12.2259 85.6736 12.6513 85.3805 12.8389 84.9617C13.0265 85.3805 13.4515 85.6736 13.9471 85.6736C14.4422 85.6736 14.8672 85.3805 15.0548 84.9617C15.2424 85.3805 15.6678 85.6736 16.1626 85.6736C16.4026 85.6736 16.6251 85.6034 16.8131 85.4852C16.7967 85.6052 16.7843 85.7237 16.7756 85.8404C16.5956 85.7357 16.3873 85.6736 16.1626 85.6736C15.6678 85.6736 15.2424 85.9662 15.0548 86.3851C14.8672 85.9662 14.4422 85.6736 13.9471 85.6736C13.4515 85.6736 13.0265 85.9662 12.8389 86.3851C12.6513 85.9662 12.2259 85.6736 11.7308 85.6736C11.2356 85.6736 10.8102 85.9662 10.6226 86.3851C10.435 85.9662 10.01 85.6736 9.51481 85.6736C9.33048 85.6736 9.15597 85.7139 9 85.7866V87.9419C9.15597 88.0142 9.33048 88.0553 9.51481 88.0553C10.01 88.0553 10.435 87.7622 10.6226 87.3434C10.8102 87.7622 11.2356 88.0553 11.7308 88.0553C12.2259 88.0553 12.6513 87.7622 12.8389 87.3434C13.0265 87.7622 13.4515 88.0553 13.9471 88.0553C14.4422 88.0553 14.8672 87.7622 15.0548 87.3434C15.2424 87.7622 15.6678 88.0553 16.1626 88.0553C16.5967 88.0553 16.9767 87.8306 17.1904 87.4936C17.2981 87.6506 17.4253 87.7986 17.5729 87.9342C17.6649 88.0189 17.766 88.0946 17.8707 88.1662C17.6038 88.288 17.3897 88.5014 17.2708 88.7668C17.0832 88.348 16.6582 88.0553 16.1626 88.0553C15.6678 88.0553 15.2424 88.348 15.0548 88.7668C14.8672 88.348 14.4422 88.0553 13.9471 88.0553C13.4515 88.0553 13.0265 88.348 12.8389 88.7668C12.6513 88.348 12.2259 88.0553 11.7308 88.0553C11.2356 88.0553 10.8102 88.348 10.6226 88.7668C10.435 88.348 10.01 88.0553 9.51481 88.0553C9.33048 88.0553 9.15597 88.096 9 88.1687V90.3239C9.15597 90.3963 9.33048 90.437 9.51481 90.437C10.01 90.437 10.435 90.1443 10.6226 89.7255C10.8102 90.1443 11.2356 90.437 11.7308 90.437C12.2259 90.437 12.6513 90.1443 12.8389 89.7255C13.0265 90.1443 13.4515 90.437 13.9471 90.437C14.4422 90.437 14.8672 90.1443 15.0548 89.7255C15.2424 90.1443 15.6678 90.437 16.1626 90.437C16.6582 90.437 17.0832 90.1443 17.2708 89.7255C17.4584 90.1443 17.8838 90.437 18.3789 90.437C18.8741 90.437 19.2991 90.1443 19.4867 89.7255C19.6743 90.1443 20.0997 90.437 20.5949 90.437C21.0901 90.437 21.5154 90.1443 21.703 89.7255C21.8906 90.1443 22.3156 90.437 22.8108 90.437C23.306 90.437 23.7314 90.1443 23.919 89.7255C24.1066 90.1443 24.5316 90.437 25.0268 90.437C25.5223 90.437 25.9473 90.1443 26.1349 89.7255C26.3225 90.1443 26.7475 90.437 27.2427 90.437C27.7383 90.437 28.1633 90.1443 28.3509 89.7255C28.5385 90.1443 28.9635 90.437 29.459 90.437C29.9542 90.437 30.3792 90.1443 30.5668 89.7255C30.7544 90.1443 31.1798 90.437 31.675 90.437C32.1701 90.437 32.5955 90.1443 32.7831 89.7255C32.9703 90.1443 33.3957 90.437 33.8909 90.437C34.3861 90.437 34.8115 90.1443 34.9991 89.7255C35.1867 90.1443 35.6117 90.437 36.1068 90.437C36.602 90.437 37.0274 90.1443 37.215 89.7255C37.4026 90.1443 37.8276 90.437 38.3228 90.437C38.8183 90.437 39.2433 90.1443 39.4309 89.7255C39.6185 90.1443 40.0435 90.437 40.5391 90.437C41.0343 90.437 41.4593 90.1443 41.6469 89.7255C41.8345 90.1443 42.2599 90.437 42.755 90.437C43.2502 90.437 43.6752 90.1443 43.8628 89.7255C44.0504 90.1443 44.4758 90.437 44.971 90.437C45.4662 90.437 45.8915 90.1443 46.0788 89.7255C46.2667 90.1443 46.6917 90.437 47.1869 90.437C47.6821 90.437 48.1075 90.1443 48.2951 89.7255C48.4827 90.1443 48.9077 90.437 49.4032 90.437C49.8984 90.437 50.3234 90.1443 50.511 89.7255C50.699 90.1443 51.1236 90.437 51.6192 90.437C52.1143 90.437 52.5394 90.1443 52.727 89.7255C52.9146 90.1443 53.3396 90.437 53.8351 90.437C54.3303 90.437 54.7553 90.1443 54.9429 89.7255C55.1305 90.1443 55.5559 90.437 56.0507 90.437C56.5462 90.437 56.9716 90.1443 57.1592 89.7255C57.3464 90.1443 57.7718 90.437 58.2674 90.437C58.7622 90.437 59.1875 90.1443 59.3751 89.7255C59.5627 90.1443 59.9878 90.437 60.4829 90.437C60.9785 90.437 61.4035 90.1443 61.5911 89.7255C61.7787 90.1443 62.2037 90.437 62.6992 90.437C63.1944 90.437 63.6194 90.1443 63.807 89.7255C63.9946 90.1443 64.42 90.437 64.9148 90.437C65.4104 90.437 65.8357 90.1443 66.023 89.7255C66.2106 90.1443 66.6359 90.437 67.1311 90.437C67.6263 90.437 68.0517 90.1443 68.2393 89.7255C68.4265 90.1443 68.8519 90.437 69.3471 90.437C69.8422 90.437 70.2673 90.1443 70.4552 89.7255C70.6428 90.1443 71.0678 90.437 71.5634 90.437C72.0582 90.437 72.4836 90.1443 72.6712 89.7255C72.8588 90.1443 73.2838 90.437 73.7793 90.437C74.2861 90.437 74.7202 90.1298 74.9002 89.6946C75.0809 90.1298 75.5146 90.437 76.0214 90.437C76.529 90.437 76.9631 90.1298 77.143 89.6946C77.3234 90.1298 77.7571 90.437 78.2646 90.437C78.7718 90.437 79.2056 90.1298 79.3859 89.6946C79.5659 90.1298 79.9999 90.437 80.5071 90.437C81.0147 90.437 81.4484 90.1298 81.6287 89.6946C81.8087 90.1298 82.2424 90.437 82.75 90.437C83.2575 90.437 83.6913 90.1298 83.8712 89.6946C84.0512 90.1298 84.4853 90.437 84.9925 90.437C85.5 90.437 85.9341 90.1298 86.1141 89.6946C86.2944 90.1298 86.7278 90.437 87.2353 90.437C87.6981 90.437 88.0991 90.1822 88.3035 89.8073C88.5074 90.1822 88.9088 90.437 89.3713 90.437C89.7912 90.437 90.1613 90.2269 90.378 89.9073C90.5914 90.2 90.9393 90.3912 91.3334 90.3912C91.761 90.3912 92.1336 90.1665 92.339 89.8309C92.5423 90.14 92.8939 90.3454 93.2956 90.3454C93.7333 90.3454 94.1085 90.0996 94.2994 89.7441C94.4892 90.0738 94.8448 90.2989 95.2574 90.2989C95.705 90.2989 96.0885 90.0364 96.262 89.6601C96.4354 90.0102 96.7971 90.253 97.2199 90.253C97.6824 90.253 98.0725 89.9626 98.2212 89.5586C98.371 89.9371 98.7433 90.2072 99.1821 90.2072C99.6686 90.2072 100.074 89.8753 100.183 89.4303C100.296 89.8499 100.681 90.1611 101.144 90.1611C101.694 90.1611 102.141 89.7226 102.141 89.1823C102.141 88.7482 101.851 88.3839 101.453 88.256H101.646C101.874 88.256 102.085 88.136 102.199 87.9408C102.314 87.7455 102.314 87.5052 102.2 87.31L102.086 87.1147C102.119 87.0177 102.141 86.9159 102.141 86.8082C102.141 86.3367 101.801 85.9433 101.349 85.8503L101.091 85.4081C101.109 85.4092 101.126 85.4129 101.144 85.4129C101.694 85.4129 102.141 84.9744 102.141 84.4342C102.141 84.2164 102.066 84.0171 101.943 83.8546C102.154 83.6536 102.352 83.4409 102.522 83.2049C102.591 83.11 102.655 83.0126 102.716 82.9137C102.835 82.9661 102.967 82.9962 103.106 82.9962C103.637 82.9962 104.068 82.5738 104.068 82.0528C104.068 81.6191 103.767 81.2573 103.36 81.1471C103.39 80.9588 103.407 80.7658 103.415 80.5691C103.794 80.4418 104.068 80.0939 104.068 79.6802C104.068 79.1719 103.657 78.7603 103.144 78.7403C103.075 78.5622 102.994 78.3902 102.899 78.2273C102.966 78.2419 103.035 78.2506 103.106 78.2506C103.637 78.2506 104.068 77.8281 104.068 77.3071ZM98.1463 81.2649C98.1042 81.3024 98.054 81.3347 97.9987 81.3631C97.8046 81.1555 97.5293 81.0239 97.2199 81.0239C97.0232 81.0239 96.8408 81.0781 96.683 81.1697L96.7888 80.6549C96.92 80.713 97.0658 80.7461 97.2199 80.7461C97.5973 80.7461 97.9238 80.5509 98.1132 80.2604C98.3568 80.3498 98.363 80.5142 98.363 80.6669C98.363 81.0293 98.2394 81.1817 98.1463 81.2649ZM97.6097 79.5616H96.3594L95.8369 82.1142H97.3723C97.8893 82.1142 98.2903 81.9873 98.5753 81.7332C98.7662 81.5627 98.8876 81.3427 98.9505 81.081H98.9502C98.9636 81.0264 98.9738 80.9697 98.9822 80.9119C98.9927 80.8327 99.0021 80.753 99.0021 80.6669C99.0021 79.9299 98.5382 79.5616 97.6097 79.5616ZM105.068 78.7665C104.557 78.7665 104.142 79.1733 104.142 79.6743C104.142 80.1757 104.557 80.5825 105.068 80.5825C105.579 80.5825 105.994 80.1757 105.994 79.6743C105.994 79.1733 105.579 78.7665 105.068 78.7665ZM105.068 76.3946C104.557 76.3946 104.142 76.8018 104.142 77.3031C104.142 77.8041 104.557 78.211 105.068 78.211C105.579 78.211 105.994 77.8041 105.994 77.3031C105.994 76.8018 105.579 76.3946 105.068 76.3946ZM105.068 74.023C104.557 74.023 104.142 74.4302 104.142 74.9316C104.142 75.4326 104.557 75.8394 105.068 75.8394C105.579 75.8394 105.994 75.4326 105.994 74.9316C105.994 74.4299 105.579 74.0234 105.068 74.023ZM105.068 69.2803C104.557 69.2803 104.142 69.6868 104.142 70.1881C104.142 70.6895 104.557 71.0963 105.068 71.0963C105.579 71.0963 105.994 70.6895 105.994 70.1881C105.994 69.6868 105.579 69.2803 105.068 69.2803ZM105.068 81.1377C104.557 81.1377 104.142 81.5449 104.142 82.0459C104.142 82.5472 104.557 82.9544 105.068 82.9544C105.579 82.9544 105.994 82.5472 105.994 82.0459C105.994 81.5449 105.579 81.1377 105.068 81.1377ZM107.03 85.907C106.539 85.907 106.14 86.2985 106.14 86.7799C106.14 87.2616 106.539 87.6528 107.03 87.6528C107.522 87.6528 107.921 87.2616 107.921 86.7799C107.921 86.2985 107.522 85.907 107.03 85.907ZM107.03 83.5369C106.539 83.5369 106.14 83.9277 106.14 84.4098C106.14 84.8915 106.539 85.2824 107.03 85.2824C107.522 85.2824 107.921 84.8915 107.921 84.4098C107.921 83.9277 107.522 83.5369 107.03 83.5369ZM107.03 88.2774C106.539 88.2774 106.14 88.6683 106.14 89.15C106.14 89.6321 106.539 90.0229 107.03 90.0229C107.522 90.0229 107.921 89.6321 107.921 89.15C107.921 88.6683 107.522 88.2774 107.03 88.2774ZM105.068 71.6515C104.557 71.6515 104.142 72.0587 104.142 72.5597C104.142 73.061 104.557 73.4679 105.068 73.4679C105.579 73.4679 105.994 73.061 105.994 72.5597C105.994 72.0587 105.579 71.6519 105.068 71.6515ZM105.068 83.5096C104.557 83.5096 104.142 83.9164 104.142 84.4174C104.142 84.9192 104.557 85.326 105.068 85.326C105.579 85.326 105.994 84.9192 105.994 84.4174C105.994 83.9164 105.579 83.5096 105.068 83.5096ZM103.106 71.618C102.575 71.618 102.144 72.0405 102.144 72.5615C102.144 73.0821 102.575 73.505 103.106 73.505C103.637 73.505 104.068 73.0821 104.068 72.5615C104.068 72.0405 103.637 71.618 103.106 71.618ZM107.03 81.1668C106.539 81.1668 106.14 81.5576 106.14 82.0397C106.14 82.5211 106.539 82.9123 107.03 82.9123C107.522 82.9123 107.921 82.5211 107.921 82.0397C107.921 81.5576 107.522 81.1668 107.03 81.1668ZM103.106 73.9907C102.575 73.9907 102.144 74.4135 102.144 74.9345C102.144 75.4551 102.575 75.8776 103.106 75.8776C103.637 75.8776 104.068 75.4551 104.068 74.9345C104.068 74.4135 103.637 73.9907 103.106 73.9907ZM105.068 85.8811C104.557 85.8811 104.142 86.288 104.142 86.7893C104.142 87.2907 104.557 87.6975 105.068 87.6975C105.579 87.6975 105.994 87.2907 105.994 86.7893C105.994 86.288 105.579 85.8811 105.068 85.8811ZM105.068 88.2527C104.557 88.2527 104.142 88.6595 104.142 89.1609C104.142 89.6622 104.557 90.0687 105.068 90.0687C105.579 90.0687 105.994 89.6622 105.994 89.1609C105.994 88.6595 105.579 88.2527 105.068 88.2527ZM103.106 69.245C102.575 69.245 102.144 69.6675 102.144 70.1885C102.144 70.7095 102.575 71.132 103.106 71.132C103.637 71.132 104.068 70.7095 104.068 70.1885C104.068 69.6675 103.637 69.245 103.106 69.245ZM105.068 90.6242C104.557 90.6242 104.142 91.0311 104.142 91.5324C104.142 92.0338 104.557 92.4406 105.068 92.4406C105.579 92.4406 105.994 92.0338 105.994 91.5324C105.994 91.0311 105.579 90.6242 105.068 90.6242ZM116.841 76.5818C116.448 76.5818 116.129 76.8938 116.129 77.2777C116.129 77.6616 116.448 77.9739 116.841 77.9739C117.234 77.9739 117.553 77.6616 117.553 77.2777C117.553 76.8938 117.234 76.5818 116.841 76.5818ZM116.841 69.4905C116.448 69.4905 116.129 69.8024 116.129 70.186C116.129 70.5702 116.448 70.8822 116.841 70.8822C117.234 70.8822 117.553 70.5702 117.553 70.186C117.553 69.8024 117.234 69.4905 116.841 69.4905ZM116.841 74.2179C116.448 74.2179 116.129 74.5302 116.129 74.9141C116.129 75.2977 116.448 75.61 116.841 75.61C117.234 75.61 117.553 75.2977 117.553 74.9141C117.553 74.5302 117.234 74.2179 116.841 74.2179ZM114.879 69.4552C114.466 69.4552 114.131 69.7831 114.131 70.1867C114.131 70.5902 114.466 70.9182 114.879 70.9182C115.291 70.9182 115.627 70.5902 115.627 70.1867C115.627 69.7831 115.291 69.4552 114.879 69.4552ZM116.841 71.8544C116.448 71.8544 116.129 72.1663 116.129 72.5502C116.129 72.9342 116.448 73.2461 116.841 73.2461C117.234 73.2457 117.553 72.9342 117.553 72.5502C117.553 72.1663 117.234 71.8544 116.841 71.8544ZM114.879 71.8205C114.466 71.8205 114.131 72.1485 114.131 72.5517C114.131 72.9552 114.466 73.2832 114.879 73.2832C115.291 73.2832 115.627 72.9552 115.627 72.5517C115.627 72.1485 115.291 71.8205 114.879 71.8205ZM112.917 69.4203C112.484 69.4203 112.133 69.7639 112.133 70.1867C112.133 70.6099 112.484 70.9538 112.917 70.9538C113.349 70.9538 113.7 70.6102 113.7 70.1867C113.7 69.7639 113.349 69.4203 112.917 69.4203ZM112.917 71.7864C112.484 71.7864 112.133 72.1303 112.133 72.5535C112.133 72.9763 112.484 73.3199 112.917 73.3199C113.349 73.3199 113.7 72.9763 113.7 72.5535C113.7 72.1303 113.349 71.7864 112.917 71.7864ZM114.879 76.5506C114.466 76.5506 114.131 76.8785 114.131 77.2821C114.131 77.6856 114.466 78.0132 114.879 78.0132C115.291 78.0132 115.627 77.6856 115.627 77.2821C115.627 76.8785 115.291 76.5506 114.879 76.5506ZM114.879 74.1852C114.466 74.1852 114.131 74.5131 114.131 74.9167C114.131 75.3203 114.466 75.6482 114.879 75.6482C115.291 75.6482 115.627 75.3203 115.627 74.9167C115.627 74.5131 115.291 74.1852 114.879 74.1852ZM120.765 71.9216C120.412 71.9216 120.124 72.2023 120.124 72.5466C120.124 72.8916 120.412 73.1719 120.765 73.1719C121.118 73.1719 121.406 72.8916 121.406 72.5466C121.406 72.2023 121.118 71.9216 120.765 71.9216ZM118.803 74.2503C118.429 74.2503 118.126 74.5466 118.126 74.9112C118.126 75.2755 118.429 75.5718 118.803 75.5718C119.176 75.5718 119.479 75.2755 119.479 74.9112C119.479 74.5466 119.176 74.2503 118.803 74.2503ZM103.106 88.228C102.575 88.228 102.144 88.6504 102.144 89.1714C102.144 89.6924 102.575 90.1153 103.106 90.1153C103.637 90.1153 104.068 89.6924 104.068 89.1714C104.068 88.6504 103.637 88.228 103.106 88.228ZM103.106 90.601C102.575 90.601 102.144 91.0238 102.144 91.5444C102.144 92.0654 102.575 92.4879 103.106 92.4879C103.637 92.4879 104.068 92.0654 104.068 91.5444C104.068 91.0238 103.637 90.601 103.106 90.601ZM107.03 78.7963C106.539 78.7963 106.14 79.1875 106.14 79.6689C106.14 80.1506 106.539 80.5418 107.03 80.5418C107.522 80.5418 107.921 80.1506 107.921 79.6689C107.921 79.1875 107.522 78.7963 107.03 78.7963ZM103.106 83.4823C102.575 83.4823 102.144 83.9048 102.144 84.4258C102.144 84.9468 102.575 85.3696 103.106 85.3696C103.637 85.3696 104.068 84.9468 104.068 84.4258C104.068 83.9048 103.637 83.4823 103.106 83.4823ZM103.106 85.8553C102.575 85.8553 102.144 86.2782 102.144 86.7988C102.144 87.3194 102.575 87.7419 103.106 87.7419C103.637 87.7419 104.068 87.3194 104.068 86.7988C104.068 86.2782 103.637 85.8553 103.106 85.8553ZM118.803 69.5254C118.429 69.5254 118.126 69.8217 118.126 70.186C118.126 70.5502 118.429 70.8466 118.803 70.8466C119.176 70.8466 119.479 70.5502 119.479 70.186C119.479 69.8217 119.176 69.5254 118.803 69.5254ZM118.803 71.8882C118.429 71.8882 118.126 72.1841 118.126 72.5484C118.126 72.9127 118.429 73.209 118.803 73.209C119.176 73.209 119.479 72.9127 119.479 72.5484C119.479 72.1841 119.176 71.8882 118.803 71.8882ZM120.765 69.5603C120.412 69.5603 120.124 69.8409 120.124 70.1856C120.124 70.5302 120.412 70.8109 120.765 70.8109C121.118 70.8109 121.406 70.5302 121.406 70.1856C121.406 69.8409 121.118 69.5603 120.765 69.5603ZM112.917 74.1532C112.484 74.1532 112.133 74.4964 112.133 74.92C112.133 75.3428 112.484 75.6864 112.917 75.6864C113.349 75.6864 113.7 75.3428 113.7 74.92C113.7 74.4964 113.349 74.1532 112.917 74.1532ZM122.727 69.5955C122.393 69.5955 122.122 69.8602 122.122 70.1852C122.122 70.5106 122.393 70.7753 122.727 70.7753C123.061 70.7753 123.332 70.5106 123.332 70.1852C123.332 69.8598 123.061 69.5955 122.727 69.5955ZM114.879 78.9159C114.466 78.9159 114.131 79.2435 114.131 79.6471C114.131 80.0506 114.466 80.3782 114.879 80.3782C115.291 80.3782 115.627 80.0506 115.627 79.6471C115.627 79.2435 115.291 78.9159 114.879 78.9159ZM108.992 81.1948C108.521 81.1948 108.137 81.5703 108.137 82.0324C108.137 82.4949 108.521 82.8701 108.992 82.8701C109.464 82.8701 109.847 82.4949 109.847 82.0324C109.847 81.5703 109.464 81.1948 108.992 81.1948ZM108.992 78.8261C108.521 78.8261 108.137 79.2013 108.137 79.6634C108.137 80.1255 108.521 80.5007 108.992 80.5007C109.464 80.5007 109.847 80.1255 109.847 79.6634C109.847 79.2013 109.464 78.8261 108.992 78.8261ZM108.992 74.0881C108.521 74.0881 108.137 74.4633 108.137 74.9254C108.137 75.3875 108.521 75.7627 108.992 75.7627C109.464 75.7627 109.847 75.3879 109.847 74.9254C109.847 74.4633 109.464 74.0881 108.992 74.0881ZM108.992 83.5641C108.521 83.5641 108.137 83.9393 108.137 84.4014C108.137 84.8635 108.521 85.2387 108.992 85.2387C109.464 85.2387 109.847 84.8635 109.847 84.4014C109.847 83.9393 109.464 83.5641 108.992 83.5641ZM108.992 76.4571C108.521 76.4571 108.137 76.8323 108.137 77.2944C108.137 77.7569 108.521 78.1321 108.992 78.1321C109.464 78.1321 109.847 77.7569 109.847 77.2944C109.847 76.8323 109.464 76.4571 108.992 76.4571ZM107.03 71.6853C106.539 71.6853 106.14 72.0765 106.14 72.5582C106.14 73.04 106.539 73.4308 107.03 73.4308C107.522 73.4308 107.921 73.04 107.921 72.5582C107.921 72.0765 107.522 71.6853 107.03 71.6853ZM107.03 74.0558C106.539 74.0558 106.14 74.4466 106.14 74.9287C106.14 75.41 106.539 75.8012 107.03 75.8012C107.522 75.8012 107.921 75.4104 107.921 74.9287C107.921 74.4466 107.522 74.0558 107.03 74.0558ZM108.992 71.7191C108.521 71.7191 108.137 72.0943 108.137 72.5568C108.137 73.0189 108.521 73.3941 108.992 73.3941C109.464 73.3941 109.847 73.0189 109.847 72.5568C109.847 72.0943 109.464 71.7191 108.992 71.7191ZM107.03 69.3152C106.539 69.3152 106.14 69.706 106.14 70.1878C106.14 70.6695 106.539 71.0607 107.03 71.0607C107.522 71.0607 107.921 70.6695 107.921 70.1878C107.921 69.706 107.522 69.3152 107.03 69.3152ZM112.917 76.5193C112.484 76.5193 112.133 76.8632 112.133 77.2861C112.133 77.7093 112.484 78.0528 112.917 78.0528C113.349 78.0528 113.7 77.7093 113.7 77.2861C113.7 76.8632 113.349 76.5193 112.917 76.5193ZM107.03 76.4259C106.539 76.4259 106.14 76.8171 106.14 77.2988C106.14 77.7805 106.539 78.1717 107.03 78.1717C107.522 78.1717 107.921 77.7805 107.921 77.2988C107.921 76.8171 107.522 76.4259 107.03 76.4259ZM108.992 85.9331C108.521 85.9331 108.137 86.3083 108.137 86.7704C108.137 87.2325 108.521 87.6081 108.992 87.6081C109.464 87.6081 109.847 87.2325 109.847 86.7704C109.847 86.3083 109.464 85.9331 108.992 85.9331ZM110.954 69.385C110.503 69.385 110.135 69.7446 110.135 70.187C110.136 70.6299 110.503 70.9894 110.954 70.9894C111.407 70.9894 111.774 70.6299 111.774 70.187C111.774 69.7446 111.407 69.385 110.954 69.385ZM108.992 69.3501C108.521 69.3501 108.137 69.7253 108.137 70.1874C108.137 70.6499 108.521 71.0251 108.992 71.0251C109.464 71.0251 109.847 70.6499 109.847 70.1874C109.847 69.7253 109.464 69.3501 108.992 69.3501ZM110.954 71.7529C110.503 71.7529 110.135 72.1125 110.135 72.555C110.136 72.9974 110.503 73.357 110.954 73.357C111.407 73.357 111.774 72.9974 111.774 72.555C111.774 72.1125 111.407 71.7529 110.954 71.7529ZM112.917 81.2522C112.484 81.2522 112.133 81.5961 112.133 82.019C112.133 82.4418 112.484 82.7854 112.917 82.7854C113.349 82.7854 113.7 82.4418 113.7 82.019C113.7 81.5961 113.349 81.2522 112.917 81.2522ZM112.917 78.8858C112.484 78.8858 112.133 79.2293 112.133 79.6525C112.133 80.0757 112.484 80.4193 112.917 80.4193C113.349 80.4193 113.7 80.0757 113.7 79.6525C113.7 79.2293 113.349 78.8861 112.917 78.8858ZM110.954 83.5914C110.503 83.5914 110.135 83.951 110.135 84.3934C110.136 84.8363 110.503 85.1955 110.954 85.1955C111.407 85.1955 111.774 84.8363 111.774 84.3934C111.774 83.951 111.407 83.5914 110.954 83.5914ZM110.954 81.2239C110.503 81.2239 110.135 81.5827 110.135 82.0259C110.136 82.4683 110.503 82.8279 110.954 82.8279C111.407 82.8279 111.774 82.4683 111.774 82.0259C111.774 81.5827 111.407 81.2239 110.954 81.2239ZM110.954 76.4884C110.503 76.4884 110.135 76.8476 110.135 77.2904C110.136 77.7329 110.503 78.0924 110.954 78.0924C111.407 78.0924 111.774 77.7329 111.774 77.2904C111.774 76.8476 111.407 76.4884 110.954 76.4884ZM110.954 78.8559C110.503 78.8559 110.135 79.2155 110.135 79.658C110.136 80.1004 110.503 80.46 110.954 80.46C111.407 80.46 111.774 80.1004 111.774 79.658C111.774 79.2155 111.407 78.8559 110.954 78.8559ZM110.954 74.1205C110.503 74.1205 110.135 74.48 110.135 74.9225C110.136 75.3653 110.503 75.7245 110.954 75.7245C111.407 75.7245 111.774 75.3653 111.774 74.9225C111.774 74.48 111.407 74.1205 110.954 74.1205ZM60.5622 80.9036L60.4448 80.2931L58.8145 83.0791H58.9538H59.7962H60.9825L60.5633 80.9083L60.5622 80.9036Z" fill="#2B2A29"/>
<path d="M107.008 77.8748C108.621 77.8748 109.928 76.5679 109.928 74.9557C109.928 73.3435 108.621 72.0366 107.008 72.0366C105.396 72.0366 104.089 73.3435 104.089 74.9557C104.089 76.5679 105.396 77.8748 107.008 77.8748Z" fill="#FEFEFE" stroke="#2B2A29" stroke-width="0.666709" stroke-miterlimit="22.9256"/>
<path d="M105.912 76.1528V73.0058H107.307C107.587 73.0058 107.801 73.0345 107.947 73.0917C108.093 73.1475 108.209 73.247 108.296 73.3901C108.384 73.5332 108.427 73.6913 108.427 73.8645C108.427 74.0878 108.355 74.2759 108.211 74.4291C108.066 74.5822 107.843 74.6795 107.541 74.721C107.651 74.774 107.735 74.8262 107.792 74.8777C107.914 74.9893 108.029 75.1289 108.138 75.2963L108.685 76.1528H108.161L107.745 75.4981C107.623 75.3092 107.523 75.1647 107.444 75.0645C107.366 74.9643 107.295 74.8942 107.232 74.8541C107.17 74.814 107.107 74.7861 107.043 74.7704C106.996 74.7604 106.918 74.7554 106.811 74.7554H106.328V76.1528H105.912ZM106.328 74.3947H107.223C107.413 74.3947 107.562 74.3754 107.67 74.3368C107.777 74.2967 107.859 74.2337 107.914 74.1479C107.97 74.0606 107.998 73.9661 107.998 73.8645C107.998 73.7157 107.944 73.5933 107.835 73.4974C107.728 73.4015 107.557 73.3536 107.324 73.3536H106.328V74.3947Z" fill="#2B2A29"/>
<path d="M105.912 76.1528H105.768V76.2968H105.912V76.1528ZM105.912 73.0058V72.8618H105.768V73.0058H105.912ZM107.947 73.0917L107.894 73.2258L107.895 73.2262L107.947 73.0917ZM107.541 74.721L107.521 74.5784L107.047 74.6435L107.478 74.8508L107.541 74.721ZM107.792 74.8777L107.889 74.7716L107.888 74.7707L107.792 74.8777ZM108.138 75.2963L108.259 75.2188L108.258 75.2179L108.138 75.2963ZM108.685 76.1528V76.2968H108.948L108.806 76.0753L108.685 76.1528ZM108.161 76.1528L108.04 76.2301L108.082 76.2968H108.161V76.1528ZM107.745 75.4981L107.866 75.4208L107.866 75.4201L107.745 75.4981ZM107.232 74.8541L107.153 74.9748L107.154 74.9756L107.232 74.8541ZM107.043 74.7704L107.077 74.6304L107.073 74.6295L107.043 74.7704ZM106.328 74.7554V74.6114H106.184V74.7554H106.328ZM106.328 76.1528V76.2968H106.472V76.1528H106.328ZM106.328 74.3947H106.184V74.5387H106.328V74.3947ZM107.67 74.3368L107.718 74.4723L107.72 74.4717L107.67 74.3368ZM107.914 74.1479L108.035 74.2263L108.036 74.2254L107.914 74.1479ZM107.835 73.4974L107.739 73.6048L107.74 73.6054L107.835 73.4974ZM106.328 73.3536V73.2096H106.184V73.3536H106.328ZM106.056 76.1528V73.0058H105.768V76.1528H106.056ZM105.912 73.1498H107.307V72.8618H105.912V73.1498ZM107.307 73.1498C107.581 73.1498 107.773 73.1784 107.894 73.2258L107.999 72.9576C107.828 72.8906 107.593 72.8618 107.307 72.8618V73.1498ZM107.895 73.2262C108.009 73.2698 108.102 73.3471 108.174 73.4651L108.419 73.3151C108.317 73.1469 108.176 73.0252 107.998 72.9572L107.895 73.2262ZM108.174 73.4651C108.247 73.5848 108.283 73.7169 108.283 73.8645H108.571C108.571 73.6658 108.521 73.4816 108.419 73.3151L108.174 73.4651ZM108.283 73.8645C108.283 74.0534 108.224 74.2055 108.106 74.3302L108.315 74.5279C108.487 74.3463 108.571 74.1221 108.571 73.8645H108.283ZM108.106 74.3302C107.992 74.4508 107.805 74.5394 107.521 74.5784L107.56 74.8637C107.881 74.8196 108.14 74.7136 108.315 74.5279L108.106 74.3302ZM107.478 74.8508C107.583 74.9009 107.653 74.9461 107.696 74.9848L107.888 74.7707C107.817 74.7063 107.719 74.6471 107.603 74.5912L107.478 74.8508ZM107.695 74.9838C107.806 75.0857 107.913 75.2154 108.017 75.3748L108.258 75.2179C108.144 75.0423 108.022 74.8929 107.889 74.7716L107.695 74.9838ZM108.016 75.3739L108.564 76.2304L108.806 76.0753L108.259 75.2188L108.016 75.3739ZM108.685 76.0088H108.161V76.2968H108.685V76.0088ZM108.283 76.0755L107.866 75.4208L107.623 75.5754L108.04 76.2301L108.283 76.0755ZM107.866 75.4201C107.743 75.2298 107.64 75.0809 107.557 74.9755L107.331 75.1534C107.406 75.2484 107.503 75.3886 107.624 75.5761L107.866 75.4201ZM107.557 74.9755C107.475 74.8703 107.392 74.7855 107.309 74.7326L107.154 74.9756C107.197 75.0029 107.256 75.0583 107.331 75.1534L107.557 74.9755ZM107.31 74.7334C107.237 74.6855 107.159 74.6505 107.077 74.6305L107.009 74.9103C107.056 74.9218 107.104 74.9426 107.153 74.9748L107.31 74.7334ZM107.073 74.6295C107.01 74.6161 106.919 74.6114 106.811 74.6114V74.8994C106.917 74.8994 106.982 74.9046 107.013 74.9113L107.073 74.6295ZM106.811 74.6114H106.328V74.8994H106.811V74.6114ZM106.184 74.7554V76.1528H106.472V74.7554H106.184ZM106.328 76.0088H105.912V76.2968H106.328V76.0088ZM106.328 74.5387H107.223V74.2507H106.328V74.5387ZM107.223 74.5387C107.421 74.5387 107.588 74.519 107.718 74.4723L107.621 74.2013C107.536 74.2318 107.406 74.2507 107.223 74.2507V74.5387ZM107.72 74.4717C107.853 74.4222 107.96 74.3411 108.035 74.2263L107.794 74.0694C107.757 74.1263 107.701 74.1712 107.619 74.2019L107.72 74.4717ZM108.036 74.2254C108.106 74.1155 108.142 73.9942 108.142 73.8645H107.854C107.854 73.938 107.834 74.0057 107.793 74.0703L108.036 74.2254ZM108.142 73.8645C108.142 73.6756 108.071 73.5134 107.93 73.3894L107.74 73.6054C107.817 73.6732 107.854 73.7558 107.854 73.8645H108.142ZM107.931 73.39C107.785 73.2597 107.572 73.2096 107.324 73.2096V73.4976C107.543 73.4976 107.67 73.5434 107.739 73.6048L107.931 73.39ZM107.324 73.2096H106.328V73.4976H107.324V73.2096ZM106.184 73.3536V74.3947H106.472V73.3536H106.184Z" fill="#2B2A29"/>
</svg>
