<svg width="220" height="65" viewBox="0 0 220 65" fill="none" xmlns="http://www.w3.org/2000/svg">
<path fill-rule="evenodd" clip-rule="evenodd" d="M0 0H220V65H0V0Z" fill="#1D8FBD"/>
<path d="M203.888 48.3421C212.251 33.9942 209.089 24.6013 198.881 18.6512C182.675 9.20504 140.789 10.1019 103.347 11.5415C91.8851 11.9822 80.8394 12.474 71.075 12.7355C27.7356 12.7718 33.804 38.4835 30.3015 56.9711L25.3242 4.69342C33.7885 8.28775 57.694 7.64712 85.5359 6.90067C127.44 5.77777 178.204 4.41676 199.826 17.02C211.035 23.554 214.202 35.8605 205.155 51.38L203.888 48.3421Z" fill="#CCCCCC"/>
<path d="M51.6483 25.725C51.7092 24.5238 52.1098 23.5404 52.8668 22.7921C53.6152 22.035 54.5377 21.6609 55.6255 21.6609C56.7045 21.6609 57.6445 22.0524 58.4363 22.8355C59.2368 23.6273 59.6375 24.5499 59.6375 25.6203C59.6375 26.6211 59.3502 27.4915 58.767 28.2486C58.1838 29.0056 57.4094 29.4932 56.4521 29.7018C55.0858 29.7018 53.9459 29.3102 53.0233 28.5271C52.1098 27.7436 51.6483 26.8127 51.6483 25.725ZM57.7662 37.5341C57.7662 38.9352 57.5485 40.8673 57.1222 43.33C56.6959 45.7841 56.4347 47.4898 56.3478 48.4471C56.4695 50.64 57.0439 51.7364 58.0708 51.7364C58.5059 51.7017 58.9848 51.4057 59.5154 50.8577C60.0377 50.3093 60.5423 49.674 61.0125 48.9517C61.4909 48.2294 61.7956 47.7683 61.9347 47.568C62.1698 47.2199 62.4483 47.0461 62.7703 47.0461C62.9789 47.0461 63.0836 47.1764 63.0836 47.455V49.0738C63.0836 50.318 62.7004 51.5626 61.9347 52.8068C61.1689 54.0601 60.1681 55.0783 58.9413 55.8701C57.7054 56.6623 56.4434 57.0626 55.1557 57.0626C54.4417 57.0278 53.7195 56.7492 52.9972 56.2269C52.275 55.7049 51.6483 55.0957 51.1089 54.3908C50.5692 53.6946 50.2472 53.1201 50.1429 52.6764C49.9339 51.3449 49.8296 49.8482 49.8296 48.186C49.8296 45.5316 50.0299 42.8338 50.4475 40.0925C50.5084 39.7969 50.5779 39.4575 50.6649 39.0656C50.7522 38.6827 50.813 38.3868 50.8565 38.1694C50.8999 37.9604 50.9347 37.7167 50.9695 37.4472C51.0043 37.1686 51.0217 36.9075 51.0217 36.6376C51.0217 36.3156 50.9347 35.9327 50.7522 35.489C50.5779 35.0453 50.4736 34.7146 50.4475 34.5143C50.491 34.4186 50.5345 34.3491 50.5779 34.2969C50.6214 34.2444 50.6475 34.2096 50.6649 34.1923C50.9521 33.9224 51.6918 33.679 52.8842 33.47C54.0763 33.2523 54.8598 33.148 55.2513 33.148C55.878 33.3918 56.6698 33.8181 57.6532 34.4186C58.628 35.0192 59.1151 35.5846 59.1151 36.1157C58.9673 36.7597 58.8366 37.1252 58.7149 37.2382C58.5932 37.3512 58.2712 37.4472 57.7662 37.5341Z" fill="#FEFEFE"/>
<path d="M64.3976 18.6758C64.5106 18.5541 64.8239 18.3799 65.3375 18.1538C65.8508 17.9274 66.4166 17.7184 67.0519 17.5446C67.6873 17.3616 68.2965 17.2747 68.8793 17.2747C71.2552 17.2747 73.0391 18.2321 74.2315 20.1464C75.4323 22.0524 76.0328 24.6282 76.0328 27.8657V28.292C76.0328 30.5023 75.7108 32.7043 75.0755 34.8798C74.4401 37.0556 73.6483 39.0308 72.7084 40.8061C71.7688 42.5817 70.8462 44.0697 69.9236 45.2617C69.0014 46.4542 68.2701 47.2199 67.7307 47.5593C67.7307 47.8292 67.6959 48.0903 67.6177 48.3337C67.7133 49.5957 68.0006 50.7795 68.4791 51.8933C68.9575 53.0071 69.6715 53.5642 70.6024 53.5642C71.8209 53.503 73.0043 52.8593 74.1707 51.6234C75.3367 50.3875 76.3201 49.0651 77.1293 47.6636C77.2253 47.3855 77.4339 47.246 77.7559 47.246C78.0345 47.246 78.1735 47.3155 78.1735 47.455V48.5428V50.5357C78.1735 50.8056 78.0258 51.1536 77.7125 51.5887C77.4078 52.015 77.2162 52.3109 77.1293 52.4674C76.9902 52.6677 76.6769 53.1201 76.1893 53.825C75.6934 54.5386 75.0842 55.2873 74.3532 56.0878C73.6222 56.8883 72.8044 57.5671 71.9079 58.1416C71.0114 58.7074 70.1065 58.9943 69.184 58.9943C67.4348 58.8378 66.0511 58.3854 65.0155 57.6193C63.9886 56.8536 63.2577 55.9574 62.8053 54.9305C62.3612 53.9123 62.1091 53.1027 62.0391 52.5026C61.9783 51.902 61.9088 50.9273 61.8305 49.587L61.6128 38.3694C61.6128 36.7684 61.6737 35.4108 61.8044 34.3056C61.9261 33.2001 62.1612 31.5644 62.518 29.4059C62.8748 27.2478 63.1182 25.7511 63.2316 24.898C63.4402 23.732 63.684 22.4353 63.9712 21.0168C64.2498 19.5897 64.3976 18.8149 64.3976 18.6758ZM67.835 41.4501C67.8959 41.3718 68.131 41.0498 68.5399 40.4931C68.9402 39.9273 69.3843 39.1094 69.8541 38.0213C70.3239 36.9422 70.7419 35.4803 71.1073 33.6355C71.4641 31.7904 71.6467 29.6583 71.6467 27.2478V25.0023C71.6467 23.5926 71.2638 22.653 70.4981 22.1828C70.0891 22.1828 69.7237 22.8268 69.4016 24.1062C69.0796 25.3856 68.8098 26.8649 68.5921 28.5358C68.3748 30.2154 68.1571 32.1385 67.9394 34.297C67.9046 34.7667 67.8698 35.4629 67.835 36.3768C67.8003 37.2903 67.7655 37.9952 67.7307 38.4741C67.8003 39.1094 67.835 40.0925 67.835 41.4501Z" fill="#FEFEFE"/>
<path d="M77.0249 57.2103L77.9645 35.9153C78.017 35.3499 78.1822 34.7407 78.4608 34.0879C78.7393 33.4265 78.9392 33.0958 79.0613 33.0958H79.1656C79.3395 33.0958 79.6007 33.1567 79.9488 33.2874C80.3055 33.4178 80.5145 33.5048 80.5667 33.5656C80.7058 33.5656 80.9148 33.5482 81.1933 33.5134C81.4719 33.4874 81.6892 33.47 81.8287 33.47H82.4553C82.9164 33.6355 83.3601 33.9749 83.7778 34.4882C84.2045 34.9931 84.5178 35.4021 84.7004 35.7067C84.0042 38.0651 83.6561 41.2328 83.6561 45.2096C83.7517 45.114 83.9173 44.9401 84.1694 44.6876C84.4131 44.4265 84.6917 44.0349 84.9963 43.4952C85.3096 42.9558 85.6143 42.1988 85.9015 41.2414C86.5191 39.4311 86.8672 37.7953 86.9458 36.333C86.9458 36.22 87.4069 35.9066 88.3208 35.3934C89.243 34.8711 89.9653 34.6099 90.505 34.6099C91.0795 34.6099 91.7144 34.8797 92.4106 35.4108C93.1072 35.9414 93.5509 36.4551 93.7421 36.9596C93.5943 37.7257 93.4027 38.8396 93.168 40.3015C92.9242 41.7721 92.7852 42.9385 92.7413 43.8085C92.8634 44.4612 92.9677 44.7832 93.0546 44.7832C93.7247 44.7832 94.5778 42.7816 95.6134 38.7874C96.6924 34.523 97.2322 32.1819 97.2322 31.7382C97.7628 31.6339 98.4851 31.5031 99.399 31.3466C100.312 31.1898 101.053 31.1116 101.618 31.1116H102.14C102.688 31.3206 103.289 31.982 103.959 33.0958C104.629 34.2009 104.96 34.845 104.96 35.0279C104.673 35.5064 104.272 36.3942 103.768 37.6819C103.263 38.97 102.88 40.5192 102.61 42.3379C102.314 44.4873 102.123 46.3672 102.045 47.9769C102.045 50.2571 102.645 51.4492 103.863 51.5278C104.081 51.4579 104.298 51.4318 104.542 51.4318C105.108 51.2666 105.63 50.9446 106.091 50.4575C106.561 49.9786 106.961 49.474 107.283 48.9517C107.605 48.4384 107.823 48.0729 107.945 47.8726C108.084 47.5941 108.258 47.455 108.467 47.455C108.702 47.455 108.824 47.6549 108.824 48.0729V49.3867C108.824 50.2484 108.771 50.8664 108.676 51.258C108.58 51.6408 108.293 52.0845 107.831 52.5721C105.43 55.5655 103.158 57.0626 100.991 57.0626C99.2334 57.0191 98.0501 56.3229 97.4321 54.9827C96.8141 53.6338 96.5095 51.9455 96.5095 49.909C96.5095 48.8821 96.4921 48.0204 96.466 47.3155C96.4313 46.6193 96.4052 46.0887 96.3965 45.7319C96.3965 45.7145 96.2227 45.9579 95.8746 46.4716C95.5352 46.9761 95.1697 47.681 94.7777 48.5688C94.3949 49.4566 94.0467 50.5791 93.7421 51.9454C93.5509 53.0071 93.3767 54.3647 93.2115 56.0444C93.046 57.7153 92.959 58.5592 92.9503 58.5766C92.846 58.6636 92.6631 58.7683 92.4106 58.8987C92.1498 59.0294 91.8365 59.099 91.4797 59.099C91.4102 59.099 91.3142 59.0816 91.2185 59.0468C91.1142 59.0117 91.0534 58.9943 91.0269 58.9943C90.0439 58.4202 89.1473 57.8109 88.3295 57.1843C87.5112 56.5489 87.0675 56.1574 86.9979 56.0183C86.9979 56.053 86.9892 55.5394 86.9719 54.469C86.9545 53.3987 86.9458 52.5634 86.9458 51.9454C86.9719 50.9446 87.0762 49.8569 87.2678 48.6905C87.4503 47.5158 87.6072 46.6367 87.7202 46.0452C87.6333 46.0452 87.4069 46.2278 87.0501 46.5933C86.6933 46.9587 86.2583 47.6462 85.7534 48.6384C85.2488 49.6392 84.7525 50.9881 84.2827 52.6764C84.1694 53.1288 83.9346 53.9732 83.5692 55.2C83.2124 56.4185 83.0294 57.0625 83.0294 57.106C83.0294 57.0973 83.0816 57.2364 83.1863 57.515C83.2819 57.7935 83.3341 58.046 83.3341 58.2546C83.3341 58.6462 83.1251 58.9595 82.6987 59.2033C82.2724 59.4471 81.8461 59.5688 81.4107 59.5688C80.8192 59.5688 80.1838 59.4036 79.5137 59.0729C78.8523 58.7422 78.2691 58.3767 77.7732 57.9674C77.277 57.5671 77.0249 57.315 77.0249 57.2103Z" fill="#FEFEFE"/>
<path d="M123.017 40.7191C122.626 39.6922 122.373 38.1608 122.243 36.1156C122.382 33.6877 122.521 32.0515 122.66 31.2076C122.878 30.2763 123.661 29.7366 125.01 29.5888C125.706 29.5888 126.35 29.7018 126.942 29.9282C127.534 30.1542 127.83 30.5114 127.83 31.0072V31.3206L126.829 34.1922C126.829 34.3317 126.794 34.4708 126.733 34.6099C126.812 35.1322 127.499 35.3934 128.77 35.3934C129.135 35.3673 129.439 35.2365 129.683 35.0105C129.936 34.7754 130.188 34.4534 130.449 34.0271C130.719 33.6008 130.936 33.2874 131.128 33.0871C131.311 32.8781 131.537 32.7825 131.807 32.7825C132.251 32.7825 132.642 32.9219 132.973 33.2088C133.304 33.4874 133.695 33.8876 134.148 34.4013C134.278 34.4882 134.417 34.5577 134.565 34.5925C134.722 34.6186 134.896 34.645 135.088 34.6537C135.279 34.6624 135.453 34.6798 135.609 34.7146C136.001 34.7146 136.35 34.8015 136.662 34.9844C136.967 35.1583 137.115 35.4368 137.115 35.811C137.115 36.1765 136.871 36.7075 136.367 37.4124C135.862 38.1173 135.575 38.674 135.496 39.1007C134.661 43.9914 134.208 47.246 134.148 48.8647C134.261 51.2666 134.835 52.4761 135.871 52.4761C136.68 52.4065 137.411 52.0758 138.081 51.493C138.743 50.9012 139.413 50.1528 140.091 49.2389C140.761 48.3163 141.136 47.8292 141.205 47.7683C141.414 47.5593 141.554 47.455 141.623 47.455C141.832 47.455 141.928 47.7335 141.928 48.2903V51.3188C141.928 51.4492 141.893 51.5887 141.823 51.7364C141.753 51.8846 141.667 52.015 141.562 52.1367C141.458 52.2588 141.345 52.4065 141.205 52.5808C140.588 53.3639 140.126 53.9384 139.822 54.3039C139.517 54.678 139.003 55.2087 138.273 55.8962C137.542 56.5837 136.741 57.1669 135.879 57.6457C135.027 58.1242 134.182 58.368 133.356 58.368C132.024 58.2807 130.936 57.8717 130.092 57.1321C129.239 56.3924 128.63 55.4351 128.247 54.2778C127.864 53.1114 127.673 51.815 127.673 50.3875C127.673 49.8569 127.69 49.4566 127.725 49.1781C127.778 48.2381 127.917 47.1243 128.143 45.8275C128.378 44.5308 128.604 43.3474 128.839 42.2857C129.074 41.2241 129.187 40.7017 129.187 40.7191C128.891 40.4406 128.509 40.3015 128.038 40.3015C127.281 40.3015 126.742 40.6322 126.446 41.3023C126.141 41.9637 125.924 42.895 125.776 44.087C125.636 45.2704 125.506 46.0452 125.376 46.402C124.888 47.7335 124.384 48.8647 123.879 49.796C123.374 50.7269 122.687 51.6234 121.825 52.4761C121.738 52.5547 121.616 52.6329 121.468 52.6938C121.312 52.7633 121.225 52.8068 121.198 52.8329C120.815 52.7546 120.624 52.4239 120.624 51.8324C120.937 49.996 121.303 48.6123 121.72 47.6636C122.008 47.0721 122.19 46.3499 122.278 45.4881C122.356 44.6268 122.434 43.7563 122.512 42.8598C122.591 41.9724 122.756 41.2588 123.017 40.7191Z" fill="#FEFEFE"/>
<path d="M159.472 36.333V36.8553C159.472 37.3425 159.358 38.0561 159.132 38.996C158.897 39.9447 158.776 40.5192 158.75 40.7191L157.601 47.1417C157.601 47.4724 157.531 48.0469 157.383 48.8648C157.47 50.118 157.957 51.075 158.845 51.7364C158.984 51.7364 159.089 51.7712 159.158 51.8324C159.637 51.7973 160.194 51.4231 160.829 50.7356C161.456 50.0394 162.257 49.0212 163.231 47.6636C163.44 47.455 163.614 47.3507 163.753 47.3507C164.136 47.3507 164.328 47.5593 164.328 47.9769C164.397 48.6384 164.432 49.5088 164.432 50.5878C164.432 50.7617 164.032 51.397 163.231 52.4761C162.361 53.6946 161.238 54.7128 159.863 55.5307C158.488 56.3403 157.157 56.7405 155.869 56.7405C155.129 56.6623 154.52 56.4185 154.041 56.027C153.554 55.6354 152.91 55.0261 152.109 54.1905C151.996 54.3039 151.709 54.6954 151.231 55.3568C150.76 56.0183 150.291 56.6275 149.803 57.1843C149.325 57.7414 148.777 58.2285 148.159 58.6375C147.532 59.0468 146.888 59.2554 146.218 59.2554C142.519 58.8813 140.674 55.522 140.674 49.1694C140.866 45.9058 141.336 42.9906 142.101 40.4232C142.867 37.8474 143.938 35.811 145.322 34.3056C146.705 32.7999 148.358 32.0515 150.282 32.0515C150.926 32.0515 151.413 32.1993 151.761 32.4952C152.109 32.7825 152.632 33.3135 153.319 34.0879C153.502 34.1488 154.18 34.2883 155.356 34.4882C156.53 34.6972 157.488 34.9406 158.227 35.2105C158.967 35.489 159.385 35.8545 159.472 36.333ZM151.805 46.402L152.745 37.3776C152.745 37.1599 152.649 36.9335 152.466 36.6901C152.284 36.4551 152.031 36.333 151.7 36.333C150.465 36.333 149.351 38.8917 148.358 44.0088C147.741 46.8631 147.393 49.0564 147.314 50.5878C147.428 52.1106 147.81 52.9637 148.463 53.1462C149.298 53.1462 150.012 52.4326 150.613 50.9968C151.222 49.5696 151.613 48.0382 151.805 46.402Z" fill="#FEFEFE"/>
<path d="M174.466 32.9915L175.241 22.3397C175.241 22.148 175.084 21.8869 174.771 21.5475C174.458 21.2081 174.283 20.9038 174.249 20.6166C175.241 18.528 177.242 17.4837 180.254 17.4837C181.028 17.4837 181.715 17.8057 182.299 18.4494C182.89 19.0847 183.23 19.8418 183.334 20.7209C183.334 21.1559 183.134 21.6869 182.734 22.3223C182.333 22.9576 182.116 23.4796 182.081 23.9059L180.149 42.5469C180.114 42.8425 180.079 43.3126 180.045 43.9567C180.01 44.6007 179.975 45.0879 179.94 45.4273C180.071 48.8039 180.784 50.5618 182.081 50.6835C182.829 50.6835 184.169 49.6826 186.102 47.6636C186.232 47.3855 186.424 47.246 186.676 47.246C186.954 47.246 187.093 47.4202 187.093 47.7683C187.093 48.5688 187.059 49.2128 186.989 49.6913C187.059 49.8395 187.093 50.1354 187.093 50.5878C187.093 51.1189 186.763 51.7451 186.102 52.4761C183.325 55.0174 180.941 56.3403 178.948 56.4446C178.104 56.4446 177.277 56.0443 176.477 55.2525C175.676 54.4603 175.075 53.7642 174.666 53.1462C172.891 56.6275 170.907 58.368 168.714 58.368C167.6 58.368 166.599 57.9413 165.711 57.0973C164.824 56.253 164.136 55.1218 163.649 53.712C163.162 52.3022 162.918 50.753 162.918 49.0738C162.918 46.837 163.17 44.3917 163.684 41.7286C164.189 39.0656 165.05 36.7684 166.26 34.845C167.461 32.9133 169.027 31.9472 170.959 31.9472C171.638 31.9472 172.212 32.0254 172.665 32.1906C173.126 32.3475 173.727 32.6173 174.466 32.9915ZM173.1 47.8726L174.466 36.8553C174.397 36.7597 174.266 36.6289 174.075 36.4724C173.883 36.3069 173.631 36.2287 173.317 36.2287C172.735 36.2287 172.125 36.8901 171.499 38.2042C170.881 39.5271 170.367 41.8242 169.967 45.1053C169.941 45.5403 169.854 46.3759 169.715 47.6115C169.575 48.8474 169.488 49.7873 169.445 50.4314C169.575 51.9281 169.923 52.6764 170.489 52.6764C171.525 52.6764 172.195 52.2675 172.491 51.4492C172.787 50.6226 172.987 49.4305 173.1 47.8726Z" fill="#FEFEFE"/>
<path d="M204.377 47.6636C204.377 47.6115 204.473 47.5071 204.664 47.3594C204.847 47.2199 205.012 47.1417 205.16 47.1417C205.369 47.1417 205.473 47.3155 205.473 47.6636C205.473 48.1077 205.456 48.6384 205.43 49.265C205.395 49.883 205.377 50.3875 205.377 50.7881C205.377 50.9968 205.073 51.5191 204.481 52.3631C203.898 53.068 203.063 53.9297 201.984 54.9566C200.904 55.9748 199.591 56.9492 198.033 57.8717C196.475 58.7943 194.952 59.2554 193.464 59.2554C191.645 59.125 190.174 58.6288 189.043 57.7674C187.912 56.9057 187.085 55.6875 186.572 54.1035C186.049 52.5199 185.797 50.6052 185.797 48.3424C185.797 46.6632 185.893 44.8962 186.101 43.0602C186.276 41.4675 186.615 39.5444 187.111 37.2903C187.607 35.0366 187.921 33.792 188.034 33.5656L190.905 32.9915C191.192 32.9132 191.654 32.7738 192.272 32.5561C192.898 32.3388 193.403 32.1819 193.777 32.0863C194.151 31.9907 194.587 31.9472 195.082 31.9472C196.327 32.0081 197.467 32.3822 198.494 33.0871C199.529 33.792 200.339 34.7146 200.93 35.8632C201.522 37.0205 201.818 38.2824 201.818 39.6748C201.723 43.4778 200.87 46.08 199.26 47.4811C197.65 48.8821 195.805 49.6218 193.725 49.6913C193.281 49.6479 192.846 49.587 192.42 49.5001C192.002 49.4218 191.793 49.378 191.802 49.378C191.854 49.9351 191.923 50.5096 191.993 51.1011C192.054 51.7017 192.193 52.2153 192.394 52.6416C192.602 53.0767 192.942 53.4247 193.412 53.6946C193.882 53.9558 194.543 54.0862 195.396 54.0862C196.457 54.0862 197.58 53.7294 198.764 53.0158C199.947 52.3022 201.044 51.4492 202.036 50.4574C203.028 49.4653 203.811 48.534 204.377 47.6636ZM195.396 45.0009C195.613 44.6181 195.84 43.765 196.057 42.4422C196.275 41.1194 196.388 39.8317 196.388 38.5784C196.388 36.3855 196.057 35.2365 195.396 35.1322C194.769 35.1322 194.212 35.8806 193.716 37.3686C193.22 38.8569 192.829 40.4931 192.541 42.2857C192.245 44.0697 192.072 45.4099 192.002 46.306C192.08 46.3759 192.228 46.4281 192.463 46.4455C192.689 46.4715 192.855 46.4976 192.942 46.5237C194.003 46.3412 194.813 45.8362 195.396 45.0009Z" fill="#CCCCCC"/>
<path d="M113.41 58.159C112.052 57.8457 110.765 56.8449 109.546 55.1739C108.336 53.4943 107.727 51.6321 107.727 49.5957C107.936 47.7422 108.214 45.6711 108.545 43.3735C108.885 41.0846 109.076 39.8838 109.128 39.7791C108.902 39.6922 108.623 39.4923 108.319 39.1877C108.006 38.883 107.806 38.5088 107.727 38.0561C107.727 37.8996 107.814 37.6471 107.988 37.3077C108.162 36.9683 108.249 36.6811 108.249 36.4377V36.1243C107.832 35.1496 107.623 34.3056 107.623 33.5743C107.623 33.1219 107.727 32.8955 107.927 32.8955H109.45C110.007 31.155 110.286 29.1273 110.286 26.8301C110.286 25.7771 110.181 24.6368 109.972 23.3839C110.059 23.2271 110.338 22.8964 110.799 22.3744C111.26 21.8608 111.765 21.3736 112.313 20.9212C112.87 20.4684 113.34 20.2337 113.732 20.1985C114.428 20.1985 115.368 20.5644 116.543 21.2954C117.718 22.035 118.344 22.5222 118.423 22.7573C118.214 22.975 117.709 24.0367 116.917 25.9423C116.456 27.1087 116.09 28.4923 115.812 30.0934C115.542 31.686 115.403 32.739 115.403 33.2523H118.222C118.918 33.2523 119.267 33.8789 119.267 35.1409C119.267 35.4542 119.18 35.8023 118.997 36.1939C118.814 36.5768 118.666 36.8379 118.536 36.9596C118.727 36.9596 118.945 37.299 119.206 37.9604C119.458 38.6219 119.58 39.0743 119.58 39.3094C119.441 39.6314 119.049 39.8665 118.423 39.9968C118.222 39.9186 117.979 39.8838 117.7 39.8838H115.194C115.159 39.9621 114.872 42.6947 114.358 48.0816C114.358 51.1797 115.142 52.7286 116.699 52.7286C117.126 52.7286 117.57 52.546 118.04 52.1718C118.509 51.8064 118.962 51.3449 119.397 50.8055C119.841 50.2571 120.25 49.7 120.633 49.1346C121.016 48.5688 121.338 48.0816 121.608 47.6723C121.756 47.3855 121.947 47.246 122.182 47.246C122.399 47.246 122.504 47.5245 122.504 48.0816C122.504 49.5349 122.295 50.7704 121.877 51.8064C121.46 52.842 120.764 53.8949 119.789 54.974C118.745 56.2269 117.918 57.0886 117.317 57.5584C116.726 58.0286 115.873 58.2633 114.776 58.2633C114.637 58.2633 114.419 58.2459 114.123 58.2111C113.827 58.1764 113.593 58.159 113.41 58.159Z" fill="#E31E24"/>
<path fill-rule="evenodd" clip-rule="evenodd" d="M7.47949 14.0043L12.5898 14.6101L18.7988 13.3432L24.3487 11.1398L29.1838 7.61423L29.239 10.8094L29.9533 23.424L30.942 32.6234L33.415 45.6238L35.338 52.8952L36.7667 56.7511L35.5579 58.2384L31.7115 60.0011L27.1508 60.9929L24.843 60.5522L23.9639 59.3401L21.2713 49.6448L17.6997 37.7465L11.3259 22.1019L7.47949 14.0043Z" fill="url(#paint0_linear_168_563)"/>
<path fill-rule="evenodd" clip-rule="evenodd" d="M16.6271 5.70785C23.1732 3.84606 28.9695 4.05658 29.5727 6.17765C30.1763 8.29909 25.3582 11.5283 18.8117 13.3901C12.2655 15.2519 6.46921 15.0414 5.86599 12.9203C5.2624 10.7989 10.0805 7.56965 16.6271 5.70785Z" fill="#CCCCCC"/>
<path d="M119.554 51.7905C128.866 27.7043 122.182 17.0355 109.896 12.2857C96.5796 7.13726 81.4098 9.28327 67.574 9.28327C54.0063 9.37814 44.689 12.7737 38.4611 16.625C37.0003 16.7826 35.5263 16.8979 33.6868 16.8484C32.5518 16.7698 30.5966 16.6333 28.959 16.4818L29.5633 16.5347L29.239 10.8094L29.1865 7.7692C29.5667 7.20113 29.71 6.66028 29.5728 6.17802C29.4004 5.57178 28.8036 5.12277 27.8867 4.8325C34.7133 5.54343 53.5108 7.31301 68.6312 6.96189L71.1143 6.90142C83.9379 6.58318 99.3769 6.19919 110.575 10.529C123.853 15.6624 131.502 26.7557 121.667 52.1941L119.554 51.7905ZM29.9931 23.7929H30.0324L29.9976 23.8348L29.9931 23.7929Z" fill="#E31E24"/>
<path fill-rule="evenodd" clip-rule="evenodd" d="M17.2977 8.06777C19.8224 7.34966 22.0576 7.43092 22.29 8.24881C22.5229 9.06708 20.6649 10.3124 18.1405 11.0302C15.6158 11.7483 13.3806 11.667 13.1481 10.8491C12.9153 10.0309 14.7733 8.7855 17.2977 8.06777Z" fill="#E31E24"/>
<path d="M6.53939 12.7109L7.27791 13.3077C8.29763 14.0047 10.6625 14.1815 13.6324 13.8221C14.405 13.7288 15.2074 13.5987 16.0241 13.4332C16.8435 13.2669 17.6981 13.0602 18.5738 12.8137L18.6426 12.7941V12.7937C23.0827 11.5313 26.6608 9.62306 28.0944 7.92454C28.3488 7.62369 28.5283 7.33568 28.6235 7.06998L28.622 7.06923C28.684 6.89575 28.7097 6.73096 28.6972 6.58091L28.8866 6.52573L28.887 6.36321L29.435 6.36548L29.6092 6.31445L29.6195 6.36623L29.5533 6.36699C29.517 14.5081 30.152 22.8276 31.2514 31.2276C32.3418 39.5565 34.1609 47.9701 37.0443 56.3754L37.0678 56.3686L37.0689 56.3724L37.0708 56.3781C37.0855 56.4325 37.0954 56.4869 37.1018 56.5421L37.1055 56.5531L37.1029 56.5538C37.1815 57.2844 36.5575 58.0966 35.4513 58.8378C34.3904 59.5491 32.854 60.2404 31.0935 60.7434L31.0931 60.7423L31.0708 60.7487L31.067 60.7506L30.9963 60.7706C29.2513 61.2601 27.5993 61.4763 26.3354 61.4306C25.0315 61.3837 24.0832 61.0348 23.7476 60.3976L23.7415 60.3991L23.734 60.3708C23.7109 60.3235 23.6909 60.2751 23.6742 60.2249L23.6727 60.2154L23.6648 60.1901L23.6837 60.1856L23.0623 57.8956V57.8937C19.0572 43.1089 15.077 28.4175 6.50536 13.8508C6.27632 13.6645 6.09833 13.454 5.97852 13.22L6.16447 13.1656L6.53939 12.7109ZM36.1686 56.7326C33.2569 48.2578 31.4193 39.764 30.3179 31.3493C29.3065 23.6205 28.7535 16.0154 28.7229 8.50016L28.814 8.5338C27.2701 10.3631 23.5151 12.3897 18.9011 13.7015H18.8992L18.8285 13.7216C17.9452 13.9699 17.0669 14.1819 16.2086 14.3562C15.3472 14.5308 14.521 14.6657 13.7428 14.7594C11.4305 15.0391 9.42695 14.9707 8.01038 14.5705C16.1719 28.8548 20.0614 43.2079 23.9736 57.6484H23.974L24.6161 60.0162C24.8088 60.2956 25.451 60.4562 26.3687 60.4894C27.5399 60.5318 29.0888 60.3262 30.7416 59.8628L30.8123 59.8428L30.8126 59.8435L30.833 59.8375L30.8349 59.8356C32.5043 59.3586 33.9462 58.7131 34.9274 58.0554C35.6897 57.5448 36.1505 57.0705 36.1686 56.7326Z" fill="#CCCCCC"/>
<path fill-rule="evenodd" clip-rule="evenodd" d="M28.9463 16.4787C28.4028 16.4288 27.8956 16.3782 27.4644 16.326C27.4644 17.1617 27.4644 17.788 27.4644 18.5715C27.4644 20.1898 27.7864 22.1741 28.0998 23.7929H29.4732C29.7042 26.2991 29.9869 28.8181 30.3179 31.3493C30.409 32.0462 30.5046 32.7436 30.6063 33.4416C27.3812 37.2261 22.5574 37.5235 18.1641 37.7371C17.7347 37.714 17.7079 37.7654 17.1368 37.6853C14.5445 30.2865 10.5571 21.131 6.44948 13.8448C6.34857 13.6653 8.11322 14.7507 8.01042 14.5705C9.42699 14.9707 11.4305 15.0391 13.7428 14.7594C14.521 14.6657 15.3472 14.5308 16.2086 14.3562C17.0669 14.1819 17.9453 13.9699 18.8285 13.7216L18.8992 13.7015H18.9011C23.5152 12.3897 27.2701 10.3631 28.8141 8.53379L28.723 8.50015C28.7339 11.1485 28.8088 13.8066 28.9463 16.4787Z" fill="url(#paint1_linear_168_563)"/>
<path d="M27.4731 16.3347C28.8394 16.5003 30.9106 16.6741 33.678 16.8571C35.1225 16.8571 36.863 16.7524 38.8994 16.5437C40.9358 16.326 42.5459 16.1957 43.7119 16.1348L46.6357 15.9171H46.836C47.3058 15.9171 47.776 15.9953 48.2632 16.1435C48.742 16.3 48.9767 16.5351 48.9767 16.8571C48.9767 16.9701 48.9594 17.1269 48.9246 17.3356C48.8985 17.5359 48.8811 17.6924 48.8811 17.8057C48.9159 17.9622 49.0376 18.1451 49.2466 18.3364C49.4643 18.5367 49.586 18.7192 49.6208 18.9022C49.6208 19.1195 49.5078 19.3807 49.2988 19.694C49.0901 20.0073 48.9767 20.2424 48.9767 20.4163C48.9767 20.7122 49.1162 21.0516 49.377 21.4258C49.6469 21.8086 49.795 22.0785 49.8211 22.235C49.8211 22.444 49.5773 22.7573 49.0814 23.1923C48.5852 23.6273 48.1241 23.8624 47.6804 23.9059C47.3323 23.5578 46.2702 23.3839 44.495 23.3839C44.0773 23.3839 43.2508 23.4883 42.0149 23.6973C40.779 23.9059 39.7785 24.0801 39.0124 24.2279C38.8733 26.5429 38.4557 30.1107 37.7595 34.9232H37.8638C38.8299 34.8884 40.0045 34.845 41.3708 34.7928C42.7458 34.7407 44.3124 34.6099 46.0616 34.4013H46.5314C47.0711 34.4013 47.5061 34.5577 47.8455 34.8884C48.1849 35.2192 48.3588 35.6281 48.3588 36.1157C48.3588 36.5246 48.2197 37.0556 47.9498 37.7167C47.6891 38.3781 47.5235 38.8396 47.4713 39.1007C47.4713 39.3789 47.6365 39.7444 47.9672 40.2059C48.2892 40.6583 48.4548 41.0759 48.4548 41.4501C48.4548 41.6243 48.42 41.746 48.3327 41.8069C48.2545 41.8768 48.1154 41.9203 47.9238 41.9463C47.7325 41.9724 47.5844 41.9985 47.4713 42.0246C47.2884 42.0246 46.9143 42.0072 46.3662 41.9724C45.8178 41.9376 45.3654 41.9202 45.0173 41.9202C44.3733 41.9202 43.6249 41.9463 42.7806 41.9985C41.9279 42.0593 41.1535 42.1202 40.4309 42.1901C39.7173 42.2683 38.8559 42.3466 37.8638 42.4422C37.8638 43.2079 37.829 43.9914 37.7595 44.7832C37.829 46.2886 37.8638 49.152 37.8638 53.3552C37.8986 54.0775 37.9942 54.6954 38.151 55.2087C38.3075 55.7136 38.473 56.1139 38.6556 56.4011C38.8385 56.6971 38.9602 56.8796 39.0124 56.9669C37.7943 58.1764 36.6627 58.8204 35.6184 58.8899C34.7831 58.8899 33.9913 58.6375 33.2252 58.1329C32.4681 57.628 31.8328 57.0712 31.3196 56.4707C30.8059 55.8788 30.5451 55.5133 30.5451 55.4003C31.2065 43.53 31.5372 33.0002 31.5372 23.8016H28.0998C27.6818 21.6869 27.4731 19.9465 27.4731 18.5802V16.3347Z" fill="#FEFEFE"/>
<defs>
<linearGradient id="paint0_linear_168_563" x1="7.47949" y1="34.3034" x2="36.7663" y2="34.3034" gradientUnits="userSpaceOnUse">
<stop stop-color="#CCCCCC"/>
<stop offset="1" stop-color="#FEFEFE"/>
</linearGradient>
<linearGradient id="paint1_linear_168_563" x1="7.43518" y1="37.2533" x2="31.182" y2="8.98395" gradientUnits="userSpaceOnUse">
<stop stop-color="#E31E24"/>
<stop offset="1" stop-color="#C3292B"/>
</linearGradient>
</defs>
</svg>
